<svg width="91" height="92" viewBox="0 0 91 92" fill="none" xmlns="http://www.w3.org/2000/svg">
<path d="M48.3636 1.33664L48.4049 1.33664L48.446 1.33392C72.453 -0.252139 89.222 21.0405 89.25 45.4264C89.2496 56.3101 84.6431 67.6687 77.131 76.3062C69.6223 84.9399 59.3079 90.75 47.9545 90.75C36.5926 90.75 25.0325 84.6223 16.2755 75.6359C7.51633 66.6473 1.75 54.991 1.75 44.1886C1.75 33.4164 7.59021 22.7039 16.427 14.6473C25.259 6.59505 36.9356 1.33664 48.3636 1.33664Z" fill="#E6FCFF" stroke="#191715" stroke-width="2.5"/>
<path d="M57.4648 37.0987C57.3862 37.4121 57.1218 37.6479 56.7997 37.6729C51.5811 38.0783 47.9754 34.677 46.5723 33.0609C46.1711 32.5989 46.2289 31.9247 46.6578 31.4883C47.2758 30.8594 48.3396 31.0287 48.8866 31.7202C49.8454 32.9322 51.1571 33.9636 52.7283 34.7264C54.3886 35.4575 55.6249 35.7336 56.46 35.8235C57.0549 35.8876 57.6104 36.5182 57.4648 37.0987Z" fill="#74C6DA"/>
<path d="M28.3011 59.1112C28.3913 58.8367 29.975 56.6071 30.2316 56.4744C30.3189 56.4292 30.3986 56.3899 30.4661 56.3579C32.1463 55.7216 34.1515 55.9047 35.5948 56.8264C40.2009 60.0193 30.9588 60.8002 33.0416 63.7675C34.5601 65.9501 28.5088 64.7806 28.2173 62.1377C28.0856 60.9439 28.0675 59.822 28.3011 59.1112Z" fill="#74C6DA"/>
<path d="M58.5778 31.6825C58.6017 31.6892 58.6271 31.6787 58.6392 31.6569C59.0984 30.8278 59.488 29.9765 59.8056 29.1084C60.1016 28.3152 60.2499 27.4932 60.2461 26.6675C60.2461 26.6406 60.245 26.6147 60.2432 26.5895C60.2229 26.3051 60.1559 26.0208 60.0296 25.7651C59.9814 25.6585 59.9107 25.5589 59.8205 25.4701C59.7267 25.3619 59.6136 25.2646 59.4846 25.1809C58.9396 24.8192 58.1992 24.6893 57.5063 24.8339C56.2297 25.0305 54.8113 25.823 53.4899 26.6501C51.0713 28.2433 48.8993 30.0485 47.0174 32.0295C45.1546 34.0493 43.599 36.229 42.3814 38.5252C41.2565 40.5967 40.3039 42.722 39.5296 44.8879C39.0071 46.2645 38.6338 47.6759 38.1485 49.0699L36.6555 53.2288C36.3643 54.079 35.9089 53.946 35.5207 53.1131C34.9619 51.8101 34.771 50.4293 34.9608 49.0641C36.2299 43.1121 38.4696 37.1832 43.001 31.908C44.4269 30.3289 45.8752 28.8655 47.5027 27.4368C49.0855 25.9021 50.9287 24.5401 52.9822 23.3878C54.2468 22.7049 55.6891 22.2449 57.2076 22.0401C58.1057 21.9488 59.0188 22.014 59.8802 22.2309C60.7227 22.4444 61.4894 22.8068 62.1199 23.2895C62.4459 23.5425 62.7362 23.8217 62.9858 24.1224C63.2118 24.4181 63.3946 24.7324 63.5308 25.0594L63.5434 25.0928C63.6543 25.3863 63.74 25.6886 63.7996 25.9965C63.8535 26.2974 63.8784 26.6009 63.8742 26.9046C63.8467 28.0162 63.6231 29.1196 63.2098 30.1843C62.245 32.6451 60.875 34.9994 59.1337 37.189C56.5806 40.4918 53.4152 43.4187 50.3246 46.2992C47.8983 48.5319 45.5393 50.73 43.001 52.8412C42.4486 53.304 41.9186 53.7725 41.3288 54.2237C40.5511 54.8083 39.6981 55.3297 38.7831 55.7796C38.3114 55.9882 37.7865 56.1146 37.2452 56.1498C37.059 56.1629 36.8716 56.1629 36.6853 56.1498C36.4539 56.1498 36.5062 55.9011 36.76 55.4904C37.1238 54.8716 37.5825 54.289 38.1261 53.7551C38.6487 53.2519 39.1041 52.7082 39.6566 52.2281L41.2691 50.7415L44.5165 47.7742C46.674 45.7382 48.824 43.6674 50.8397 41.533C52.3328 39.9597 53.7362 38.3227 55.08 36.6974C56.4227 35.1206 57.573 33.4505 58.5161 31.7086C58.528 31.6865 58.5537 31.6757 58.5778 31.6825Z" fill="#74C6DA"/>
<path d="M26.2827 63.8794C26.3054 63.8794 26.3239 63.8611 26.3234 63.8385C26.3225 63.7921 26.3187 63.7411 26.3023 63.6978C26.28 63.6389 26.2416 63.581 26.2416 63.518V63.4835C26.2416 63.4698 26.2404 63.4562 26.2382 63.4428L26.1893 63.1506L26.1072 62.5143C26.0624 62.0921 26.0251 61.6641 26.0101 61.236C25.9736 60.3428 26.036 59.4487 26.1968 58.5637C26.275 57.8479 26.4862 57.1446 26.8239 56.4756C27.2174 55.823 27.7671 55.2342 28.4439 54.7403C28.7875 54.4745 29.171 54.2415 29.5861 54.0462C29.9629 53.8924 30.3518 53.7571 30.7507 53.6413C32.3675 53.1378 34.1729 53.1378 35.7898 53.6413C37.1622 54.0698 38.3393 54.8047 39.1716 55.7526C39.5663 56.1884 39.852 56.6759 40.016 57.19C40.119 57.5127 40.1346 57.8547 40.1346 58.1935C40.1183 58.3584 40.0909 58.5225 40.0525 58.6852C39.9943 59.007 39.8839 59.3218 39.724 59.6222C39.5374 59.9982 39.2612 59.8941 38.8506 59.5702C38.6416 59.4082 38.4176 59.1942 38.1414 58.9917C37.864 58.7838 37.6022 58.5636 37.3575 58.3323C37.0792 57.9994 36.7672 57.6841 36.4243 57.3895C36.1086 57.1782 35.7538 57.0046 35.3717 56.8747C35.0482 56.7939 34.7165 56.7346 34.3802 56.6976C34.29 56.6876 34.199 56.6898 34.1082 56.6903C34.0051 56.6909 33.904 56.6664 33.803 56.6457C33.7494 56.6347 33.6948 56.6261 33.6398 56.6202C33.4119 56.5799 33.1792 56.5585 32.9455 56.5566C32.7947 56.5483 32.6432 56.5601 32.4976 56.5913C32.3416 56.6055 32.19 56.6408 32.0496 56.6954C31.9227 56.7474 31.7137 56.8053 31.6465 56.8458C31.551 56.8911 31.4632 56.9455 31.3852 57.0077C31.0011 57.3659 30.705 57.7757 30.5118 58.2167C29.908 59.5732 29.637 61.0054 29.713 62.4392V63.1448V63.5787C29.713 63.8274 29.7652 64.0877 29.8175 64.3537L29.9295 64.8859L29.9958 65.1658C29.9964 65.1681 29.9967 65.1705 29.9967 65.173V65.204L-nan -nanL29.9967 65.204L30.0489 65.1635L30.146 65.0768L31.3703 64.0472L31.9227 63.5613L32.7066 62.9077C33.2794 62.4126 33.9146 61.963 34.6028 61.5657C34.9028 61.3896 35.2226 61.2347 35.5584 61.103C36.1017 60.8691 36.739 60.803 37.3426 60.9179C37.6666 60.9962 37.9083 61.1965 37.9948 61.441C38.0426 61.576 38.0495 61.7233 38.0519 61.8665C38.0547 62.0365 37.9976 62.2022 37.9024 62.3431C37.8755 62.383 37.8466 62.4221 37.816 62.4604C37.6789 62.6318 37.5308 62.7978 37.3623 62.9383C37.2948 62.9947 37.2208 63.0464 37.141 63.0928C36.2697 63.5525 35.4528 64.0713 34.6998 64.643L34.028 65.1404L33.8563 65.2677C33.7965 65.3081 33.7667 65.3428 33.6024 65.4528L32.8559 66.0312C32.3856 66.4187 31.9153 66.7831 31.4524 67.188L30.0862 68.5068C29.3213 69.2019 28.0923 68.8669 27.7812 67.8813C27.7169 67.6775 27.6525 67.4739 27.5881 67.2704C27.5368 67.1083 27.4619 66.9548 27.3717 66.8106C26.8036 65.9014 26.4224 64.9286 26.2426 63.9273C26.2381 63.9023 26.2573 63.8794 26.2827 63.8794Z" fill="#74C6DA"/>
<path d="M52.7022 35.7873C52.7113 35.7843 52.712 35.7716 52.7033 35.7676C51.9172 35.4066 51.1757 34.9902 50.4881 34.5237C50.2492 34.3443 49.9655 34.2171 49.7416 34.032C48.9806 33.3568 48.3518 32.5987 47.8752 31.7819C47.7707 31.6026 47.6811 31.4233 47.5692 31.2498C47.4409 31.085 47.3405 30.9081 47.2705 30.7234C47.1711 30.4881 47.0888 30.2486 47.0242 30.0062C46.9907 29.7571 47.0058 29.5056 47.069 29.26C47.1138 29.1038 47.4796 29.098 47.9051 29.1674C48.6818 29.2328 49.2956 29.815 49.7275 30.4639C49.7405 30.4834 49.7534 30.5031 49.7662 30.5227C50.2034 31.1939 50.531 31.9692 51.1977 32.4132C51.3293 32.5009 51.4688 32.5818 51.6154 32.6553C52.1528 33.0192 52.7354 33.3409 53.3548 33.6155C53.7417 33.7876 54.1462 33.9346 54.5642 34.0551C55.197 34.2396 55.8608 34.3525 56.5351 34.3906C57.0473 34.3883 57.5542 34.3097 58.0282 34.1593C58.1283 34.1304 58.2352 34.1186 58.3417 34.1245C58.7224 34.1245 58.8941 34.2692 59.1405 34.703C59.1927 34.8013 59.2599 34.8996 59.3047 34.998C59.4773 35.3157 59.3692 35.6834 59.036 35.9119C58.5587 36.2871 57.928 36.5222 57.2518 36.5771C56.6096 36.6638 55.9529 36.6638 55.3108 36.5771C54.4016 36.4089 53.5246 36.15 52.7015 35.8071C52.6925 35.8033 52.693 35.7904 52.7022 35.7873Z" fill="#74C6DA"/>
</svg>
