<svg width="91" height="92" viewBox="0 0 91 92" fill="none" xmlns="http://www.w3.org/2000/svg">
<path d="M48.3636 1.33664L48.4049 1.33664L48.446 1.33392C72.453 -0.252139 89.222 21.0405 89.25 45.4264C89.2496 56.3101 84.6431 67.6687 77.131 76.3062C69.6223 84.9399 59.3079 90.75 47.9545 90.75C36.5926 90.75 25.0325 84.6223 16.2755 75.6359C7.51633 66.6473 1.75 54.991 1.75 44.1886C1.75 33.4164 7.59021 22.7039 16.427 14.6473C25.259 6.59505 36.9356 1.33664 48.3636 1.33664Z" fill="#E9FBF2" stroke="#191715" stroke-width="2.5"/>
<path d="M38.0602 37.977C38.0718 37.9952 38.0975 37.9974 38.1121 37.9815C39.3245 36.6554 40.654 35.5154 42.0734 34.5849C42.5769 34.2216 43.0643 33.8513 43.5784 33.5222C44.4836 32.9737 45.3995 32.4664 46.3207 31.9796L49.0951 30.6083C49.9092 30.2038 50.7019 29.7513 51.4999 29.3056C52.5336 28.7777 53.5727 28.2703 54.6278 27.7904C54.9545 27.6464 54.9384 27.7355 54.7242 28.0235C54.3761 28.5039 53.9942 28.9423 53.5834 29.3331C53.1067 29.7581 52.63 30.1695 52.148 30.574C51.6659 30.9786 51.1411 31.2597 50.6322 31.5888C49.6146 32.2401 48.5809 32.8435 47.5419 33.4057C46.2826 34.1226 45.0607 34.9425 43.8837 35.8602C42.5819 36.7926 41.3391 37.854 40.1667 39.0347C39.8078 39.3943 39.4645 39.7788 39.1384 40.1865L38.6563 40.7899L38.2171 41.4412C37.9967 41.7513 37.8011 42.089 37.6333 42.4491C37.4559 42.8046 37.2984 43.1757 37.162 43.5598C36.8844 44.3664 36.6657 45.2042 36.5086 46.0623C36.2923 47.3956 36.1545 48.7478 36.0962 50.1075C36.0962 50.4092 36.0962 50.6972 36.0694 50.992C35.9569 52.089 35.8391 52.4249 35.4856 52.6923C35.4099 52.7578 35.3313 52.8173 35.2499 52.8706C34.9982 53.0077 34.7143 52.5346 34.5644 51.6433C34.1752 48.8847 34.3731 46.0428 35.1375 43.4158C35.4221 42.3301 35.8241 41.3008 36.3318 40.3579C36.605 39.9191 36.8674 39.5077 37.1513 39.0895L38.0066 37.9747C38.0204 37.9567 38.048 37.9579 38.0602 37.977Z" fill="#ADC07A"/>
<path d="M43.9068 50.4351C43.8778 50.4032 43.8273 50.404 43.7993 50.4369C42.433 52.0459 41.1415 53.7559 39.9315 55.5583C39.4762 56.2439 39.1174 56.9775 38.6782 57.6563C37.1003 60.0683 35.6236 62.5858 34.2542 65.1982C33.663 66.3748 33.1264 67.5951 32.6474 68.8526C32.0965 70.5098 31.376 72.0661 30.505 73.4805C30.2104 73.9193 29.7552 73.5423 29.4338 72.7949C29.0147 71.9211 28.8928 70.8659 29.0964 69.8742L29.482 68.5578C29.6261 68.1282 29.7888 67.7094 29.9694 67.3031C30.3086 66.4712 30.6657 65.6553 31.0406 64.8554C31.7984 63.2368 32.6412 61.686 33.5633 60.2137C34.688 58.4516 35.561 56.3742 36.6536 54.5299C37.8612 52.4962 39.1482 50.5419 40.5099 48.6746L41.7954 46.988L43.1129 45.3425C43.7985 44.5334 44.4733 43.7175 45.1964 42.9633C45.5659 42.5794 45.8819 42.2092 46.2676 41.8115C46.6532 41.4138 47.0388 41.0642 47.4084 40.7145C47.9695 40.1933 48.506 39.6301 49.0152 39.0279C49.2616 38.7399 49.4919 38.4451 49.7061 38.1503C49.9203 37.8554 50.156 37.6086 50.3542 37.3344C50.5523 37.0601 50.6755 36.8407 50.8362 36.6145C51.0963 36.1196 51.499 35.7932 51.9432 35.6929C52.2908 35.6145 52.6544 35.682 53.0107 35.682C53.2907 35.7177 53.5259 35.9672 53.6052 36.3128C53.7469 36.8533 53.7469 37.4383 53.6052 37.9789C53.3701 38.9631 53.0081 39.89 52.534 40.7214C52.1125 41.5007 51.6015 42.1941 51.0183 42.7782C49.9471 43.9369 48.9081 44.7803 48.1207 45.699C46.7465 47.2281 45.3253 48.7372 44.0168 50.4305C43.9895 50.4658 43.9369 50.4681 43.9068 50.4351Z" fill="#ADC07A"/>
<path d="M52.028 28.5273C52.032 28.546 52.0527 28.5558 52.0697 28.547C53.1221 28.0009 54.1482 27.3748 55.1424 26.6721C55.678 26.3019 56.1118 25.8425 56.5938 25.4312C56.7301 25.3371 56.8592 25.2269 56.9795 25.1021L57.3704 24.629L58.1471 23.6897C58.3881 23.4086 58.6827 23.0041 58.9987 22.6338L59.8877 21.5025C60.1716 21.1529 60.509 20.7004 60.8304 20.2821L61.5201 19.37C61.595 19.2709 61.7528 19.3363 61.7355 19.4594C61.7355 19.5622 61.7355 19.6102 61.7355 19.6788L61.7355 20.0833L61.7355 20.6798C61.7399 20.7597 61.7399 20.8399 61.7355 20.9198L61.4945 23.292L60.9964 28.0914L60.5412 32.164C60.434 33.0827 60.3162 33.9946 60.1609 34.9065C59.6293 38.1446 58.884 41.319 57.9328 44.3956C57.4621 45.9493 56.9257 47.469 56.326 48.9481C55.7341 50.4505 55.0386 51.8822 54.2479 53.2264C52.8599 55.685 51.1163 57.7797 49.1116 59.3971C47.8062 60.4049 46.369 61.1018 44.8696 61.4539C43.3655 61.8227 41.8199 61.8181 40.3171 61.4402C39.4066 61.2277 39.6101 60.7135 40.3867 60.213C41.5125 59.5555 42.688 59.0477 43.8949 58.6977C46.425 58.0335 48.7063 56.2967 50.3702 53.7681C51.2262 52.4878 51.9899 51.1109 52.6518 49.6543C53.3732 48.1498 54.0225 46.5906 54.5961 44.9852C55.3004 42.9801 55.8529 40.8931 56.2457 38.7529C56.6527 36.5794 57.0437 34.3717 57.3812 32.164L57.7882 29.6066L57.9275 28.7085L57.9596 28.4685L57.9596 28.3519L57.9596 28.3177L-nan -nanL57.9596 28.3177L57.9596 28.3421C57.9596 28.3484 57.9572 28.3545 57.9528 28.359L57.8418 28.4753C57.7369 28.587 57.6385 28.7067 57.5218 28.8059C57.3599 28.9435 57.1684 29.1175 56.9741 29.2638C56.8402 29.3735 56.6902 29.4764 56.5403 29.5792L56.0582 29.922C55.8815 30.0523 55.6994 30.1688 55.5226 30.2854C53.2915 31.6792 50.982 32.8572 48.6135 33.8095C46.8674 34.5568 45.1107 35.2425 43.4182 36.0378C41.7568 36.7416 40.1891 37.7658 38.7692 39.0751C38.2743 39.5667 37.8424 40.1543 37.4891 40.8166C37.1293 41.5132 36.8192 42.2497 36.5626 43.0175C36.0532 44.524 35.7489 46.131 35.6628 47.7688C35.6279 48.4789 35.6279 49.1911 35.6628 49.9011C35.6949 50.5868 35.7377 51.1147 35.7699 51.5809C35.7915 51.9735 35.7915 52.3676 35.7699 52.7602C35.7613 53.0481 35.7179 53.3326 35.6413 53.6035C35.5468 53.8414 35.4394 54.0704 35.32 54.2891C35.2182 54.4811 35.154 54.7074 35.0843 54.8308C35.0147 54.9542 34.7737 54.8788 34.3452 54.4606C34.2488 54.3509 34.0828 54.2412 34.0238 54.0766C33.9649 53.9121 33.8578 53.7338 33.7721 53.5281C33.5811 53.0589 33.4303 52.5647 33.3222 52.054C32.6458 48.4286 32.9713 44.6151 34.2434 41.2623C34.5668 40.4065 34.9467 39.5876 35.3789 38.8146C35.8536 37.9587 36.4217 37.1944 37.066 36.5452C38.2413 35.3673 39.5347 34.3964 40.9116 33.6587C42.8344 32.596 44.7411 31.8212 46.605 31.019C48.4566 30.2221 50.2658 29.4523 51.9856 28.5079C52.0027 28.4985 52.0239 28.5083 52.028 28.5273Z" fill="#ADC07A"/>
</svg>
