<svg width="91" height="92" viewBox="0 0 91 92" fill="none" xmlns="http://www.w3.org/2000/svg">
<path d="M48.3636 1.33664L48.4049 1.33664L48.446 1.33392C72.453 -0.252139 89.222 21.0405 89.25 45.4264C89.2496 56.3101 84.6431 67.6687 77.131 76.3062C69.6223 84.9399 59.3079 90.75 47.9545 90.75C36.5926 90.75 25.0325 84.6223 16.2755 75.6359C7.51633 66.6473 1.75 54.991 1.75 44.1886C1.75 33.4164 7.59021 22.7039 16.427 14.6473C25.259 6.59505 36.9356 1.33664 48.3636 1.33664Z" fill="#FFF2F2" stroke="#191715" stroke-width="2.5"/>
<path d="M39.9225 42.9163C39.924 42.9379 39.9418 42.9546 39.9634 42.9546C41.839 42.9506 43.8595 42.6582 45.9992 42.5332C47.1083 42.4539 48.2214 42.4539 49.3305 42.5332C49.9068 42.5775 50.4804 42.6542 51.0487 42.7631L51.4796 42.8452C51.632 42.889 51.7843 42.9218 51.9367 42.9711C52.2379 43.0541 52.5343 43.1546 52.8247 43.2721C54.534 43.9109 56.0412 45.0283 57.1806 46.5013C57.69 47.1998 58.0794 47.9849 58.3313 48.8219C58.5927 49.6902 58.6645 50.6084 58.5415 51.5093C58.4804 51.9509 58.3783 52.3853 58.2367 52.8064C58.0838 53.2001 57.9083 53.5839 57.7113 53.9558C57.315 54.6464 56.8307 55.278 56.2716 55.8331C55.2131 56.8647 53.9989 57.7079 52.6776 58.3289C51.4176 58.9385 50.1028 59.417 48.7525 59.7574C46.3951 60.3424 43.9772 60.6219 41.554 60.5893C38.4928 60.578 35.456 60.0228 32.5742 58.9474C31.7072 58.5204 31.8754 58.4 32.7213 58.2687C34.0535 58.1011 35.3988 58.0773 36.7357 58.1975C37.4766 58.2632 38.2174 58.3015 38.9531 58.3179C39.6887 58.3344 40.419 58.3781 41.1494 58.3727C42.5976 58.3775 44.0437 58.2603 45.4738 58.0224C46.8865 57.7896 48.2759 57.4232 49.6248 56.9277C50.9459 56.4481 52.2031 55.7952 53.3659 54.9848C54.0154 54.5188 54.5825 53.9392 55.0421 53.2716C55.4706 52.6772 55.7391 51.9743 55.8197 51.2356C55.9406 49.8728 55.0788 48.499 53.8388 47.5193C53.1535 46.9714 52.3793 46.5561 51.5531 46.2933C51.3535 46.2221 51.1433 46.1948 50.9384 46.1291C50.7334 46.0634 50.4865 46.047 50.2605 46.0032C49.7937 45.9325 49.3237 45.8868 48.8524 45.8664C46.8445 45.8404 44.8374 45.9648 42.8466 46.2386C41.5292 46.3869 40.2045 46.4545 38.8795 46.4411C38.1886 46.4222 37.4992 46.3637 36.8145 46.2659C36.0461 46.1409 35.3066 45.868 34.6339 45.4614C33.4805 44.8096 32.6602 43.6629 32.3903 42.3252C32.1795 41.0363 32.4604 39.7125 33.1732 38.6363C33.4768 38.1641 33.8178 37.7192 34.1926 37.3063C34.5513 36.9114 34.9302 36.5368 35.3275 36.1843C35.7192 35.8377 36.1278 35.5125 36.5518 35.21C36.762 35.0568 36.9721 34.8981 37.1876 34.7558L37.8391 34.3507C40.5418 32.6574 43.5779 31.6244 46.7191 31.3295C47.4176 31.2609 48.1196 31.2389 48.8208 31.2639C49.3772 31.3107 49.93 31.3948 50.476 31.5156C50.8378 31.6179 51.1897 31.7554 51.5269 31.9261C52.0102 32.1492 52.3686 32.591 52.4989 33.1247C52.569 33.3433 52.6165 33.5689 52.6408 33.798C52.6408 34.1482 52.3518 34.3781 51.8894 34.4876C51.6161 34.5442 51.3378 34.5699 51.0592 34.5642C50.699 34.5936 50.3371 34.5936 49.9768 34.5642C48.7771 34.5168 47.5758 34.5846 46.388 34.7667C45.1898 34.9734 44.0105 35.2846 42.8623 35.6972C41.7236 36.1349 40.6274 36.6847 39.5888 37.3391C38.5756 37.9478 37.6518 38.7054 36.846 39.5886C36.6989 39.7364 36.5938 39.9115 36.4572 40.0703L36.268 40.3111L36.1367 40.5081C35.9876 40.7163 35.8738 40.9495 35.8004 41.1977C35.7477 41.3444 35.7331 41.5031 35.7584 41.6575C35.7745 41.7993 35.8313 41.9328 35.9213 42.0406C36.061 42.2108 36.2304 42.3519 36.4204 42.4566C36.6818 42.5945 36.9617 42.6905 37.2506 42.7412C37.452 42.7816 37.6555 42.809 37.8601 42.8233C38.0756 42.8561 38.3015 42.8671 38.5274 42.878C38.9671 42.91 39.4217 42.8797 39.8815 42.8781C39.9031 42.878 39.921 42.8948 39.9225 42.9163Z" fill="#E26552"/>
<path d="M41.1506 51.5757C41.1683 51.5711 41.1799 51.5541 41.1778 51.5359C40.9158 49.3243 40.5967 47.1128 40.262 44.9067C40.1412 44.0967 39.9362 43.3031 39.8101 42.493C39.395 39.636 38.9326 36.779 38.3652 33.9439C38.1024 32.696 37.8397 31.4371 37.4719 30.2221C37.2617 29.434 37.0095 28.6622 36.7888 27.8796C36.5682 27.0969 36.3685 26.3197 36.2319 25.5097C36.1478 25.0007 36.5944 24.8912 37.1777 25.132C37.9396 25.4577 38.5514 26.0773 38.8854 26.8615C39.5159 28.4488 40.0728 30.047 40.5457 31.6725C40.9882 33.3136 41.3183 34.9853 41.5336 36.675C41.6778 37.6999 41.8761 38.7158 42.1273 39.7181C42.3533 40.7361 42.6055 41.7541 42.8104 42.7722C43.0153 43.8668 43.2308 45.0217 43.4094 46.1491L43.9348 49.5425L44.5076 53.7295C44.6547 54.7859 44.7913 55.8477 44.9069 56.9095C45.0225 57.9713 45.1644 59.0276 45.2957 60.0839C45.4113 60.8994 45.5637 61.7259 45.6951 62.5195C45.8524 63.3301 45.9699 64.1485 46.0471 64.9715C46.0471 65.3382 46.1102 65.694 46.1154 66.0661C46.1327 66.5721 46.0393 67.0756 45.8422 67.5384C45.695 67.8311 45.4444 68.0528 45.1434 68.1569C45.0039 68.2228 44.8598 68.2777 44.7125 68.3211C44.2449 68.4196 43.835 67.8559 43.5618 66.9309C42.6738 64.1943 42.4321 61.2552 42.0222 58.2723C41.7294 56.0937 41.4678 53.8393 41.1236 51.6168C41.1207 51.5982 41.1323 51.5804 41.1506 51.5757Z" fill="#E26552"/>
<path d="M49.067 40.2771C49.0569 40.2687 49.0414 40.2761 49.0417 40.2893C49.0876 42.4126 49.1836 44.5377 49.33 46.6646C49.3773 47.4418 49.5349 48.208 49.5875 48.9852C49.6768 50.359 49.8186 51.7218 49.9237 53.1065C50.0288 54.4913 50.1497 55.8431 50.3336 57.2224C50.4955 58.432 50.7164 59.6322 50.9956 60.8183C51.1585 61.5736 51.3897 62.3125 51.5631 63.0678C51.7317 63.8276 51.858 64.597 51.9414 65.372C51.9835 65.8591 51.5631 65.9193 51.0114 65.6785C50.2896 65.3311 49.7155 64.7195 49.3983 63.9599C48.4247 60.8475 47.8023 57.6277 47.5435 54.3654C47.4489 53.3911 47.3543 52.406 47.2072 51.4153C47.0601 50.4247 46.9287 49.4395 46.8236 48.4543C46.6082 46.265 46.4663 44.0757 46.3507 41.8865C46.3034 41.2132 46.2929 40.5346 46.2667 39.8614C46.2404 39.1882 46.1931 38.5259 46.1931 37.8527C46.1563 35.8112 46.1931 33.7587 46.1931 31.7227C46.1931 30.9346 46.1931 30.1519 46.1931 29.3637C46.1931 28.5756 46.1931 27.7984 46.2456 26.9993C46.2456 26.6545 46.2719 26.3097 46.3087 25.9594C46.4979 24.6513 46.7553 24.2518 47.307 24.0985C47.5572 24.0151 47.8616 23.9694 48.0363 24.1669C48.2366 24.3934 48.3525 24.8409 48.3632 25.4504C48.4105 26.7968 48.4945 28.187 48.5891 29.5772C48.6154 30.2723 48.6995 30.9838 48.7362 31.6953L48.7362 32.79L48.7888 33.8846C48.8515 35.9969 49.0182 38.1307 49.0924 40.2648C49.0928 40.2781 49.0773 40.2857 49.067 40.2771Z" fill="#E26552"/>
</svg>
