<svg width="91" height="92" viewBox="0 0 91 92" fill="none" xmlns="http://www.w3.org/2000/svg">
<path d="M48.3636 1.33664L48.4049 1.33664L48.446 1.33392C72.453 -0.252139 89.222 21.0405 89.25 45.4264C89.2496 56.3101 84.6431 67.6687 77.131 76.3062C69.6223 84.9399 59.3079 90.75 47.9545 90.75C36.5926 90.75 25.0325 84.6223 16.2755 75.6359C7.51633 66.6473 1.75 54.991 1.75 44.1886C1.75 33.4164 7.59021 22.7039 16.427 14.6473C25.259 6.59505 36.9356 1.33664 48.3636 1.33664Z" fill="#FCFDD8" stroke="#191715" stroke-width="2.5"/>
<path d="M44.1213 52.7531C44.1167 52.7416 44.1235 52.7287 44.1355 52.7259C44.918 52.5423 45.6016 52.0982 46.0568 51.4772C46.1512 51.36 46.3022 51.1959 46.3588 51.1197L46.5665 50.8619C46.7112 50.6861 46.8245 50.5513 46.9629 50.3989C47.1013 50.2466 47.4222 50.0239 47.6299 49.8129L47.7306 49.725L47.8061 49.6488C47.8364 49.6147 47.8701 49.5833 47.9067 49.5551C47.9179 49.5444 47.9296 49.5341 47.9416 49.5244C48.0945 49.4017 48.3485 49.3781 48.4567 49.5416C48.4754 49.5699 48.4912 49.6016 48.5049 49.6356C48.5775 49.8164 48.58 50.0166 48.58 50.2114C48.58 50.311 48.58 50.4458 48.58 50.563C48.579 50.7928 48.558 51.0221 48.5171 51.2486C48.4266 51.7785 48.2549 52.2936 48.0074 52.7781C47.9193 52.9246 48.0074 53.0769 48.3157 53.1414C48.7796 53.2185 49.2538 53.0706 49.5742 52.7488C49.7295 52.5863 49.8725 52.414 50.0021 52.2331C50.1047 52.0478 50.1809 51.8508 50.2286 51.6471C50.3242 51.2858 50.3832 50.917 50.4048 50.5454L50.4425 49.9887C50.4515 49.6894 50.4388 49.3899 50.4048 49.0921C50.3118 48.5624 49.9944 48.0895 49.5239 47.7795C48.9438 47.4735 48.2407 47.4473 47.6362 47.7092C47.3171 47.8326 47.0133 47.9879 46.7301 48.1721C46.507 48.3035 46.2965 48.4525 46.1009 48.6175C45.7213 48.9428 45.3699 49.2955 45.05 49.6723C44.6725 50.0942 44.6662 50.1587 44.4963 50.3345C44.4577 50.3854 44.411 50.4299 44.3581 50.4666C44.2292 50.5561 44.048 50.5854 43.9175 50.4981C43.8152 50.4296 43.7574 50.316 43.6984 50.208C43.6771 50.169 43.6578 50.1291 43.6406 50.0883C43.612 50.0351 43.5868 49.9803 43.5651 49.9243L43.4644 49.684L42.9736 48.512C42.7387 47.8334 42.4287 47.1795 42.0486 46.5606C41.9553 46.4147 41.8501 46.2756 41.734 46.1446C41.6794 46.0746 41.6145 46.0132 41.5418 45.9619C41.2858 45.7812 40.9249 45.7966 40.6726 45.9826C40.5605 46.0652 40.463 46.1631 40.3662 46.2634C40.341 46.2895 40.3166 46.3163 40.293 46.3438C40.1015 46.6126 40.0242 46.9795 40.1173 47.2962C40.121 47.3089 40.1251 47.3216 40.1294 47.3341C40.5699 48.199 40.9606 49.0851 41.2998 49.9887L41.5956 50.6626C41.6632 50.8637 41.7473 51.0596 41.8472 51.2486C41.9258 51.4395 42.0293 51.6206 42.1556 51.7877C42.2652 51.9508 42.3962 52.1004 42.5457 52.2331C42.6871 52.3571 42.8418 52.4677 43.005 52.5613C43.3393 52.7368 43.7229 52.8132 44.1046 52.7806C44.118 52.7794 44.1263 52.7656 44.1213 52.7531Z" fill="#EBA831"/>
<path d="M52.6131 59.8432C52.5628 59.8266 52.5461 59.7639 52.5815 59.7245C54.7244 57.3386 56.6662 54.802 58.3896 52.1373C60.2322 49.339 61.4519 46.2242 61.9762 42.9782C62.3725 40.5215 62.1331 38.0121 61.2778 35.659C60.4308 33.5596 58.9839 31.7157 57.0934 30.3264C55.2137 28.9807 52.9833 28.1252 50.6312 27.8477C48.3518 27.5689 46.035 27.7366 43.8292 28.3399C41.6103 28.9548 39.5963 30.0863 37.9774 31.6274C36.6009 32.9861 35.4837 34.5537 34.6739 36.2626C33.8922 37.9126 33.2934 39.6327 32.8869 41.396C32.626 42.5295 32.4536 43.6791 32.3709 44.8358C32.2715 45.9642 32.2379 47.0969 32.2702 48.2287C32.3028 50.4727 32.4751 52.713 32.7862 54.9384C32.9875 56.3155 33.4154 56.1104 33.8811 54.9033C34.5049 53.0009 34.8603 51.031 34.9382 49.0433C34.9822 47.9299 35.0766 46.8223 35.1521 45.7382C35.2197 44.6792 35.3521 43.6247 35.5485 42.5797C35.9694 40.5206 36.687 38.5238 37.6816 36.6435C38.1777 35.7577 38.7724 34.9229 39.456 34.153C40.1331 33.4209 40.9143 32.7781 41.7779 32.2427C42.6709 31.7262 43.6281 31.313 44.6283 31.0121C45.6897 30.7162 46.7827 30.5296 47.8877 30.4554C50.5298 30.231 53.1633 30.9611 55.2435 32.4946C57.2896 34.1025 58.6069 36.3718 58.9307 38.8469C59.122 40.2414 59.0987 41.6542 58.8615 43.0426C58.6038 44.46 58.1819 45.8471 57.6031 47.1798C56.3123 49.8987 54.6637 52.4576 52.6951 54.7978C51.6631 56.0753 50.5871 57.3293 49.4797 58.5775L46.3713 62.0525C46.2706 62.1579 46.1888 62.2751 46.0818 62.3689C45.9749 62.4627 45.7924 62.3337 45.6603 62.2869C45.5281 62.24 45.3142 62.1052 45.1443 62.0056L44.213 61.4196C43.5838 61.0211 42.9168 60.6168 42.2435 60.2476C41.91 60.0542 41.564 59.8608 41.2179 59.6616L40.6642 59.3803C40.4502 59.2748 40.2678 59.1811 39.9972 59.0639C39.0598 58.6293 38.0656 58.3102 37.0398 58.1145C36.1755 57.9566 35.2865 57.9566 34.4222 58.1145C33.6042 58.2516 32.846 58.6056 32.2388 59.1342C31.9309 59.4091 31.7935 59.8106 31.8738 60.2007C31.9651 60.5111 32.1284 60.7992 32.352 61.0445C32.8514 61.6281 33.4409 62.1396 34.1013 62.5623C34.7305 62.9725 35.4667 63.3827 36.1966 63.7929L37.26 64.3789L37.6627 64.625L38.0088 64.8477C38.4563 65.1327 38.8773 65.4522 39.2673 65.8029C39.5926 66.0752 39.8521 66.4087 40.0286 66.7815L40.0664 66.887L-nan -nanL40.0664 66.887L40.9725 66.6115L-nan -nanL40.9725 66.6115C40.9839 66.6063 40.997 66.6054 41.009 66.6088C41.0141 66.6102 41.0193 66.6115 41.0247 66.6115C41.0286 66.6115 41.0317 66.6115 41.0341 66.6115C41.0522 66.6115 41.0165 66.6087 41.0165 66.5906C41.0165 66.5852 41.0152 66.568 41.0126 66.5632L40.9662 66.4768C40.9474 66.4308 40.9356 66.3828 40.9308 66.334C40.9275 66.3004 40.9252 66.2667 40.9196 66.2335C40.8897 66.0562 40.8758 65.8769 40.8781 65.6974L-nan -nanL40.8781 65.6974L40.7557 65.6974C40.7492 65.6974 40.7428 65.6969 40.7364 65.6958C40.5179 65.6604 40.2514 65.5968 39.9909 65.5333L38.3234 65.0997C36.7441 64.7012 34.6173 64.1503 33.2518 64.2558C32.8761 64.2744 32.5043 64.3354 32.1444 64.4375C31.9776 64.4925 31.818 64.5636 31.668 64.6493C31.3621 64.8241 31.1128 65.1001 31.0181 65.4395C30.9935 65.5753 30.9935 65.714 31.0181 65.8497C31.0722 66.2141 31.1936 66.5669 31.3767 66.8928C31.5966 67.2828 31.8717 67.6435 32.1947 67.9652C32.8835 68.5907 33.6241 69.1648 34.4096 69.6822L34.8312 69.9752C34.9319 70.0508 35.0369 70.1212 35.1458 70.1861C35.2905 70.2623 35.4227 70.3268 35.5485 70.3795C35.7829 70.4749 36.0248 70.5533 36.2721 70.6139C36.4985 70.693 36.7106 70.8037 36.9014 70.9421C37.0524 71.0358 37.1971 71.03 37.3104 70.819C37.4362 70.4912 37.4362 70.133 37.3104 69.8052C37.2349 69.5808 37.1381 69.3631 37.0209 69.1548C36.9611 69.0379 36.8939 68.9244 36.8196 68.8149L36.7851 68.7615C36.7786 68.7514 36.7629 68.698 36.7629 68.686C36.7629 68.6396 36.7538 68.5935 36.7346 68.5513C36.6717 68.4132 36.597 68.2799 36.5112 68.1527C36.4583 68.0799 36.4121 68.0031 36.3729 67.9232C36.3599 67.8968 36.3503 67.8685 36.3492 67.8391C36.3476 67.7945 36.3421 67.7448 36.3658 67.7069C36.3682 67.7031 36.3708 67.6995 36.3738 67.696C36.3919 67.6747 36.4191 67.6617 36.4483 67.6605C36.6891 67.6566 36.927 67.709 37.1405 67.8128L37.367 67.9066L37.4357 67.9432C37.4484 67.9499 37.4626 67.9535 37.477 67.9535C37.4875 67.9535 37.4979 67.9553 37.5077 67.959L37.5872 67.9886L38.9464 68.3285C39.4862 68.4658 40.0347 68.5714 40.5887 68.645L40.9284 68.645L41.2053 68.645C41.3521 68.6379 41.4976 68.6163 41.6395 68.5805C41.7598 68.5542 41.8776 68.5189 41.9918 68.475L42.1743 68.3988C42.3255 68.3197 42.4669 68.2254 42.5959 68.1176C43.0706 67.7319 43.3297 67.1707 43.3108 66.5925C43.3057 66.4367 43.324 66.2683 43.2503 66.131C43.2286 66.0907 43.2132 66.0387 43.2052 66.0062C43.2038 66.001 43.2 65.9489 43.2 65.9435C43.2 65.8971 43.1905 65.8512 43.1722 65.8086L43.137 65.7267C43.068 65.545 42.9795 65.3703 42.8728 65.2051C42.7867 65.0466 42.6857 64.8956 42.5707 64.7539C42.1986 64.2628 41.761 63.8178 41.2682 63.4296C40.8278 63.078 40.3936 62.7674 39.9594 62.4802L39.3302 62.1052L39.1477 61.988L-nan -nanL39.1477 61.988L39.3113 62.07L39.5756 62.2048C39.8021 62.322 40.0286 62.4509 40.2552 62.574C41.1613 63.0897 42.0611 63.664 43.0364 64.2675L43.4076 64.4961L43.7159 64.6836L44.0746 64.8887C44.5323 65.1601 45.0249 65.3767 45.5407 65.5333C46.0205 65.6563 46.527 65.6563 47.0068 65.5333C47.1236 65.5076 47.2318 65.4552 47.3214 65.3809L47.6235 65.1876L47.7739 65.0951C48.0915 64.8999 48.3798 64.6607 48.6304 64.3847L52.6444 59.9619C52.6801 59.9227 52.6634 59.8597 52.6131 59.8432Z" fill="#EBA831"/>
<path d="M46.7049 46.4129C46.7121 46.4332 46.7041 46.4558 46.6857 46.467C46.1515 46.7932 45.6632 47.1805 45.2324 47.6198L44.9839 47.8727C44.9697 47.8871 44.9618 47.9066 44.9618 47.9268C44.9618 47.9407 44.9581 47.9542 44.951 47.9661L44.8926 48.0651L44.7164 48.364C44.6849 48.405 44.6409 48.5281 44.5905 48.4812C44.5602 48.4485 44.5367 48.4107 44.5213 48.3699C44.4647 48.2351 44.4836 48.03 44.4081 47.8893L-nan -nanL44.4081 47.8893C44.4081 47.8893 44.4081 47.8893 44.4081 47.8331C44.4081 47.8277 44.4073 47.8223 44.4058 47.8171L44.3388 47.5905L44.1752 47.0748L44.0746 46.7877L43.911 46.4243C43.7939 46.1717 43.6505 45.9303 43.4831 45.7036C43.2075 45.2888 42.8131 44.9539 42.3442 44.7367C41.8795 44.5311 41.3534 44.4794 40.8529 44.5902C40.346 44.6958 39.8735 44.9128 39.4749 45.223C39.275 45.3819 39.0839 45.5501 38.9023 45.727C38.7513 45.9087 38.6317 46.102 38.4996 46.313C38.1188 46.969 37.8874 47.6912 37.82 48.4343C37.776 48.7449 37.776 49.0203 37.7445 49.3368C37.713 49.6532 37.7445 49.9228 37.7445 50.2158C37.7376 50.7811 37.7628 51.3464 37.82 51.9093C37.8955 52.6242 37.9899 53.3274 38.1095 54.0189C38.1724 54.3646 38.3612 54.6928 38.4304 55.0327C38.4996 55.3726 38.5877 55.7124 38.6506 56.0523C38.7135 56.3922 38.94 56.4215 39.1792 56.0523C39.3322 55.8001 39.4546 55.5328 39.5441 55.2554C39.6133 55.0854 39.6385 54.9096 39.7077 54.7162C39.8824 54.3363 39.9641 53.9215 39.988 53.504C40.0172 52.9956 40.018 52.5008 40.0538 52.0089L40.123 50.9951C40.123 50.667 40.123 50.3388 40.1733 50.0224C40.2042 49.4451 40.3056 48.873 40.4754 48.3171C40.5039 48.1999 40.5461 48.0859 40.6012 47.9772C40.6453 47.8952 40.6956 47.7487 40.7208 47.7135C40.7963 47.5729 40.8089 47.4967 40.8592 47.403C40.9884 47.1543 41.4075 47.1666 41.5262 47.4205C41.5621 47.4843 41.5915 47.551 41.6143 47.6198C41.6583 47.7311 41.7275 47.9186 41.7842 48.1062L41.8786 48.4109L42.017 48.9383L42.2624 49.9989C42.369 50.6149 42.6251 51.2001 43.0112 51.7101C43.0844 51.7937 43.1643 51.8721 43.2503 51.9445C43.3447 52.0284 43.4589 52.0906 43.5838 52.1261C43.6908 52.1438 43.801 52.1228 43.8921 52.0675C43.9802 52.0206 44.0494 52.0031 44.1564 51.9386L44.4647 51.7628L44.8296 51.4991C44.8922 51.4564 44.9484 51.4049 44.9964 51.3462L45.0247 51.3116L45.2198 51.0655L45.6099 50.5791L46 50.0751L46.4027 49.6415C46.4719 49.5712 46.5349 49.495 46.6104 49.4305L46.7425 49.2957C46.8306 49.2196 46.9061 49.1317 46.9942 49.0613C47.3197 48.7587 47.6958 48.5073 48.1079 48.3171C48.2537 48.2551 48.417 48.2387 48.5736 48.2702C48.7281 48.3184 48.8639 48.4081 48.9637 48.5281C49.122 48.731 49.1917 48.9823 49.1588 49.2313C49.1279 49.6115 49.0346 49.985 48.8819 50.3388C48.5469 51.1301 48.105 51.8784 47.5668 52.5656C46.6854 53.6275 45.6972 54.6086 44.6157 55.4956C44.3829 55.7007 44.1375 55.8824 43.911 56.0816C43.0552 56.8493 42.8916 57.1716 43.1118 57.7517C43.1525 57.8849 43.2008 58.016 43.2566 58.1443C43.4768 58.5428 44.1249 58.4901 44.88 57.9803C47.2174 56.3698 49.182 54.3369 50.6563 52.0031C50.9697 51.4928 51.2229 50.9525 51.4114 50.3916C51.5128 50.0618 51.5844 49.7246 51.6253 49.3836C51.6418 49.1593 51.6418 48.9341 51.6253 48.7097C51.6048 48.4726 51.5541 48.2385 51.4743 48.0124C51.44 47.8987 51.398 47.7871 51.3485 47.6784L51.166 47.3678C51.0453 47.158 50.8996 46.9614 50.7318 46.7818C50.5556 46.6294 50.3669 46.4771 50.1718 46.3364C49.9709 46.2147 49.7606 46.1069 49.5426 46.0141C48.5927 45.7524 47.5689 45.878 46.7248 46.3587C46.7058 46.3695 46.6975 46.3924 46.7049 46.4129Z" fill="#EBA831"/>
<path d="M64.1225 32.329C63.9274 32.329 63.9841 32.581 64.198 32.9736C64.2668 33.0867 64.3497 33.1916 64.4448 33.2861C64.5574 33.398 64.7002 33.474 64.8535 33.5154C64.9605 33.5443 65.071 33.5446 65.1781 33.516C65.4293 33.4488 65.8981 33.3118 66.1046 33.2724C66.3531 33.211 66.589 33.1121 66.803 32.9794C67.2435 32.7333 67.7028 32.5048 68.1559 32.2645C68.2587 32.2117 68.347 32.1375 68.4139 32.0477C68.6482 31.7692 68.9515 31.5481 69.2972 31.4031C69.3454 31.3829 69.3901 31.3543 69.4399 31.3385C69.5353 31.3082 69.6424 31.3291 69.739 31.303C69.9403 31.2488 70.1332 31.172 70.3136 31.0746C70.6436 30.8966 70.8634 30.578 71.0703 30.2653C71.1722 30.1113 71.2772 29.961 71.3775 29.8033C71.409 29.7623 71.4656 29.7564 71.4468 29.651C71.3964 29.4166 71.5034 29.3814 71.5789 29.2994C71.6937 29.1742 71.7699 29.0222 71.7991 28.8599C71.832 28.643 71.7846 28.4025 71.6075 28.2732C71.5951 28.2642 71.5851 28.2582 71.5789 28.2563C71.5411 28.2446 71.4405 28.1098 71.3775 28.0277C71.3395 27.9659 71.2691 27.9353 71.1971 27.9261C71.08 27.9112 70.8845 27.885 70.6791 27.8519C70.5397 27.8325 70.3987 27.826 70.2583 27.8326C70.1193 27.839 69.9844 27.8775 69.8548 27.9281L69.4332 28.0805L68.9316 28.247C68.7845 28.2959 68.6534 28.3653 68.5712 28.4965C68.5271 28.5669 67.6399 28.9185 67.6085 28.9478C67.4839 29.0589 67.3122 29.1103 67.2277 29.2794C67.1883 29.3581 67.1735 29.4463 67.0988 29.4927C66.8215 29.6845 66.5682 29.9046 66.3437 30.1491C66.2371 30.2436 66.106 30.3153 65.9833 30.3948C65.9253 30.4324 65.8777 30.4836 65.8403 30.5417C65.7933 30.6147 65.7245 30.669 65.6562 30.7226C65.3522 30.9608 65.0334 31.1822 64.7014 31.3855C64.607 31.4324 64.349 31.8836 64.2421 31.9305C64.1351 31.9774 64.198 32.3348 64.1225 32.329Z" fill="#EBA831"/>
<path d="M59.5602 28.0587C59.4155 28.1759 59.6546 28.3106 60.1076 28.4278C60.1873 28.4436 60.2677 28.4553 60.3485 28.4629C60.6045 28.4873 60.8647 28.4302 61.0892 28.3048C61.1836 28.252 61.473 27.7188 61.6241 27.5137C61.7541 27.3358 61.8479 27.1372 61.9009 26.9277C62.0268 26.5233 62.1841 26.1249 62.3351 25.7088C62.3574 25.6122 62.3574 25.5124 62.3351 25.4158C62.2975 25.1043 62.3502 24.7896 62.4867 24.5043C62.5136 24.4479 62.5141 24.4064 62.541 24.35C62.5756 24.2773 62.6901 24.2395 62.7358 24.1732C62.8567 23.9978 62.9467 23.8062 63.003 23.6059C63.0819 23.3256 63.0164 23.0316 62.9415 22.7503C62.8944 22.5736 62.8539 22.3987 62.8065 22.224C62.7945 22.1799 62.7941 22.1451 62.7836 22.1006C62.7689 22.0383 62.6911 22.0035 62.6416 21.9628C62.6108 21.9375 62.5862 21.9066 62.5691 21.8723C62.5151 21.7642 62.5497 21.6313 62.513 21.5162C62.4849 21.4277 62.4419 21.3436 62.3854 21.2669C62.3445 21.2213 62.3005 21.1783 62.2537 21.1381C62.1811 21.0759 62.0966 21.0268 62.0025 21.0102C61.8538 20.984 61.7008 21.0422 61.5516 21.0189C61.5187 21.0137 61.4859 21.0091 61.4542 21.0091C61.3803 21.0091 61.3082 21.0308 61.246 21.0707C61.1533 21.1302 61.0041 21.2242 60.8501 21.3138C60.7448 21.3782 60.6469 21.4522 60.5577 21.5346C60.4722 21.6135 60.4088 21.7125 60.3593 21.8178L60.1768 22.1518C60.0447 22.3979 59.8748 22.644 59.8496 22.7026C59.8245 22.7612 59.8496 22.8257 59.8496 22.8901C59.8496 22.9163 59.7918 23.053 59.7225 23.2088C59.5689 23.5546 59.2945 23.9711 59.5224 24.2731C59.5591 24.3366 59.5127 24.4145 59.4968 24.4861C59.462 24.6436 59.4382 24.8029 59.4255 24.963C59.4076 25.1898 59.4046 25.4188 59.353 25.6403C59.3431 25.6828 59.3325 25.7252 59.3211 25.7674C59.3151 25.7984 59.3151 25.8302 59.3211 25.8612C59.3445 25.9368 59.3165 26.0179 59.3061 26.0964C59.2609 26.4385 59.1987 26.7784 59.1197 27.1152C59.0883 27.2031 59.2519 27.6602 59.2078 27.7598C59.1638 27.8594 59.6105 28.0176 59.5602 28.0587Z" fill="#EBA831"/>
<path d="M65.3114 38.2715C65.1226 38.1778 65.0094 38.4298 64.9653 38.8575C64.9665 38.9962 64.9863 39.1338 65.0239 39.2675C65.0573 39.3861 65.1353 39.4978 65.2204 39.5869C65.3192 39.6902 65.4392 39.7508 65.5758 39.7933C65.8738 39.8861 66.1677 39.9903 66.4566 40.1057C66.6966 40.2069 66.9508 40.276 67.2117 40.3108C67.7276 40.4104 68.2436 40.5452 68.7784 40.68C68.9009 40.7034 69.0272 40.7034 69.1497 40.68C69.5453 40.6126 69.9522 40.6387 70.3335 40.7555C70.3832 40.7707 70.4264 40.7752 70.4778 40.7831C70.5889 40.8003 70.6643 40.9255 70.7675 40.9701C71.0352 41.0859 71.3183 41.1667 71.6088 41.2106C71.8954 41.2539 72.1852 41.2043 72.4686 41.1436C72.7131 41.0913 72.9547 41.0501 73.1923 41.0019C73.2657 40.987 73.3288 40.9921 73.3993 40.9668C73.4556 40.9465 73.5003 40.882 73.5411 40.8383C73.6666 40.7041 73.7716 40.743 73.8815 40.7327C73.95 40.7213 74.0178 40.7066 74.0845 40.6889C74.3157 40.6274 74.5375 40.5158 74.6932 40.3343C74.775 40.2581 74.7498 39.9885 74.731 39.9534C74.7121 39.9182 74.731 39.7307 74.731 39.6193C74.731 39.54 74.7024 39.4632 74.6488 39.4047C74.5622 39.3101 74.4724 39.2181 74.3795 39.1289C74.3291 39.0805 74.2821 39.0285 74.2356 38.9763C74.167 38.8993 74.0914 38.8281 74.0096 38.7634C73.8922 38.6706 73.7531 38.6113 73.6109 38.5645L73.1579 38.4005L72.428 38.1133C72.3588 38.0782 72.2644 38.1133 72.1826 38.1133C72.1008 38.1133 71.1003 37.7441 71.05 37.7441C70.8172 37.7441 70.6032 37.6094 70.3326 37.7734C70.2511 37.8304 70.139 37.7625 70.041 37.7458C69.6747 37.6835 69.3005 37.6691 68.9295 37.7031C68.7155 37.7031 68.5079 37.6738 68.3002 37.668C68.2921 37.668 68.2836 37.668 68.275 37.6683C68.2073 37.6711 68.1477 37.7156 68.0813 37.7292C68.0472 37.7362 68.0122 37.7368 67.9775 37.7346C67.4789 37.7034 66.9801 37.7893 66.4755 37.7383C66.3496 37.7383 65.777 37.9727 65.6386 37.9668C65.5002 37.961 65.3806 38.3067 65.3114 38.2715Z" fill="#EBA831"/>
</svg>
