<svg width="53" height="53" viewBox="0 0 53 53" fill="none" xmlns="http://www.w3.org/2000/svg">
<path d="M26.4245 15.4924L26.421 15.4925C25.3362 15.5267 24.3579 15.9208 23.5843 16.6943C22.7897 17.489 22.4163 18.502 22.4163 19.61C22.4163 20.6379 22.7377 21.5841 23.4186 22.35H18.4838C17.3555 22.35 16.3356 22.7484 15.5457 23.5728L15.5439 23.5747C14.7725 24.3825 14.4 25.3919 14.4 26.5C14.4 27.6277 14.798 28.6438 15.6007 29.4456C16.4031 30.2508 17.4206 30.65 18.55 30.65H23.4126C22.6878 31.4302 22.3515 32.4047 22.3824 33.468L22.3825 33.4718C22.4168 34.5558 22.8115 35.5328 23.5843 36.3057C24.379 37.1003 25.392 37.4738 26.5 37.4738C27.608 37.4738 28.621 37.1003 29.4157 36.3057L36.3057 29.4157C37.1003 28.621 37.4738 27.608 37.4738 26.5C37.4738 25.392 37.1003 24.379 36.3057 23.5843L29.3494 16.6281C28.5525 15.8312 27.5375 15.46 26.4245 15.4924ZM16.7596 49.5347L16.759 49.5344C13.7017 48.216 11.0573 46.4335 8.81191 44.1881C6.56653 41.9427 4.78397 39.2983 3.46559 36.241L3.46531 36.2404C2.1578 33.2122 1.5 29.9705 1.5 26.5C1.5 23.0295 2.1578 19.7878 3.46531 16.7596L3.46559 16.759C4.78397 13.7017 6.56653 11.0573 8.81191 8.81191C11.0573 6.56654 13.7017 4.78308 16.759 3.46294C19.7873 2.15702 23.0293 1.5 26.5 1.5C29.9705 1.5 33.2122 2.15693 36.2404 3.46266C39.2979 4.78284 41.9426 6.56638 44.1881 8.81191C46.4335 11.0573 48.216 13.7017 49.5344 16.759L49.5347 16.7596C50.8422 19.7878 51.5 23.0295 51.5 26.5C51.5 29.9705 50.8422 33.2122 49.5347 36.2404L49.5344 36.241C48.216 39.2983 46.4335 41.9427 44.1881 44.1881C41.9427 46.4335 39.2983 48.216 36.241 49.5344L36.2404 49.5347C33.2122 50.8422 29.9705 51.5 26.5 51.5C23.0295 51.5 19.7878 50.8422 16.7596 49.5347Z" fill="#AAD2DC" stroke="#191715" stroke-width="3"/>
</svg>
