<svg width="365" height="573" viewBox="0 0 365 573" fill="none" xmlns="http://www.w3.org/2000/svg">
<path d="M185.846 345.736C104.027 427.563 14.3864 429.375 17.7344 397.677C55.8177 357.396 106.935 330.754 170.416 291.861C192.925 292.741 226.756 304.823 226.756 304.823C226.756 304.823 198.954 332.279 185.846 345.736Z" fill="url(#paint0_linear_1588_13202)" stroke="#191715"/>
<path d="M164.967 565.053V538.648C166.287 536.008 155.725 533.368 154.405 521.486C62.5111 483.503 101.332 372.219 131.664 318.414C131.435 317.756 131.523 317.436 131.961 317.499C132 317.564 132.038 317.626 132.076 317.686C133.007 316.046 133.93 314.462 134.839 312.936C135.315 309.383 136.044 305.771 138.5 306.999C137.311 308.861 136.087 310.843 134.839 312.936C134.302 316.947 134.088 320.883 132.076 317.686C131.939 317.927 131.802 318.17 131.664 318.414C135.089 328.242 209.35 413.671 246.803 431.185C244.095 420.369 240.525 406.401 235.883 388.574C184.222 375.899 216.501 315.213 216.501 315.213C215.591 314.513 214.689 313.829 213.797 313.162C206.964 311.566 200.511 334.366 190.001 300.499C188.777 296.557 200.063 302.882 213.797 313.162C214.688 313.37 215.586 313.994 216.501 315.213C226.727 323.072 237.909 332.819 246.135 341.999C246.135 341.999 246.135 341.999 246.135 341.999L256.061 341.999C263.983 344.64 271.096 512.873 297.501 227.999C295.922 265.598 294.249 297.471 292.523 324.437C300.59 288.114 308.242 251.084 312.378 224.382C311.816 222.691 311.511 221.795 311.511 221.795C312.051 221.41 312.537 220.961 312.972 220.458C314.063 213.05 314.848 206.55 315.252 201.224C313.909 194.827 311.255 189.386 308.871 188.79C314.683 181.128 316.332 186.973 315.252 201.224C316.709 208.167 316.622 216.235 312.972 220.458C312.783 221.739 312.585 223.048 312.378 224.382C319.293 245.175 365.086 386.179 360.359 459.435C357.719 500.362 324.713 532.047 324.713 532.047V566.373C310.191 572.974 266.624 575.614 250.781 566.373V534.688H241.539V562.412C216.455 574.294 164.967 565.053 164.967 565.053Z" fill="url(#paint1_radial_1588_13202)"/>
<path d="M216.501 315.213C216.501 315.213 172.945 397.1 268.001 390.499C268.001 390.499 242.135 347.999 246.135 341.999L256.061 341.999C263.983 344.64 271.096 512.873 297.501 227.999C283.816 553.967 263.001 449.5 263.001 449.5C263.001 449.5 337.916 150.503 308.871 188.79C314.152 190.11 320.753 215.194 311.511 221.795C311.511 221.795 365.47 380.222 360.359 459.435C357.719 500.362 324.713 532.047 324.713 532.047V566.373C310.191 572.974 266.624 575.614 250.781 566.373V534.688H241.539V562.412C216.455 574.294 164.967 565.053 164.967 565.053V538.648C166.287 536.008 155.725 533.368 154.405 521.486C55.3883 480.559 108.135 354.527 138.5 306.999C133.219 304.359 135.922 324.1 131.961 317.499C122.72 316.179 269.321 485.01 268.001 418.999C268.001 407.117 212.494 416.027 256.061 368.499C273.224 353.069 186.723 289.937 190.001 300.499C201.883 338.786 208.579 304.651 216.501 315.213ZM216.501 315.213C304.001 426.499 261.813 458.183 249 436.499C241.115 427.629 281.86 559.945 216.501 315.213Z" stroke="#191715" stroke-linejoin="round"/>
<path d="M169.747 472.636C169.747 473.203 169.491 473.78 168.951 474.347C168.409 474.917 167.601 475.453 166.564 475.914C164.492 476.835 161.593 477.417 158.365 477.417C155.137 477.417 152.239 476.835 150.167 475.914C149.13 475.453 148.322 474.917 147.779 474.347C147.24 473.78 146.983 473.203 146.983 472.636C146.983 472.07 147.24 471.493 147.779 470.925C148.322 470.356 149.13 469.82 150.167 469.359C152.239 468.438 155.137 467.855 158.365 467.855C161.593 467.855 164.492 468.438 166.564 469.359C167.601 469.82 168.409 470.356 168.951 470.925C169.491 471.493 169.747 472.07 169.747 472.636Z" fill="#648191" stroke="#191715"/>
<ellipse rx="2.28176" ry="2.85168" transform="matrix(1 0 -0.0716715 0.997428 212.34 161.268)" fill="white"/>
<g filter="url(#filter0_ddi_1588_13202)">
<path d="M262.011 448.873C258.051 411.907 269.933 340.615 269.933 293.087L342.545 337.974C342.545 382.862 337.264 402.665 337.264 402.665C306.899 499.041 264.275 469.997 262.011 448.873Z" fill="url(#paint2_linear_1588_13202)"/>
</g>
<path opacity="0.6" d="M273.719 463.965C270.943 463.695 267.256 463.489 265.964 460.904C269.841 460.904 280.181 453.149 287.936 431.177C286.644 450.564 273.719 463.965 273.719 463.965Z" fill="#648191" stroke="black" stroke-opacity="0.01" stroke-width="2.5" stroke-linejoin="round"/>
<path d="M293.269 468.959C291.477 469.701 289.853 470.262 288.462 470.206C290.698 468.375 295.643 465.337 302.653 444.838C304.203 454.029 294.269 467.991 293.269 468.959Z" fill="#648191" stroke="black" stroke-opacity="0.01" stroke-width="2.5" stroke-linejoin="round"/>
<path d="M270.513 571.187C267.904 570.858 265.046 570.487 263.579 570.264C263.598 566.543 263.865 563.562 264.519 561.503C264.857 560.437 265.287 559.659 265.803 559.152C266.306 558.659 266.911 558.401 267.667 558.401C269.217 558.401 271.15 559.531 272.722 561.712C274.279 563.874 275.427 567.002 275.427 570.83C275.427 571.126 275.423 571.468 275.415 571.794C275.137 571.76 274.762 571.715 274.316 571.66C273.315 571.537 271.954 571.368 270.513 571.187Z" fill="#B2C7CF" stroke="#191715"/>
<path d="M254.245 555.187C255.532 555.187 256.804 556.134 257.782 557.9C258.751 559.648 259.366 562.098 259.366 564.831V568.541L250.783 566.96L252.106 556.09C252.782 555.493 253.507 555.187 254.245 555.187Z" fill="#B2C7CF" stroke="#191715"/>
<path d="M185.388 567.972C182.779 567.643 179.921 567.273 178.454 567.05C178.473 563.328 178.74 560.347 179.394 558.288C179.732 557.222 180.162 556.444 180.678 555.937C181.181 555.444 181.786 555.187 182.542 555.187C184.092 555.187 186.025 556.316 187.597 558.498C189.154 560.659 190.302 563.787 190.302 567.615C190.302 567.911 190.298 568.253 190.29 568.579C190.012 568.546 189.637 568.5 189.191 568.445C188.19 568.322 186.829 568.153 185.388 567.972Z" fill="#B2C7CF" stroke="#191715"/>
<path d="M169.119 551.976C170.407 551.976 171.678 552.923 172.657 554.689C173.625 556.437 174.24 558.887 174.24 561.62V565.33L165.657 563.749L166.981 552.879C167.656 552.282 168.381 551.976 169.119 551.976Z" fill="#B2C7CF" stroke="black"/>
<mask id="mask0_1588_13202" style="mask-type:alpha" maskUnits="userSpaceOnUse" x="-1" y="-25" width="339" height="338">
<rect width="338.672" height="338" transform="matrix(-1 0 0 1 337.672 -25)" fill="#C4C4C4"/>
</mask>
<g mask="url(#mask0_1588_13202)">
<path d="M160.281 561.865V535.695C161.592 533.078 151.103 530.461 149.792 518.684C51.4575 478.12 97.3468 336.799 127.503 289.692C124.597 288.243 122.497 286.793 120.532 284.675C142.965 284.675 211.193 277.297 237.637 246.037C246.8 235.205 241.906 207.939 236.033 197.193C191.007 265.04 120.532 277.297 114.659 277.297C114.659 277.297 39.6574 273.99 38.3461 208.564C38.3463 196.787 36.2197 163.219 79.4869 116.112C96.5315 100.819 99.336 101.265 102.591 111.733C114.391 149.68 118.325 164.074 126.191 174.542C129.296 171.444 129.407 140.808 137.237 149.599C149.962 171.091 149.962 163.276 149.962 162.299C149.962 162.299 143.236 77.7117 237.637 71.1691C236.326 62.0094 223.215 20.1367 233.704 1.81738C233.704 1.81738 271.726 29.2964 250.748 73.7861C258.615 76.4032 265.171 76.4032 271.726 81.6373C271.726 81.6373 269.187 32.5487 280.904 9.6685C282.914 5.74293 288.221 -6.03377 295.327 12.2855C311.06 52.8498 295.604 75.1275 283.526 90.7969C295.327 93.414 332.038 150.989 303.193 188.936C308.438 190.245 314.993 215.107 305.816 221.649C305.816 221.649 359.402 378.672 354.327 457.183C351.705 497.748 318.927 529.152 318.927 529.152V563.174C304.504 569.716 261.237 572.333 245.504 563.174V531.769H236.326V559.248C211.415 571.025 160.281 561.865 160.281 561.865Z" fill="url(#paint3_radial_1588_13202)" stroke="#191715" stroke-width="2.5" stroke-linejoin="round"/>
<path d="M242.885 227.478C242.885 227.478 243.863 211.848 236.033 197.194C232.118 203.056 222.329 215.755 214.499 223.57C215.478 231.385 215.478 236.269 218.414 244.085C225.266 233.339 242.885 227.478 242.885 227.478Z" fill="#191715"/>
<path d="M207.649 266.552C210.585 243.107 230.162 232.363 242.887 226.501C243.865 236.27 241.418 241.154 239.95 243.107C234.077 250.923 218.416 265.576 207.649 266.552Z" fill="#BF4951" stroke="#191715"/>
<path d="M206.665 231.382L220.369 217.706C220.369 217.706 224.182 225.282 221.632 229.613L221.593 229.679C220.373 231.752 219.516 233.207 217.268 234.112C213.772 235.519 206.665 231.382 206.665 231.382Z" fill="url(#paint4_linear_1588_13202)" stroke="#191715"/>
<path d="M193.94 242.132L206.665 231.386C206.665 231.386 208.436 239.058 205.717 242.535L205.676 242.588C204.374 244.253 203.461 245.421 201.399 245.951C198.194 246.774 193.94 242.132 193.94 242.132Z" fill="url(#paint5_linear_1588_13202)" stroke="#191715"/>
<path d="M183.357 249.611L193.942 242.132C193.942 242.132 193.627 248.025 191.59 250.263L191.558 250.297C190.583 251.369 189.899 252.121 188.463 252.378C186.23 252.777 183.357 249.611 183.357 249.611Z" fill="url(#paint6_linear_1588_13202)" stroke="#191715"/>
<path d="M200.448 98.932C200.448 98.932 185.668 85.9179 173.559 99.7476" stroke="#191715"/>
<path d="M102.001 109.671C112.768 146.395 120.598 164.956 126.471 174.724C102.666 198.571 40.335 187.424 40.335 187.424C44.7984 153.145 68.7208 126.857 86.3395 109.274C91.2336 105.366 99.025 99.2378 102.001 109.671Z" fill="url(#paint7_linear_1588_13202)" stroke="#191715" stroke-linejoin="round"/>
<path d="M138.288 147.556C143.851 158.494 147.532 162.226 149.961 164.959C143.852 173.871 126.47 174.728 126.47 174.728C127.448 163.982 128.795 154.928 133.321 148.352C134.636 146.833 136.734 144.444 138.288 147.556Z" fill="url(#paint8_linear_1588_13202)" stroke="#191715" stroke-linejoin="round"/>
<path d="M242.885 118.277C242.885 118.277 241.574 98.6496 223.218 99.9581" stroke="#191715"/>
<path d="M246.313 52.8483C246.313 60.0335 245.873 64.8959 245.174 67.9483C244.824 69.478 244.416 70.5155 243.993 71.1587C243.572 71.799 243.189 71.9762 242.88 71.9762C242.64 71.9762 242.249 71.7605 241.79 70.9013C241.352 70.0814 240.94 68.8325 240.588 67.166C239.886 63.8416 239.447 58.9726 239.447 52.8483C239.447 49.7521 239.199 46.7249 238.932 43.9376C238.878 43.3669 238.822 42.807 238.768 42.2591C238.557 40.1207 238.364 38.163 238.299 36.4458C238.217 34.2741 238.348 32.5843 238.851 31.45C239.096 30.8963 239.422 30.4933 239.843 30.2244C240.265 29.9549 240.822 29.7949 241.569 29.7949C241.895 29.7949 242.364 29.991 242.907 30.7025C243.449 31.411 244.015 32.5724 244.525 34.3407C245.546 37.8737 246.313 43.7083 246.313 52.8483Z" fill="#6A8490" stroke="#191715"/>
<path d="M285.185 54.2667L285.197 54.2129V54.1579C285.197 51.0616 284.958 48.198 284.702 45.6135C284.648 45.062 284.592 44.5242 284.539 44.0003C284.339 42.0589 284.159 40.3061 284.102 38.7373C284.03 36.7431 284.161 35.1179 284.668 33.8463C285.163 32.6036 286.028 31.6713 287.508 31.0674C288.531 30.6501 289.376 30.5286 290.073 30.619C290.762 30.7083 291.342 31.0087 291.837 31.4993C292.853 32.5048 293.524 34.3182 293.9 36.7225C294.648 41.5011 294.176 48.2013 293.521 54.089C292.224 61.8354 287.896 70.2659 283.597 76.7817C281.449 80.0363 279.318 82.7976 277.596 84.74C276.733 85.7124 275.981 86.471 275.385 86.9822C275.086 87.2384 274.837 87.4235 274.641 87.5417C274.589 87.5732 274.544 87.5975 274.507 87.6163C274.507 87.5701 274.508 87.5161 274.513 87.4535C274.547 87.0155 274.709 86.3309 274.994 85.4027C275.513 83.7144 276.395 81.3569 277.459 78.5132C277.556 78.2537 277.655 77.9902 277.755 77.7228C280.139 71.3456 283.28 62.8102 285.185 54.2667Z" fill="#6A8490" stroke="#191715"/>
<path d="M109.198 207.71C108.15 211.501 106.408 214.91 104.462 217.352C102.495 219.824 100.44 221.17 98.7303 221.17C97.0204 221.17 95.7105 219.824 95.1095 217.352C94.5155 214.91 94.6584 211.501 95.7069 207.71C96.7553 203.919 98.4977 200.511 100.443 198.068C102.411 195.596 104.465 194.25 106.175 194.25C107.885 194.25 109.195 195.596 109.796 198.068C110.39 200.511 110.247 203.919 109.198 207.71Z" fill="#648191" stroke="#191715"/>
<path d="M48.5745 222.877C50.2845 222.877 51.5944 221.532 52.1953 219.06C52.7893 216.617 52.6464 213.209 51.598 209.418C50.5556 205.649 48.3216 201.582 45.8597 198.465C44.629 196.907 43.3582 195.607 42.1722 194.705C41.1586 193.933 40.2592 193.491 39.5164 193.373L39.6982 213.817C40.9145 216.503 42.4363 218.786 44.014 220.389C45.6193 222.021 47.2053 222.877 48.5745 222.877Z" fill="#648191" stroke="#191715"/>
<path d="M227.225 157.143C235.056 130.767 206.67 117.091 191.988 157.143" stroke="#191715"/>
<path d="M159.688 136.626C163.603 119.043 191.01 114.158 181.222 143.465" stroke="#191715"/>
</g>
<path d="M170.086 303.607C200.01 316.976 302.444 209.237 316.752 223C331.059 236.762 359.735 394.044 364 440.246C299.034 508.073 170.086 458.923 104.135 456.957C38.1846 454.991 121.853 280.014 130.712 290.828C137.799 299.478 159.914 302.951 170.086 303.607Z" fill="#ADC07A" stroke="#191715"/>
<path d="M328.5 169.5C328.5 189.352 311.295 205.5 290 205.5C268.705 205.5 251.5 189.352 251.5 169.5C251.5 149.648 268.705 133.5 290 133.5C311.295 133.5 328.5 149.648 328.5 169.5Z" fill="#E26552" stroke="#191715"/>
<g filter="url(#filter1_ddi_1588_13202)">
<path d="M293.02 170.346C273.262 201.724 252.667 270.807 231.831 313.385L316.646 305.048C336.324 264.835 340.269 244.776 340.269 244.776C355.28 145.108 304.311 152.416 293.02 170.346Z" fill="url(#paint9_linear_1588_13202)"/>
<path d="M293.02 170.346C273.262 201.724 252.667 270.807 231.831 313.385L316.646 305.048C336.324 264.835 340.269 244.776 340.269 244.776C355.28 145.108 304.311 152.416 293.02 170.346Z" stroke="#191715" stroke-linejoin="round"/>
</g>
<path opacity="0.6" d="M311.659 162.186C308.923 161.662 305.333 160.82 303.367 162.929C307.082 164.022 314.807 174.357 316.052 197.566C320.271 178.651 311.659 162.186 311.659 162.186Z" fill="#648191" stroke="#191715" stroke-linejoin="round"/>
<path d="M320.881 162.556C319.373 161.341 317.975 160.347 316.626 160.009C318.253 162.391 322.136 166.691 323.083 188.281C327.154 179.924 321.566 163.765 320.881 162.556Z" fill="#648191" stroke="#191715" stroke-linejoin="round"/>
<path d="M321.336 304.418C276.813 311.547 243.622 292.512 232.592 282.104C231.801 292.708 227.994 305.617 234.266 321.204C240.538 336.791 288.344 362.724 306.988 361.925C325.631 361.127 321.336 304.418 321.336 304.418Z" fill="#ADC07A" stroke="#191715"/>
<path d="M219.13 368.905C234.109 368.905 246.252 358.628 246.252 345.952C246.252 333.276 234.109 323 219.13 323C204.151 323 192.008 333.276 192.008 345.952C192.008 358.628 204.151 368.905 219.13 368.905Z" fill="#ADC07A"/>
<path d="M219.29 365.518C231.955 365.518 242.222 356.829 242.222 346.111C242.222 335.392 231.955 326.703 219.29 326.703C206.625 326.703 196.358 335.392 196.358 346.111C196.358 356.829 206.625 365.518 219.29 365.518Z" fill="#92A072"/>
<path d="M221.274 376.844V374.334H222.119V377.202C223.568 378.039 227.552 377.8 228.88 377.202V374.094C228.88 374.094 231.899 371.226 232.14 367.52C232.607 360.35 227.673 346.01 227.673 346.01C228.519 345.411 227.915 343.142 227.432 343.022C230.088 339.556 226.708 334.298 225.621 334.059C226.733 332.628 228.156 330.593 226.708 326.888C226.054 325.216 225.565 326.29 225.379 326.649C224.3 328.738 224.534 333.223 224.534 333.223C223.929 332.745 223.327 332.745 222.602 332.506C224.534 328.442 221.032 325.933 221.032 325.933C220.067 327.605 221.274 331.43 221.395 332.267C212.703 332.865 213.322 340.59 213.322 340.59C213.322 340.678 213.322 341.392 212.15 339.43C211.429 338.627 211.419 341.425 211.133 341.708C210.409 340.753 210.046 339.437 208.96 335.972C208.66 335.016 208.402 334.975 206.833 336.372C202.848 340.675 203.044 343.74 203.044 344.816C203.165 350.792 209.322 351.031 210.167 351.151C210.53 351.749 210.772 351.988 211.255 352.227C208.478 356.53 204.252 369.437 213.307 373.141C213.429 374.217 214.394 374.456 214.273 374.695V377.085C214.273 377.085 218.981 377.922 221.275 376.846L221.274 376.844Z" fill="url(#paint10_radial_1588_13202)" stroke="#304402" stroke-width="0.13" stroke-miterlimit="10"/>
<path d="M215.493 334.878C216.607 333.615 217.97 334.804 217.97 334.804" stroke="#304402" stroke-width="0.13"/>
<path d="M207.462 335.749C205.839 337.355 203.636 339.755 203.226 342.886C203.226 342.886 208.965 343.903 211.157 341.726C210.616 340.833 209.895 339.138 208.904 335.785C208.631 334.832 207.913 335.393 207.462 335.749Z" fill="url(#paint11_linear_1588_13202)" stroke="#304402" stroke-width="0.13" stroke-miterlimit="10"/>
<path d="M211.789 339.317C211.371 339.919 211.248 340.745 211.157 341.726C211.157 341.726 212.758 341.648 213.32 340.833C213.096 340.583 212.758 340.243 212.246 339.245C212.102 338.96 211.91 339.178 211.789 339.317Z" fill="url(#paint12_linear_1588_13202)" stroke="#304402" stroke-width="0.13" stroke-miterlimit="10"/>
<path d="M222.118 332.508C221.876 332.269 221.394 332.269 221.394 332.269" stroke="#304402" stroke-width="0.13"/>
<path d="M212.46 343.383C211.736 342.905 211.132 341.71 211.132 341.71" stroke="#304402" stroke-width="0.13"/>
<path d="M214.754 342.604C213.964 342.058 213.306 340.692 213.306 340.692" stroke="#304402" stroke-width="0.13"/>
<path d="M215.479 341.829C215.479 341.829 216.203 341.231 216.566 342.307" stroke="#304402" stroke-width="0.13"/>
<path d="M220.065 334.897C221.755 334.777 221.877 336.57 221.877 336.57" stroke="#304402" stroke-width="0.13"/>
<path d="M221.757 328.444C221.152 328.444 221.515 329.473 221.515 330.595C221.515 331.717 221.677 332.388 221.878 332.388C222.08 332.388 222.241 331.91 222.241 330.595C222.241 328.922 221.958 328.444 221.758 328.444H221.757Z" fill="#6A8490" stroke="#304402" stroke-width="0.13" stroke-miterlimit="10"/>
<path d="M225.969 328.563C225.379 328.801 225.727 329.591 225.727 330.713C225.379 332.267 224.575 333.82 224.775 333.82C224.974 333.82 226.345 332.147 226.586 330.713C226.707 329.637 226.763 328.241 225.969 328.563Z" fill="#6A8490" stroke="#304402" stroke-width="0.13" stroke-miterlimit="10"/>
<path d="M221.635 328.683C221.998 330.116 221.876 332.387 221.876 332.387M225.74 328.922C225.74 331.192 225.016 333.104 225.016 333.104" stroke="#304402" stroke-width="0.13"/>
<path d="M218.458 351.43C218.458 351.43 217.016 352.431 214.942 352.789C212.869 353.147 210.797 353.056 210.797 353.056L211.337 352.164C211.337 352.164 214.221 352.857 218.458 351.43Z" fill="#7E9CA7" stroke="#304402" stroke-width="0.13" stroke-miterlimit="10"/>
<path d="M222.118 343.98C221.513 343.024 220.789 343.142 220.789 343.142C220.185 350.911 210.164 351.15 210.164 351.15" stroke="#304402" stroke-width="0.13"/>
<path d="M209.553 344.962C209.809 344.269 209.748 343.611 209.418 343.491C209.088 343.372 208.613 343.837 208.358 344.53C208.102 345.223 208.162 345.881 208.492 346C208.822 346.12 209.297 345.655 209.553 344.962Z" fill="#648191" stroke="#304402" stroke-width="0.13" stroke-miterlimit="10"/>
<path d="M203.103 343.382L203.12 345.294C203.35 345.802 203.702 346.168 203.998 346.168C204.366 346.168 204.506 345.598 204.31 344.894C204.113 344.191 203.472 343.381 203.103 343.381V343.382Z" fill="#648191" stroke="#304402" stroke-width="0.13" stroke-miterlimit="10"/>
<path d="M220.377 337.845C220.168 337.353 219.821 337.068 219.395 337.068C218.97 337.068 218.519 337.352 218.129 337.845C217.741 338.336 217.429 339.02 217.29 339.781C217.151 340.54 217.212 341.226 217.419 341.716C217.629 342.208 217.976 342.493 218.401 342.493C218.826 342.493 219.277 342.21 219.667 341.716C220.056 341.226 220.367 340.542 220.506 339.781C220.646 339.021 220.585 338.336 220.377 337.845Z" fill="white" stroke="#304402" stroke-width="0.13"/>
<path d="M215.65 337.619C215.567 337.271 215.423 337.137 215.223 337.137C215.023 337.137 214.782 337.289 214.558 337.642C214.336 337.991 214.144 338.515 214.03 339.2C213.918 339.879 213.992 340.523 214.156 340.995C214.238 341.231 214.342 341.42 214.452 341.55C214.566 341.682 214.676 341.74 214.769 341.74C214.861 341.74 214.957 341.694 215.06 341.583C215.164 341.471 215.264 341.302 215.355 341.077C215.538 340.628 215.669 339.98 215.709 339.21C215.746 338.493 215.733 337.966 215.65 337.619Z" fill="white" stroke="#304402" stroke-width="0.13"/>
<path d="M219.125 341.038C219.284 340.46 219.107 339.908 218.729 339.806C218.351 339.704 217.915 340.09 217.755 340.669C217.596 341.247 217.773 341.799 218.152 341.901C218.53 342.003 218.966 341.617 219.125 341.038Z" fill="#191715" stroke="#304402" stroke-width="0.13" stroke-miterlimit="10"/>
<path d="M215.629 340.358C215.698 339.834 215.469 339.373 215.119 339.329C214.768 339.284 214.429 339.672 214.361 340.196C214.293 340.719 214.521 341.18 214.872 341.225C215.222 341.269 215.561 340.881 215.629 340.358Z" fill="#191715" stroke="#304402" stroke-width="0.13" stroke-miterlimit="10"/>
<path d="M215.061 339.831C215.075 339.689 215.027 339.569 214.954 339.562C214.881 339.555 214.811 339.664 214.797 339.806C214.783 339.948 214.831 340.068 214.904 340.075C214.976 340.082 215.047 339.973 215.061 339.831Z" fill="white" stroke="#304402" stroke-width="0.13" stroke-miterlimit="10"/>
<path d="M218.79 340.566C218.818 340.425 218.75 340.294 218.637 340.272C218.524 340.25 218.411 340.346 218.383 340.487C218.355 340.627 218.423 340.759 218.536 340.781C218.649 340.803 218.763 340.707 218.79 340.566Z" fill="white" stroke="#304402" stroke-width="0.13" stroke-miterlimit="10"/>
<path d="M230.027 362.384C230.027 362.384 230.51 360.591 230.51 356.529L223.869 352.465C223.869 356.768 222.782 363.221 223.144 366.566C223.351 368.478 227.25 371.108 230.027 362.384Z" fill="url(#paint13_linear_1588_13202)" stroke="#304402" stroke-width="0.13" stroke-miterlimit="10"/>
<path d="M100.003 355.082L103.559 354.393C110.719 353.007 118.006 351.776 125.215 350.735L129.789 350.073V367.587L126.796 368.218V376.243L128.277 375.868L126.679 382.285C125.947 385.226 125.215 388.171 124.483 391.118L123.883 393.531L121.428 394.046C117.167 394.937 112.855 395.902 108.614 396.916L104.134 397.986L100 355.085L100.003 355.082Z" fill="#ADC07A"/>
<path d="M121.756 357.525L125.479 357.125C128.274 356.824 131.11 356.546 133.909 356.297L138.339 355.903L137.948 378.224C139.706 377.922 141.465 377.631 143.212 377.351L148.131 376.563L147.164 392.876L143.655 393.117C138.597 393.463 133.334 393.888 127.562 394.416L123.382 394.799L121.751 357.525H121.756Z" fill="#ADC07A"/>
<path d="M142.042 373.393C138.494 368.24 134.888 363.037 131.308 357.915L128.055 353.259L133.589 351.835C136.84 350.998 140.138 350.186 143.398 349.418L146.318 348.73L147.799 351.316C148.758 352.992 149.721 354.677 150.683 356.362C151.668 354.47 152.653 352.582 153.631 350.711L154.603 348.85L156.704 348.6C159.948 348.214 163.239 347.858 166.488 347.543L174.192 346.793L170.349 353.444C166.646 359.852 162.918 366.352 159.257 372.782L159.338 392.474L155.657 392.777C152.627 393.025 149.551 393.308 146.517 393.62L142.127 394.07L142.043 373.39L142.042 373.393Z" fill="#ADC07A"/>
<path d="M170.392 392.308C166.163 392.308 161.851 390.284 157.922 386.456L155.453 384.05L157.507 381.291C158.766 379.601 160.037 377.896 161.29 376.224C160.622 375.481 160.062 374.677 159.613 373.812L159.595 373.777C158.262 371.144 157.838 368.382 158.339 365.569C158.826 362.829 159.963 360.445 161.717 358.484C163.632 356.319 166.133 354.976 168.951 354.599L169.004 354.593L169.057 354.586C169.976 354.488 170.858 354.438 171.682 354.438C179.426 354.438 182.358 358.739 185.193 362.897L187.784 366.699L183.854 368.759C182.606 369.414 181.344 370.08 180.089 370.748C180.769 371.411 181.364 372.157 181.872 372.983C183.247 375.212 183.893 377.662 183.794 380.262C183.691 382.889 182.753 385.326 181.007 387.508L180.988 387.532C179.248 389.671 176.695 391.164 173.4 391.964L173.338 391.979C172.374 392.197 171.383 392.308 170.393 392.308H170.392Z" fill="#ADC07A"/>
<path d="M191.433 392.55C189.34 392.47 187.219 392.402 185.126 392.351L181.551 392.262L177.738 348.573L182.173 348.652C185.57 348.713 189.014 348.812 192.408 348.948L196.314 349.105L195.511 392.707L191.433 392.549V392.55Z" fill="#ADC07A"/>
<path d="M213.444 394.181C211.572 394.016 209.666 393.86 207.778 393.717L204.17 393.445L204.149 392.587C203.735 392.619 203.331 392.635 202.932 392.635C201.625 392.635 200.392 392.459 199.268 392.112C196.397 391.226 194.139 389.457 192.557 386.852C188.832 380.803 189.073 371.122 189.251 364.052L189.26 363.696V363.648C189.321 362.446 189.351 361.232 189.351 360.042V356.78L192.587 356.16C194.968 355.703 197.38 355.26 199.757 354.84L204.454 354.013V356.483L207.302 357.178C209.692 357.762 212.109 358.371 214.485 358.988L217.465 359.763V362.814C217.465 367.79 217.518 372.265 217.628 376.497C217.74 380.749 217.793 385.246 217.793 390.242V394.567L213.441 394.182L213.444 394.181Z" fill="#ADC07A"/>
<path d="M242.595 397.4C239.913 397.038 237.185 396.694 234.49 396.381L231.121 395.989L230.83 389.793L229.781 391.523L228.961 390.157L228.736 397.972L224.354 397.411C221.757 397.079 219.121 396.766 216.517 396.479L213.11 396.104L211.307 353.937L215.056 353.561C217.997 353.265 220.976 352.994 223.908 352.757L226.574 352.54L227.793 354.896C228.32 355.917 228.849 356.941 229.379 357.968C229.953 356.825 230.526 355.688 231.097 354.555L232.248 352.27L234.825 352.368C237.925 352.485 241.065 352.637 244.16 352.82L248 353.047L247.032 398L242.59 397.4H242.595Z" fill="#ADC07A"/>
<path d="M104.326 358.277C111.463 356.896 118.622 355.687 125.794 354.65V364.386C121.6 365.27 117.41 366.215 113.228 367.218C113.189 369.086 113.15 370.953 113.111 372.82C116.337 371.816 119.568 370.845 122.801 369.91V377.05C119.864 377.565 116.929 378.107 113.997 378.68C114.09 380.313 114.184 381.947 114.277 383.58C117.116 382.806 119.957 382.057 122.801 381.337C122.069 384.281 121.337 387.226 120.604 390.171C116.289 391.073 111.981 392.038 107.679 393.065C106.561 381.464 105.444 369.866 104.326 358.273V358.277Z" fill="#D64C3D"/>
<path d="M111.95 358.752C118.308 357.371 124.684 356.162 131.072 355.125V364.86C127.336 365.745 123.605 366.69 119.878 367.693C119.843 369.56 119.81 371.428 119.774 373.295C122.649 372.29 125.527 371.32 128.406 370.385V377.525C125.789 378.039 123.175 378.582 120.564 379.155C120.647 380.788 120.73 382.421 120.814 384.054C123.343 383.28 125.873 382.532 128.406 381.812C127.754 384.755 127.101 387.7 126.449 390.645C122.606 391.547 118.767 392.513 114.937 393.54C113.941 381.939 112.945 370.341 111.95 358.747V358.752Z" fill="#999999"/>
<path d="M131.177 361.532C133.656 361.233 136.138 360.959 138.619 360.712C138.501 368.289 138.382 375.864 138.264 383.441C141.226 382.833 144.19 382.264 147.158 381.73C147.018 384.368 146.879 387.006 146.74 389.644C141.874 390.018 137.074 390.463 132.323 390.952C131.941 381.145 131.559 371.338 131.177 361.533V361.532Z" fill="#999999"/>
<path d="M138.913 356.141C141.798 355.307 144.687 354.507 147.576 353.745C149.512 357.541 151.448 361.353 153.386 365.183C155.268 361.109 157.149 357.052 159.031 353.007C161.91 352.623 164.79 352.273 167.671 351.958C164.219 358.666 160.766 365.423 157.316 372.231C157.336 377.925 157.357 383.619 157.378 389.312C154.639 389.564 151.901 389.847 149.162 390.162C149.141 384.323 149.121 378.482 149.1 372.643C145.701 367.093 142.304 361.592 138.911 356.141H138.913Z" fill="#999999"/>
<path d="M181.126 365.737C179.487 366.702 177.848 367.677 176.208 368.664C176.208 368.663 173.132 363.827 170.747 366.101C168.361 368.356 171.102 370.931 174.115 372.113C175.831 372.809 177.129 373.956 177.986 375.518C178.844 377.08 179.241 378.756 179.178 380.587C179.116 382.394 178.529 384.03 177.463 385.527C176.395 387.001 174.785 388.01 172.63 388.597C169.386 389.422 165.788 388.047 162.19 384.111C163.369 382.332 164.547 380.562 165.725 378.795C165.725 378.789 170.098 385.1 172.483 382.896C174.868 380.642 172.023 378.226 169.114 376.9C166.792 375.797 165.223 374.333 164.365 372.478C163.529 370.624 163.257 368.709 163.57 366.729C163.883 364.749 164.595 363.013 165.746 361.572C166.897 360.108 168.32 359.246 169.994 358.994C176.627 358.195 178.427 361.295 181.126 365.738V365.737Z" fill="#999999"/>
<path d="M181.229 353.083C184.243 353.143 187.255 353.241 190.265 353.377C190.07 365.276 189.875 377.175 189.68 389.073C187.79 388.991 185.901 388.925 184.011 388.872C183.084 376.939 182.156 365.01 181.228 353.085L181.229 353.083Z" fill="#999999"/>
<path d="M197.584 359.206C197.584 359.832 197.543 360.848 197.459 362.235C197.355 363.896 197.271 365.816 197.208 368.014C197.146 370.188 197.167 372.323 197.292 374.44C197.416 376.535 197.709 378.316 198.148 379.759C198.609 381.204 199.319 382.017 200.28 382.25C201.24 382.367 201.95 381.843 202.411 380.674C202.869 379.482 203.162 377.952 203.268 376.037C203.371 374.122 203.392 372.154 203.309 370.106C203.226 368.036 203.12 366.195 202.996 364.586C202.892 363.14 202.828 362.116 202.828 361.489C204.945 362.068 207.06 362.668 209.173 363.285C209.173 367.944 209.215 372.538 209.319 377.069C209.423 381.553 209.464 386.1 209.464 390.713C207.768 390.545 206.07 390.388 204.372 390.244C204.358 389.578 204.345 388.914 204.331 388.247C201.554 389.217 199.319 389.407 197.584 388.806C195.849 388.206 194.532 387.018 193.592 385.274C190.77 380.14 191.02 370.935 191.167 364.311C191.229 362.877 191.25 361.603 191.25 360.513C193.362 360.057 195.474 359.622 197.584 359.204V359.206Z" fill="#999999"/>
<path d="M210.946 357.971C213.553 357.677 216.158 357.411 218.762 357.174C220.303 360.519 221.843 363.875 223.382 367.243C224.943 363.75 226.501 360.269 228.06 356.797C230.81 356.914 233.557 357.063 236.3 357.245C236.065 369.482 235.83 381.718 235.595 393.955C233.168 393.586 230.74 393.245 228.31 392.926C228.087 387.624 227.867 382.319 227.645 377.016C226.335 379.43 225.026 381.852 223.715 384.28C222.398 381.816 221.079 379.36 219.761 376.912C219.616 382.596 219.47 388.279 219.323 393.963C216.978 393.626 214.629 393.313 212.279 393.021C211.835 381.336 211.389 369.653 210.944 357.971H210.946Z" fill="#999999"/>
<path d="M111.228 358.705C117.659 357.324 124.11 356.115 130.572 355.078V364.814C126.793 365.698 123.018 366.643 119.248 367.646C119.213 369.514 119.178 371.381 119.143 373.248C122.051 372.243 124.962 371.273 127.875 370.338V377.478C125.228 377.992 122.583 378.535 119.942 379.108C120.027 380.741 120.11 382.374 120.195 384.007C122.753 383.234 125.314 382.485 127.877 381.765C127.216 384.708 126.556 387.653 125.897 390.598C122.009 391.5 118.126 392.466 114.251 393.493C113.244 381.892 112.236 370.294 111.229 358.7L111.228 358.705Z" fill="#999999"/>
<path d="M130.678 361.485C133.186 361.186 135.696 360.912 138.208 360.665C138.088 368.242 137.968 375.817 137.85 383.394C140.846 382.787 143.845 382.217 146.846 381.684C146.705 384.322 146.564 386.96 146.424 389.598C141.499 389.971 136.644 390.416 131.838 390.905C131.452 381.098 131.066 371.291 130.679 361.486L130.678 361.485Z" fill="#999999"/>
<path d="M138.502 356.094C141.421 355.26 144.343 354.461 147.266 353.698C149.224 357.494 151.183 361.306 153.143 365.136C155.045 361.063 156.949 357.005 158.853 352.96C161.766 352.576 164.679 352.226 167.594 351.911C164.1 358.619 160.609 365.376 157.119 372.184C157.139 377.878 157.16 383.572 157.183 389.266C154.412 389.517 151.641 389.8 148.873 390.115C148.852 384.276 148.831 378.435 148.809 372.596C145.37 367.046 141.934 361.545 138.5 356.094H138.502Z" fill="#999999"/>
<path d="M181.207 365.69C179.549 366.655 177.891 367.63 176.231 368.618C176.231 368.616 173.12 363.78 170.706 366.054C168.294 368.309 171.066 370.884 174.115 372.066C175.851 372.762 177.163 373.909 178.032 375.471C178.9 377.033 179.301 378.709 179.239 380.54C179.175 382.347 178.583 383.983 177.502 385.48C176.423 386.954 174.793 387.963 172.612 388.55C169.331 389.375 165.689 388 162.051 384.064C163.243 382.285 164.434 380.515 165.627 378.749C165.627 378.742 170.051 385.053 172.465 382.849C174.877 380.595 172 378.179 169.056 376.853C166.706 375.75 165.119 374.286 164.252 372.431C163.405 370.577 163.13 368.662 163.448 366.682C163.766 364.703 164.486 362.967 165.65 361.525C166.813 360.061 168.252 359.199 169.947 358.947C176.657 358.148 178.478 361.248 181.208 365.692L181.207 365.69Z" fill="#999999"/>
<path d="M181.312 353.036C184.359 353.096 187.408 353.194 190.454 353.33C190.257 365.229 190.059 377.128 189.861 389.026C187.95 388.944 186.038 388.878 184.126 388.825C183.187 376.892 182.249 364.963 181.311 353.038L181.312 353.036Z" fill="#999999"/>
<path d="M197.855 359.159C197.855 359.785 197.814 360.801 197.729 362.188C197.624 363.849 197.539 365.769 197.475 367.967C197.411 370.141 197.433 372.276 197.56 374.393C197.686 376.489 197.982 378.269 198.426 379.712C198.891 381.157 199.609 381.97 200.583 382.203C201.555 382.32 202.273 381.796 202.738 380.627C203.203 379.435 203.499 377.905 203.604 375.99C203.71 374.075 203.731 372.107 203.646 370.059C203.561 367.989 203.456 366.149 203.329 364.539C203.224 363.093 203.16 362.069 203.16 361.442C205.301 362.022 207.441 362.621 209.58 363.238C209.58 367.897 209.622 372.491 209.727 377.022C209.833 381.507 209.875 386.053 209.875 390.666C208.158 390.498 206.441 390.342 204.722 390.198C204.708 389.531 204.693 388.867 204.68 388.2C201.871 389.171 199.609 389.36 197.854 388.759C196.098 388.159 194.767 386.971 193.815 385.227C190.96 380.093 191.214 370.888 191.361 364.264C191.425 362.83 191.446 361.556 191.446 360.466C193.582 360.01 195.718 359.575 197.854 359.157L197.855 359.159Z" fill="#999999"/>
<path d="M211.375 357.924C214.013 357.63 216.647 357.364 219.282 357.127C220.841 360.472 222.399 363.828 223.957 367.196C225.535 363.703 227.112 360.222 228.689 356.75C231.471 356.867 234.249 357.016 237.025 357.198C236.786 369.435 236.55 381.671 236.312 393.908C233.857 393.539 231.4 393.198 228.941 392.88C228.718 387.577 228.492 382.272 228.268 376.969C226.945 379.383 225.619 381.805 224.292 384.233C222.959 381.769 221.626 379.313 220.292 376.865C220.145 382.549 219.998 388.232 219.849 393.916C217.475 393.579 215.101 393.266 212.724 392.975C212.275 381.29 211.824 369.606 211.373 357.924H211.375Z" fill="#999999"/>
<path d="M110.496 358.657C117.003 357.276 123.527 356.067 130.066 355.03V364.766C126.242 365.65 122.424 366.595 118.61 367.598C118.574 369.466 118.539 371.333 118.502 373.2C121.444 372.195 124.389 371.225 127.337 370.29V377.43C124.659 377.945 121.985 378.487 119.311 379.06C119.396 380.693 119.481 382.326 119.567 383.96C122.156 383.186 124.745 382.437 127.339 381.717C126.67 384.661 126.004 387.606 125.335 390.551C121.403 391.453 117.475 392.418 113.553 393.445C112.533 381.844 111.514 370.246 110.496 358.653V358.657Z" fill="#999999"/>
<path d="M130.173 361.437C132.71 361.138 135.249 360.864 137.789 360.617C137.668 368.194 137.548 375.769 137.426 383.346C140.457 382.739 143.492 382.169 146.528 381.636C146.385 384.274 146.243 386.912 146.101 389.55C141.119 389.923 136.208 390.368 131.346 390.857C130.955 381.05 130.565 371.244 130.173 361.438V361.437Z" fill="#999999"/>
<path d="M138.089 356.046C141.043 355.212 143.998 354.413 146.955 353.65C148.936 357.446 150.919 361.258 152.901 365.088C154.826 361.015 156.752 356.957 158.679 352.912C161.625 352.528 164.573 352.178 167.521 351.863C163.988 358.571 160.455 365.329 156.925 372.136C156.946 377.83 156.968 383.524 156.989 389.218C154.185 389.469 151.382 389.753 148.581 390.068C148.56 384.228 148.538 378.387 148.517 372.548C145.039 366.998 141.563 361.497 138.089 356.046Z" fill="#999999"/>
<path d="M181.29 365.642C179.613 366.607 177.936 367.582 176.257 368.57C176.257 368.568 173.11 363.732 170.668 366.006C168.227 368.261 171.033 370.836 174.117 372.018C175.872 372.714 177.201 373.862 178.078 375.423C178.956 376.985 179.364 378.661 179.298 380.492C179.234 382.299 178.635 383.936 177.543 385.433C176.451 386.906 174.801 387.916 172.596 388.503C169.277 389.327 165.594 387.952 161.912 384.016C163.118 382.238 164.325 380.467 165.53 378.701C165.53 378.694 170.005 385.005 172.446 382.801C174.887 380.548 171.974 378.131 168.998 376.805C166.62 375.702 165.015 374.238 164.138 372.383C163.281 370.529 163.002 368.614 163.324 366.634C163.645 364.655 164.373 362.919 165.551 361.477C166.729 360.013 168.184 359.151 169.898 358.899C176.686 358.1 178.528 361.2 181.29 365.644V365.642Z" fill="#999999"/>
<path d="M181.396 352.988C184.48 353.048 187.563 353.147 190.645 353.283C190.445 365.181 190.245 377.08 190.046 388.979C188.113 388.896 186.178 388.83 184.244 388.778C183.294 376.844 182.346 364.915 181.396 352.99V352.988Z" fill="#999999"/>
<path d="M198.133 359.111C198.133 359.738 198.09 360.754 198.005 362.14C197.898 363.801 197.813 365.721 197.748 367.919C197.684 370.093 197.704 372.228 197.834 374.345C197.962 376.441 198.262 378.221 198.71 379.664C199.18 381.109 199.907 381.922 200.891 382.155C201.874 382.272 202.601 381.748 203.071 380.579C203.541 379.387 203.84 377.857 203.947 375.942C204.055 374.027 204.075 372.059 203.991 370.011C203.906 367.941 203.799 366.101 203.669 364.491C203.562 363.045 203.498 362.021 203.498 361.394C205.664 361.974 207.829 362.573 209.992 363.191C209.992 367.849 210.035 372.443 210.141 376.974C210.248 381.459 210.29 386.005 210.29 390.618C208.553 390.45 206.816 390.294 205.078 390.15C205.063 389.483 205.049 388.819 205.035 388.153C202.192 389.123 199.904 389.313 198.13 388.711C196.355 388.111 195.007 386.923 194.043 385.179C191.154 380.046 191.412 370.84 191.561 364.216C191.624 362.782 191.647 361.508 191.647 360.418C193.808 359.962 195.97 359.527 198.13 359.109L198.133 359.111Z" fill="#999999"/>
<path d="M211.809 357.876C214.477 357.582 217.144 357.316 219.807 357.079C221.385 360.424 222.961 363.781 224.536 367.148C226.133 363.656 227.729 360.174 229.324 356.702C232.138 356.819 234.95 356.968 237.757 357.15C237.518 369.387 237.276 381.623 237.036 393.86C234.554 393.492 232.068 393.15 229.58 392.832C229.353 387.529 229.126 382.224 228.899 376.921C227.559 379.335 226.218 381.758 224.877 384.185C223.529 381.721 222.18 379.265 220.83 376.817C220.682 382.501 220.531 388.184 220.383 393.868C217.981 393.531 215.578 393.218 213.174 392.927C212.718 381.242 212.263 369.558 211.809 357.876Z" fill="#999999"/>
<path d="M109.756 358.609C116.337 357.228 122.939 356.019 129.552 354.982V364.718C125.685 365.602 121.821 366.547 117.963 367.55C117.928 369.418 117.891 371.285 117.856 373.152C120.831 372.148 123.811 371.178 126.793 370.242V377.382C124.085 377.897 121.378 378.44 118.673 379.012C118.76 380.645 118.846 382.279 118.931 383.912C121.549 383.138 124.17 382.389 126.791 381.669C126.117 384.613 125.441 387.558 124.766 390.503C120.787 391.405 116.814 392.37 112.846 393.397C111.815 381.796 110.783 370.198 109.754 358.605L109.756 358.609Z" fill="#999999"/>
<path d="M129.661 361.389C132.227 361.09 134.796 360.816 137.367 360.569C137.244 368.146 137.122 375.722 136.999 383.298C140.065 382.691 143.135 382.121 146.206 381.588C146.062 384.226 145.918 386.864 145.773 389.502C140.734 389.875 135.765 390.32 130.845 390.809C130.451 381.002 130.054 371.196 129.659 361.391L129.661 361.389Z" fill="#999999"/>
<path d="M137.669 355.998C140.657 355.164 143.647 354.365 146.639 353.602C148.644 357.398 150.649 361.211 152.654 365.04C154.601 360.967 156.55 356.909 158.499 352.865C161.479 352.48 164.462 352.13 167.444 351.815C163.869 358.524 160.296 365.281 156.724 372.089C156.746 377.782 156.767 383.476 156.79 389.17C153.954 389.421 151.119 389.705 148.284 390.02C148.262 384.18 148.241 378.339 148.219 372.5C144.7 366.95 141.183 361.45 137.671 355.998H137.669Z" fill="#999999"/>
<path d="M181.373 365.594C179.677 366.56 177.979 367.534 176.283 368.522C176.283 368.52 173.098 363.684 170.628 365.958C168.158 368.213 170.996 370.788 174.116 371.97C175.893 372.666 177.236 373.814 178.124 375.376C179.013 376.937 179.424 378.613 179.359 380.444C179.293 382.251 178.687 383.888 177.582 385.385C176.478 386.858 174.81 387.868 172.578 388.455C169.221 389.279 165.495 387.904 161.77 383.968C162.989 382.19 164.209 380.419 165.431 378.653C165.431 378.647 169.958 384.957 172.428 382.753C174.898 380.5 171.952 378.083 168.94 376.757C166.535 375.654 164.911 374.19 164.022 372.336C163.156 370.481 162.874 368.566 163.199 366.586C163.523 364.607 164.26 362.871 165.451 361.429C166.642 359.965 168.116 359.103 169.849 358.851C176.718 358.052 178.58 361.152 181.375 365.596L181.373 365.594Z" fill="#999999"/>
<path d="M181.48 352.94C184.6 353.001 187.719 353.099 190.836 353.235C190.635 365.133 190.432 377.032 190.23 388.931C188.275 388.848 186.318 388.782 184.361 388.73C183.401 376.796 182.441 364.868 181.48 352.942V352.94Z" fill="#999999"/>
<path d="M198.413 359.063C198.413 359.69 198.37 360.706 198.283 362.092C198.175 363.754 198.088 365.673 198.024 367.871C197.959 370.046 197.981 372.18 198.111 374.298C198.24 376.393 198.544 378.173 198.998 379.616C199.474 381.061 200.21 381.875 201.204 382.107C202.199 382.224 202.934 381.7 203.41 380.531C203.887 379.339 204.189 377.809 204.296 375.894C204.405 373.98 204.426 372.011 204.339 369.963C204.253 367.893 204.144 366.053 204.015 364.444C203.906 362.997 203.842 361.973 203.842 361.347C206.032 361.926 208.223 362.526 210.411 363.143C210.411 367.802 210.454 372.395 210.563 376.926C210.672 381.411 210.715 385.957 210.715 390.57C208.958 390.403 207.201 390.246 205.442 390.102C205.428 389.436 205.414 388.771 205.399 388.105C202.525 389.075 200.21 389.265 198.414 388.663C196.619 388.064 195.255 386.875 194.282 385.131C191.359 379.998 191.618 370.792 191.77 364.168C191.836 362.734 191.856 361.461 191.856 360.37C194.043 359.914 196.229 359.479 198.414 359.062L198.413 359.063Z" fill="#999999"/>
<path d="M212.247 357.828C214.945 357.534 217.644 357.268 220.338 357.031C221.933 360.376 223.529 363.733 225.121 367.1C226.736 363.608 228.351 360.126 229.965 356.654C232.813 356.771 235.657 356.92 238.496 357.102C238.253 369.339 238.01 381.575 237.766 393.813C235.254 393.444 232.739 393.102 230.223 392.784C229.993 387.481 229.764 382.177 229.534 376.874C228.178 379.287 226.822 381.71 225.465 384.137C224.101 381.673 222.736 379.217 221.371 376.769C221.22 382.453 221.068 388.136 220.918 393.82C218.49 393.483 216.058 393.17 213.626 392.879C213.166 381.194 212.706 369.51 212.245 357.828H212.247Z" fill="#999999"/>
<path d="M109.007 358.563C115.666 357.181 122.344 355.972 129.034 354.936V364.671C125.121 365.556 121.213 366.5 117.311 367.504C117.274 369.371 117.239 371.238 117.202 373.106C120.213 372.101 123.226 371.131 126.243 370.195V377.336C123.503 377.85 120.764 378.393 118.029 378.966C118.115 380.599 118.203 382.232 118.289 383.865C120.938 383.091 123.589 382.343 126.241 381.622C125.559 384.566 124.874 387.511 124.192 390.456C120.166 391.358 116.147 392.323 112.133 393.35C111.09 381.749 110.046 370.151 109.004 358.558L109.007 358.563Z" fill="#999999"/>
<path d="M129.143 361.342C131.739 361.043 134.338 360.769 136.938 360.522C136.815 368.099 136.69 375.675 136.567 383.252C139.67 382.644 142.775 382.074 145.881 381.541C145.736 384.179 145.59 386.817 145.443 389.455C140.346 389.828 135.318 390.273 130.343 390.762C129.944 380.955 129.542 371.149 129.143 361.344V361.342Z" fill="#999999"/>
<path d="M137.245 355.951C140.268 355.117 143.293 354.318 146.319 353.555C148.347 357.352 150.375 361.164 152.404 364.993C154.375 360.92 156.345 356.863 158.316 352.818C161.331 352.433 164.348 352.083 167.365 351.769C163.749 358.477 160.134 365.234 156.521 372.042C156.543 377.735 156.564 383.429 156.586 389.123C153.717 389.375 150.849 389.658 147.982 389.973C147.96 384.133 147.939 378.293 147.917 372.453C144.356 366.903 140.799 361.403 137.245 355.951Z" fill="#999999"/>
<path d="M181.457 365.547C179.74 366.513 178.023 367.488 176.307 368.475C176.307 368.473 173.086 363.637 170.587 365.911C168.088 368.166 170.96 370.741 174.115 371.923C175.912 372.619 177.271 373.767 178.17 375.329C179.068 376.891 179.486 378.566 179.418 380.397C179.353 382.205 178.739 383.841 177.621 385.338C176.504 386.811 174.816 387.821 172.558 388.408C169.161 389.232 165.391 387.857 161.623 383.922C162.857 382.143 164.091 380.372 165.326 378.606C165.326 378.6 169.906 384.911 172.405 382.706C174.904 380.453 171.922 378.036 168.876 376.71C166.443 375.607 164.8 374.143 163.903 372.289C163.027 370.434 162.742 368.519 163.07 366.54C163.399 364.56 164.143 362.824 165.348 361.382C166.554 359.919 168.044 359.056 169.797 358.804C176.745 358.005 178.63 361.105 181.457 365.549V365.547Z" fill="#999999"/>
<path d="M181.567 352.894C184.723 352.954 187.877 353.052 191.031 353.188C190.827 365.087 190.622 376.985 190.418 388.884C188.438 388.802 186.459 388.735 184.48 388.683C183.508 376.749 182.537 364.821 181.565 352.895L181.567 352.894Z" fill="#999999"/>
<path d="M198.695 359.016C198.695 359.643 198.652 360.659 198.564 362.045C198.455 363.707 198.367 365.626 198.302 367.824C198.236 369.999 198.258 372.133 198.39 374.251C198.521 376.346 198.828 378.126 199.286 379.569C199.768 381.014 200.513 381.828 201.518 382.06C202.525 382.177 203.269 381.654 203.75 380.484C204.231 379.293 204.537 377.762 204.647 375.847C204.756 373.933 204.778 371.964 204.69 369.916C204.602 367.846 204.493 366.006 204.362 364.397C204.254 362.95 204.188 361.926 204.188 361.3C206.404 361.879 208.62 362.479 210.834 363.096C210.834 367.755 210.877 372.349 210.987 376.879C211.096 381.364 211.141 385.91 211.141 390.523C209.363 390.356 207.585 390.199 205.808 390.055C205.793 389.389 205.779 388.724 205.764 388.058C202.856 389.028 200.514 389.218 198.698 388.617C196.882 388.017 195.502 386.828 194.517 385.084C191.561 379.951 191.824 370.746 191.977 364.121C192.043 362.688 192.065 361.414 192.065 360.323C194.278 359.868 196.489 359.432 198.7 359.015L198.695 359.016Z" fill="#999999"/>
<path d="M212.69 357.782C215.421 357.487 218.15 357.221 220.876 356.984C222.491 360.329 224.104 363.686 225.715 367.053C227.349 363.561 228.983 360.079 230.615 356.607C233.495 356.725 236.372 356.873 239.245 357.055C238.999 369.293 238.753 381.528 238.507 393.766C235.966 393.397 233.421 393.055 230.876 392.737C230.644 387.434 230.412 382.13 230.179 376.827C228.807 379.24 227.435 381.663 226.064 384.09C224.684 381.626 223.303 379.17 221.921 376.722C221.77 382.407 221.616 388.089 221.464 393.774C219.007 393.436 216.548 393.123 214.088 392.832C213.622 381.147 213.156 369.463 212.69 357.782Z" fill="#999999"/>
<path d="M108.249 358.515C114.984 357.133 121.741 355.924 128.51 354.888V364.623C124.551 365.508 120.598 366.452 116.649 367.456C116.612 369.323 116.575 371.19 116.538 373.058C119.584 372.053 122.633 371.083 125.685 370.148V377.288C122.912 377.802 120.142 378.345 117.376 378.918C117.464 380.551 117.552 382.184 117.64 383.817C120.319 383.043 123 382.295 125.685 381.575C124.994 384.518 124.302 387.463 123.611 390.408C119.539 391.31 115.472 392.275 111.413 393.302C110.358 381.701 109.303 370.103 108.249 358.51V358.515Z" fill="#999999"/>
<path d="M128.62 361.294C131.247 360.995 133.875 360.721 136.507 360.475C136.382 368.052 136.256 375.627 136.131 383.204C139.269 382.596 142.411 382.026 145.554 381.493C145.407 384.131 145.258 386.769 145.111 389.407C139.953 389.781 134.87 390.225 129.835 390.714C129.431 380.908 129.026 371.101 128.622 361.296L128.62 361.294Z" fill="#999999"/>
<path d="M136.815 355.903C139.874 355.069 142.934 354.27 145.995 353.507C148.046 357.304 150.098 361.116 152.15 364.945C154.144 360.872 156.138 356.815 158.133 352.77C161.183 352.385 164.235 352.036 167.287 351.721C163.629 358.429 159.971 365.186 156.317 371.994C156.339 377.688 156.361 383.381 156.384 389.075C153.48 389.327 150.58 389.61 147.68 389.925C147.658 384.086 147.636 378.245 147.613 372.405C144.011 366.856 140.413 361.355 136.817 355.903H136.815Z" fill="#999999"/>
<path d="M181.542 365.5C179.806 366.465 178.068 367.44 176.332 368.427C176.332 368.426 173.072 363.589 170.545 365.864C168.017 368.119 170.922 370.693 174.115 371.875C175.933 372.572 177.307 373.719 178.217 375.281C179.127 376.843 179.547 378.519 179.48 380.35C179.413 382.157 178.793 383.793 177.662 385.29C176.532 386.763 174.825 387.773 172.54 388.36C169.103 389.185 165.29 387.809 161.479 383.874C162.727 382.095 163.976 380.324 165.224 378.558C165.224 378.552 169.857 384.863 172.385 382.658C174.913 380.405 171.897 377.988 168.815 376.662C166.355 375.559 164.692 374.096 163.782 372.241C162.895 370.386 162.607 368.471 162.94 366.492C163.272 364.512 164.025 362.776 165.245 361.334C166.465 359.871 167.973 359.008 169.745 358.757C176.773 357.957 178.681 361.058 181.541 365.501L181.542 365.5Z" fill="#999999"/>
<path d="M181.652 352.846C184.845 352.906 188.036 353.004 191.227 353.14C191.021 365.039 190.813 376.937 190.607 388.836C188.605 388.754 186.604 388.687 184.6 388.635C183.617 376.702 182.636 364.773 181.652 352.847V352.846Z" fill="#999999"/>
<path d="M198.979 358.968C198.979 359.595 198.935 360.611 198.847 361.997C198.736 363.659 198.647 365.578 198.581 367.776C198.514 369.951 198.536 372.086 198.669 374.203C198.802 376.298 199.112 378.078 199.577 379.522C200.065 380.966 200.816 381.78 201.835 382.012C202.853 382.13 203.604 381.606 204.092 380.436C204.58 379.245 204.888 377.714 204.999 375.8C205.109 373.885 205.131 371.916 205.043 369.869C204.955 367.799 204.843 365.958 204.711 364.349C204.6 362.902 204.533 361.879 204.533 361.252C206.776 361.831 209.016 362.431 211.258 363.048C211.258 367.707 211.302 372.301 211.413 376.831C211.523 381.316 211.568 385.863 211.568 390.476C209.769 390.308 207.971 390.151 206.172 390.007C206.158 389.341 206.143 388.676 206.127 388.01C203.186 388.98 200.816 389.17 198.978 388.569C197.139 387.969 195.745 386.78 194.748 385.037C191.756 379.903 192.023 370.698 192.178 364.073C192.246 362.64 192.266 361.366 192.266 360.276C194.505 359.82 196.741 359.385 198.978 358.967L198.979 358.968Z" fill="#999999"/>
<path d="M213.138 357.734C215.901 357.439 218.662 357.174 221.42 356.936C223.052 360.282 224.684 363.638 226.317 367.006C227.97 363.513 229.623 360.032 231.273 356.56C234.185 356.677 237.097 356.825 240.003 357.007C239.754 369.245 239.506 381.48 239.257 393.718C236.686 393.349 234.112 393.007 231.536 392.689C231.301 387.386 231.066 382.082 230.831 376.779C229.444 379.192 228.056 381.615 226.668 384.043C225.273 381.579 223.875 379.123 222.478 376.674C222.323 382.359 222.169 388.041 222.014 393.726C219.528 393.389 217.041 393.075 214.552 392.784C214.08 381.099 213.608 369.416 213.137 357.734H213.138Z" fill="#999999"/>
<path d="M107.482 358.467C114.298 357.085 121.131 355.876 127.98 354.84V364.575C123.975 365.46 119.975 366.405 115.981 367.408C115.944 369.275 115.908 371.143 115.869 373.01C118.95 372.005 122.034 371.035 125.121 370.1V377.24C122.317 377.754 119.514 378.297 116.715 378.87C116.805 380.503 116.892 382.136 116.982 383.769C119.692 382.995 122.405 382.247 125.121 381.527C124.422 384.47 123.722 387.415 123.024 390.36C118.904 391.262 114.79 392.228 110.683 393.255C109.615 381.653 108.549 370.055 107.482 358.462V358.467Z" fill="#999999"/>
<path d="M128.092 361.246C130.749 360.947 133.409 360.674 136.069 360.427C135.943 368.004 135.815 375.579 135.689 383.156C138.864 382.548 142.042 381.979 145.22 381.445C145.072 384.083 144.922 386.721 144.773 389.359C139.556 389.733 134.412 390.177 129.32 390.666C128.91 380.86 128.501 371.053 128.092 361.248V361.246Z" fill="#999999"/>
<path d="M136.383 355.855C139.476 355.021 142.571 354.222 145.67 353.459C147.745 357.256 149.82 361.068 151.897 364.898C153.913 360.824 155.93 356.767 157.948 352.722C161.033 352.337 164.121 351.988 167.208 351.673C163.507 358.381 159.807 365.138 156.109 371.946C156.132 377.64 156.154 383.334 156.177 389.027C153.24 389.279 150.304 389.562 147.371 389.877C147.348 384.038 147.326 378.197 147.304 372.357C143.66 366.808 140.02 361.307 136.383 355.855Z" fill="#999999"/>
<path d="M181.629 365.452C179.872 366.417 178.115 367.392 176.358 368.379C176.358 368.378 173.062 363.542 170.504 365.816C167.948 368.071 170.884 370.645 174.115 371.828C175.954 372.524 177.345 373.671 178.264 375.233C179.183 376.795 179.61 378.471 179.543 380.302C179.476 382.109 178.848 383.745 177.705 385.242C176.56 386.715 174.833 387.725 172.523 388.312C169.046 389.137 165.188 387.762 161.332 383.826C162.595 382.047 163.858 380.276 165.121 378.51C165.121 378.504 169.808 384.815 172.365 382.611C174.921 380.357 171.871 377.941 168.753 376.615C166.264 375.512 164.582 374.048 163.663 372.193C162.766 370.338 162.475 368.424 162.811 366.444C163.147 364.464 163.909 362.728 165.143 361.287C166.378 359.823 167.901 358.96 169.697 358.709C176.806 357.91 178.736 361.01 181.628 365.453L181.629 365.452Z" fill="#999999"/>
<path d="M181.741 352.798C184.971 352.858 188.2 352.956 191.428 353.092C191.218 364.991 191.009 376.89 190.8 388.788C188.774 388.706 186.75 388.639 184.724 388.587C183.73 376.654 182.736 364.725 181.741 352.799V352.798Z" fill="#999999"/>
<path d="M199.27 358.921C199.27 359.547 199.225 360.563 199.136 361.949C199.024 363.611 198.935 365.531 198.867 367.729C198.8 369.903 198.823 372.038 198.957 374.155C199.091 376.25 199.405 378.031 199.875 379.474C200.367 380.919 201.128 381.732 202.159 381.965C203.189 382.082 203.95 381.558 204.442 380.388C204.935 379.197 205.248 377.667 205.36 375.752C205.472 373.837 205.494 371.868 205.405 369.821C205.315 367.751 205.203 365.91 205.069 364.301C204.957 362.855 204.89 361.831 204.89 361.204C207.158 361.783 209.425 362.383 211.692 363C211.692 367.659 211.737 372.253 211.849 376.784C211.961 381.268 212.006 385.815 212.006 390.428C210.186 390.26 208.367 390.103 206.548 389.959C206.533 389.293 206.517 388.628 206.503 387.962C203.526 388.932 201.13 389.122 199.27 388.521C197.411 387.921 195.999 386.733 194.99 384.989C191.966 379.855 192.234 370.65 192.391 364.026C192.458 362.592 192.48 361.318 192.48 360.228C194.744 359.772 197.008 359.337 199.27 358.919V358.921Z" fill="#999999"/>
<path d="M213.593 357.686C216.387 357.392 219.18 357.126 221.97 356.888C223.622 360.234 225.273 363.59 226.923 366.958C228.595 363.465 230.267 359.984 231.938 356.512C234.886 356.629 237.829 356.778 240.771 356.96C240.518 369.197 240.267 381.433 240.015 393.67C237.414 393.301 234.811 392.959 232.205 392.641C231.967 387.338 231.73 382.034 231.492 376.731C230.088 379.144 228.685 381.567 227.279 383.995C225.868 381.531 224.454 379.075 223.041 376.627C222.885 382.311 222.729 387.994 222.573 393.678C220.058 393.341 217.542 393.027 215.024 392.736C214.547 381.051 214.069 369.368 213.593 357.686Z" fill="#999999"/>
<path d="M106.707 358.42C113.601 357.039 120.515 355.829 127.442 354.793V364.528C123.391 365.413 119.345 366.358 115.305 367.361C115.268 369.228 115.23 371.096 115.193 372.963C118.309 371.958 121.43 370.988 124.554 370.053V377.193C121.716 377.707 118.881 378.25 116.05 378.823C116.139 380.456 116.231 382.089 116.32 383.722C119.062 382.948 121.807 382.2 124.554 381.48C123.847 384.423 123.139 387.368 122.432 390.313C118.264 391.215 114.103 392.181 109.948 393.208C108.867 381.607 107.788 370.009 106.709 358.415L106.707 358.42Z" fill="#999999"/>
<path d="M127.556 361.2C130.243 360.901 132.934 360.627 135.626 360.38C135.498 367.957 135.37 375.532 135.241 383.109C138.453 382.501 141.668 381.932 144.884 381.398C144.734 384.036 144.582 386.674 144.432 389.312C139.154 389.686 133.951 390.131 128.798 390.619C128.384 380.813 127.97 371.006 127.556 361.201V361.2Z" fill="#999999"/>
<path d="M135.943 355.808C139.073 354.975 142.204 354.175 145.337 353.413C147.436 357.209 149.535 361.021 151.636 364.851C153.676 360.777 155.716 356.72 157.758 352.675C160.88 352.291 164.002 351.941 167.126 351.626C163.382 358.334 159.639 365.091 155.898 371.899C155.921 377.593 155.943 383.287 155.967 388.98C152.997 389.232 150.028 389.515 147.059 389.83C147.037 383.991 147.014 378.15 146.99 372.311C143.305 366.761 139.622 361.26 135.941 355.808H135.943Z" fill="#999999"/>
<path d="M181.715 365.405C179.938 366.37 178.161 367.345 176.384 368.332C176.384 368.331 173.049 363.495 170.462 365.769C167.875 368.024 170.847 370.599 174.115 371.781C175.976 372.477 177.383 373.624 178.313 375.186C179.244 376.748 179.675 378.424 179.607 380.255C179.538 382.062 178.903 383.698 177.746 385.195C176.588 386.669 174.841 387.678 172.505 388.265C168.988 389.09 165.085 387.715 161.185 383.779C162.462 382 163.741 380.229 165.018 378.463C165.018 378.457 169.76 384.768 172.347 382.564C174.934 380.31 171.848 377.894 168.694 376.568C166.176 375.465 164.473 374.001 163.544 372.146C162.636 370.292 162.342 368.377 162.683 366.397C163.023 364.417 163.794 362.681 165.042 361.24C166.289 359.776 167.832 358.913 169.648 358.662C176.841 357.863 178.793 360.963 181.719 365.406L181.715 365.405Z" fill="#999999"/>
<path d="M181.829 352.751C185.097 352.811 188.363 352.909 191.628 353.045C191.417 364.944 191.204 376.843 190.993 388.741C188.945 388.659 186.895 388.593 184.846 388.54C183.84 376.607 182.835 364.678 181.829 352.753V352.751Z" fill="#999999"/>
<path d="M199.562 358.874C199.562 359.5 199.518 360.516 199.426 361.903C199.313 363.564 199.222 365.484 199.155 367.682C199.086 369.856 199.11 371.991 199.246 374.108C199.382 376.203 199.698 377.984 200.175 379.427C200.673 380.872 201.444 381.685 202.485 381.918C203.527 382.035 204.296 381.511 204.795 380.342C205.294 379.15 205.61 377.62 205.724 375.705C205.837 373.79 205.86 371.822 205.769 369.774C205.677 367.704 205.566 365.863 205.43 364.254C205.316 362.808 205.249 361.784 205.249 361.157C207.543 361.736 209.837 362.336 212.13 362.953C212.13 367.612 212.175 372.206 212.288 376.737C212.402 381.221 212.446 385.768 212.446 390.381C210.606 390.213 208.766 390.056 206.924 389.912C206.91 389.246 206.894 388.582 206.88 387.915C203.869 388.885 201.444 389.075 199.564 388.474C197.684 387.874 196.255 386.686 195.235 384.942C192.175 379.808 192.446 370.603 192.605 363.979C192.673 362.545 192.696 361.271 192.696 360.181C194.985 359.725 197.276 359.29 199.564 358.872L199.562 358.874Z" fill="#999999"/>
<path d="M214.052 357.639C216.878 357.345 219.703 357.079 222.527 356.841C224.197 360.187 225.868 363.543 227.537 366.911C229.228 363.418 230.92 359.937 232.61 356.465C235.591 356.582 238.57 356.731 241.545 356.913C241.291 369.15 241.035 381.386 240.781 393.623C238.149 393.254 235.516 392.913 232.88 392.594C232.64 387.292 232.399 381.987 232.159 376.684C230.739 379.097 229.32 381.52 227.898 383.948C226.469 381.484 225.04 379.028 223.611 376.58C223.452 382.264 223.294 387.947 223.136 393.631C220.592 393.294 218.045 392.981 215.499 392.689C215.016 381.004 214.535 369.321 214.052 357.639Z" fill="#999999"/>
<path d="M105.923 358.372C112.896 356.991 119.891 355.782 126.9 354.745V364.481C122.802 365.365 118.708 366.31 114.62 367.313C114.582 369.181 114.543 371.048 114.506 372.915C117.659 371.91 120.815 370.94 123.976 370.005V377.145C121.106 377.659 118.238 378.202 115.373 378.775C115.464 380.408 115.555 382.041 115.646 383.674C118.42 382.901 121.197 382.152 123.976 381.432C123.259 384.375 122.545 387.32 121.829 390.265C117.613 391.167 113.402 392.133 109.199 393.16C108.107 381.559 107.015 369.961 105.923 358.367V358.372Z" fill="#999999"/>
<path d="M127.013 361.152C129.732 360.853 132.453 360.579 135.177 360.332C135.048 367.909 134.918 375.484 134.789 383.061C138.039 382.454 141.291 381.884 144.544 381.351C144.391 383.989 144.239 386.627 144.085 389.265C138.747 389.638 133.481 390.083 128.271 390.572C127.852 380.765 127.433 370.958 127.014 361.153L127.013 361.152Z" fill="#999999"/>
<path d="M135.498 355.761C138.664 354.927 141.832 354.128 145.002 353.365C147.126 357.161 149.25 360.973 151.375 364.803C153.439 360.73 155.503 356.672 157.568 352.627C160.727 352.243 163.887 351.893 167.046 351.578C163.258 358.286 159.472 365.043 155.687 371.851C155.709 377.545 155.733 383.239 155.755 388.933C152.75 389.184 149.746 389.467 146.743 389.782C146.721 383.943 146.697 378.102 146.675 372.263C142.946 366.713 139.22 361.212 135.498 355.761Z" fill="#999999"/>
<path d="M181.804 365.357C180.006 366.322 178.209 367.297 176.41 368.285C176.41 368.283 173.035 363.447 170.42 365.721C167.803 367.976 170.81 370.551 174.116 371.733C175.998 372.429 177.422 373.576 178.362 375.138C179.304 376.7 179.739 378.376 179.67 380.207C179.601 382.014 178.959 383.65 177.788 385.147C176.618 386.621 174.85 387.63 172.485 388.217C168.928 389.042 164.979 387.667 161.032 383.731C162.326 381.952 163.617 380.182 164.911 378.416C164.911 378.409 169.707 384.72 172.324 382.516C174.941 380.262 171.819 377.846 168.628 376.52C166.079 375.417 164.359 373.953 163.418 372.098C162.5 370.244 162.201 368.329 162.546 366.349C162.89 364.37 163.67 362.634 164.933 361.192C166.196 359.728 167.756 358.866 169.592 358.614C176.868 357.815 178.842 360.915 181.803 365.359L181.804 365.357Z" fill="#999999"/>
<path d="M181.918 352.703C185.223 352.763 188.527 352.861 191.83 352.997C191.616 364.896 191.402 376.795 191.187 388.693C189.115 388.611 187.042 388.545 184.97 388.492C183.953 376.559 182.935 364.63 181.918 352.705V352.703Z" fill="#999999"/>
<path d="M199.857 358.826C199.857 359.452 199.811 360.468 199.72 361.855C199.605 363.516 199.513 365.436 199.445 367.634C199.376 369.808 199.398 371.943 199.536 374.06C199.673 376.156 199.995 377.936 200.476 379.379C200.979 380.824 201.76 381.637 202.813 381.87C203.867 381.987 204.647 381.463 205.151 380.294C205.654 379.102 205.975 377.572 206.091 375.657C206.206 373.742 206.228 371.774 206.137 369.726C206.046 367.656 205.931 365.816 205.793 364.206C205.678 362.76 205.609 361.736 205.609 361.109C207.931 361.689 210.25 362.288 212.57 362.905C212.57 367.564 212.617 372.158 212.73 376.689C212.845 381.174 212.89 385.72 212.89 390.333C211.029 390.165 209.167 390.009 207.304 389.865C207.288 389.198 207.274 388.534 207.258 387.867C204.212 388.838 201.76 389.027 199.856 388.426C197.953 387.826 196.508 386.638 195.477 384.894C192.38 379.76 192.655 370.555 192.816 363.931C192.885 362.497 192.908 361.223 192.908 360.133C195.224 359.677 197.541 359.242 199.856 358.824L199.857 358.826Z" fill="#999999"/>
<path d="M214.516 357.591C217.376 357.297 220.234 357.031 223.09 356.794C224.779 360.139 226.469 363.495 228.159 366.863C229.871 363.37 231.582 359.889 233.291 356.417C236.308 356.534 239.321 356.683 242.33 356.865C242.073 369.102 241.815 381.338 241.556 393.575C238.895 393.206 236.231 392.865 233.564 392.547C233.321 387.244 233.078 381.939 232.835 376.636C231.4 379.05 229.962 381.472 228.525 383.9C227.08 381.436 225.635 378.98 224.188 376.532C224.028 382.216 223.868 387.899 223.708 393.583C221.134 393.246 218.559 392.933 215.982 392.642C215.494 380.957 215.005 369.273 214.517 357.591H214.516Z" fill="#999999"/>
<path d="M105.129 358.325C112.184 356.944 119.26 355.735 126.348 354.698V364.434C122.203 365.318 118.061 366.263 113.926 367.266C113.888 369.134 113.85 371.001 113.811 372.868C117.001 371.863 120.193 370.893 123.391 369.958V377.098C120.487 377.613 117.586 378.155 114.687 378.728C114.78 380.361 114.871 381.994 114.964 383.628C117.77 382.854 120.579 382.105 123.389 381.385C122.665 384.329 121.941 387.274 121.218 390.219C116.953 391.121 112.694 392.086 108.441 393.113C107.336 381.512 106.232 369.914 105.127 358.321L105.129 358.325Z" fill="#999999"/>
<path d="M126.465 361.105C129.216 360.806 131.969 360.532 134.724 360.285C134.593 367.862 134.462 375.437 134.331 383.014C137.618 382.407 140.908 381.837 144.199 381.304C144.044 383.942 143.891 386.58 143.736 389.218C138.335 389.591 133.008 390.036 127.736 390.525C127.312 380.718 126.889 370.912 126.465 361.106V361.105Z" fill="#999999"/>
<path d="M135.049 355.714C138.251 354.88 141.457 354.081 144.664 353.318C146.812 357.114 148.961 360.926 151.11 364.756C153.198 360.683 155.285 356.625 157.375 352.58C160.569 352.196 163.767 351.846 166.962 351.531C163.132 358.239 159.301 364.997 155.472 371.804C155.496 377.498 155.519 383.192 155.543 388.886C152.504 389.137 149.464 389.421 146.427 389.735C146.403 383.896 146.381 378.055 146.357 372.216C142.585 366.666 138.815 361.165 135.049 355.714Z" fill="#999999"/>
<path d="M181.892 365.31C180.073 366.275 178.255 367.25 176.436 368.238C176.436 368.236 173.023 363.4 170.375 365.674C167.728 367.929 170.77 370.504 174.113 371.686C176.017 372.382 177.458 373.529 178.409 375.091C179.362 376.653 179.801 378.329 179.733 380.16C179.662 381.967 179.013 383.604 177.829 385.101C176.644 386.574 174.857 387.583 172.465 388.171C168.866 388.995 164.871 387.62 160.879 383.684C162.187 381.906 163.494 380.135 164.802 378.369C164.802 378.362 169.654 384.673 172.302 382.469C174.949 380.215 171.79 377.799 168.564 376.473C165.987 375.37 164.246 373.906 163.293 372.051C162.364 370.197 162.062 368.282 162.41 366.302C162.759 364.323 163.547 362.587 164.825 361.145C166.102 359.681 167.68 358.819 169.538 358.567C176.898 357.768 178.895 360.868 181.891 365.312L181.892 365.31Z" fill="#999999"/>
<path d="M182.01 352.656C185.353 352.716 188.696 352.815 192.039 352.951C191.823 364.849 191.605 376.748 191.389 388.647C189.294 388.564 187.196 388.498 185.098 388.446C184.069 376.512 183.039 364.583 182.011 352.658L182.01 352.656Z" fill="#999999"/>
<path d="M200.156 358.779C200.156 359.406 200.11 360.422 200.017 361.808C199.902 363.469 199.808 365.389 199.739 367.587C199.669 369.761 199.693 371.896 199.832 374.013C199.971 376.109 200.296 377.889 200.783 379.332C201.293 380.777 202.081 381.59 203.148 381.823C204.214 381.94 205.002 381.416 205.512 380.247C206.022 379.055 206.347 377.525 206.462 375.61C206.577 373.695 206.601 371.727 206.508 369.679C206.415 367.609 206.3 365.769 206.161 364.159C206.046 362.713 205.976 361.689 205.976 361.062C208.324 361.642 210.671 362.241 213.018 362.859C213.018 367.517 213.065 372.111 213.18 376.642C213.296 381.127 213.341 385.673 213.341 390.286C211.458 390.118 209.575 389.962 207.69 389.818C207.674 389.151 207.659 388.487 207.643 387.821C204.561 388.791 202.081 388.981 200.156 388.379C198.232 387.779 196.77 386.591 195.726 384.847C192.595 379.714 192.873 370.508 193.034 363.884C193.105 362.45 193.127 361.176 193.127 360.086C195.471 359.63 197.814 359.195 200.156 358.777V358.779Z" fill="#999999"/>
<path d="M214.986 357.544C217.88 357.25 220.771 356.984 223.659 356.747C225.37 360.092 227.079 363.449 228.788 366.816C230.52 363.324 232.249 359.842 233.979 356.37C237.031 356.487 240.078 356.636 243.124 356.818C242.863 369.055 242.603 381.291 242.342 393.528C239.65 393.16 236.954 392.818 234.257 392.5C234.011 387.197 233.765 381.892 233.519 376.589C232.065 379.003 230.612 381.426 229.157 383.853C227.696 381.389 226.233 378.933 224.769 376.485C224.607 382.169 224.446 387.852 224.283 393.536C221.68 393.199 219.074 392.886 216.467 392.595C215.973 380.91 215.479 369.226 214.986 357.544Z" fill="#999999"/>
<path d="M104.326 358.277C111.463 356.896 118.622 355.687 125.794 354.65V364.386C121.6 365.27 117.41 366.215 113.228 367.218C113.189 369.086 113.15 370.953 113.111 372.82C116.337 371.816 119.568 370.845 122.801 369.91V377.05C119.864 377.565 116.929 378.107 113.997 378.68C114.09 380.313 114.184 381.947 114.277 383.58C117.116 382.806 119.957 382.057 122.801 381.337C122.069 384.281 121.337 387.226 120.604 390.171C116.289 391.073 111.981 392.038 107.679 393.065C106.561 381.464 105.444 369.866 104.326 358.273V358.277Z" fill="#999999"/>
<path d="M125.91 361.057C128.694 360.758 131.479 360.484 134.265 360.237C134.132 367.814 134 375.39 133.867 382.966C137.192 382.359 140.521 381.789 143.851 381.256C143.694 383.894 143.538 386.532 143.383 389.17C137.918 389.543 132.53 389.988 127.197 390.477C126.769 380.67 126.34 370.864 125.91 361.059V361.057Z" fill="#999999"/>
<path d="M134.594 355.666C137.835 354.832 141.077 354.033 144.321 353.27C146.494 357.066 148.668 360.879 150.842 364.708C152.954 360.635 155.068 356.577 157.18 352.533C160.412 352.148 163.645 351.798 166.879 351.483C163.004 358.192 159.128 364.949 155.255 371.757C155.279 377.45 155.301 383.144 155.325 388.838C152.249 389.089 149.175 389.373 146.102 389.688C146.078 383.848 146.056 378.007 146.032 372.168C142.215 366.618 138.403 361.118 134.593 355.666H134.594Z" fill="#999999"/>
<path d="M181.984 365.262C180.144 366.228 178.304 367.202 176.464 368.19C176.464 368.188 173.011 363.352 170.333 365.626C167.655 367.881 170.732 370.456 174.115 371.638C176.042 372.334 177.498 373.482 178.461 375.044C179.423 376.605 179.871 378.281 179.8 380.112C179.73 381.919 179.073 383.556 177.874 385.053C176.676 386.526 174.867 387.536 172.448 388.123C168.806 388.947 164.766 387.572 160.728 383.636C162.05 381.858 163.373 380.087 164.697 378.321C164.697 378.315 169.607 384.625 172.285 382.421C174.963 380.168 171.768 377.751 168.502 376.425C165.895 375.322 164.133 373.858 163.17 372.004C162.23 370.149 161.925 368.234 162.278 366.254C162.63 364.275 163.429 362.539 164.721 361.097C166.013 359.633 167.61 358.771 169.49 358.519C176.937 357.72 178.958 360.82 181.987 365.264L181.984 365.262Z" fill="#999999"/>
<path d="M182.101 352.608C185.483 352.669 188.865 352.767 192.246 352.903C192.027 364.801 191.808 376.7 191.589 388.599C189.467 388.516 187.348 388.45 185.226 388.398C184.185 376.464 183.143 364.536 182.102 352.61L182.101 352.608Z" fill="#999999"/>
<path d="M200.46 358.731C200.46 359.358 200.414 360.374 200.32 361.76C200.203 363.422 200.108 365.341 200.038 367.539C199.968 369.713 199.992 371.848 200.132 373.966C200.273 376.061 200.601 377.841 201.095 379.284C201.611 380.729 202.409 381.543 203.488 381.775C204.567 381.892 205.363 381.368 205.88 380.199C206.396 379.007 206.724 377.477 206.841 375.562C206.957 373.648 206.981 371.679 206.887 369.631C206.793 367.561 206.676 365.721 206.535 364.112C206.419 362.665 206.348 361.641 206.348 361.015C208.724 361.594 211.098 362.194 213.472 362.811C213.472 367.47 213.519 372.063 213.637 376.594C213.754 381.079 213.802 385.625 213.802 390.238C211.896 390.071 209.99 389.914 208.085 389.77C208.069 389.104 208.053 388.439 208.038 387.773C204.921 388.743 202.411 388.933 200.463 388.331C198.516 387.732 197.037 386.543 195.982 384.799C192.814 379.666 193.095 370.46 193.26 363.836C193.33 362.402 193.354 361.129 193.354 360.038C195.725 359.582 198.096 359.147 200.465 358.729L200.46 358.731Z" fill="#999999"/>
<path d="M215.461 357.496C218.388 357.202 221.312 356.936 224.235 356.699C225.965 360.044 227.694 363.401 229.423 366.768C231.175 363.276 232.925 359.794 234.674 356.322C237.761 356.439 240.845 356.588 243.925 356.77C243.661 369.007 243.397 381.243 243.133 393.48C240.409 393.112 237.683 392.77 234.954 392.452C234.705 387.149 234.457 381.845 234.208 376.542C232.738 378.955 231.267 381.378 229.797 383.805C228.318 381.341 226.837 378.885 225.357 376.437C225.194 382.121 225.029 387.804 224.866 393.488C222.233 393.151 219.597 392.838 216.959 392.547C216.46 380.862 215.96 369.178 215.461 357.496Z" fill="#999999"/>
<path d="M104.326 358.277C111.463 356.896 118.622 355.687 125.794 354.65V364.386C121.6 365.27 117.41 366.215 113.228 367.218C113.189 369.086 113.15 370.953 113.111 372.82C116.337 371.816 119.568 370.845 122.801 369.91V377.05C119.864 377.565 116.929 378.107 113.997 378.68C114.09 380.313 114.184 381.947 114.277 383.58C117.116 382.806 119.957 382.057 122.801 381.337C122.069 384.281 121.337 387.226 120.604 390.171C116.289 391.073 111.981 392.038 107.679 393.065C106.561 381.464 105.444 369.866 104.326 358.273V358.277Z" fill="#FBB03B"/>
<path d="M125.91 361.057C128.694 360.758 131.479 360.484 134.265 360.237C134.132 367.814 134 375.39 133.867 382.966C137.192 382.359 140.521 381.789 143.851 381.256C143.694 383.894 143.538 386.532 143.383 389.17C137.918 389.543 132.53 389.988 127.197 390.477C126.769 380.67 126.34 370.864 125.91 361.059V361.057Z" fill="#FBB03B"/>
<path d="M134.594 355.666C137.835 354.832 141.077 354.033 144.321 353.27C146.494 357.066 148.668 360.879 150.842 364.708C152.954 360.635 155.068 356.577 157.18 352.533C160.412 352.148 163.645 351.798 166.879 351.483C163.004 358.192 159.128 364.949 155.255 371.757C155.279 377.45 155.301 383.144 155.325 388.838C152.249 389.089 149.175 389.373 146.102 389.688C146.078 383.848 146.056 378.007 146.032 372.168C142.215 366.618 138.403 361.118 134.593 355.666H134.594Z" fill="#FBB03B"/>
<path d="M181.984 365.262C180.144 366.228 178.304 367.202 176.464 368.19C176.464 368.188 173.011 363.352 170.333 365.626C167.655 367.881 170.732 370.456 174.115 371.638C176.042 372.334 177.498 373.482 178.461 375.044C179.423 376.605 179.871 378.281 179.8 380.112C179.73 381.919 179.073 383.556 177.874 385.053C176.676 386.526 174.867 387.536 172.448 388.123C168.806 388.947 164.766 387.572 160.728 383.636C162.05 381.858 163.373 380.087 164.697 378.321C164.697 378.315 169.607 384.625 172.285 382.421C174.963 380.168 171.768 377.751 168.502 376.425C165.895 375.322 164.133 373.858 163.17 372.004C162.23 370.149 161.925 368.234 162.278 366.254C162.63 364.275 163.429 362.539 164.721 361.097C166.013 359.633 167.61 358.771 169.49 358.519C176.937 357.72 178.958 360.82 181.987 365.264L181.984 365.262Z" fill="#FBB03B"/>
<path d="M182.101 352.608C185.483 352.669 188.865 352.767 192.246 352.903C192.027 364.801 191.808 376.7 191.589 388.599C189.467 388.516 187.348 388.45 185.226 388.398C184.185 376.464 183.143 364.536 182.102 352.61L182.101 352.608Z" fill="#FBB03B"/>
<path d="M200.46 358.731C200.46 359.358 200.414 360.374 200.32 361.76C200.203 363.422 200.108 365.341 200.038 367.539C199.968 369.713 199.992 371.848 200.132 373.966C200.273 376.061 200.601 377.841 201.095 379.284C201.611 380.729 202.409 381.543 203.488 381.775C204.567 381.892 205.363 381.368 205.88 380.199C206.396 379.007 206.724 377.477 206.841 375.562C206.957 373.648 206.981 371.679 206.887 369.631C206.793 367.561 206.676 365.721 206.535 364.112C206.419 362.665 206.348 361.641 206.348 361.015C208.724 361.594 211.098 362.194 213.472 362.811C213.472 367.47 213.519 372.063 213.637 376.594C213.754 381.079 213.802 385.625 213.802 390.238C211.896 390.071 209.99 389.914 208.085 389.77C208.069 389.104 208.053 388.439 208.038 387.773C204.921 388.743 202.411 388.933 200.463 388.331C198.516 387.732 197.037 386.543 195.982 384.799C192.814 379.666 193.095 370.46 193.26 363.836C193.33 362.402 193.354 361.129 193.354 360.038C195.725 359.582 198.096 359.147 200.465 358.729L200.46 358.731Z" fill="#FBB03B"/>
<path d="M215.461 357.496C218.388 357.202 221.312 356.936 224.235 356.699C225.965 360.044 227.694 363.401 229.423 366.768C231.175 363.276 232.925 359.794 234.674 356.322C237.761 356.439 240.845 356.588 243.925 356.77C243.661 369.007 243.397 381.243 243.133 393.48C240.409 393.112 237.683 392.77 234.954 392.452C234.705 387.149 234.457 381.845 234.208 376.542C232.738 378.955 231.267 381.378 229.797 383.805C228.318 381.341 226.837 378.885 225.357 376.437C225.194 382.121 225.029 387.804 224.866 393.488C222.233 393.151 219.597 392.838 216.959 392.547C216.46 380.862 215.96 369.178 215.461 357.496Z" fill="#FBB03B"/>
<path d="M260.824 192C217.795 253.079 176.706 276.531 159.266 281.393C157.995 281.747 157.093 282.881 157.106 284.201C157.124 286.058 158.924 287.374 160.679 286.764C206.602 270.806 249.224 223.631 268.431 197.171C270.31 194.583 268.958 190.966 265.867 190.142C263.973 189.637 261.953 190.398 260.824 192Z" fill="#EBA831" stroke="#191715"/>
<path d="M168.5 289.192C168.5 297.282 161.585 303.884 153 303.884C144.415 303.884 137.5 297.282 137.5 289.192C137.5 281.102 144.415 274.5 153 274.5C161.585 274.5 168.5 281.102 168.5 289.192Z" fill="#A9D2DC" stroke="#191715"/>
<path d="M247.831 25.6874C206.46 14.8519 190.996 57.254 192 81.5L205 76L218.5 72.5C218.667 62.1327 222.928 43.2456 247.831 43.2456C272.735 43.2456 276.283 106.452 274.944 138.056L301.052 133.541C300.55 102.105 289.203 36.5228 247.831 25.6874Z" fill="#ADC07A" stroke="#191715"/>
<defs>
<filter id="filter0_ddi_1588_13202" x="258.203" y="289.087" width="85.3418" height="185.986" filterUnits="userSpaceOnUse" color-interpolation-filters="sRGB">
<feFlood flood-opacity="0" result="BackgroundImageFix"/>
<feColorMatrix in="SourceAlpha" type="matrix" values="0 0 0 0 0 0 0 0 0 0 0 0 0 0 0 0 0 0 127 0" result="hardAlpha"/>
<feOffset dx="-1" dy="3"/>
<feGaussianBlur stdDeviation="1"/>
<feColorMatrix type="matrix" values="0 0 0 0 0 0 0 0 0 0 0 0 0 0 0 0 0 0 0.25 0"/>
<feBlend mode="normal" in2="BackgroundImageFix" result="effect1_dropShadow_1588_13202"/>
<feColorMatrix in="SourceAlpha" type="matrix" values="0 0 0 0 0 0 0 0 0 0 0 0 0 0 0 0 0 0 127 0" result="hardAlpha"/>
<feOffset dx="-1"/>
<feColorMatrix type="matrix" values="0 0 0 0 0 0 0 0 0 0 0 0 0 0 0 0 0 0 0.25 0"/>
<feBlend mode="normal" in2="effect1_dropShadow_1588_13202" result="effect2_dropShadow_1588_13202"/>
<feBlend mode="normal" in="SourceGraphic" in2="effect2_dropShadow_1588_13202" result="shape"/>
<feColorMatrix in="SourceAlpha" type="matrix" values="0 0 0 0 0 0 0 0 0 0 0 0 0 0 0 0 0 0 127 0" result="hardAlpha"/>
<feOffset dx="-3" dy="-4"/>
<feGaussianBlur stdDeviation="2"/>
<feComposite in2="hardAlpha" operator="arithmetic" k2="-1" k3="1"/>
<feColorMatrix type="matrix" values="0 0 0 0 0 0 0 0 0 0 0 0 0 0 0 0 0 0 0.15 0"/>
<feBlend mode="normal" in2="shape" result="effect3_innerShadow_1588_13202"/>
</filter>
<filter id="filter1_ddi_1588_13202" x="228.331" y="155.025" width="116.181" height="163.859" filterUnits="userSpaceOnUse" color-interpolation-filters="sRGB">
<feFlood flood-opacity="0" result="BackgroundImageFix"/>
<feColorMatrix in="SourceAlpha" type="matrix" values="0 0 0 0 0 0 0 0 0 0 0 0 0 0 0 0 0 0 127 0" result="hardAlpha"/>
<feOffset dx="-1" dy="3"/>
<feGaussianBlur stdDeviation="1"/>
<feColorMatrix type="matrix" values="0 0 0 0 0 0 0 0 0 0 0 0 0 0 0 0 0 0 0.25 0"/>
<feBlend mode="normal" in2="BackgroundImageFix" result="effect1_dropShadow_1588_13202"/>
<feColorMatrix in="SourceAlpha" type="matrix" values="0 0 0 0 0 0 0 0 0 0 0 0 0 0 0 0 0 0 127 0" result="hardAlpha"/>
<feOffset dx="-1"/>
<feColorMatrix type="matrix" values="0 0 0 0 0 0 0 0 0 0 0 0 0 0 0 0 0 0 0.25 0"/>
<feBlend mode="normal" in2="effect1_dropShadow_1588_13202" result="effect2_dropShadow_1588_13202"/>
<feBlend mode="normal" in="SourceGraphic" in2="effect2_dropShadow_1588_13202" result="shape"/>
<feColorMatrix in="SourceAlpha" type="matrix" values="0 0 0 0 0 0 0 0 0 0 0 0 0 0 0 0 0 0 127 0" result="hardAlpha"/>
<feOffset dx="-3" dy="-4"/>
<feGaussianBlur stdDeviation="2"/>
<feComposite in2="hardAlpha" operator="arithmetic" k2="-1" k3="1"/>
<feColorMatrix type="matrix" values="0 0 0 0 0 0 0 0 0 0 0 0 0 0 0 0 0 0 0.15 0"/>
<feBlend mode="normal" in2="shape" result="effect3_innerShadow_1588_13202"/>
</filter>
<linearGradient id="paint0_linear_1588_13202" x1="230.573" y1="316.017" x2="13.6475" y2="389.996" gradientUnits="userSpaceOnUse">
<stop stop-color="#95B4BF"/>
<stop offset="1" stop-color="#92AFB9"/>
</linearGradient>
<radialGradient id="paint1_radial_1588_13202" cx="0" cy="0" r="1" gradientUnits="userSpaceOnUse" gradientTransform="translate(166.403 442.544) rotate(156.801) scale(67.5557 176.206)">
<stop stop-color="#7E9CA7"/>
<stop offset="0.989583" stop-color="#95B4BF"/>
</radialGradient>
<linearGradient id="paint2_linear_1588_13202" x1="301.874" y1="293.087" x2="301.874" y2="470.074" gradientUnits="userSpaceOnUse">
<stop offset="0.21086" stop-color="#95B4BF"/>
<stop offset="0.730663" stop-color="#92AFB9"/>
</linearGradient>
<radialGradient id="paint3_radial_1588_13202" cx="0" cy="0" r="1" gradientUnits="userSpaceOnUse" gradientTransform="translate(161.708 440.436) rotate(156.843) scale(67.0696 174.698)">
<stop stop-color="#7E9CA7"/>
<stop offset="0.989583" stop-color="#95B4BF"/>
</radialGradient>
<linearGradient id="paint4_linear_1588_13202" x1="214.287" y1="217.731" x2="216.401" y2="234.347" gradientUnits="userSpaceOnUse">
<stop stop-color="white"/>
<stop offset="1" stop-color="#F6F1F1"/>
</linearGradient>
<linearGradient id="paint5_linear_1588_13202" x1="200.692" y1="231.348" x2="200.626" y2="246.056" gradientUnits="userSpaceOnUse">
<stop stop-color="white"/>
<stop offset="1" stop-color="#F6F1F1"/>
</linearGradient>
<linearGradient id="paint6_linear_1588_13202" x1="188.728" y1="242.36" x2="187.931" y2="252.41" gradientUnits="userSpaceOnUse">
<stop stop-color="white"/>
<stop offset="1" stop-color="#F6F1F1"/>
</linearGradient>
<linearGradient id="paint7_linear_1588_13202" x1="108.578" y1="100.728" x2="74.4247" y2="193.223" gradientUnits="userSpaceOnUse">
<stop offset="0.21091" stop-color="#E4D7D1"/>
<stop offset="0.614167" stop-color="#E4D6CF"/>
<stop offset="0.972931" stop-color="#95B4BF"/>
</linearGradient>
<linearGradient id="paint8_linear_1588_13202" x1="139.194" y1="144.444" x2="137.193" y2="171.794" gradientUnits="userSpaceOnUse">
<stop stop-color="#E4D7D1"/>
<stop offset="0.674035" stop-color="#E4D6CF"/>
<stop offset="0.972931" stop-color="#95B4BF"/>
</linearGradient>
<linearGradient id="paint9_linear_1588_13202" x1="260.484" y1="327.406" x2="338.073" y2="168.853" gradientUnits="userSpaceOnUse">
<stop offset="0.21086" stop-color="#95B4BF"/>
<stop offset="0.730663" stop-color="#92AFB9"/>
</linearGradient>
<radialGradient id="paint10_radial_1588_13202" cx="0" cy="0" r="1" gradientUnits="userSpaceOnUse" gradientTransform="translate(214.002 365.975) rotate(157.011) scale(6.18135 16.0099)">
<stop stop-color="#7E9CA7"/>
<stop offset="0.99" stop-color="#95B4BF"/>
</radialGradient>
<linearGradient id="paint11_linear_1588_13202" x1="209.784" y1="335.068" x2="206.684" y2="343.533" gradientUnits="userSpaceOnUse">
<stop offset="0.21" stop-color="#E4D7D1"/>
<stop offset="0.61" stop-color="#E4D6CF"/>
<stop offset="0.97" stop-color="#95B4BF"/>
</linearGradient>
<linearGradient id="paint12_linear_1588_13202" x1="212.411" y1="338.966" x2="212.23" y2="341.464" gradientUnits="userSpaceOnUse">
<stop stop-color="#E4D7D1"/>
<stop offset="0.67" stop-color="#E4D6CF"/>
<stop offset="0.97" stop-color="#95B4BF"/>
</linearGradient>
<linearGradient id="paint13_linear_1588_13202" x1="226.791" y1="352.465" x2="226.791" y2="368.486" gradientUnits="userSpaceOnUse">
<stop offset="0.21" stop-color="#95B4BF"/>
<stop offset="0.73" stop-color="#92AFB9"/>
</linearGradient>
</defs>
</svg>
