<svg width="572" height="414" viewBox="0 0 572 414" fill="none" xmlns="http://www.w3.org/2000/svg">
<path d="M569 138.565V27.2609V13C569 7.47715 564.523 3 559 3H322C316.477 3 312 7.47714 312 13V138.565C312 144.088 316.477 148.565 322 148.565H480.581C482.787 148.565 484.93 149.294 486.678 150.639L520.454 176.618C527.03 181.677 536.551 176.989 536.551 168.692V158.565C536.551 153.042 541.028 148.565 546.55 148.565H559C564.523 148.565 569 144.088 569 138.565Z" fill="#A9D2DC" stroke="#191715" stroke-width="5"/>
<path d="M5 357.913V229.652V212C5 206.477 9.47715 202 15 202H288C293.523 202 298 206.477 298 212V357.913C298 363.436 293.523 367.913 288 367.913H105.327C103.122 367.913 100.979 368.642 99.2312 369.986L58.0909 401.622C51.5145 406.68 41.9949 401.991 41.9949 393.695V377.913C41.9949 372.39 37.5178 367.913 31.995 367.913H15C9.47715 367.913 5 363.436 5 357.913Z" fill="#E26552" stroke="#191715" stroke-width="5"/>
<path d="M363 324.609V237.435V228C363 222.477 367.477 218 373 218H559C564.523 218 569 222.477 569 228V324.609C569 330.132 564.523 334.609 559 334.609H434.546C432.342 334.609 430.199 335.337 428.451 336.681L405.105 354.628C398.528 359.683 389.01 354.995 389.01 346.699V344.609C389.01 339.086 384.533 334.609 379.01 334.609H373C367.477 334.609 363 330.132 363 324.609Z" fill="#EBA831" stroke="#191715" stroke-width="5"/>
<path d="M96 279V109V83C96 77.4772 100.477 73 106 73H466C471.523 73 476 77.4772 476 83V279C476 284.523 471.523 289 466 289H225.118C222.907 289 220.758 289.733 219.007 291.084L160.09 336.564C153.517 341.638 143.98 336.952 143.98 328.648V299C143.98 293.477 139.503 289 133.98 289H106C100.477 289 96 284.523 96 279Z" fill="#F9F5E9" stroke="#191715" stroke-width="5"/>
<path d="M247.536 201.432C246.128 201.432 245.024 201.048 244.224 200.28C243.456 199.48 243.072 198.344 243.072 196.872V171.72C243.072 170.248 243.456 169.128 244.224 168.36C245.024 167.56 246.176 167.16 247.68 167.16H263.664C264.816 167.16 265.68 167.448 266.256 168.024C266.832 168.6 267.12 169.432 267.12 170.52C267.12 171.64 266.832 172.504 266.256 173.112C265.68 173.688 264.816 173.976 263.664 173.976H251.904V180.792H262.608C263.728 180.792 264.576 181.08 265.152 181.656C265.76 182.232 266.064 183.064 266.064 184.152C266.064 185.272 265.76 186.12 265.152 186.696C264.576 187.272 263.728 187.56 262.608 187.56H251.904V196.872C251.904 199.912 250.448 201.432 247.536 201.432ZM269.969 201.432C268.977 201.432 268.145 201.208 267.473 200.76C266.801 200.28 266.385 199.64 266.225 198.84C266.065 198.008 266.209 197.08 266.657 196.056L278.609 170.328C279.185 169.08 279.889 168.168 280.721 167.592C281.585 167.016 282.561 166.728 283.649 166.728C284.737 166.728 285.681 167.016 286.481 167.592C287.313 168.168 288.033 169.08 288.641 170.328L300.593 196.056C301.105 197.08 301.281 198.008 301.121 198.84C300.993 199.672 300.593 200.312 299.921 200.76C299.281 201.208 298.481 201.432 297.521 201.432C296.241 201.432 295.249 201.144 294.545 200.568C293.873 199.992 293.265 199.064 292.721 197.784L290.129 191.688L293.489 194.136H273.713L277.121 191.688L274.529 197.784C273.953 199.064 273.361 199.992 272.753 200.568C272.145 201.144 271.217 201.432 269.969 201.432ZM283.553 176.376L277.984 189.672L276.641 187.368H290.609L289.265 189.672L283.649 176.376H283.553ZM334.966 205.272C335.542 206.232 335.75 207.096 335.59 207.864C335.43 208.664 335.03 209.336 334.39 209.88C333.782 210.424 333.046 210.776 332.182 210.936C331.35 211.096 330.518 211.016 329.686 210.696C328.854 210.376 328.166 209.768 327.622 208.872L324.07 203.16C323.718 202.584 323.254 202.168 322.678 201.912C322.102 201.656 321.35 201.528 320.422 201.528L326.998 199.08C328.438 199.08 329.654 199.352 330.646 199.896C331.638 200.408 332.486 201.256 333.19 202.44L334.966 205.272ZM320.47 201.528C317.046 201.528 314.038 200.808 311.446 199.368C308.854 197.896 306.838 195.848 305.398 193.224C303.99 190.6 303.286 187.544 303.286 184.056C303.286 181.432 303.686 179.048 304.486 176.904C305.318 174.76 306.486 172.92 307.99 171.384C309.526 169.848 311.35 168.68 313.462 167.88C315.574 167.048 317.91 166.632 320.47 166.632C323.894 166.632 326.886 167.352 329.446 168.792C332.038 170.232 334.054 172.264 335.494 174.888C336.934 177.48 337.654 180.536 337.654 184.056C337.654 186.68 337.238 189.064 336.406 191.208C335.606 193.352 334.438 195.208 332.902 196.776C331.398 198.312 329.59 199.496 327.478 200.328C325.366 201.128 323.03 201.528 320.47 201.528ZM320.47 194.136C322.166 194.136 323.606 193.736 324.79 192.936C325.974 192.136 326.886 190.984 327.526 189.48C328.166 187.976 328.486 186.168 328.486 184.056C328.486 180.888 327.782 178.424 326.374 176.664C324.966 174.904 322.998 174.024 320.47 174.024C318.806 174.024 317.366 174.424 316.15 175.224C314.966 175.992 314.054 177.128 313.414 178.632C312.774 180.104 312.454 181.912 312.454 184.056C312.454 187.224 313.158 189.704 314.566 191.496C315.974 193.256 317.942 194.136 320.47 194.136Z" fill="black"/>
<path d="M190 98.6522V20.6087V13C190 7.47715 185.523 3 180 3H13C7.47716 3 3 7.47716 3 13V98.6522C3 104.175 7.47716 108.652 13 108.652H124.745C126.946 108.652 129.085 109.378 130.832 110.718L150.795 126.036C157.171 130.928 166.389 126.382 166.389 118.345C166.389 112.992 170.729 108.652 176.082 108.652H180C185.523 108.652 190 104.175 190 98.6522Z" fill="#ADC07A" stroke="#191715" stroke-width="5"/>
</svg>
