<svg width="41" height="40" viewBox="0 0 41 40" fill="none" xmlns="http://www.w3.org/2000/svg">
<path d="M28.7863 5.96389C28.7863 5.74707 28.6985 5.53914 28.542 5.38583C28.3856 5.23252 28.1735 5.14639 27.9523 5.14639H23.7821C21.6822 5.04386 19.6263 5.76015 18.0635 7.13876C16.5007 8.51738 15.5581 10.4462 15.4417 12.5039V16.9184H11.2715C11.0503 16.9184 10.8382 17.0045 10.6818 17.1578C10.5254 17.3111 10.4375 17.5191 10.4375 17.7359V21.9869C10.4375 22.2037 10.5254 22.4116 10.6818 22.5649C10.8382 22.7183 11.0503 22.8044 11.2715 22.8044H15.4417V33.7589C15.4417 33.9757 15.5296 34.1836 15.686 34.3369C15.8424 34.4903 16.0546 34.5764 16.2758 34.5764H21.28C21.5012 34.5764 21.7133 34.4903 21.8697 34.3369C22.0262 34.1836 22.114 33.9757 22.114 33.7589V22.8044H26.4844C26.6699 22.807 26.8509 22.7489 26.999 22.6394C27.147 22.5298 27.2535 22.375 27.3017 22.1994L28.5028 17.9484C28.5359 17.8276 28.5404 17.701 28.5158 17.5783C28.4912 17.4555 28.4382 17.3399 28.3608 17.2404C28.2835 17.1409 28.1839 17.0602 28.0697 17.0043C27.9555 16.9485 27.8297 16.9191 27.7021 16.9184H22.114V12.5039C22.1555 12.0992 22.3494 11.7242 22.6579 11.4521C22.9663 11.18 23.3671 11.0303 23.7821 11.0324H27.9523C28.1735 11.0324 28.3856 10.9463 28.542 10.7929C28.6985 10.6396 28.7863 10.4317 28.7863 10.2149V5.96389Z" fill="#191715"/>
</svg>
