<svg width="34" height="32" viewBox="0 0 34 32" fill="none" xmlns="http://www.w3.org/2000/svg">
<path d="M16.8198 0.361084C12.3865 0.361084 11.8306 0.378942 10.0895 0.454344C8.35205 0.529607 7.16544 0.791668 6.12711 1.17477C5.05368 1.57088 4.14335 2.10091 3.23588 2.96258C2.32837 3.82426 1.77018 4.68875 1.35307 5.70801C0.94951 6.69391 0.673621 7.82064 0.594261 9.47044C0.514852 11.1237 0.496094 11.6516 0.496094 15.8611C0.496094 20.0706 0.514852 20.5985 0.594261 22.2517C0.673621 23.9015 0.94951 25.0283 1.35307 26.0142C1.77023 27.0334 2.32842 27.8978 3.23588 28.7596C4.1434 29.6213 5.05368 30.1513 6.12711 30.5474C7.16544 30.9305 8.35205 31.1925 10.0895 31.2678C11.8306 31.3432 12.3865 31.3611 16.8198 31.3611C21.253 31.3611 21.8089 31.3432 23.55 31.2678C25.2875 31.1926 26.4741 30.9305 27.5124 30.5474C28.5858 30.1513 29.4961 29.6213 30.4037 28.7596C31.3112 27.8978 31.8693 27.0334 32.2865 26.0142C32.69 25.0283 32.966 23.9015 33.0452 22.2517C33.1246 20.5985 33.1434 20.0706 33.1434 15.8611C33.1434 11.6516 33.1246 11.1237 33.0452 9.47044C32.966 7.82064 32.69 6.69391 32.2865 5.70801C31.8693 4.68875 31.3112 3.82426 30.4037 2.96258C29.4961 2.10091 28.5858 1.57088 27.5124 1.17477C26.4741 0.791668 25.2875 0.529607 23.55 0.454344C21.8089 0.378942 21.253 0.361084 16.8198 0.361084ZM16.8198 3.15386C21.1783 3.15386 21.6946 3.16968 23.4159 3.24426C25.0075 3.31315 25.8718 3.56566 26.447 3.77793C27.209 4.05914 27.7527 4.39499 28.3239 4.93738C28.8952 5.47977 29.2489 5.99614 29.545 6.71961C29.7686 7.26579 30.0345 8.08653 30.107 9.59775C30.1856 11.2322 30.2023 11.7224 30.2023 15.8611C30.2023 19.9997 30.1856 20.49 30.107 22.1244C30.0345 23.6357 29.7686 24.4564 29.545 25.0025C29.2489 25.7261 28.8952 26.2424 28.3239 26.7847C27.7527 27.3272 27.2089 27.663 26.447 27.9442C25.8718 28.1565 25.0075 28.409 23.4159 28.4779C21.6949 28.5525 21.1787 28.5683 16.8198 28.5683C12.4608 28.5683 11.9447 28.5525 10.2236 28.4779C8.63203 28.409 7.76772 28.1565 7.19256 27.9442C6.43055 27.663 5.88679 27.3272 5.31562 26.7847C4.74441 26.2424 4.39066 25.726 4.09451 25.0026C3.87096 24.4564 3.60508 23.6356 3.53248 22.1244C3.45394 20.49 3.43727 19.9997 3.43727 15.8611C3.43727 11.7224 3.45394 11.2322 3.53248 9.59775C3.60508 8.08649 3.87096 7.26579 4.09451 6.71966C4.39066 5.9961 4.74441 5.47977 5.31557 4.93743C5.88679 4.39499 6.4306 4.05914 7.19251 3.77793C7.76772 3.56566 8.63207 3.31315 10.2236 3.24426C11.9449 3.16968 12.4612 3.15386 16.8198 3.15386" fill="#191715"/>
<path d="M16.819 21.027C13.8138 21.027 11.3777 18.7138 11.3777 15.8603C11.3777 13.0068 13.8138 10.6936 16.819 10.6936C19.8241 10.6936 22.2602 13.0068 22.2602 15.8603C22.2602 18.7138 19.8241 21.027 16.819 21.027ZM16.819 7.90083C12.1894 7.90083 8.43652 11.4644 8.43652 15.8603C8.43652 20.2562 12.1894 23.8197 16.819 23.8197C21.4485 23.8197 25.2014 20.2562 25.2014 15.8603C25.2014 11.4644 21.4485 7.90083 16.819 7.90083ZM27.4914 7.58635C27.4914 8.61364 26.6144 9.44634 25.5326 9.44634C24.4508 9.44634 23.5737 8.61364 23.5737 7.58635C23.5737 6.55911 24.4508 5.72632 25.5326 5.72632C26.6144 5.72632 27.4914 6.55911 27.4914 7.58635Z" fill="#191715"/>
</svg>
