<svg width="104" height="44" viewBox="0 0 104 44" fill="none" xmlns="http://www.w3.org/2000/svg">
<path d="M83.7132 26.9307C94.2392 26.9307 102.772 20.902 102.772 13.4653C102.772 6.02864 94.2392 0 83.7132 0C73.1873 0 64.6543 6.02864 64.6543 13.4653C64.6543 20.902 73.1873 26.9307 83.7132 26.9307Z" fill="#ACB793"/>
<path d="M83.8253 24.9439C92.7251 24.9439 99.9398 19.8463 99.9398 13.5581C99.9398 7.26994 92.7251 2.17236 83.8253 2.17236C74.9256 2.17236 67.7109 7.26994 67.7109 13.5581C67.7109 19.8463 74.9256 24.9439 83.8253 24.9439Z" fill="#92A072"/>
<path d="M85.2197 31.5883V30.1159H85.814V31.7981C86.8318 32.2893 89.6314 32.1491 90.565 31.7981V29.9748C90.565 29.9748 92.686 28.2925 92.8556 26.1183C93.1837 21.9117 89.7168 13.4987 89.7168 13.4987C90.3111 13.1477 89.8864 11.8164 89.5472 11.7459C91.4132 9.71271 89.0382 6.62767 88.2743 6.48749C89.0562 5.64822 90.0561 4.45432 89.0382 2.28096C88.5788 1.29965 88.235 1.93003 88.1047 2.14077C87.3464 3.36625 87.5104 5.9973 87.5104 5.9973C87.0857 5.71693 86.6622 5.71693 86.1533 5.57674C87.5104 3.19264 85.0501 1.72021 85.0501 1.72021C84.3715 2.70152 85.2197 4.94543 85.3051 5.43655C79.197 5.78748 79.6318 10.3189 79.6318 10.3189C79.6318 10.3709 79.6318 10.7896 78.8083 9.63844C78.3017 9.16774 78.2949 10.8091 78.0938 10.9753C77.5849 10.4146 77.3299 9.64308 76.5671 7.60991C76.3559 7.04916 76.175 7.02502 75.0718 7.84479C72.2722 10.3691 72.4093 12.1674 72.4093 12.7987C72.4947 16.3043 76.821 16.4445 77.4153 16.515C77.6703 16.8659 77.8399 17.0061 78.1792 17.1463C76.2278 19.6706 73.2586 27.2425 79.6217 29.4159C79.7071 30.0472 80.3856 30.1874 80.3002 30.3276V31.7294C80.3002 31.7294 83.6087 32.2206 85.2208 31.5892L85.2197 31.5883Z" fill="url(#paint0_radial_1352_15326)" stroke="#304402" stroke-width="0.13" stroke-miterlimit="10"/>
<path d="M81.1572 6.96842C81.9403 6.22756 82.8974 6.92478 82.8974 6.92478" stroke="#304402" stroke-width="0.13"/>
<path d="M75.5142 7.47884C74.3739 8.42115 72.8258 9.82952 72.5371 11.6659C72.5371 11.6659 76.5702 12.2628 78.1104 10.9854C77.7307 10.4618 77.224 9.46745 76.5275 7.50019C76.3354 6.9413 75.831 7.26995 75.5142 7.47884Z" fill="url(#paint1_linear_1352_15326)" stroke="#304402" stroke-width="0.13" stroke-miterlimit="10"/>
<path d="M78.5541 9.57259C78.2609 9.92538 78.1744 10.41 78.1104 10.9856C78.1104 10.9856 79.2349 10.9401 79.6303 10.462C79.4731 10.3153 79.2349 10.1157 78.8754 9.52988C78.7743 9.36277 78.6395 9.49089 78.5541 9.57259Z" fill="url(#paint2_linear_1352_15326)" stroke="#304402" stroke-width="0.13" stroke-miterlimit="10"/>
<path d="M85.8126 5.57769C85.643 5.4375 85.3037 5.4375 85.3037 5.4375" stroke="#304402" stroke-width="0.13"/>
<path d="M79.0264 11.9574C78.5174 11.677 78.0928 10.9761 78.0928 10.9761" stroke="#304402" stroke-width="0.13"/>
<path d="M80.6379 11.5009C80.083 11.1806 79.6201 10.3794 79.6201 10.3794" stroke="#304402" stroke-width="0.13"/>
<path d="M81.1475 11.046C81.1475 11.046 81.6564 10.6951 81.9114 11.3264" stroke="#304402" stroke-width="0.13"/>
<path d="M84.3701 6.97947C85.5576 6.90891 85.643 7.96078 85.643 7.96078" stroke="#304402" stroke-width="0.13"/>
<path d="M85.559 3.19336C85.1344 3.19336 85.3894 3.79681 85.3894 4.45504C85.3894 5.11327 85.5029 5.5069 85.6444 5.5069C85.786 5.5069 85.8994 5.22653 85.8994 4.45504C85.8994 3.47373 85.7006 3.19336 85.5602 3.19336H85.559Z" fill="#6A8490" stroke="#304402" stroke-width="0.13" stroke-miterlimit="10"/>
<path d="M88.5195 3.26336C88.105 3.40354 88.3499 3.86681 88.3499 4.52503C88.105 5.43671 87.5399 6.34746 87.6803 6.34746C87.8207 6.34746 88.7835 5.36615 88.9531 4.52503C89.0385 3.89373 89.0778 3.07489 88.5195 3.26336V3.26336Z" fill="#6A8490" stroke="#304402" stroke-width="0.13" stroke-miterlimit="10"/>
<path d="M85.4736 3.33398C85.7287 4.1751 85.6433 5.50734 85.6433 5.50734M88.3586 3.47417C88.3586 4.80641 87.8497 5.9279 87.8497 5.9279" stroke="#304402" stroke-width="0.13"/>
<path d="M83.2409 16.6782C83.2409 16.6782 82.2276 17.2659 80.7705 17.4757C79.3134 17.6855 77.8574 17.6326 77.8574 17.6326L78.2371 17.109C78.2371 17.109 80.2638 17.5156 83.2409 16.6782Z" fill="#7E9CA7" stroke="#304402" stroke-width="0.13" stroke-miterlimit="10"/>
<path d="M85.8129 12.3074C85.3883 11.7466 84.8794 11.8162 84.8794 11.8162C84.4547 16.3737 77.4131 16.5139 77.4131 16.5139" stroke="#304402" stroke-width="0.13"/>
<path d="M76.9837 12.8838C77.1634 12.4774 77.121 12.0911 76.8891 12.0211C76.6571 11.951 76.3234 12.2238 76.1437 12.6302C75.964 13.0367 76.0064 13.423 76.2383 13.493C76.4703 13.563 76.804 13.2903 76.9837 12.8838Z" fill="#648191" stroke="#304402" stroke-width="0.13" stroke-miterlimit="10"/>
<path d="M72.4512 11.9575L72.4635 13.079C72.6253 13.377 72.8725 13.5914 73.0803 13.5914C73.3387 13.5914 73.4375 13.2572 73.2994 12.8441C73.1612 12.4319 72.7107 11.9565 72.4512 11.9565V11.9575Z" fill="#648191" stroke="#304402" stroke-width="0.13" stroke-miterlimit="10"/>
<path d="M84.5892 8.70926C84.4421 8.42053 84.1983 8.25342 83.8994 8.25342C83.6006 8.25342 83.2838 8.4196 83.0097 8.70926C82.7367 8.99706 82.5176 9.39812 82.4199 9.84468C82.3221 10.2903 82.3648 10.6923 82.5109 10.9801C82.6581 11.2688 82.9018 11.4359 83.2007 11.4359C83.4995 11.4359 83.8163 11.2698 84.0904 10.9801C84.3634 10.6923 84.5825 10.2912 84.6802 9.84468C84.778 9.39905 84.7353 8.99706 84.5892 8.70926Z" fill="white" stroke="#304402" stroke-width="0.13"/>
<path d="M81.2675 8.57613C81.2091 8.37188 81.108 8.29297 80.9675 8.29297C80.8271 8.29297 80.6575 8.38209 80.5002 8.58912C80.344 8.7943 80.2092 9.10159 80.1295 9.50359C80.0508 9.90186 80.1025 10.2797 80.2182 10.5564C80.2755 10.6947 80.3485 10.8061 80.426 10.8822C80.5058 10.9593 80.5833 10.9937 80.6485 10.9937C80.7136 10.9937 80.7811 10.9667 80.8529 10.9017C80.926 10.8358 80.9967 10.7365 81.0608 10.6047C81.1889 10.341 81.281 9.96128 81.3091 9.50916C81.3349 9.0886 81.3259 8.77944 81.2675 8.57613V8.57613Z" fill="white" stroke="#304402" stroke-width="0.13"/>
<path d="M83.7102 10.5821C83.8222 10.2427 83.6976 9.91907 83.4318 9.85915C83.166 9.79923 82.8598 10.0257 82.7478 10.3651C82.6357 10.7044 82.7604 11.0281 83.0261 11.088C83.2919 11.1479 83.5982 10.9214 83.7102 10.5821Z" fill="#191715" stroke="#304402" stroke-width="0.13" stroke-miterlimit="10"/>
<path d="M81.2536 10.1829C81.3015 9.87577 81.1408 9.60551 80.8947 9.57928C80.6485 9.55304 80.4101 9.78075 80.3622 10.0879C80.3143 10.395 80.4749 10.6653 80.7211 10.6916C80.9672 10.7178 81.2056 10.4901 81.2536 10.1829Z" fill="#191715" stroke="#304402" stroke-width="0.13" stroke-miterlimit="10"/>
<path d="M80.8537 9.87402C80.8634 9.79084 80.8298 9.72007 80.7786 9.71596C80.7273 9.71185 80.6778 9.77596 80.6681 9.85914C80.6583 9.94233 80.6919 10.0131 80.7432 10.0172C80.7945 10.0213 80.8439 9.95721 80.8537 9.87402Z" fill="white" stroke="#304402" stroke-width="0.13" stroke-miterlimit="10"/>
<path d="M83.4745 10.3054C83.4941 10.2229 83.4459 10.1455 83.3667 10.1327C83.2876 10.1198 83.2075 10.1763 83.1879 10.2588C83.1683 10.3413 83.2165 10.4186 83.2956 10.4315C83.3748 10.4443 83.4549 10.3879 83.4745 10.3054Z" fill="white" stroke="#304402" stroke-width="0.13" stroke-miterlimit="10"/>
<path d="M91.3709 23.1048C91.3709 23.1048 91.7102 22.0529 91.7102 19.6697L87.0434 17.2856C87.0434 19.8099 86.2795 23.5959 86.5345 25.5585C86.6795 26.68 89.4195 28.223 91.3709 23.1048Z" fill="url(#paint3_linear_1352_15326)" stroke="#304402" stroke-width="0.13" stroke-miterlimit="10"/>
<path d="M0.00224562 18.8212L2.50074 18.4173C7.53257 17.604 12.6531 16.8818 17.7187 16.2709L20.9328 15.8828V26.1573L18.8297 26.5277V31.2356L19.87 31.0155L18.7477 34.7802C18.2332 36.506 17.7187 38.2338 17.2041 39.9624L16.7829 41.3782L15.0573 41.6799C12.0633 42.2026 9.03346 42.7689 6.05301 43.364L2.90518 43.9916L0 18.823L0.00224562 18.8212Z" fill="#ACB793"/>
<path d="M15.2875 20.2548L17.904 20.0199C19.8678 19.8435 21.8607 19.6801 23.8278 19.5344L26.9408 19.3032L26.6656 32.3981C27.9014 32.2208 29.1371 32.05 30.365 31.8857L33.8218 31.4233L33.1421 40.9941L30.6762 41.1352C27.1217 41.3385 23.4234 41.5873 19.3678 41.8974L16.4301 42.1221L15.2842 20.2548H15.2875Z" fill="#ACB793"/>
<path d="M29.5427 29.5638C27.0498 26.5409 24.5154 23.4884 22 20.4832L19.7139 17.7519L23.6032 16.9163C25.8871 16.4252 28.2047 15.949 30.4954 15.4987L32.5479 15.0948L33.5882 16.6118C34.2622 17.595 34.9385 18.5837 35.6148 19.5725C36.3069 18.4621 36.9989 17.3545 37.6864 16.2572L38.3695 15.1654L39.8457 15.0187C42.1251 14.7922 44.4382 14.5833 46.721 14.3986L52.1348 13.9585L49.4341 17.8605C46.8322 21.6196 44.2124 25.4334 41.6398 29.2054L41.6971 40.7583L39.1098 40.9356C36.9809 41.0814 34.8194 41.2475 32.6872 41.4304L29.6023 41.6941L29.5438 29.5619L29.5427 29.5638Z" fill="#ACB793"/>
<path d="M49.4641 40.6606C46.4926 40.6606 43.4627 39.4732 40.7014 37.2274L38.9668 35.8163L40.4104 34.1972C41.2945 33.2057 42.1877 32.2058 43.0684 31.2245C42.5988 30.7891 42.2056 30.3174 41.8899 29.8096L41.8776 29.7892C40.9407 28.2444 40.6429 26.6243 40.9946 24.9736C41.3372 23.3666 42.136 21.9675 43.3684 20.8172C44.7142 19.5472 46.4713 18.759 48.4519 18.5381L48.489 18.5343L48.526 18.5306C49.172 18.4731 49.7921 18.4434 50.3707 18.4434C55.8126 18.4434 57.8729 20.9667 59.8648 23.4065L61.6858 25.6365L58.9245 26.8453C58.0471 27.2296 57.1607 27.6205 56.2788 28.0123C56.7562 28.4013 57.1742 28.8385 57.5314 29.3231C58.4976 30.6312 58.9514 32.0684 58.8818 33.5937C58.8099 35.1349 58.1504 36.5646 56.9236 37.8448L56.9101 37.8587C55.6879 39.1139 53.8938 39.9894 51.5784 40.4592L51.5346 40.4675C50.8571 40.5956 50.1606 40.6606 49.4652 40.6606H49.4641Z" fill="#ACB793"/>
<path d="M64.2502 40.8028C62.7797 40.7555 61.2889 40.7156 59.8183 40.6859L57.3063 40.6339L54.627 15.0029L57.7433 15.0493C60.1306 15.0846 62.5505 15.1431 64.9355 15.223L67.68 15.3149L67.1161 40.8948L64.2502 40.8019V40.8028Z" fill="#ACB793"/>
<path d="M79.7168 41.7591C78.4012 41.6626 77.0621 41.5707 75.7353 41.4871L73.1998 41.3274L73.1852 40.8242C72.8942 40.8428 72.61 40.8521 72.3303 40.8521C71.4113 40.8521 70.5451 40.749 69.7554 40.5457C67.7377 40.0258 66.1514 38.9879 65.0392 37.4598C62.4216 33.9105 62.5913 28.2316 62.716 24.0835L62.7227 23.8747V23.8468C62.7654 23.1412 62.7867 22.4292 62.7867 21.731V19.8176L65.0606 19.4537C66.7333 19.1854 68.4286 18.9254 70.0991 18.6794L73.3997 18.1938V19.6431L75.4006 20.0506C77.0801 20.3932 78.7787 20.7506 80.4481 21.1127L82.5422 21.5676V23.3575C82.5422 26.2764 82.5793 28.9019 82.6568 31.3844C82.7354 33.879 82.7725 36.5174 82.7725 39.4484V41.9857L79.7145 41.7601L79.7168 41.7591Z" fill="#ACB793"/>
<path d="M100.201 43.6486C98.3163 43.436 96.3997 43.2345 94.5056 43.0507L92.1386 42.8205L91.9341 39.1858L91.1971 40.2005L90.6208 39.3993L90.4624 43.9837L87.3831 43.6551C85.5587 43.4601 83.7061 43.2763 81.8761 43.1083L79.4821 42.8882L78.2148 18.1504L80.8493 17.9294C82.9164 17.7558 85.0093 17.5971 87.0697 17.4578L88.9436 17.3306L89.7996 18.713C90.1703 19.3118 90.5422 19.9125 90.914 20.515C91.3173 19.8447 91.7207 19.1772 92.1217 18.5125L92.9306 17.1719L94.7416 17.2294C96.9199 17.2981 99.1263 17.3873 101.301 17.495L104 17.6277L103.319 44.0004L100.198 43.6486H100.201Z" fill="#ACB793"/>
<path d="M3.04004 20.6957C8.05501 19.8853 13.0857 19.176 18.1254 18.5679V24.2793C15.1786 24.7983 12.2342 25.3525 9.29527 25.9411C9.26831 27.0366 9.24022 28.1321 9.21326 29.2276C11.4803 28.6381 13.7508 28.069 16.0223 27.5203V31.7092C13.9586 32.0109 11.896 32.3294 9.83564 32.6654C9.9008 33.6235 9.96708 34.5816 10.0322 35.5397C12.0274 35.0858 14.0238 34.6466 16.0223 34.2242C15.5078 35.951 14.9933 37.6787 14.4788 39.4065C11.4466 39.9357 8.419 40.502 5.39586 41.1045C4.61058 34.2985 3.82531 27.4943 3.04004 20.693V20.6957Z" fill="#D64C3D"/>
<path d="M8.39746 20.9745C12.8653 20.1641 17.3455 19.4548 21.8348 18.8467V24.5581C19.2093 25.0771 16.5872 25.6313 13.9685 26.2199C13.9438 27.3154 13.9202 28.4109 13.8955 29.5064C15.9154 28.9169 17.9376 28.3478 19.9609 27.7991V31.988C18.1218 32.2897 16.285 32.6082 14.4505 32.9443C14.5089 33.9024 14.5673 34.8605 14.6257 35.8185C16.403 35.3646 18.1814 34.9254 19.9609 34.503C19.5025 36.2298 19.0442 37.9576 18.5858 39.6853C15.8851 40.2145 13.1877 40.7808 10.496 41.3833C9.79612 34.5773 9.09623 27.7731 8.39746 20.9718V20.9745Z" fill="#999999"/>
<path d="M21.9082 22.6054C23.6506 22.43 25.3942 22.2693 27.1378 22.1245C27.0546 26.5696 26.9715 31.0138 26.8884 35.459C28.9701 35.1025 31.0529 34.7682 33.138 34.4554C33.0402 36.003 32.9425 37.5506 32.8448 39.0982C29.425 39.3173 26.0525 39.5782 22.7137 39.8651C22.4452 34.1119 22.1767 28.3586 21.9082 22.6063V22.6054Z" fill="#999999"/>
<path d="M27.3439 19.4425C29.3717 18.9532 31.4017 18.4844 33.4317 18.0369C34.7922 20.2641 36.1527 22.5006 37.5143 24.7473C38.8365 22.3576 40.1588 19.9772 41.4811 17.6043C43.5044 17.3787 45.5277 17.1735 47.5521 16.9888C45.1266 20.9242 42.7 24.8884 40.2756 28.8824C40.2903 32.2227 40.3049 35.563 40.3195 38.9034C38.395 39.051 36.4706 39.2172 34.5462 39.4019C34.5316 35.9762 34.517 32.5495 34.5024 29.1237C32.114 25.8679 29.7267 22.6408 27.3428 19.4425H27.3439Z" fill="#999999"/>
<path d="M57.007 25.0721C55.8555 25.6384 54.704 26.2103 53.5514 26.7896C53.5514 26.7887 51.3899 23.9515 49.7137 25.2856C48.0376 26.6086 49.9631 28.1191 52.0808 28.8126C53.2862 29.2211 54.1985 29.8942 54.8006 30.8105C55.4039 31.7268 55.6825 32.71 55.6387 33.7841C55.5949 34.8443 55.1826 35.8043 54.4333 36.6825C53.6828 37.5469 52.5515 38.1392 51.0371 38.4836C48.7577 38.9673 46.2289 38.1605 43.7012 35.8516C44.5291 34.8081 45.3571 33.7692 46.1851 32.7332C46.1851 32.7295 49.2576 36.4319 50.9338 35.1386C52.6099 33.8166 50.6102 32.399 48.5667 31.621C46.9344 30.9739 45.8323 30.1151 45.229 29.027C44.6415 27.939 44.4505 26.8156 44.6707 25.6542C44.8909 24.4928 45.3908 23.4744 46.1997 22.6286C47.0085 21.7698 48.0084 21.2639 49.1846 21.1162C53.8457 20.6474 55.1107 22.4661 57.007 25.073V25.0721Z" fill="#999999"/>
<path d="M57.0802 17.6489C59.1979 17.6842 61.3144 17.7418 63.4298 17.8216C63.2928 24.8022 63.1557 31.7827 63.0187 38.7633C61.6908 38.715 60.3629 38.676 59.035 38.6454C58.3834 31.6444 57.7318 24.6462 57.0791 17.6499L57.0802 17.6489Z" fill="#999999"/>
<path d="M68.5724 21.2407C68.5724 21.6083 68.5432 22.2043 68.4848 23.0176C68.4118 23.9924 68.3522 25.1186 68.3084 26.4081C68.2646 27.6837 68.2792 28.9361 68.3668 30.1783C68.4545 31.4075 68.6601 32.4519 68.969 33.2986C69.2925 34.1462 69.7913 34.6234 70.4665 34.7599C71.1417 34.8286 71.6405 34.5213 71.964 33.8352C72.2865 33.1361 72.4921 32.2384 72.5662 31.115C72.6392 29.9917 72.6538 28.8367 72.5954 27.6354C72.537 26.4211 72.4628 25.3414 72.3752 24.3972C72.3022 23.5486 72.2573 22.948 72.2573 22.5803C73.7447 22.9201 75.231 23.272 76.7161 23.6341C76.7161 26.3672 76.7453 29.0623 76.8184 31.7203C76.8914 34.3514 76.9206 37.0186 76.9206 39.7249C75.7286 39.6265 74.5356 39.5346 73.3425 39.4501C73.3324 39.0592 73.3234 38.6693 73.3133 38.2785C71.3619 38.8476 69.7913 38.959 68.5724 38.6062C67.3535 38.2543 66.4278 37.5571 65.7672 36.534C63.7844 33.5223 63.9596 28.1219 64.063 24.2357C64.1068 23.3945 64.1214 22.6472 64.1214 22.0075C65.6055 21.7401 67.0895 21.4848 68.5724 21.2397V21.2407Z" fill="#999999"/>
<path d="M77.9621 20.5165C79.7944 20.3438 81.6244 20.1879 83.4545 20.0486C84.5375 22.0112 85.6193 23.9803 86.7012 25.9559C87.7976 23.907 88.893 21.8645 89.9883 19.8276C91.9206 19.8963 93.8507 19.9836 95.7785 20.0904C95.6133 27.2696 95.4482 34.4479 95.283 41.6271C93.5777 41.4108 91.8712 41.2103 90.1636 41.0237C90.0074 37.9126 89.8524 34.8007 89.6962 31.6897C88.7762 33.1054 87.8561 34.5268 86.9349 35.951C86.0092 34.5055 85.0823 33.0646 84.1566 31.6284C84.0544 34.9632 83.9522 38.297 83.8488 41.6318C82.2007 41.434 80.5504 41.2502 78.899 41.0794C78.5867 34.2242 78.2732 27.3699 77.9609 20.5165H77.9621Z" fill="#999999"/>
<path d="M7.88965 20.9467C12.4092 20.1362 16.9422 19.4269 21.4831 18.8188V24.5303C18.8273 25.0493 16.1749 25.6035 13.5259 26.1921C13.5012 27.2876 13.4764 28.3831 13.4517 29.4786C15.4952 28.8891 17.541 28.32 19.5879 27.7713V31.9602C17.7275 32.2619 15.8693 32.5803 14.0134 32.9164C14.073 33.8745 14.1314 34.8326 14.1909 35.7907C15.9884 35.3367 17.7882 34.8976 19.589 34.4752C19.125 36.202 18.6611 37.9297 18.1982 39.6575C15.466 40.1866 12.7372 40.7529 10.014 41.3555C9.30629 34.5495 8.59853 27.7453 7.89077 20.9439L7.88965 20.9467Z" fill="#999999"/>
<path d="M21.5576 22.5776C23.3203 22.4021 25.0841 22.2415 26.849 22.0967C26.7647 26.5418 26.6804 30.986 26.5973 35.4311C28.7026 35.0746 30.8102 34.7404 32.9188 34.4275C32.82 35.9752 32.7211 37.5228 32.6222 39.0704C29.1621 39.2895 25.7502 39.5504 22.3732 39.8373C22.1014 34.084 21.8306 28.3308 21.5587 22.5785L21.5576 22.5776Z" fill="#999999"/>
<path d="M27.0548 19.4147C29.1062 18.9254 31.1598 18.4566 33.2135 18.0091C34.5897 20.2363 35.9658 22.4728 37.3432 24.7195C38.68 22.3298 40.018 19.9494 41.356 17.5765C43.4029 17.3509 45.4498 17.1457 47.4978 16.9609C45.0431 20.8964 42.5896 24.8606 40.1371 28.8545C40.1517 32.1949 40.1663 35.5352 40.1821 38.8755C38.2352 39.0232 36.2883 39.1893 34.3425 39.3741C34.3279 35.9483 34.3133 32.5217 34.2976 29.0959C31.8811 25.84 29.4668 22.613 27.0537 19.4147H27.0548Z" fill="#999999"/>
<path d="M57.0644 25.0443C55.8994 25.6106 54.7344 26.1825 53.5683 26.7618C53.5683 26.7609 51.3821 23.9237 49.6857 25.2578C47.9905 26.5808 49.9385 28.0913 52.0809 28.7848C53.3009 29.1932 54.2233 29.8663 54.8333 30.7826C55.4433 31.699 55.7253 32.6821 55.6815 33.7563C55.6365 34.8165 55.2209 35.7764 54.4614 36.6547C53.7031 37.519 52.5572 38.1113 51.0249 38.4558C48.7196 38.9395 46.1604 38.1327 43.6035 35.8238C44.4416 34.7803 45.2785 33.7414 46.1166 32.7053C46.1166 32.7016 49.2251 36.404 50.9215 35.1108C52.6168 33.7888 50.5946 32.3711 48.5264 31.5931C46.8749 30.946 45.7594 30.0873 45.1505 28.9992C44.5551 27.9111 44.3618 26.7878 44.5854 25.6264C44.809 24.465 45.3145 23.4465 46.1323 22.6008C46.9502 21.742 47.9613 21.236 49.1521 21.0884C53.8671 20.6196 55.1467 22.4383 57.0655 25.0452L57.0644 25.0443Z" fill="#999999"/>
<path d="M57.1388 17.6211C59.2801 17.6564 61.4224 17.7139 63.5626 17.7938C63.4244 24.7743 63.2851 31.7549 63.1458 38.7354C61.8033 38.6872 60.4597 38.6482 59.116 38.6175C58.4566 31.6165 57.7971 24.6184 57.1377 17.622L57.1388 17.6211Z" fill="#999999"/>
<path d="M68.7632 21.2128C68.7632 21.5805 68.734 22.1765 68.6745 22.9898C68.6003 23.9646 68.5408 25.0907 68.4958 26.3803C68.4509 27.6559 68.4666 28.9083 68.5554 30.1504C68.6441 31.3796 68.852 32.4241 69.1643 33.2708C69.4912 34.1184 69.9956 34.5956 70.6798 34.732C71.3628 34.8007 71.8672 34.4934 72.1941 33.8074C72.5211 33.1083 72.7289 32.2105 72.8031 31.0872C72.8772 29.9638 72.8918 28.8089 72.8323 27.6076C72.7727 26.3932 72.6986 25.3135 72.6098 24.3694C72.5357 23.5208 72.4907 22.9201 72.4907 22.5525C73.995 22.8923 75.4993 23.2442 77.0024 23.6062C77.0024 26.3394 77.0316 29.0345 77.1058 31.6925C77.1799 34.3235 77.2091 36.9908 77.2091 39.6971C76.0026 39.5986 74.796 39.5067 73.5883 39.4223C73.5782 39.0314 73.5681 38.6415 73.5591 38.2506C71.5853 38.8197 69.9956 38.9311 68.7621 38.5783C67.5286 38.2265 66.5928 37.5293 65.9243 36.5062C63.9179 33.4945 64.0965 28.0941 64.1999 24.2078C64.2448 23.3667 64.2594 22.6193 64.2594 21.9797C65.7603 21.7123 67.2612 21.457 68.7621 21.2119L68.7632 21.2128Z" fill="#999999"/>
<path d="M78.2628 20.4887C80.1165 20.316 81.9679 20.16 83.8193 20.0208C84.9146 21.9834 86.01 23.9525 87.1042 25.9281C88.213 23.8791 89.3218 21.8367 90.4295 19.7998C92.3843 19.8685 94.3368 19.9558 96.2871 20.0625C96.1197 27.2418 95.9534 34.4201 95.786 41.5993C94.0616 41.383 92.3349 41.1824 90.607 40.9958C90.4498 37.8848 90.2914 34.7728 90.1341 31.6618C89.2039 33.0776 88.2726 34.499 87.3401 35.9231C86.4032 34.4776 85.4663 33.0368 84.5293 31.6005C84.426 34.9353 84.3226 38.2692 84.2181 41.6039C82.5498 41.4062 80.8816 41.2224 79.211 41.0515C78.8953 34.1963 78.5785 27.342 78.2617 20.4887H78.2628Z" fill="#999999"/>
<path d="M7.375 20.9189C11.9473 20.1084 16.532 19.3991 21.1269 18.791V24.5025C18.4396 25.0214 15.7569 25.5757 13.0764 26.1643C13.0517 27.2598 13.027 28.3553 13.0011 29.4508C15.0682 28.8612 17.1376 28.2921 19.2092 27.7435V31.9324C17.3274 32.2341 15.4479 32.5525 13.5696 32.8886C13.6291 33.8467 13.6887 34.8048 13.7493 35.7629C15.5681 35.3089 17.3881 34.8698 19.2103 34.4474C18.7407 36.1742 18.2722 37.9019 17.8026 39.6296C15.039 40.1588 12.2788 40.7251 9.52299 41.3276C8.80624 34.5216 8.09062 27.7175 7.375 20.9161V20.9189Z" fill="#999999"/>
<path d="M21.2021 22.5498C22.985 22.3743 24.769 22.2137 26.5541 22.0688C26.4688 26.514 26.3845 30.9582 26.2991 35.4033C28.4291 35.0468 30.5614 34.7126 32.6948 34.3997C32.5948 35.9473 32.4948 37.4949 32.3948 39.0426C28.8942 39.2617 25.4431 39.5225 22.0267 39.8094C21.7515 34.0562 21.4774 28.303 21.2021 22.5507V22.5498Z" fill="#999999"/>
<path d="M26.7646 19.3868C28.8407 18.8976 30.9168 18.4287 32.9952 17.9813C34.3871 20.2085 35.7801 22.4449 37.1732 24.6916C38.5258 22.302 39.8795 19.9216 41.2332 17.5486C43.3037 17.323 45.3753 17.1179 47.4469 16.9331C44.9641 20.8685 42.4814 24.8328 40.0008 28.8267C40.0155 32.167 40.0312 35.5074 40.0458 38.8477C38.0753 38.9953 36.1059 39.1615 34.1377 39.3463C34.1231 35.9205 34.1074 32.4938 34.0928 29.0681C31.6482 25.8122 29.2059 22.5851 26.7646 19.3868V19.3868Z" fill="#999999"/>
<path d="M57.1229 25.0164C55.9444 25.5828 54.766 26.1547 53.5864 26.734C53.5864 26.733 51.3743 23.8959 49.6589 25.23C47.9434 26.5529 49.915 28.0634 52.0821 28.7569C53.3156 29.1654 54.2492 29.8385 54.8659 30.7548C55.4827 31.6711 55.7692 32.6543 55.7231 33.7284C55.6782 34.7887 55.2569 35.7486 54.4896 36.6269C53.7223 37.4912 52.5629 38.0835 51.0137 38.4279C48.6815 38.9116 46.0931 38.1049 43.5059 35.796C44.3529 34.7525 45.2011 33.7136 46.0482 32.6775C46.0482 32.6738 49.1926 36.3762 50.9081 35.083C52.6236 33.7609 50.5767 32.3433 48.4849 31.5653C46.8143 30.9182 45.6864 30.0595 45.0697 28.9714C44.4675 27.8833 44.272 26.76 44.4978 25.5985C44.7237 24.4371 45.2348 23.4187 46.0628 22.5729C46.8907 21.7142 47.9131 21.2082 49.1174 21.0606C53.8874 20.5917 55.1816 22.4105 57.1229 25.0174V25.0164Z" fill="#999999"/>
<path d="M57.1963 17.5933C59.3634 17.6285 61.5293 17.6861 63.6953 17.7659C63.5549 24.7465 63.4144 31.727 63.274 38.7076C61.9158 38.6593 60.5565 38.6203 59.1971 38.5897C58.5298 31.5887 57.8636 24.5905 57.1963 17.5942V17.5933Z" fill="#999999"/>
<path d="M68.9576 21.185C68.9576 21.5527 68.9272 22.1487 68.8677 22.9619C68.7924 23.9368 68.7329 25.0629 68.6868 26.3524C68.6419 27.628 68.6565 28.8804 68.7475 30.1226C68.8374 31.3518 69.0486 32.3962 69.3631 33.2429C69.6934 34.0905 70.2046 34.5677 70.8955 34.7042C71.5864 34.7729 72.0975 34.4656 72.4278 33.7795C72.7581 33.0804 72.9682 32.1827 73.0435 31.0593C73.1187 29.936 73.1333 28.7811 73.0738 27.5797C73.0143 26.3654 72.939 25.2857 72.848 24.3415C72.7727 23.493 72.7278 22.8923 72.7278 22.5247C74.25 22.8645 75.7711 23.2163 77.2911 23.5784C77.2911 26.3116 77.3215 29.0067 77.3956 31.6647C77.4709 34.2957 77.5001 36.963 77.5001 39.6692C76.2801 39.5708 75.0589 39.4789 73.8377 39.3944C73.8276 39.0036 73.8175 38.6136 73.8074 38.2228C71.8099 38.7919 70.2023 38.9033 68.9553 38.5505C67.7083 38.1987 66.7613 37.5014 66.0838 36.4784C64.0538 33.4667 64.2347 28.0662 64.3392 24.18C64.3841 23.3389 64.3998 22.5915 64.3998 21.9519C65.9187 21.6845 67.4376 21.4292 68.9553 21.1841L68.9576 21.185Z" fill="#999999"/>
<path d="M78.5674 20.4608C80.4424 20.2882 82.3163 20.1322 84.1879 19.9929C85.2967 21.9555 86.4044 23.9247 87.511 25.9003C88.6333 23.8513 89.7545 21.8089 90.8756 19.772C92.8529 19.8407 94.829 19.9279 96.8017 20.0347C96.6332 27.2139 96.4636 34.3922 96.295 41.5715C94.5504 41.3551 92.8034 41.1546 91.0554 40.968C90.8959 37.857 90.7363 34.745 90.5768 31.634C89.6354 33.0498 88.6928 34.4711 87.7503 35.8953C86.8032 34.4498 85.8551 33.0089 84.9069 31.5727C84.8024 34.9075 84.6968 38.2413 84.5923 41.5761C82.9049 41.3784 81.2164 41.1945 79.5268 41.0237C79.2066 34.1685 78.8864 27.3142 78.5674 20.4608V20.4608Z" fill="#999999"/>
<path d="M6.85562 20.8911C11.4808 20.0806 16.1194 19.3713 20.767 18.7632V24.4746C18.0494 24.9936 15.3341 25.5478 12.6233 26.1364C12.5986 27.2319 12.5727 28.3274 12.548 29.4229C14.6387 28.8334 16.7328 28.2643 18.828 27.7156V31.9045C16.9249 32.2062 15.0229 32.5247 13.1221 32.8608C13.1828 33.8189 13.2434 34.777 13.303 35.735C15.1431 35.2811 16.9844 34.8419 18.8268 34.4195C18.3528 36.1463 17.8775 37.8741 17.4035 39.6018C14.6073 40.131 11.8155 40.6973 9.0272 41.2998C8.30259 34.4938 7.57798 27.6896 6.85449 20.8883L6.85562 20.8911Z" fill="#999999"/>
<path d="M20.8429 22.5219C22.646 22.3465 24.4514 22.1858 26.2578 22.041C26.1713 26.4861 26.086 30.9303 25.9994 35.3755C28.1542 35.019 30.3112 34.6847 32.4693 34.3719C32.3681 35.9195 32.267 37.4671 32.1648 39.0147C28.6238 39.2338 25.1322 39.4947 21.6754 39.7816C21.3979 34.0284 21.1193 28.2751 20.8418 22.5228L20.8429 22.5219Z" fill="#999999"/>
<path d="M26.4707 19.359C28.5704 18.8697 30.6712 18.4009 32.7742 17.9534C34.183 20.1806 35.5918 22.4171 37.0006 24.6638C38.3689 22.2741 39.7384 19.8938 41.1078 17.5208C43.2019 17.2952 45.2982 17.09 47.3934 16.9053C44.8814 20.8407 42.3705 24.8049 39.8608 28.7989C39.8765 32.1392 39.8911 35.4795 39.9069 38.8199C37.9139 38.9675 35.9221 39.1337 33.9302 39.3184C33.9145 35.8927 33.8999 32.466 33.8842 29.0402C31.4115 25.7844 28.94 22.5573 26.4718 19.359H26.4707Z" fill="#999999"/>
<path d="M57.1817 24.9886C55.9897 25.5549 54.7967 26.1268 53.6047 26.7061C53.6047 26.7052 51.3668 23.868 49.6311 25.2021C47.8955 26.5251 49.8895 28.0356 52.0825 28.7291C53.3306 29.1376 54.2743 29.8107 54.8989 30.727C55.5235 31.6433 55.8122 32.6265 55.7662 33.7006C55.7201 34.7608 55.2943 35.7208 54.5181 36.599C53.7418 37.4634 52.57 38.0557 51.0017 38.4001C48.6425 38.8838 46.0238 38.077 43.4062 35.7681C44.2634 34.7246 45.1206 33.6858 45.9789 32.6497C45.9789 32.646 49.1604 36.3484 50.8961 35.0551C52.6318 33.7331 50.5613 32.3155 48.4448 31.5375C46.7552 30.8904 45.6138 30.0316 44.9892 28.9435C44.3803 27.8555 44.1825 26.7321 44.4106 25.5707C44.6386 24.4093 45.1565 23.3909 45.9935 22.5451C46.8304 21.6863 47.8662 21.1804 49.084 21.0328C53.9103 20.5639 55.2191 22.3826 57.1828 24.9895L57.1817 24.9886Z" fill="#999999"/>
<path d="M57.2568 17.5654C59.4486 17.6007 61.6404 17.6583 63.8311 17.7381C63.6896 24.7187 63.5469 31.6992 63.4053 38.6798C62.0314 38.6315 60.6563 38.5925 59.2813 38.5619C58.6061 31.5609 57.932 24.5627 57.2568 17.5664V17.5654Z" fill="#999999"/>
<path d="M69.1556 21.1572C69.1556 21.5248 69.1252 22.1208 69.0646 22.9341C68.9882 23.9089 68.9275 25.0351 68.8826 26.3246C68.8365 27.6002 68.8522 28.8526 68.9432 30.0948C69.0342 31.324 69.2477 32.3684 69.5667 33.2151C69.9015 34.0627 70.4183 34.5399 71.1171 34.6764C71.8158 34.7451 72.3326 34.4378 72.6674 33.7517C73.0022 33.0526 73.2145 32.1549 73.2898 31.0315C73.3662 29.9082 73.3808 28.7533 73.3201 27.5519C73.2594 26.3376 73.183 25.2579 73.0921 24.3137C73.0157 23.4652 72.9707 22.8645 72.9707 22.4968C74.5098 22.8366 76.0489 23.1885 77.5869 23.5506C77.5869 26.2837 77.6172 28.9788 77.6936 31.6368C77.77 34.2679 77.8003 36.9351 77.8003 39.6414C76.5657 39.543 75.331 39.4511 74.0953 39.3666C74.0852 38.9757 74.0751 38.5858 74.0649 38.195C72.045 38.7641 70.4183 38.8755 69.1567 38.5227C67.8951 38.1708 66.9368 37.4736 66.2526 36.4505C64.199 33.4388 64.381 28.0384 64.4877 24.1522C64.5338 23.311 64.5484 22.5637 64.5484 21.924C66.0853 21.6567 67.621 21.4013 69.1567 21.1562L69.1556 21.1572Z" fill="#999999"/>
<path d="M78.8761 20.433C80.7725 20.2603 82.6688 20.1044 84.5618 19.9651C85.683 21.9277 86.8041 23.8968 87.9231 25.8724C89.0577 23.8235 90.1924 21.781 91.327 19.7441C93.3279 19.8128 95.3264 19.9001 97.3216 20.0069C97.1509 27.1861 96.9801 34.3644 96.8082 41.5436C95.0433 41.3273 93.2762 41.1268 91.5079 40.9402C91.3461 37.8291 91.1855 34.7172 91.0237 31.6062C90.071 33.022 89.1184 34.4433 88.1646 35.8675C87.2063 34.422 86.2469 32.9811 85.2875 31.5449C85.1819 34.8797 85.0752 38.2135 84.9696 41.5483C83.2631 41.3505 81.5544 41.1667 79.8456 40.9959C79.5221 34.1407 79.1985 27.2864 78.875 20.433H78.8761Z" fill="#999999"/>
<path d="M6.3294 20.8632C11.0085 20.0527 15.701 19.3434 20.4026 18.7354V24.4468C17.6524 24.9658 14.9068 25.52 12.1645 26.1086C12.1386 27.2041 12.1139 28.2996 12.0881 29.3951C14.2035 28.8056 16.3211 28.2365 18.441 27.6878V31.8767C16.5155 32.1784 14.5911 32.4968 12.6689 32.8329C12.7296 33.791 12.7913 34.7491 12.852 35.7072C14.7135 35.2532 16.5762 34.8141 18.4399 34.3917C17.9602 36.1185 17.4794 37.8462 16.9997 39.574C14.1709 40.1031 11.3466 40.6695 8.52569 41.272C7.79322 34.466 7.05962 27.6618 6.32715 20.8604L6.3294 20.8632Z" fill="#999999"/>
<path d="M20.4785 22.4941C22.303 22.3186 24.1296 22.158 25.9563 22.0132C25.8698 26.4583 25.7822 30.9025 25.6957 35.3476C27.8763 34.9911 30.058 34.6569 32.2408 34.344C32.1386 35.8917 32.0363 37.4393 31.933 38.9869C28.3515 39.206 24.8183 39.4669 21.3222 39.7538C21.0414 34.0005 20.7594 28.2473 20.4785 22.495V22.4941Z" fill="#999999"/>
<path d="M26.1729 19.3312C28.2972 18.8419 30.4228 18.3731 32.5494 17.9256C33.9739 20.1528 35.3995 22.3893 36.8252 24.636C38.2104 22.2463 39.5944 19.8659 40.9796 17.493C43.0984 17.2674 45.2183 17.0622 47.3382 16.8774C44.797 20.8129 42.2569 24.7771 39.718 28.771C39.7337 32.1114 39.7483 35.4517 39.7641 38.792C37.7475 38.9397 35.7321 39.1058 33.7178 39.2906C33.702 35.8648 33.6874 32.4382 33.6717 29.0124C31.1698 25.7565 28.6702 22.5295 26.1729 19.3312V19.3312Z" fill="#999999"/>
<path d="M57.24 24.9608C56.0334 25.5271 54.8268 26.099 53.6214 26.6783C53.6214 26.6774 51.3577 23.8402 49.6018 25.1743C47.8459 26.4973 49.8635 28.0078 52.0812 28.7013C53.3439 29.1097 54.2988 29.7828 54.9302 30.6992C55.5616 31.6155 55.8548 32.5986 55.8076 33.6728C55.7615 34.733 55.3301 35.693 54.5449 36.5712C53.7596 37.4355 52.5732 38.0279 50.987 38.3723C48.5997 38.856 45.9506 38.0492 43.3027 35.7403C44.17 34.6968 45.0373 33.6579 45.9046 32.6218C45.9046 32.6181 49.1232 36.3205 50.8791 35.0273C52.635 33.7053 50.5398 32.2876 48.3997 31.5096C46.6899 30.8625 45.535 30.0038 44.9047 28.9157C44.2891 27.8276 44.0891 26.7043 44.3194 25.5429C44.5509 24.3815 45.0733 23.363 45.9203 22.5173C46.7674 21.6585 47.8144 21.1525 49.0468 21.0049C53.9292 20.5361 55.2537 22.3548 57.24 24.9617V24.9608Z" fill="#999999"/>
<path d="M57.3175 17.5376C59.5352 17.5729 61.7517 17.6304 63.9682 17.7103C63.8244 24.6908 63.6806 31.6714 63.5368 38.6519C62.146 38.6037 60.7552 38.5647 59.3644 38.534C58.6814 31.5331 57.9994 24.5349 57.3164 17.5385L57.3175 17.5376Z" fill="#999999"/>
<path d="M69.3535 21.1293C69.3535 21.497 69.3232 22.093 69.2614 22.9063C69.185 23.8811 69.1232 25.0072 69.0772 26.2968C69.0311 27.5724 69.0468 28.8248 69.139 30.0669C69.2311 31.2961 69.4468 32.3406 69.7692 33.1873C70.1074 34.0349 70.6309 34.5121 71.3375 34.6485C72.0453 34.7172 72.5677 34.4099 72.9058 33.7239C73.244 33.0248 73.4585 32.127 73.536 31.0037C73.6124 29.8803 73.6282 28.7254 73.5664 27.5241C73.5046 26.3098 73.4282 25.23 73.3361 24.2859C73.2597 23.4373 73.2136 22.8367 73.2136 22.469C74.7707 22.8088 76.3278 23.1607 77.8837 23.5227C77.8837 26.2559 77.914 28.951 77.9915 31.609C78.0679 34.24 78.0994 36.9073 78.0994 39.6136C76.8502 39.5151 75.6009 39.4232 74.3517 39.3388C74.3415 38.9479 74.3314 38.558 74.3213 38.1671C72.2778 38.7362 70.632 38.8476 69.3558 38.4948C68.0796 38.143 67.1101 37.4458 66.418 36.4227C64.3408 33.411 64.5251 28.0106 64.6329 24.1243C64.679 23.2832 64.6947 22.5359 64.6947 21.8962C66.2495 21.6288 67.8032 21.3735 69.3569 21.1284L69.3535 21.1293Z" fill="#999999"/>
<path d="M79.1885 20.4052C81.1073 20.2325 83.025 20.0765 84.9404 19.9373C86.0751 21.8999 87.2086 23.869 88.341 25.8446C89.4892 23.7956 90.6373 21.7532 91.7843 19.7163C93.8076 19.785 95.8298 19.8723 97.8486 19.979C97.6756 27.1583 97.5026 34.3366 97.3295 41.5158C95.5444 41.2995 93.7559 41.0989 91.9674 40.9123C91.8045 37.8013 91.6417 34.6894 91.4776 31.5783C90.5137 32.9941 89.5498 34.4155 88.5859 35.8396C87.6164 34.3941 86.6458 32.9533 85.6751 31.5171C85.5684 34.8518 85.4606 38.1857 85.3538 41.5204C83.6271 41.3227 81.8993 41.1389 80.1703 40.968C79.8434 34.1128 79.5154 27.2585 79.1885 20.4052V20.4052Z" fill="#999999"/>
<path d="M5.79688 20.8354C10.5299 20.0249 15.2775 19.3156 20.034 18.7075V24.419C17.2524 24.9379 14.4742 25.4922 11.6994 26.0808C11.6735 27.1763 11.6477 28.2718 11.6218 29.3673C13.762 28.7778 15.9043 28.2086 18.049 27.66V31.8489C16.1009 32.1506 14.154 32.469 12.2105 32.8051C12.2723 33.7632 12.3341 34.7213 12.3959 35.6794C14.2787 35.2254 16.1627 34.7863 18.049 34.3639C17.5636 36.0907 17.0772 37.8184 16.5919 39.5461C13.7305 40.0753 10.8725 40.6416 8.02013 41.2441C7.27867 34.4381 6.53721 27.634 5.79688 20.8326V20.8354Z" fill="#999999"/>
<path d="M20.1113 22.4663C21.9571 22.2908 23.804 22.1302 25.6532 21.9854C25.5656 26.4305 25.4768 30.8747 25.3892 35.3198C27.5945 34.9633 29.802 34.6291 32.0107 34.3162C31.9073 35.8638 31.8028 37.4114 31.6995 38.9591C28.0753 39.1782 24.5028 39.4391 20.9651 39.7259C20.6809 33.9727 20.3967 28.2195 20.1125 22.4672L20.1113 22.4663Z" fill="#999999"/>
<path d="M25.8701 19.3033C28.0192 18.8141 30.1695 18.3452 32.3208 17.8978C33.7622 20.125 35.2035 22.3614 36.646 24.6081C38.0469 22.2185 39.4478 19.8381 40.8499 17.4651C42.9934 17.2395 45.138 17.0344 47.2826 16.8496C44.7122 20.785 42.1418 24.7493 39.5737 28.7432C39.5894 32.0835 39.6051 35.4239 39.6208 38.7642C37.5807 38.9118 35.5428 39.078 33.5049 39.2628C33.4892 35.837 33.4735 32.4103 33.4577 28.9846C30.9267 25.7287 28.3978 22.5016 25.8712 19.3033H25.8701Z" fill="#999999"/>
<path d="M57.3002 24.9329C56.0801 25.4993 54.859 26.0712 53.6389 26.6505C53.6389 26.6495 51.3482 23.8124 49.5721 25.1465C47.796 26.4694 49.8372 27.9799 52.0807 28.6734C53.3581 29.0819 54.3242 29.755 54.9634 30.6713C55.6027 31.5876 55.8981 32.5708 55.8509 33.6449C55.8038 34.7052 55.3679 35.6651 54.5736 36.5434C53.7793 37.4077 52.5795 38 50.9742 38.3444C48.5588 38.8281 45.8794 38.0214 43.2012 35.7125C44.0786 34.669 44.956 33.6301 45.8334 32.594C45.8334 32.5903 49.089 36.2927 50.8652 34.9995C52.6413 33.6774 50.5225 32.2598 48.3566 31.4818C46.6276 30.8347 45.4593 29.976 44.82 28.8879C44.1965 27.7998 43.9943 26.6765 44.228 25.515C44.4617 24.3536 44.9908 23.3352 45.848 22.4894C46.7051 21.6307 47.7645 21.1247 49.0104 20.9771C53.949 20.5083 55.2892 22.327 57.299 24.9339L57.3002 24.9329Z" fill="#999999"/>
<path d="M57.3779 17.5098C59.6214 17.545 61.8638 17.6026 64.1061 17.6824C63.9612 24.663 63.8152 31.6435 63.6702 38.6241C62.2637 38.5758 60.8572 38.5368 59.4495 38.5062C58.7586 31.5052 58.0688 24.507 57.3779 17.5107V17.5098Z" fill="#999999"/>
<path d="M69.5534 21.1015C69.5534 21.4692 69.5219 22.0652 69.4601 22.8785C69.3826 23.8533 69.3197 24.9794 69.2736 26.2689C69.2264 27.5445 69.2422 28.7969 69.3354 30.0391C69.4287 31.2683 69.6466 32.3127 69.9735 33.1594C70.3162 34.007 70.8442 34.4842 71.5598 34.6207C72.2754 34.6894 72.8034 34.3821 73.1461 33.696C73.4887 32.997 73.7055 32.0992 73.7831 30.9759C73.8606 29.8525 73.8763 28.6976 73.8145 27.4963C73.7527 26.2819 73.6741 25.2022 73.5808 24.258C73.5033 23.4095 73.4561 22.8088 73.4561 22.4412C75.0323 22.781 76.6062 23.1328 78.1813 23.4949C78.1813 26.2281 78.2127 28.9232 78.2902 31.5812C78.3678 34.2122 78.3992 36.8795 78.3992 39.5857C77.1354 39.4873 75.8715 39.3954 74.6076 39.3109C74.5975 38.9201 74.5874 38.5302 74.5762 38.1393C72.5091 38.7084 70.8442 38.8198 69.5522 38.467C68.2603 38.1152 67.2807 37.4179 66.5797 36.3949C64.4777 33.3832 64.6653 27.9827 64.7743 24.0965C64.8215 23.2554 64.8361 22.508 64.8361 21.8684C66.4089 21.601 67.9806 21.3457 69.5522 21.1006L69.5534 21.1015Z" fill="#999999"/>
<path d="M79.5021 20.3773C81.4434 20.2047 83.3835 20.0487 85.3214 19.9094C86.4685 21.872 87.6155 23.8412 88.7625 25.8168C89.9241 23.7678 91.0857 21.7254 92.2451 19.6885C94.292 19.7572 96.3378 19.8444 98.3802 19.9512C98.2049 27.1304 98.0308 34.3087 97.8555 41.488C96.049 41.2717 94.2403 41.0711 92.4305 40.8845C92.2653 37.7735 92.1002 34.6615 91.935 31.5505C90.9599 32.9663 89.9848 34.3877 89.0097 35.8118C88.0289 34.3663 87.047 32.9254 86.0651 31.4892C85.9562 34.824 85.8483 38.1578 85.7394 41.4926C83.9924 41.2949 82.2444 41.111 80.4952 40.9402C80.1638 34.085 79.8324 27.2307 79.501 20.3773H79.5021Z" fill="#999999"/>
<path d="M5.25781 20.8076C10.047 19.9971 14.8485 19.2878 19.6612 18.6797V24.3911C16.8471 24.9101 14.0363 25.4643 11.2299 26.0529C11.2041 27.1484 11.1783 28.2439 11.1513 29.3394C13.3161 28.7499 15.4832 28.1808 17.6526 27.6321V31.821C15.6821 32.1228 13.7127 32.4412 11.7456 32.7773C11.8085 33.7354 11.8703 34.6935 11.9332 35.6516C13.8374 35.1976 15.7439 34.7584 17.6526 34.336C17.1616 36.0628 16.6696 37.7906 16.1786 39.5183C13.2836 40.0475 10.393 40.6138 7.50691 41.2163C6.75646 34.4103 6.00714 27.6061 5.25781 20.8048V20.8076Z" fill="#999999"/>
<path d="M19.7402 22.4384C21.6074 22.263 23.4768 22.1023 25.3461 21.9575C25.2574 26.4026 25.1675 30.8468 25.0788 35.292C27.3099 34.9355 29.5432 34.6012 31.7766 34.2884C31.6721 35.836 31.5665 37.3836 31.4621 38.9312C27.7963 39.1503 24.1811 39.4112 20.603 39.6981C20.3154 33.9449 20.0278 28.1916 19.7402 22.4394V22.4384Z" fill="#999999"/>
<path d="M25.5664 19.2755C27.7402 18.7862 29.9152 18.3174 32.0924 17.8699C33.5506 20.0971 35.0088 22.3336 36.4681 24.5803C37.8848 22.1906 39.3025 19.8103 40.7203 17.4373C42.8885 17.2117 45.0578 17.0065 47.2272 16.8218C44.6264 20.7572 42.0268 24.7214 39.4284 28.7154C39.4441 32.0557 39.4598 35.396 39.4755 38.7364C37.4118 38.884 35.3492 39.0502 33.2877 39.2349C33.272 35.8092 33.2563 32.3825 33.2405 28.9567C30.6802 25.7009 28.1222 22.4738 25.5664 19.2755V19.2755Z" fill="#999999"/>
<path d="M57.3616 24.9051C56.127 25.4714 54.8924 26.0433 53.6577 26.6226C53.6577 26.6217 51.3412 23.7846 49.5437 25.1186C47.7474 26.4416 49.8111 27.9521 52.0815 28.6456C53.3735 29.0541 54.3509 29.7272 54.9968 30.6435C55.6428 31.5598 55.9428 32.543 55.8956 33.6171C55.8484 34.6773 55.4069 35.6373 54.6036 36.5155C53.7993 37.3799 52.586 37.9722 50.9626 38.3166C48.5192 38.8003 45.8083 37.9935 43.0986 35.6846C43.9861 34.6411 44.8736 33.6023 45.7612 32.5662C45.7612 32.5625 49.055 36.2649 50.8514 34.9716C52.6478 33.6496 50.5043 32.232 48.3136 31.454C46.5644 30.8069 45.3826 29.9481 44.7366 28.8601C44.1063 27.772 43.9019 26.6486 44.1378 25.4872C44.3737 24.3258 44.9096 23.3074 45.7769 22.4616C46.6442 21.6028 47.7148 21.0969 48.9764 20.9493C53.9723 20.4804 55.3282 22.2991 57.3605 24.906L57.3616 24.9051Z" fill="#999999"/>
<path d="M57.4395 17.4819C59.7088 17.5172 61.9781 17.5748 64.2463 17.6546C64.0991 24.6352 63.952 31.6157 63.8048 38.5963C62.3814 38.548 60.9591 38.509 59.5358 38.4784C58.837 31.4774 58.1382 24.4792 57.4395 17.4829V17.4819Z" fill="#999999"/>
<path d="M69.7573 21.0737C69.7573 21.4413 69.7259 22.0373 69.6629 22.8506C69.5843 23.8254 69.5214 24.9516 69.4742 26.2411C69.427 27.5167 69.4428 28.7691 69.5371 30.0113C69.6315 31.2405 69.8517 32.2849 70.182 33.1316C70.528 33.9792 71.0627 34.4564 71.7873 34.5929C72.5108 34.6616 73.0456 34.3543 73.3916 33.6682C73.7376 32.9691 73.9578 32.0714 74.0364 30.948C74.1151 29.8247 74.1308 28.6698 74.0679 27.4684C74.005 26.2541 73.9263 25.1744 73.832 24.2302C73.7533 23.3817 73.7062 22.781 73.7062 22.4133C75.3003 22.7531 76.8933 23.105 78.4863 23.4671C78.4863 26.2002 78.5178 28.8954 78.5964 31.5533C78.6751 34.1844 78.7065 36.8516 78.7065 39.5579C77.4281 39.4595 76.1496 39.3676 74.8711 39.2831C74.861 38.8922 74.8498 38.5023 74.8397 38.1115C72.7479 38.6806 71.0639 38.792 69.7573 38.4392C68.4508 38.0873 67.4588 37.3901 66.7499 36.367C64.6244 33.3553 64.8131 27.9549 64.9232 24.0687C64.9704 23.2275 64.9861 22.4802 64.9861 21.8405C66.5769 21.5732 68.1677 21.3178 69.7573 21.0728V21.0737Z" fill="#999999"/>
<path d="M79.8223 20.3495C81.786 20.1768 83.7486 20.0209 85.709 19.8816C86.8695 21.8442 88.03 23.8133 89.1894 25.7889C90.3645 23.74 91.5396 21.6975 92.7136 19.6606C94.7852 19.7293 96.8534 19.8166 98.9205 19.9234C98.743 27.1026 98.5666 34.2809 98.3891 41.4601C96.5613 41.2438 94.7324 41.0433 92.9012 40.8567C92.7338 37.7456 92.5675 34.6337 92.4001 31.5227C91.4138 32.9385 90.4274 34.3598 89.4399 35.784C88.4479 34.3385 87.4548 32.8976 86.4617 31.4614C86.3516 34.7962 86.2426 38.13 86.1326 41.4648C84.3654 41.267 82.5971 41.0832 80.8277 40.9124C80.493 34.0572 80.157 27.2029 79.8223 20.3495V20.3495Z" fill="#999999"/>
<path d="M4.71289 20.7797C9.5571 19.9692 14.4159 19.2599 19.2837 18.6519V24.3633C16.437 24.8823 13.5936 25.4365 10.7547 26.0251C10.7288 27.1206 10.7019 28.2161 10.676 29.3116C12.8656 28.7221 15.0585 28.153 17.2537 27.6043V31.7932C15.2596 32.0949 13.2678 32.4134 11.2782 32.7494C11.3411 33.7075 11.4051 34.6656 11.468 35.6237C13.3947 35.1697 15.3236 34.7306 17.2537 34.3082C16.7571 36.035 16.2595 37.7627 15.7629 39.4905C12.8341 40.0196 9.90986 40.586 6.99008 41.1885C6.23064 34.3825 5.47233 27.5783 4.71402 20.7769L4.71289 20.7797Z" fill="#999999"/>
<path d="M19.3633 22.4106C21.2518 22.2351 23.1425 22.0745 25.0343 21.9297C24.9445 26.3748 24.8546 30.819 24.7636 35.2641C27.0206 34.9076 29.2798 34.5734 31.5401 34.2605C31.4345 35.8082 31.3278 37.3558 31.2222 38.9034C27.5137 39.1225 23.857 39.3834 20.2362 39.6703C19.9452 33.917 19.6542 28.1638 19.3633 22.4115V22.4106Z" fill="#999999"/>
<path d="M25.257 19.2477C27.4566 18.7584 29.6563 18.2896 31.8582 17.8421C33.3333 20.0693 34.8083 22.3058 36.2845 24.5525C37.718 22.1628 39.1515 19.7824 40.5861 17.4095C42.7802 17.1839 44.9742 16.9787 47.1694 16.7939C44.5383 20.7294 41.9084 24.6936 39.2796 28.6875C39.2953 32.0279 39.311 35.3682 39.3279 38.7086C37.2406 38.8562 35.1544 39.0223 33.0682 39.2071C33.0524 35.7813 33.0367 32.3547 33.0199 28.9289C30.4304 25.673 27.842 22.446 25.2559 19.2477H25.257Z" fill="#999999"/>
<path d="M57.4221 24.8773C56.1729 25.4436 54.9248 26.0155 53.6755 26.5948C53.6755 26.5939 51.3321 23.7567 49.5144 25.0908C47.6967 26.4138 49.7851 27.9243 52.0814 28.6178C53.389 29.0263 54.3777 29.6993 55.0315 30.6157C55.6853 31.532 55.9887 32.5151 55.9404 33.5893C55.892 34.6495 55.446 35.6095 54.6327 36.4877C53.8193 37.352 52.5914 37.9444 50.9501 38.2888C48.4786 38.7725 45.7363 37.9657 42.9951 35.6568C43.8927 34.6133 44.7915 33.5744 45.6891 32.5383C45.6891 32.5346 49.0212 36.237 50.8389 34.9438C52.6566 33.6218 50.4884 32.2041 48.2718 31.4261C46.5025 30.7791 45.306 29.9203 44.6533 28.8322C44.0152 27.7442 43.8085 26.6208 44.0478 25.4594C44.2871 24.298 44.8285 23.2795 45.7059 22.4338C46.5822 21.575 47.6663 21.069 48.9425 20.9214C53.9968 20.4526 55.3685 22.2713 57.4244 24.8782L57.4221 24.8773Z" fill="#999999"/>
<path d="M57.502 17.4541C59.7982 17.4894 62.0934 17.5469 64.3874 17.6268C64.2391 24.6073 64.0897 31.5879 63.9414 38.5684C62.5023 38.5202 61.0621 38.4812 59.6219 38.4505C58.9152 31.4496 58.2086 24.4514 57.502 17.455V17.4541Z" fill="#999999"/>
<path d="M69.9624 21.0458C69.9624 21.4135 69.9309 22.0095 69.8669 22.8228C69.7871 23.7976 69.7231 24.9237 69.6759 26.2133C69.6276 27.4889 69.6445 28.7413 69.7399 29.9834C69.8354 31.2126 70.0579 32.2571 70.3927 33.1038C70.7432 33.9514 71.2847 34.4286 72.016 34.565C72.7485 34.6337 73.2888 34.3264 73.6394 33.6404C73.9899 32.9413 74.2123 32.0435 74.2921 30.9202C74.3718 29.7968 74.3876 28.6419 74.3235 27.4406C74.2595 26.2263 74.1809 25.1465 74.0854 24.2024C74.0056 23.3538 73.9584 22.7532 73.9584 22.3855C75.5705 22.7253 77.1826 23.0772 78.7936 23.4392C78.7936 26.1724 78.8251 28.8675 78.9048 31.5255C78.9846 34.1566 79.0161 36.8238 79.0161 39.5301C77.723 39.4317 76.43 39.3397 75.1358 39.2553C75.1257 38.8644 75.1144 38.4745 75.1043 38.0836C72.9889 38.6527 71.2847 38.7641 69.9635 38.4114C68.6424 38.0595 67.638 37.3623 66.9213 36.3392C64.771 33.3275 64.962 27.9271 65.0732 24.0408C65.1215 23.1997 65.1373 22.4524 65.1373 21.8127C66.746 21.5453 68.3559 21.29 69.9635 21.0449L69.9624 21.0458Z" fill="#999999"/>
<path d="M80.1445 20.3217C82.1307 20.149 84.1158 19.993 86.0998 19.8538C87.2738 21.8164 88.4478 23.7855 89.6206 25.7611C90.8092 23.7122 91.9978 21.6697 93.1853 19.6328C95.2804 19.7015 97.3734 19.7888 99.4641 19.8955C99.2854 27.0748 99.1057 34.2531 98.9271 41.4323C97.0779 41.216 95.2276 41.0155 93.3751 40.8288C93.2066 37.7178 93.037 34.6059 92.8684 31.4948C91.8708 32.9106 90.8732 34.332 89.8745 35.7561C88.8702 34.3106 87.8658 32.8698 86.8615 31.4336C86.7503 34.7683 86.6391 38.1022 86.5278 41.4369C84.7405 41.2392 82.9509 41.0554 81.1612 40.8846C80.822 34.0293 80.4838 27.175 80.1445 20.3217V20.3217Z" fill="#999999"/>
<path d="M4.16211 20.7519C9.06249 19.9414 13.9775 19.2321 18.9026 18.624V24.3355C16.0232 24.8544 13.1461 25.4087 10.2735 25.9973C10.2466 27.0928 10.2196 28.1883 10.1938 29.2838C12.4092 28.6943 14.6268 28.1251 16.8478 27.5765V31.7654C14.8313 32.0671 12.8159 32.3855 10.8027 32.7216C10.8667 33.6797 10.9307 34.6378 10.9948 35.5959C12.9439 35.1419 14.8953 34.7028 16.8478 34.2804C16.3445 36.0072 15.8424 37.7349 15.3391 39.4626C12.3766 39.9918 9.41749 40.5581 6.46401 41.1606C5.69671 34.3546 4.92941 27.5505 4.16211 20.7491V20.7519Z" fill="#999999"/>
<path d="M18.9824 22.3828C20.8934 22.2073 22.8054 22.0467 24.7198 21.9019C24.6288 26.347 24.5378 30.7912 24.4468 35.2363C26.7307 34.8798 29.0157 34.5456 31.3019 34.2327C31.1941 35.7803 31.0873 37.328 30.9795 38.8756C27.2284 39.0947 23.5278 39.3556 19.8666 39.6424C19.5722 33.8892 19.2779 28.136 18.9835 22.3837L18.9824 22.3828Z" fill="#999999"/>
<path d="M24.9443 19.2198C27.1687 18.7306 29.3953 18.2617 31.6231 17.8143C33.115 20.0415 34.608 22.278 36.1011 24.5247C37.5514 22.135 39.0018 19.7546 40.4532 17.3816C42.6731 17.156 44.893 16.9509 47.1129 16.7661C44.4515 20.7016 41.7912 24.6658 39.1309 28.6597C39.1467 32 39.1635 35.3404 39.1793 38.6807C37.0672 38.8283 34.9563 38.9945 32.8465 39.1793C32.8308 35.7535 32.8139 32.3268 32.7982 28.9011C30.1784 25.6452 27.5597 22.4181 24.9443 19.2198V19.2198Z" fill="#999999"/>
<path d="M57.4844 24.8495C56.2205 25.4158 54.9578 25.9877 53.6939 26.567C53.6939 26.566 51.3224 23.7289 49.4845 25.063C47.6454 26.3859 49.7586 27.8964 52.0818 28.5899C53.4041 28.9984 54.4051 29.6715 55.0656 30.5878C55.7273 31.5041 56.0329 32.4873 55.9846 33.5615C55.9363 34.6217 55.4847 35.5816 54.6623 36.4599C53.84 37.3242 52.5975 37.9165 50.9359 38.261C48.4363 38.7446 45.6614 37.9379 42.8877 35.629C43.7965 34.5855 44.7043 33.5466 45.6131 32.5105C45.6131 32.5068 48.9834 36.2092 50.8225 34.916C52.6615 33.5939 50.4674 32.1763 48.2251 31.3983C46.4344 30.7512 45.2255 29.8925 44.5639 28.8044C43.919 27.7163 43.7089 26.593 43.9516 25.4316C44.1931 24.2701 44.7414 23.2517 45.6289 22.4059C46.5164 21.5472 47.6128 21.0412 48.9025 20.8936C54.0152 20.4248 55.4027 22.2435 57.4832 24.8504L57.4844 24.8495Z" fill="#999999"/>
<path d="M57.5645 17.4263C59.8866 17.4615 62.2087 17.5191 64.5297 17.5989C64.3792 24.5795 64.2286 31.5601 64.0781 38.5406C62.6221 38.4923 61.165 38.4533 59.7091 38.4227C58.9946 31.4217 58.279 24.4235 57.5645 17.4272V17.4263Z" fill="#999999"/>
<path d="M70.1705 21.018C70.1705 21.3857 70.1379 21.9817 70.0739 22.795C69.993 23.7698 69.9289 24.8959 69.8806 26.1854C69.8323 27.461 69.8481 28.7134 69.9447 29.9556C70.0413 31.1848 70.2671 32.2292 70.6052 33.0759C70.9591 33.9235 71.5074 34.4007 72.2477 34.5372C72.988 34.6059 73.5363 34.2986 73.8902 33.6125C74.244 32.9135 74.4698 32.0157 74.5507 30.8924C74.6316 29.769 74.6473 28.6141 74.5833 27.4128C74.5193 26.1984 74.4384 25.1187 74.3418 24.1745C74.2609 23.326 74.2126 22.7253 74.2126 22.3577C75.8438 22.6975 77.4739 23.0493 79.104 23.4114C79.104 26.1446 79.1365 28.8397 79.2163 31.4977C79.2972 34.1287 79.3287 36.796 79.3287 39.5022C78.021 39.4038 76.7122 39.3119 75.4034 39.2274C75.3922 38.8366 75.3821 38.4467 75.3708 38.0558C73.2307 38.6249 71.5074 38.7363 70.1694 38.3835C68.8325 38.0317 67.8169 37.3344 67.0923 36.3114C64.9162 33.2997 65.1095 27.8992 65.2229 24.013C65.2712 23.1719 65.287 22.4245 65.287 21.7849C66.9148 21.5175 68.5426 21.2622 70.1694 21.0171L70.1705 21.018Z" fill="#999999"/>
<path d="M80.4707 20.2938C82.4805 20.1212 84.4892 19.9652 86.4956 19.8259C87.6831 21.7886 88.8706 23.7577 90.058 25.7333C91.2612 23.6843 92.4633 21.6419 93.6642 19.605C95.7841 19.6737 97.9018 19.7609 100.016 19.8677C99.8352 27.0469 99.6543 34.2252 99.4723 41.4045C97.6018 41.1882 95.7302 40.9876 93.8563 40.801C93.6856 37.69 93.5148 34.578 93.344 31.467C92.3352 32.8828 91.3252 34.3042 90.3153 35.7283C89.2997 34.2828 88.2841 32.8419 87.2674 31.4057C87.1551 34.7405 87.0427 38.0743 86.9304 41.4091C85.1217 41.2114 83.3119 41.0275 81.5009 40.8567C81.1582 34.0015 80.8145 27.1472 80.4718 20.2938H80.4707Z" fill="#999999"/>
<path d="M3.60366 20.7241C8.56134 19.9136 13.5336 19.2043 18.5149 18.5962V24.3076C15.6019 24.8266 12.6911 25.3809 9.78588 25.9694C9.75892 27.0649 9.73195 28.1604 9.70499 29.2559C11.9462 28.6664 14.1897 28.0973 16.4366 27.5486V31.7375C14.3964 32.0393 12.3574 32.3577 10.3206 32.6938C10.3858 33.6519 10.4498 34.61 10.515 35.5681C12.4866 35.1141 14.4605 34.6749 16.4354 34.2525C15.9265 35.9793 15.4176 37.7071 14.9098 39.4348C11.9125 39.964 8.91972 40.5303 5.9314 41.1328C5.15512 34.3268 4.37883 27.5226 3.60254 20.7213L3.60366 20.7241Z" fill="#999999"/>
<path d="M18.5967 22.3549C20.5301 22.1795 22.4646 22.0189 24.4003 21.874C24.3082 26.3191 24.2161 30.7633 24.1239 35.2085C26.4337 34.852 28.7457 34.5177 31.0588 34.2049C30.9499 35.7525 30.842 37.3001 30.733 38.8477C26.9381 39.0668 23.1949 39.3277 19.4898 39.6146C19.1921 33.8614 18.8944 28.1082 18.5967 22.3559V22.3549Z" fill="#999999"/>
<path d="M24.6289 19.192C26.8791 18.7028 29.1316 18.2339 31.3852 17.7864C32.8951 20.0136 34.405 22.2501 35.9148 24.4968C37.382 22.1072 38.8492 19.7268 40.3175 17.3538C42.5621 17.1282 44.809 16.923 47.0547 16.7383C44.363 20.6737 41.6713 24.6379 38.9807 28.6319C38.9975 31.9722 39.0132 35.3125 39.0301 38.6529C36.8945 38.8005 34.7588 38.9667 32.6243 39.1514C32.6075 35.7257 32.5917 32.299 32.5749 28.8732C29.9247 25.6174 27.2757 22.3903 24.6289 19.192V19.192Z" fill="#999999"/>
<path d="M57.5456 24.8216C56.2671 25.3879 54.9898 25.9598 53.7114 26.5391C53.7114 26.5382 51.3128 23.7011 49.4524 25.0352C47.592 26.3581 49.7299 27.8686 52.079 28.5621C53.417 28.9706 54.4292 29.6437 55.0977 30.56C55.7672 31.4763 56.0762 32.4595 56.0279 33.5336C55.9784 34.5938 55.5223 35.5538 54.6899 36.432C53.8574 37.2964 52.6014 37.8887 50.9208 38.2331C48.3919 38.7168 45.5845 37.91 42.7793 35.6011C43.6983 34.5576 44.6172 33.5188 45.5362 32.4827C45.5362 32.479 48.9458 36.1814 50.8062 34.8881C52.6666 33.5661 50.4467 32.1485 48.1796 31.3705C46.3686 30.7234 45.1452 29.8646 44.4757 28.7766C43.823 27.6885 43.6106 26.5651 43.8555 25.4037C44.1004 24.2423 44.6543 23.2239 45.5519 22.3781C46.4495 21.5193 47.5583 21.0134 48.8638 20.8658C54.036 20.3969 55.4392 22.2156 57.5445 24.8225L57.5456 24.8216Z" fill="#999999"/>
<path d="M57.6279 17.3984C59.977 17.4337 62.3261 17.4913 64.6752 17.5711C64.5235 24.5517 64.3707 31.5322 64.2191 38.5128C62.7463 38.4645 61.2723 38.4255 59.7984 38.3949C59.0749 31.3939 58.3514 24.3957 57.6291 17.3994L57.6279 17.3984Z" fill="#999999"/>
<path d="M70.3801 20.9902C70.3801 21.3578 70.3475 21.9539 70.2823 22.7671C70.2015 23.7419 70.1352 24.8681 70.0869 26.1576C70.0374 27.4332 70.0543 28.6856 70.152 29.9278C70.2498 31.157 70.4778 32.2014 70.8205 33.0481C71.1788 33.8957 71.7327 34.3729 72.482 34.5094C73.2313 34.5781 73.7852 34.2708 74.1436 33.5847C74.5019 32.8856 74.73 31.9879 74.8109 30.8645C74.8918 29.7412 74.9086 28.5863 74.8435 27.3849C74.7783 26.1706 74.6974 25.0909 74.5997 24.1467C74.5188 23.2982 74.4694 22.6975 74.4694 22.3299C76.1197 22.6696 77.7689 23.0215 79.418 23.3836C79.418 26.1167 79.4506 28.8119 79.5315 31.4698C79.6135 34.1009 79.645 36.7681 79.645 39.4744C78.3216 39.376 76.9982 39.2841 75.6737 39.1996C75.6624 38.8087 75.6523 38.4188 75.6411 38.028C73.4751 38.5971 71.7327 38.7085 70.3801 38.3557C69.0275 38.0038 68.0007 37.3066 67.2671 36.2835C65.0663 33.2718 65.2618 27.8714 65.3752 23.9852C65.4247 23.144 65.4404 22.3967 65.4404 21.757C67.0873 21.4897 68.7343 21.2344 70.3801 20.9893V20.9902Z" fill="#999999"/>
<path d="M80.8008 20.266C82.8342 20.0933 84.8653 19.9374 86.8954 19.7981C88.0974 21.7607 89.2984 23.7298 90.4993 25.7054C91.716 23.6565 92.9315 21.614 94.1471 19.5771C96.2917 19.6458 98.4329 19.7331 100.573 19.8399C100.39 27.0191 100.207 34.1974 100.024 41.3766C98.1319 41.1603 96.2378 40.9598 94.3426 40.7732C94.1696 37.6622 93.9965 34.5502 93.8235 31.4392C92.8023 32.855 91.7811 34.2763 90.7588 35.7005C89.732 34.255 88.7041 32.8141 87.675 31.3779C87.5616 34.7127 87.4481 38.0465 87.3335 41.3813C85.5046 41.1835 83.6734 40.9997 81.8411 40.8289C81.4939 33.9737 81.1468 27.1194 80.8008 20.266Z" fill="#999999"/>
<path d="M3.04004 20.6962C8.05501 19.8857 13.0857 19.1765 18.1254 18.5684V24.2798C15.1786 24.7988 12.2342 25.353 9.29527 25.9416C9.26831 27.0371 9.24022 28.1326 9.21326 29.2281C11.4803 28.6386 13.7508 28.0695 16.0223 27.5208V31.7097C13.9586 32.0114 11.896 32.3299 9.83564 32.6659C9.9008 33.624 9.96708 34.5821 10.0322 35.5402C12.0274 35.0862 14.0238 34.6471 16.0223 34.2247C15.5078 35.9515 14.9933 37.6792 14.4788 39.407C11.4466 39.9361 8.419 40.5025 5.39586 41.105C4.61058 34.299 3.82531 27.4948 3.04004 20.6934V20.6962Z" fill="#999999"/>
<path d="M18.207 22.3271C20.1629 22.1516 22.1199 21.991 24.0781 21.8462C23.9848 26.2913 23.8916 30.7355 23.7983 35.1806C26.135 34.8241 28.474 34.4899 30.8141 34.177C30.704 35.7247 30.5939 37.2723 30.485 38.8199C26.6451 39.039 22.8591 39.2999 19.1114 39.5868C18.8103 33.8335 18.5092 28.0803 18.207 22.328V22.3271Z" fill="#999999"/>
<path d="M24.3097 19.1642C26.5869 18.6749 28.8652 18.2061 31.1446 17.7586C32.6714 19.9858 34.1992 22.2223 35.7271 24.469C37.2111 22.0793 38.6963 19.6989 40.1804 17.326C42.4519 17.1004 44.7235 16.8952 46.9962 16.7104C44.273 20.6459 41.5498 24.6101 38.8278 28.604C38.8446 31.9444 38.8603 35.2847 38.8772 38.6251C36.7157 38.7727 34.5554 38.9388 32.3961 39.1236C32.3793 35.6978 32.3636 32.2712 32.3467 28.8454C29.6651 25.5896 26.9857 22.3625 24.3086 19.1642H24.3097Z" fill="#999999"/>
<path d="M57.6109 24.7938C56.3178 25.3601 55.0248 25.932 53.7317 26.5113C53.7317 26.5104 51.3051 23.6732 49.4234 25.0073C47.5416 26.3303 49.7042 27.8408 52.0814 28.5343C53.4351 28.9428 54.4586 29.6158 55.1349 30.5322C55.8112 31.4485 56.1257 32.4316 56.0763 33.5058C56.0269 34.566 55.5651 35.526 54.7226 36.4042C53.8811 37.2685 52.6094 37.8609 50.9097 38.2053C48.3505 38.689 45.5116 37.8822 42.6738 35.5733C43.6029 34.5298 44.5331 33.4909 45.4633 32.4548C45.4633 32.4511 48.9133 36.1535 50.7951 34.8603C52.6768 33.5383 50.4322 32.1206 48.137 31.3426C46.3047 30.6956 45.0667 29.8368 44.3904 28.7487C43.7298 27.6607 43.5153 26.5373 43.7636 25.3759C44.0107 24.2145 44.5724 23.196 45.4801 22.3503C46.3879 21.4915 47.5102 20.9855 48.8313 20.8379C54.0642 20.3691 55.4842 22.1878 57.6131 24.7947L57.6109 24.7938Z" fill="#999999"/>
<path d="M57.6924 17.3706C60.0696 17.4059 62.4456 17.4634 64.8216 17.5433C64.6677 24.5238 64.5138 31.5044 64.3599 38.4849C62.8691 38.4367 61.3795 38.3977 59.8887 38.367C59.1573 31.3661 58.4249 24.3679 57.6935 17.3715L57.6924 17.3706Z" fill="#999999"/>
<path d="M70.5936 20.9624C70.5936 21.33 70.561 21.926 70.4947 22.7393C70.4127 23.7141 70.3464 24.8402 70.297 26.1298C70.2476 27.4054 70.2644 28.6578 70.3633 29.9C70.4622 31.1291 70.6925 32.1736 71.0396 33.0203C71.4025 33.8679 71.9631 34.3451 72.7214 34.4815C73.4797 34.5502 74.0392 34.2429 74.402 33.5569C74.7649 32.8578 74.9952 31.96 75.0772 30.8367C75.1592 29.7133 75.1761 28.5584 75.1098 27.3571C75.0435 26.1428 74.9615 25.063 74.8626 24.1189C74.7806 23.2703 74.7312 22.6697 74.7312 22.302C76.4006 22.6418 78.0689 22.9937 79.7372 23.3557C79.7372 26.0889 79.7697 28.784 79.8529 31.442C79.9349 34.0731 79.9686 36.7403 79.9686 39.4466C78.6295 39.3482 77.2904 39.2562 75.9512 39.1718C75.94 38.7809 75.9288 38.391 75.9186 38.0001C73.728 38.5692 71.9642 38.6806 70.5959 38.3279C69.2275 37.976 68.1883 37.2788 67.4469 36.2557C65.2203 33.244 65.418 27.8436 65.5337 23.9573C65.5831 23.1162 65.6 22.3689 65.6 21.7292C67.266 21.4618 68.9321 21.2065 70.597 20.9614L70.5936 20.9624Z" fill="#999999"/>
<path d="M81.1348 20.2382C83.1918 20.0655 85.2465 19.9095 87.3001 19.7703C88.5157 21.7329 89.7312 23.702 90.9456 25.6776C92.1769 23.6287 93.4071 21.5862 94.6361 19.5493C96.8054 19.618 98.9725 19.7053 101.136 19.812C100.951 26.9913 100.765 34.1696 100.58 41.3488C98.6658 41.1325 96.7504 40.932 94.8327 40.7454C94.6574 37.6343 94.4833 34.5224 94.3081 31.4113C93.2756 32.8271 92.2421 34.2485 91.2085 35.6726C90.1693 34.2271 89.1291 32.7863 88.0888 31.3501C87.9742 34.6848 87.8585 38.0187 87.7439 41.3534C85.8936 41.1557 84.0411 40.9719 82.1874 40.8011C81.8369 33.9458 81.4853 27.0915 81.1348 20.2382V20.2382Z" fill="#999999"/>
<path d="M3.04004 20.6962C8.05501 19.8857 13.0857 19.1765 18.1254 18.5684V24.2798C15.1786 24.7988 12.2342 25.353 9.29527 25.9416C9.26831 27.0371 9.24022 28.1326 9.21326 29.2281C11.4803 28.6386 13.7508 28.0695 16.0223 27.5208V31.7097C13.9586 32.0114 11.896 32.3299 9.83564 32.6659C9.9008 33.624 9.96708 34.5821 10.0322 35.5402C12.0274 35.0862 14.0238 34.6471 16.0223 34.2247C15.5078 35.9515 14.9933 37.6792 14.4788 39.407C11.4466 39.9361 8.419 40.5025 5.39586 41.105C4.61058 34.299 3.82531 27.4948 3.04004 20.6934V20.6962Z" fill="#FBB03B"/>
<path d="M18.207 22.3271C20.1629 22.1516 22.1199 21.991 24.0781 21.8462C23.9848 26.2913 23.8916 30.7355 23.7983 35.1806C26.135 34.8241 28.474 34.4899 30.8141 34.177C30.704 35.7247 30.5939 37.2723 30.485 38.8199C26.6451 39.039 22.8591 39.2999 19.1114 39.5868C18.8103 33.8335 18.5092 28.0803 18.207 22.328V22.3271Z" fill="#FBB03B"/>
<path d="M24.3097 19.1642C26.5869 18.6749 28.8652 18.2061 31.1446 17.7586C32.6714 19.9858 34.1992 22.2223 35.7271 24.469C37.2111 22.0793 38.6963 19.6989 40.1804 17.326C42.4519 17.1004 44.7235 16.8952 46.9962 16.7104C44.273 20.6459 41.5498 24.6101 38.8278 28.604C38.8446 31.9444 38.8603 35.2847 38.8772 38.6251C36.7157 38.7727 34.5554 38.9388 32.3961 39.1236C32.3793 35.6978 32.3636 32.2712 32.3467 28.8454C29.6651 25.5896 26.9857 22.3625 24.3086 19.1642H24.3097Z" fill="#FBB03B"/>
<path d="M57.6109 24.7938C56.3178 25.3601 55.0248 25.932 53.7317 26.5113C53.7317 26.5104 51.3051 23.6732 49.4234 25.0073C47.5416 26.3303 49.7042 27.8408 52.0814 28.5343C53.4351 28.9428 54.4586 29.6158 55.1349 30.5322C55.8112 31.4485 56.1257 32.4316 56.0763 33.5058C56.0269 34.566 55.5651 35.526 54.7226 36.4042C53.8811 37.2685 52.6094 37.8609 50.9097 38.2053C48.3505 38.689 45.5116 37.8822 42.6738 35.5733C43.6029 34.5298 44.5331 33.4909 45.4633 32.4548C45.4633 32.4511 48.9133 36.1535 50.7951 34.8603C52.6768 33.5383 50.4322 32.1206 48.137 31.3426C46.3047 30.6956 45.0667 29.8368 44.3904 28.7487C43.7298 27.6607 43.5153 26.5373 43.7636 25.3759C44.0107 24.2145 44.5724 23.196 45.4801 22.3503C46.3879 21.4915 47.5102 20.9855 48.8313 20.8379C54.0642 20.3691 55.4842 22.1878 57.6131 24.7947L57.6109 24.7938Z" fill="#FBB03B"/>
<path d="M57.6924 17.3706C60.0696 17.4059 62.4456 17.4634 64.8216 17.5433C64.6677 24.5238 64.5138 31.5044 64.3599 38.4849C62.8691 38.4367 61.3795 38.3977 59.8887 38.367C59.1573 31.3661 58.4249 24.3679 57.6935 17.3715L57.6924 17.3706Z" fill="#FBB03B"/>
<path d="M70.5936 20.9624C70.5936 21.33 70.561 21.926 70.4947 22.7393C70.4127 23.7141 70.3464 24.8402 70.297 26.1298C70.2476 27.4054 70.2644 28.6578 70.3633 29.9C70.4622 31.1291 70.6925 32.1736 71.0396 33.0203C71.4025 33.8679 71.9631 34.3451 72.7214 34.4815C73.4797 34.5502 74.0392 34.2429 74.402 33.5569C74.7649 32.8578 74.9952 31.96 75.0772 30.8367C75.1592 29.7133 75.1761 28.5584 75.1098 27.3571C75.0435 26.1428 74.9615 25.063 74.8626 24.1189C74.7806 23.2703 74.7312 22.6697 74.7312 22.302C76.4006 22.6418 78.0689 22.9937 79.7372 23.3557C79.7372 26.0889 79.7697 28.784 79.8529 31.442C79.9349 34.0731 79.9686 36.7403 79.9686 39.4466C78.6295 39.3482 77.2904 39.2562 75.9512 39.1718C75.94 38.7809 75.9288 38.391 75.9186 38.0001C73.728 38.5692 71.9642 38.6806 70.5959 38.3279C69.2275 37.976 68.1883 37.2788 67.4469 36.2557C65.2203 33.244 65.418 27.8436 65.5337 23.9573C65.5831 23.1162 65.6 22.3689 65.6 21.7292C67.266 21.4618 68.9321 21.2065 70.597 20.9614L70.5936 20.9624Z" fill="#FBB03B"/>
<path d="M81.1348 20.2382C83.1918 20.0655 85.2465 19.9095 87.3001 19.7703C88.5157 21.7329 89.7312 23.702 90.9456 25.6776C92.1769 23.6287 93.4071 21.5862 94.6361 19.5493C96.8054 19.618 98.9725 19.7053 101.136 19.812C100.951 26.9913 100.765 34.1696 100.58 41.3488C98.6658 41.1325 96.7504 40.932 94.8327 40.7454C94.6574 37.6343 94.4833 34.5224 94.3081 31.4113C93.2756 32.8271 92.2421 34.2485 91.2085 35.6726C90.1693 34.2271 89.1291 32.7863 88.0888 31.3501C87.9742 34.6848 87.8585 38.0187 87.7439 41.3534C85.8936 41.1557 84.0411 40.9719 82.1874 40.8011C81.8369 33.9458 81.4853 27.0915 81.1348 20.2382V20.2382Z" fill="#FBB03B"/>
<defs>
<radialGradient id="paint0_radial_1352_15326" cx="0" cy="0" r="1" gradientUnits="userSpaceOnUse" gradientTransform="translate(80.1101 25.2119) rotate(160.496) scale(4.24209 9.61732)">
<stop stop-color="#7E9CA7"/>
<stop offset="0.99" stop-color="#95B4BF"/>
</radialGradient>
<linearGradient id="paint1_linear_1352_15326" x1="77.1454" y1="7.07963" x2="75.5708" y2="12.2301" gradientUnits="userSpaceOnUse">
<stop offset="0.21" stop-color="#E4D7D1"/>
<stop offset="0.61" stop-color="#E4D6CF"/>
<stop offset="0.97" stop-color="#95B4BF"/>
</linearGradient>
<linearGradient id="paint2_linear_1352_15326" x1="78.9911" y1="9.36649" x2="78.9027" y2="10.8339" gradientUnits="userSpaceOnUse">
<stop stop-color="#E4D7D1"/>
<stop offset="0.67" stop-color="#E4D6CF"/>
<stop offset="0.97" stop-color="#95B4BF"/>
</linearGradient>
<linearGradient id="paint3_linear_1352_15326" x1="89.0971" y1="17.2856" x2="89.0971" y2="26.6846" gradientUnits="userSpaceOnUse">
<stop offset="0.21" stop-color="#95B4BF"/>
<stop offset="0.73" stop-color="#92AFB9"/>
</linearGradient>
</defs>
</svg>
