<svg width="33" height="33" viewBox="0 0 33 33" fill="none" xmlns="http://www.w3.org/2000/svg">
<path d="M25.8459 5.83301H6.80162C5.71929 5.83301 4.6813 6.25444 3.91598 7.00458C3.15066 7.75473 2.7207 8.77214 2.7207 9.83301V23.1663C2.7207 24.2272 3.15066 25.2446 3.91598 25.9948C4.6813 26.7449 5.71929 27.1663 6.80162 27.1663H25.8459C26.9282 27.1663 27.9662 26.7449 28.7315 25.9948C29.4969 25.2446 29.9268 24.2272 29.9268 23.1663V9.83301C29.9268 8.77214 29.4969 7.75473 28.7315 7.00458C27.9662 6.25444 26.9282 5.83301 25.8459 5.83301ZM24.9345 8.49967L16.3238 14.833L7.71302 8.49967H24.9345ZM25.8459 24.4997H6.80162C6.44084 24.4997 6.09485 24.3592 5.83974 24.1092C5.58463 23.8591 5.44131 23.52 5.44131 23.1663V10.1663L15.5076 17.5663C15.743 17.7394 16.0294 17.833 16.3238 17.833C16.6181 17.833 16.9045 17.7394 17.1399 17.5663L27.2062 10.1663V23.1663C27.2062 23.52 27.0629 23.8591 26.8078 24.1092C26.5527 24.3592 26.2067 24.4997 25.8459 24.4997Z" fill="#1F1C1C"/>
</svg>
