<svg width="110" height="112" viewBox="0 0 110 112" fill="none" xmlns="http://www.w3.org/2000/svg">
<path d="M58.5 2.10498L58.5655 2.10498L58.6309 2.10069C87.6291 0.199177 107.966 25.7241 108 55.1072C107.999 68.176 102.423 81.8429 93.3087 92.2439C84.201 102.638 71.715 109.605 58 109.605C44.2717 109.605 30.2558 102.25 19.6142 91.4109C8.96758 80.5669 2 66.543 2 53.605C2 40.7159 9.04646 27.8428 19.779 18.1309C30.5028 8.42688 44.6666 2.10498 58.5 2.10498Z" fill="#E26552" stroke="black" stroke-width="4"/>
<path d="M51.3892 76.0244C49.972 76.0244 48.5468 75.96 47.1135 75.8956L42.7895 75.7104C41.7266 75.654 40.6476 75.7104 39.5686 75.5574C38.5858 75.3861 37.6148 75.1521 36.6618 74.8569C35.5802 74.5273 34.5581 74.0271 33.6342 73.3753C33.368 73.1807 33.1201 72.9624 32.8934 72.723L32.5472 72.3285C32.4625 72.2234 32.3845 72.1132 32.3136 71.9983C32.0146 71.5692 31.7455 71.1199 31.5084 70.6536C31.039 69.7364 30.6821 68.7658 30.4455 67.7629C30.0635 66.0778 29.8824 64.3533 29.906 62.6256C29.8367 60.4974 30.1448 58.3738 30.8159 56.353C31.0495 55.733 31.6614 55.9504 32.2331 56.5946C32.5657 56.9595 32.8376 57.3754 33.0383 57.8265C33.2884 58.3258 33.4128 58.8787 33.4007 59.437C33.3661 61.325 33.509 63.2122 33.8275 65.0735C33.9778 65.911 34.1767 66.7391 34.4233 67.5535C34.6789 68.3436 35.0276 69.1005 35.462 69.8082C35.607 70.2188 36.5491 70.7341 37.6281 70.9435C38.7071 71.1529 39.931 71.2495 41.1388 71.4427C42.3466 71.636 43.8443 71.7568 45.2293 71.8212C46.6143 71.8856 48.0154 71.8856 49.4245 71.8937C51.1557 71.8937 52.895 71.8937 54.6342 71.8937C57.2673 71.8292 59.9326 71.8373 62.5656 71.7246C64.627 71.636 66.6481 71.33 68.7577 71.2656C69.2242 71.2333 69.6923 71.2333 70.1588 71.2656C71.9142 71.4266 72.4617 71.8937 72.5744 73.0854C72.6199 73.3513 72.6414 73.6208 72.6389 73.8906C72.5744 74.7844 71.8336 75.3319 70.6822 75.501C67.3083 75.9358 63.6607 76.0083 59.9003 76.113C57.1143 76.1855 54.2638 76.1935 51.4214 76.2338L51.3892 76.0244Z" fill="#A44030"/>
<path d="M33.0374 64.3568C32.973 66.0638 32.9489 67.7789 33.0374 69.4216C33.0374 70.2268 33.126 71.032 33.2226 71.7728C33.2226 71.958 33.271 72.1352 33.3032 72.3042C33.3354 72.4733 33.3032 72.4814 33.3032 72.5297V72.5861C33.3124 72.6599 33.3286 72.7327 33.3515 72.8035C33.3917 72.9806 33.5608 73.0048 33.7138 73.0531L33.7541 73.0934H34.0279L34.6076 73.1497C35.0022 73.1497 35.3726 73.2544 35.7993 73.2625C37.45 73.3349 39.1651 73.3188 40.9125 73.2625C43.4569 73.1497 46.0175 72.7954 48.6103 72.5861C53.1678 72.2237 57.7656 71.7809 62.4117 71.5151L65.9627 71.3219L69.4815 71.2253C70.6652 71.2253 71.8328 71.2253 73.0325 71.2736L74.8282 71.3702C75.1261 71.3702 75.4321 71.4507 75.73 71.491H75.9474H76.0521L76.2614 71.5393C76.2614 71.4507 76.2614 71.5393 76.2614 71.5393C76.4869 71.5393 76.7768 71.7003 76.962 71.5393C77.1314 71.3589 77.2556 71.1409 77.3243 70.9032C77.3243 70.7904 77.3968 70.6697 77.429 70.5489L77.5498 70.0577C77.6464 69.6068 77.735 69.1317 77.7994 68.6566C78.0569 66.6974 78.1726 64.7222 78.1456 62.7463C78.087 57.65 77.5123 52.5727 76.4305 47.5922C76.2212 46.8514 76.1729 46.4971 76.342 46.4246C76.5111 46.3521 76.8976 46.5857 77.4451 47.1251C78.1757 47.8778 78.8236 48.7065 79.3776 49.5972C80.0862 50.8534 80.5968 52.2114 80.8914 53.6232C81.6566 57.1973 82.1012 60.8325 82.22 64.4856C82.294 66.3833 82.2213 68.2839 82.0026 70.1704C82.0026 70.412 81.9302 70.6697 81.8899 70.9273C81.8579 71.0705 81.8363 71.2158 81.8255 71.3621L81.6725 71.9902C81.6161 72.1996 81.5759 72.417 81.5195 72.6183L81.3021 73.2222C81.1649 73.6144 80.9839 73.9898 80.7626 74.3414C79.9673 75.7748 78.3514 76.5472 76.7365 76.2659H75.4804L74.8765 76.2176L73.6203 76.1532L72.3481 76.0727H71.0436C70.174 76.0727 69.2963 76.0727 68.4025 76.0727C67.5087 76.0727 66.6311 76.0727 65.7292 76.0727C59.4002 76.2095 52.8458 77.4013 46.2188 78.0293C42.5143 78.447 38.785 78.603 35.0585 78.4964L33.585 78.3836H33.2146L32.6993 78.2628L31.6686 77.9247L30.6379 77.675C30.3156 77.551 30.0223 77.3619 29.7763 77.1194C29.2811 76.6248 28.8896 76.0362 28.6249 75.3882C28.4874 75.0617 28.3664 74.7285 28.2625 74.3898C28.2142 74.2126 28.1659 74.0435 28.1256 73.8744L28.0371 73.4718C27.9243 72.9565 27.8438 72.4653 27.7794 71.9741C27.6506 70.9917 27.57 70.0416 27.5298 69.0914C27.4126 64.5366 27.6414 59.9794 28.2142 55.4591C28.5923 52.0254 29.1948 48.6201 30.0179 45.2651C30.2433 44.4599 30.493 43.5661 30.8231 42.6884C31.2579 41.5772 31.7411 40.3774 32.8925 39.9185C33.4278 39.6772 33.9863 39.4911 34.5593 39.3629C35.0424 39.2501 35.4611 39.1696 35.904 39.0891C36.7817 38.9442 37.6433 38.8234 38.4968 38.7348C43.7131 38.0772 48.9651 37.7438 54.2227 37.7363C55.3822 37.7363 56.5336 37.7363 57.7173 37.8491C58.2649 37.8974 58.7641 37.9537 59.2311 38.0262C59.6981 38.0987 60.0927 38.2356 60.4712 38.3483C61.1019 38.5242 61.712 38.7672 62.2909 39.073C63.0705 39.4341 63.6796 40.0836 63.9899 40.8847C64.1492 41.1798 64.2709 41.4936 64.3523 41.8188C64.4087 42.3019 63.9577 42.624 63.1686 42.7448C62.0309 42.9463 60.8778 43.0487 59.7223 43.0508C58.6192 43.1232 57.5241 43.0508 56.4048 43.0508C55.2856 43.0508 54.1663 43.0508 53.031 43.0508C50.7683 43.0508 48.4654 43.1474 46.1625 43.2682C45.011 43.3326 43.8515 43.397 42.7 43.4936L40.9849 43.6466L39.2859 43.9043C38.2256 44.0653 37.1746 44.283 36.1375 44.5565L35.9765 44.6048C35.9201 44.6048 35.9765 44.6048 35.9765 44.6048V44.6692L35.9362 44.79L35.7752 45.3054C35.6625 45.6677 35.5578 46.0381 35.4611 46.4327C35.2598 47.2379 35.0827 48.0431 34.9136 48.8483C34.5915 50.5151 34.3177 52.2302 34.1084 53.9534C33.6545 57.4259 33.3857 60.9201 33.3032 64.4212L33.0374 64.3568Z" fill="#A44030"/>
<path d="M59.6015 43.7195C59.8753 43.4135 60.1652 43.1156 60.4067 42.8015C60.4067 42.7532 60.455 42.7452 60.4631 42.7452H60.5114L60.6161 42.6808C60.7288 42.6244 60.8898 42.5439 60.9221 42.407C60.9451 42.2736 60.9194 42.1364 60.8496 42.0205C60.8 41.9391 60.727 41.8746 60.6402 41.8353L60.5758 41.6903L60.3826 41.5373C60.2481 41.4312 60.1191 41.3184 59.9961 41.1992C58.0421 39.3913 55.9078 37.7886 53.6268 36.4162C53.1076 36.0972 52.5698 35.8095 52.0164 35.5546L51.2112 35.1842L50.4059 34.7574C48.9895 34.1182 47.6408 33.3386 46.3799 32.4304C45.9853 32.1163 46.2269 31.6251 46.8388 31.2064C47.5773 30.6513 48.4842 30.3669 49.4075 30.4012C50.2127 30.53 51.0582 30.6669 51.8714 30.836C52.2814 30.9117 52.6873 31.0085 53.0873 31.1259C53.4658 31.2869 53.8362 31.448 54.2066 31.6251C55.716 32.3183 57.1513 33.1627 58.4903 34.1455C60.1007 35.3694 62.0574 36.0941 63.8289 37.4791L64.1993 37.7931L64.5777 38.1635C64.8402 38.3975 65.0851 38.6505 65.3105 38.9204C65.7508 39.4267 66.1119 39.9968 66.3814 40.6113L66.5505 41.0623L66.6471 41.5373C66.6471 41.6984 66.6471 41.8594 66.6955 42.0285C66.7438 42.1976 66.6955 42.3506 66.6391 42.5036C66.6047 42.6562 66.5617 42.8068 66.5103 42.9545L66.2928 43.3893C66.1619 43.6826 66.0084 43.9652 65.8339 44.2348C65.4071 44.7743 64.9803 45.3299 64.5536 45.8453C63.6195 46.9001 62.6291 47.8824 61.6387 48.8487C60.1168 50.3061 58.4661 51.6025 56.8879 52.9312C55.6479 53.9538 54.577 55.1777 53.2886 56.152C52.9987 56.3614 52.733 56.5949 52.427 56.7801C52.2821 56.8606 52.1533 56.9411 52.0244 56.9975C51.8991 57.0405 51.7695 57.0702 51.6379 57.0861C50.9677 57.2437 50.268 56.9872 49.8584 56.4338C49.6973 56.2567 49.5202 56.1037 49.3833 55.9266C48.9485 55.3468 49.0773 54.5094 49.5846 53.6317C50.3731 52.512 51.2922 51.4903 52.3224 50.588L55.2775 47.8824C56.7743 46.5527 58.1912 45.1357 59.521 43.639L59.6015 43.7195Z" fill="#A44030"/>
<path d="M69.7222 28.2352C69.7947 28.4848 69.3921 28.4365 68.7318 28.2352C68.4411 28.1044 68.17 27.9337 67.9266 27.7279C67.7942 27.5607 67.6757 27.3829 67.5723 27.1964C67.5723 27.1079 67.6447 26.0852 67.6286 25.7148C67.6405 25.3915 67.7171 25.0739 67.8541 24.7808C68.0796 24.1769 68.2728 23.5488 68.5063 22.9207C68.559 22.7795 68.6479 22.6545 68.764 22.5584C69.147 22.1993 69.4254 21.7428 69.5692 21.2378C69.5692 21.1573 69.6658 21.0929 69.5692 20.956C69.4726 20.8191 70.1651 19.4744 70.3744 19.3456C70.8575 19.0879 71.236 18.7739 71.7433 18.5404C71.8077 18.5404 71.8158 18.4276 71.9848 18.4679C72.3794 18.5726 72.4197 18.4679 72.5324 18.3391C72.7017 18.202 72.892 18.0933 73.096 18.017C73.2617 17.9943 73.4296 17.9943 73.5953 18.017C73.8057 18.1082 73.9908 18.2491 74.1348 18.4276C74.2072 18.5887 74.4327 18.6692 74.5937 18.79C74.653 18.829 74.7095 18.872 74.7628 18.9188C74.85 19.1794 74.9041 19.4499 74.9239 19.724C74.984 19.9888 75.0217 20.2582 75.0366 20.5292C75.0366 20.5292 74.9561 20.9319 74.8434 21.3345C74.7383 21.6163 74.6496 21.904 74.5776 22.196C74.5776 22.2846 74.4488 22.3168 74.3602 22.3651C74.2717 22.4135 74.014 23.573 74.014 23.6132C73.8771 23.8145 73.861 24.0802 73.4262 24.1366C73.3376 24.1366 73.3296 24.193 73.3054 24.2413C73.0839 24.6215 72.8132 24.9708 72.5002 25.28C72.3626 25.4623 72.2414 25.6563 72.1378 25.8598C72.1378 25.8598 72.0573 25.9081 72.0171 25.9322C71.9768 25.9564 71.8963 25.9886 71.8721 26.0369C71.5437 26.4773 71.2554 26.9462 71.0105 27.438C70.9622 27.5588 70.3422 27.9131 70.3019 28.058C70.2617 28.203 69.69 28.1385 69.7222 28.2352Z" fill="#A44030"/>
<path d="M77.4933 38.8803C77.3484 39.1138 77.0746 38.7998 76.7364 38.1959C76.5917 37.9033 76.5017 37.5867 76.4707 37.2618C76.5181 37.0616 76.58 36.8652 76.6559 36.674C76.7042 36.5774 77.6785 35.8044 77.9926 35.4903C78.293 35.2173 78.6392 34.9993 79.0152 34.8462L80.1103 34.3469C80.4807 34.202 80.8672 34.0893 81.2537 33.9765C81.4362 33.9321 81.6267 33.9321 81.8093 33.9765C82.4403 34.0638 83.0832 33.989 83.6774 33.7591C83.7821 33.7591 83.8867 33.7591 83.9673 33.5659C84.0478 33.3726 85.8273 33.0183 86.0689 33.131L86.9305 33.4209L87.7357 33.7752C87.8081 33.7752 87.8967 33.7752 87.9692 33.9363C88.1302 34.3389 88.2993 34.2825 88.4604 34.3228C88.7041 34.3867 88.9335 34.496 89.1367 34.6449C89.266 34.7855 89.372 34.9459 89.4508 35.1199C89.5129 35.3575 89.5129 35.607 89.4508 35.8446C89.3461 36.0057 89.4508 36.2553 89.4508 36.4727C89.4551 36.5478 89.4551 36.6231 89.4508 36.6982C89.0465 37.1568 88.5959 37.5724 88.1061 37.9382L87.8242 38.0268C87.6632 38.0751 87.4458 38.1395 87.2364 38.22C86.8016 38.3408 86.3507 38.4535 86.2621 38.5018C86.1736 38.5502 86.0689 38.4535 85.9642 38.4052C85.8595 38.3569 84.6517 38.8481 84.5953 38.8561C84.3216 38.8561 84.0719 39.0333 83.7338 38.7434C83.6693 38.687 83.613 38.7434 83.5647 38.7434C83.0796 38.8396 82.5855 38.8828 82.0911 38.8722C81.8376 38.9058 81.5872 38.9596 81.3423 39.0333C81.2939 39.0333 81.2376 39.0333 81.1893 38.9769C81.141 38.9206 81.0524 38.9206 80.996 38.9769C80.3765 39.0171 79.7619 39.1142 79.1601 39.2668C79.0313 39.3151 78.2583 39.1058 78.1053 39.1863C77.9523 39.2668 77.5577 38.7837 77.4933 38.8803Z" fill="#A44030"/>
</svg>
