<svg width="110" height="112" viewBox="0 0 110 112" fill="none" xmlns="http://www.w3.org/2000/svg">
<path d="M58.5 2.10498L58.5655 2.10498L58.6309 2.10069C87.6291 0.199177 107.966 25.7241 108 55.1072C107.999 68.176 102.423 81.8429 93.3087 92.2439C84.201 102.638 71.715 109.605 58 109.605C44.2717 109.605 30.2558 102.25 19.6142 91.4109C8.96758 80.5669 2 66.543 2 53.605C2 40.7159 9.04646 27.8428 19.779 18.1309C30.5028 8.42688 44.6666 2.10498 58.5 2.10498Z" fill="#ADC07A" stroke="black" stroke-width="4"/>
<path d="M46.2339 38.7297H59.2327C59.2327 38.7297 56.8181 33.7439 52.7297 34.6698C50.196 35.3171 47.926 36.7358 46.2339 38.7297Z" fill="#6B832C" stroke="black"/>
<path d="M43.9336 69.9554C43.9336 69.9554 45.0091 66.6505 49.4892 67.5907C53.9694 68.5309 51.6616 71.0737 51.6616 71.0737L43.9336 69.9554Z" fill="#6B832C" stroke="black"/>
<path d="M63.6772 55.1402C64.1966 53.3209 65.889 52.0897 67.7799 52.1559C71.1916 52.1559 73.3427 55.4893 73.3427 55.4893L63.6772 55.1402Z" fill="#6B832C" stroke="black"/>
<path d="M60.6717 41.0162C58.136 40.8738 55.5932 40.7456 53.0433 40.6815C52.1174 40.6815 51.1914 40.7669 50.2655 40.7313C46.982 40.6245 43.6984 40.5176 40.4078 40.4749C38.9833 40.4749 37.4875 40.5248 36.0416 40.6245C34.1826 40.7456 32.3378 41.0233 30.4147 40.6743C29.8164 40.5604 29.909 39.7769 30.4147 38.972C30.6605 38.5535 30.9733 38.1781 31.3407 37.8609C31.7442 37.5162 32.239 37.296 32.7652 37.227C36.541 36.7119 40.3598 36.5854 44.1614 36.8495C46.462 37.0418 48.841 36.7355 51.1914 36.707C53.7698 36.707 56.3553 36.707 58.948 36.7498L63.7273 36.8637C66.1418 36.9136 68.5635 37.0632 70.971 37.0774C72.8442 37.0774 74.6961 36.8424 76.5907 36.9848C77.007 36.9693 77.4236 37.0076 77.8301 37.0988C79.3686 37.5617 79.7959 38.0033 79.9669 38.8937C80.0133 39.0883 80.0466 39.2858 80.0666 39.4849C80.0666 40.1045 79.3543 40.5604 78.2574 40.8453C77.8514 40.9521 77.4597 41.0305 77.0395 41.1658C76.6362 41.2577 76.2267 41.3196 75.8144 41.351C75.4084 41.4008 75.0024 41.4365 74.5964 41.4721C74.1837 41.5322 73.767 41.5607 73.3499 41.5575C71.7117 41.5575 70.0166 41.5148 68.3641 41.4365C67.1034 41.3937 65.8284 41.3439 64.5606 41.2798L60.7358 41.1444L60.6717 41.0162Z" fill="#6B832C" stroke="black"/>
<path d="M51.5761 53.1031C54.1046 53.2028 56.6474 53.274 59.1973 53.274C60.1232 53.274 61.0492 53.1387 61.9751 53.1458C65.2586 53.1458 68.5493 53.1458 71.8399 53.0746C73.2645 53.0746 74.7602 52.9179 76.2061 52.7683C78.0651 52.576 79.8956 52.2199 81.9042 52.5333C82.5096 52.6259 82.417 53.4165 81.9612 54.2285C81.7152 54.6594 81.4027 55.0488 81.0352 55.3823C80.6503 55.7375 80.1701 55.9726 79.6535 56.059C75.9355 56.5789 72.1391 57.106 68.2573 56.8496C65.9353 56.7428 63.5634 57.1203 61.2059 57.22C58.6132 57.3197 56.0206 57.3553 53.4137 57.3553C51.8182 57.3553 50.2156 57.3126 48.613 57.3553C47.4022 57.3553 46.1842 57.2769 44.9663 57.2485C43.7483 57.22 42.5089 57.0918 41.2981 57.0918C39.4106 57.0205 37.5302 57.2556 35.6 57.0205C35.1769 57.0193 34.7556 56.9643 34.3464 56.8567C32.8079 56.2727 32.4019 55.8097 32.3165 54.9194C32.283 54.7217 32.2664 54.5215 32.2666 54.3211C32.2666 53.7085 33.0572 53.2954 34.1541 53.0746C34.5601 52.9962 34.9447 52.9464 35.3649 52.8324C35.7667 52.7538 36.1739 52.7062 36.5829 52.69C36.9818 52.69 37.3807 52.633 37.7795 52.6187C37.979 52.6187 38.1855 52.6187 38.3921 52.5689H39.0545C39.8736 52.5689 40.6784 52.633 41.5118 52.6544C42.3451 52.6757 43.1856 52.7042 44.0261 52.747L47.8011 52.9037C49.0618 52.9464 50.3367 52.9678 51.6117 52.9962L51.5761 53.1031Z" fill="#6B832C" stroke="black"/>
<path d="M49.3537 69.421C51.8822 69.5207 54.425 69.5919 56.9678 69.5919C57.9008 69.5919 58.8197 69.4566 59.7527 69.4637C63.0291 69.4637 66.3198 69.4637 69.6176 69.3925C71.0421 69.3925 72.5378 69.2358 73.9837 69.0862C75.8427 68.8939 77.6733 68.5378 79.6391 68.8511C80.2516 68.9437 80.1591 69.7344 79.6961 70.5463C79.455 70.9786 79.1446 71.3684 78.7773 71.7002C78.3923 72.0554 77.9121 72.2905 77.3955 72.3769C73.6775 72.8968 69.8811 73.4239 65.9993 73.1675C63.6844 73.0606 61.3126 73.4381 58.955 73.5378C56.3623 73.6376 53.7626 73.6732 51.1628 73.6732C49.5674 73.6732 47.9576 73.6304 46.3622 73.6732C45.1513 73.6732 43.9334 73.5948 42.7154 73.5663C41.4974 73.5378 40.2866 73.4452 39.0757 73.4452C37.1882 73.374 35.3079 73.6162 33.3776 73.374C32.9545 73.3728 32.5333 73.3178 32.124 73.2102C30.5856 72.6261 30.1796 72.1632 30.0941 71.2728C30.062 71.0749 30.043 70.875 30.0371 70.6745C30.0727 70.062 30.8348 69.6489 31.9246 69.4281C32.3377 69.3497 32.7223 69.2999 33.1426 69.1859C33.542 69.1077 33.9468 69.0601 34.3534 69.0435C34.7594 69.0435 35.1583 68.9865 35.5571 68.9722C35.7566 68.9722 35.9631 68.9722 36.1697 68.9224C36.3762 68.8725 36.5757 68.9224 36.7822 68.9224C37.6013 68.9224 38.4062 68.9865 39.2395 69.0078C40.0729 69.0292 40.9134 69.0577 41.7467 69.1004L45.5217 69.2571C46.7895 69.2999 48.0645 69.3212 49.3323 69.3497L49.3537 69.421Z" fill="#6B832C" stroke="black"/>
<path d="M54.3826 47.8965C52.9622 48.0882 51.5207 48.0594 50.109 47.811C48.7012 47.5796 47.3399 47.1226 46.0776 46.4577C44.9938 45.9784 44.0411 45.2455 43.2998 44.3209C42.6354 43.4274 42.2223 42.3724 42.1032 41.2653C42.0563 40.7163 42.0779 40.1637 42.1673 39.62C42.2738 39.1234 42.424 38.6372 42.616 38.167C42.8034 37.7196 43.0273 37.2884 43.2856 36.8778C43.5348 36.4772 43.8235 36.1026 44.1474 35.7595L44.6389 35.2609L45.1588 34.8265C45.507 34.5406 45.876 34.2811 46.2628 34.0501C47.5765 33.2177 49.0213 32.6132 50.5364 32.2623C51.0302 32.1593 51.5296 32.0856 52.0321 32.0415C52.5466 31.9727 53.0688 31.9895 53.5778 32.0914C54.6039 32.3033 55.5509 32.7965 56.3128 33.5159C56.7829 33.9717 56.3128 34.3777 55.6006 34.7695C55.2373 34.9689 54.8385 35.1612 54.4253 35.4105C54.2188 35.5245 54.0336 35.6099 53.8413 35.7097C53.6748 35.8107 53.4914 35.8807 53.3 35.9162C53.1433 35.9162 52.9795 36.0159 52.837 36.0302C52.6878 36.016 52.5375 36.016 52.3883 36.0302L51.9324 36.0658L51.4695 36.1513C50.8384 36.266 50.2237 36.4574 49.6389 36.7211C49.0422 36.969 48.4758 37.2845 47.9509 37.6613L47.5663 37.9462L47.2172 38.2524C47.1016 38.3525 46.9922 38.4595 46.8896 38.573C46.7828 38.6798 46.6403 38.7795 46.5477 38.8935L46.1987 39.3351L45.9637 39.8337C45.8449 40.1271 45.7961 40.4441 45.8212 40.7596C45.9132 41.4146 46.2275 42.0182 46.7115 42.469C47.4124 43.097 48.2559 43.5444 49.1688 43.7725C50.1731 44.0617 51.2151 44.1986 52.2601 44.1785C53.5135 44.1922 54.7503 43.891 55.857 43.3024C56.6298 42.8848 57.2617 42.2479 57.6733 41.4719L57.9226 40.8593C58.0009 40.6599 58.008 40.4605 58.065 40.2681C58.1128 39.8827 58.0763 39.4914 57.9582 39.1214C57.739 38.5398 57.3429 38.0415 56.8257 37.6969C56.2711 37.3252 55.67 37.0283 55.0379 36.8137C54.7672 36.6997 54.4894 36.6214 54.2188 36.5145C53.8248 36.3963 53.4751 36.1632 53.2145 35.845C53.0176 35.4433 52.8968 35.0086 52.8584 34.5629C52.8228 34.3207 52.7586 34.0786 52.7373 33.8507C52.7078 33.4556 52.8759 33.0715 53.186 32.825C53.598 32.4275 54.1522 32.212 54.7245 32.2267C55.7385 32.2333 56.7435 32.4165 57.6946 32.768C58.6891 33.2331 59.5859 33.8834 60.3371 34.684C61.2111 35.6141 61.8337 36.7515 62.1463 37.9889C62.4704 39.3091 62.4161 40.6939 61.9896 41.9847C61.8186 42.4026 61.6406 42.8157 61.4554 43.224C61.2346 43.6158 60.971 43.9933 60.7431 44.3708C60.4629 44.7197 60.1633 45.0526 59.8457 45.3679C59.518 45.6671 59.1761 45.9378 58.8343 46.2084C57.5151 47.1318 56.0021 47.7409 54.4111 47.9891L54.3826 47.8965Z" fill="#6B832C" stroke="black"/>
<path d="M71.4053 63.6876C70.1347 64.0334 68.8169 64.1729 67.5021 64.1007C66.8743 64.0754 66.2486 64.0112 65.6288 63.9084C64.9962 63.8036 64.3724 63.6512 63.7627 63.4525C62.8391 63.2032 61.9545 62.8269 61.1344 62.3343C60.2818 61.7625 59.5804 60.9927 59.0902 60.0906C58.5663 59.0742 58.432 57.9014 58.7127 56.7929C59.1816 55.1839 60.1218 53.7524 61.4122 52.6831C62.4607 51.7948 63.6696 51.1155 64.9735 50.6816C66.578 50.1788 68.2979 50.1788 69.9024 50.6816C70.3867 50.8526 70.23 51.3298 69.7884 51.8426C69.5438 52.1363 69.2693 52.4036 68.9693 52.6404C68.6672 52.8967 68.3157 53.0882 67.9365 53.2031C67.3271 53.354 66.7369 53.5738 66.1772 53.8583C65.679 54.0744 65.202 54.3367 64.7527 54.6418C63.8941 55.2418 63.1909 56.0378 62.7014 56.9638C62.6302 57.0991 62.5661 57.263 62.5091 57.3912C62.4823 57.4723 62.4632 57.5557 62.4521 57.6405C62.4345 57.7645 62.4679 57.8905 62.5447 57.9895C62.9273 58.3761 63.3823 58.6834 63.8838 58.894C64.6371 59.2631 65.4413 59.5175 66.2698 59.649C67.146 59.7913 68.0375 59.8129 68.9195 59.7131C69.4209 59.655 69.915 59.5452 70.3938 59.3855C70.8195 59.2343 71.2167 59.0128 71.5691 58.7302C72.0411 58.3119 72.3259 57.7219 72.3597 57.092C72.4321 56.3904 72.2584 55.6853 71.8682 55.0977C71.2414 54.243 70.0448 53.9723 68.9693 53.9581C68.7129 53.9581 68.4779 54.0008 68.2571 54.015C67.8868 54.0546 67.5163 53.9414 67.2314 53.7016C66.9288 53.3817 66.7194 52.9852 66.626 52.5549C66.5405 52.2985 66.4337 52.0421 66.3624 51.7857C66.2417 51.3772 66.2931 50.9372 66.5049 50.5677C66.7664 50.146 67.1792 49.8402 67.6588 49.713C68.5131 49.4608 69.4103 49.3881 70.2941 49.4993C71.2949 49.6017 72.2644 49.907 73.1432 50.3967C74.1365 50.9394 74.9862 51.711 75.6219 52.6475C76.2639 53.6283 76.6687 54.7452 76.8042 55.9097C76.8619 56.3201 76.881 56.735 76.8612 57.149C76.8506 57.5898 76.7981 58.0287 76.7045 58.4596C76.6085 58.9226 76.4628 59.3739 76.27 59.8057C76.0716 60.2446 75.8332 60.6642 75.5578 61.0593C74.5121 62.3702 73.0865 63.3256 71.4765 63.7944L71.4053 63.6876Z" fill="#6B832C" stroke="black"/>
<path d="M50.7358 78.7804C49.4664 79.0437 48.163 79.1014 46.8753 78.9514C45.6577 78.8134 44.4616 78.5264 43.314 78.0967C42.3682 77.8076 41.4774 77.3622 40.6786 76.779C39.903 76.1082 39.312 75.25 38.9621 74.2861C38.6374 73.3369 38.5807 72.3166 38.7983 71.3373C39.1921 69.6802 40.1806 68.2254 41.5761 67.2489C42.6553 66.4723 43.8599 65.8869 45.1374 65.5181C46.6726 65.0609 48.3042 65.0363 49.8526 65.4469C50.3298 65.5965 50.2087 66.0808 49.8027 66.6079C49.3535 67.2365 48.7399 67.7293 48.0292 68.0324C47.422 68.2214 46.8312 68.4596 46.2628 68.7447C45.7445 68.9436 45.2421 69.1817 44.7599 69.4569C43.945 69.9265 43.2654 70.5988 42.7869 71.4085C42.5399 71.777 42.5074 72.249 42.7015 72.6479C42.9531 73.0403 43.3079 73.3557 43.7271 73.5596C44.4286 73.9508 45.1849 74.2341 45.9708 74.4C46.7986 74.5959 47.6491 74.6798 48.4993 74.6493C49.4301 74.646 50.3393 74.3686 51.1133 73.8516C51.3426 73.6667 51.5399 73.4453 51.6973 73.1963C51.7822 73.0682 51.8492 72.9293 51.8968 72.7832C51.9314 72.7145 51.9599 72.6431 51.9823 72.5695V72.363C52.0819 71.7646 51.8976 71.1539 51.4837 70.7105C50.6296 69.8981 49.5446 69.3705 48.3782 69.2005C48.1218 69.1364 47.8511 69.1364 47.6018 69.0794C46.683 68.8586 46.5406 68.5025 46.4124 67.313C46.4124 67.0423 46.3269 66.7717 46.3126 66.501C46.262 66.0786 46.3971 65.655 46.683 65.34C47.038 64.9852 47.5134 64.7768 48.0149 64.756C49.7049 64.7042 51.3725 65.1527 52.8085 66.0452C53.6464 66.5588 54.3927 67.2088 55.0165 67.9683C55.7712 68.9243 56.2623 70.0613 56.441 71.2661C56.4944 71.7537 56.4944 72.2457 56.441 72.7333C56.3988 73.2039 56.3007 73.6677 56.149 74.1151C55.8717 74.9732 55.4261 75.7674 54.8384 76.4513C53.7554 77.6641 52.3256 78.5145 50.7429 78.8873L50.7358 78.7804Z" fill="#6B832C" stroke="black"/>
</svg>
