<svg width="33" height="33" viewBox="0 0 33 33" fill="none" xmlns="http://www.w3.org/2000/svg">
<path d="M23.6694 29.8328C18.1157 29.8258 12.7915 27.6602 8.86439 23.811C4.9373 19.9617 2.7279 14.7431 2.7207 9.2995C2.7207 7.67284 3.37996 6.1128 4.55345 4.96258C5.72695 3.81236 7.31854 3.16617 8.97811 3.16617C9.32953 3.16354 9.68037 3.19481 10.0255 3.2595C10.3592 3.3079 10.6873 3.38829 11.005 3.4995C11.2284 3.57634 11.4275 3.70901 11.5826 3.8844C11.7376 4.05978 11.8433 4.27181 11.8892 4.4995L13.7528 12.4995C13.803 12.7167 13.797 12.9427 13.7352 13.1569C13.6734 13.3712 13.5579 13.5669 13.3991 13.7262C13.2223 13.9128 13.2087 13.9262 11.5355 14.7795C12.8754 17.6606 15.2263 19.9744 18.1602 21.2995C19.0444 19.6462 19.058 19.6328 19.2484 19.4595C19.4109 19.3039 19.6105 19.1906 19.8292 19.1301C20.0478 19.0695 20.2784 19.0636 20.4999 19.1128L28.6617 20.9395C28.8866 20.9906 29.0945 21.097 29.2658 21.2486C29.4372 21.4003 29.5663 21.5921 29.6412 21.8062C29.756 22.1226 29.8424 22.4483 29.8996 22.7795C29.9544 23.1146 29.9816 23.4535 29.9812 23.7928C29.9561 25.4125 29.2784 26.9568 28.0958 28.0884C26.9133 29.22 25.322 29.8471 23.6694 29.8328Z" fill="#1F1C1C"/>
</svg>
