<svg width="233" height="233" viewBox="0 0 233 233" fill="none" xmlns="http://www.w3.org/2000/svg">
<mask id="mask0_1405_12916" style="mask-type:alpha" maskUnits="userSpaceOnUse" x="0" y="0" width="233" height="233">
<rect width="233" height="233" transform="matrix(-1 0 0 1 233 0)" fill="#C4C4C4"/>
</mask>
<g mask="url(#mask0_1405_12916)">
<g filter="url(#filter0_i_1405_12916)">
<path d="M105.463 391.455V373.415C106.365 371.611 99.1488 369.807 98.2468 361.688C30.5946 333.725 62.1656 236.306 82.9122 203.833C79.3042 202.029 77.5001 200.225 74.7939 195.715C68.4798 194.813 22.4763 193.009 21.5742 147.907C21.5743 139.789 20.1113 116.649 49.8783 84.1757C61.6047 73.6332 63.5341 73.9409 65.7736 81.1572C73.8919 107.316 76.598 117.238 82.0102 124.455C84.1459 122.319 84.2222 101.199 89.6095 107.26C98.3638 122.075 98.3638 116.688 98.3638 116.015C98.3638 116.015 93.7365 57.7044 158.683 53.1943C157.781 46.8801 148.76 18.0151 155.977 5.38672C155.977 5.38672 182.135 24.3293 167.703 54.9983C173.115 56.8024 177.625 56.8024 182.135 60.4105C182.135 60.4105 180.389 26.5714 188.45 10.7989C189.833 8.09279 193.484 -0.0254703 198.372 12.6029C209.196 40.5659 198.563 55.923 190.254 66.7247C198.372 68.5288 223.629 108.218 203.784 134.377C207.392 135.279 211.902 152.418 205.588 156.928C205.588 156.928 242.455 265.171 238.963 319.293C237.159 347.256 214.608 368.905 214.608 368.905V392.357C204.686 396.868 174.919 398.672 164.095 392.357V370.709H157.781V389.651C140.642 397.77 105.463 391.455 105.463 391.455Z" fill="url(#paint0_radial_1405_12916)"/>
</g>
<path d="M105.463 391.455V373.415C106.365 371.611 99.1488 369.807 98.2468 361.688C30.5946 333.725 62.1656 236.306 82.9122 203.833C79.3042 202.029 77.5001 200.225 74.7939 195.715C68.4798 194.813 22.4763 193.009 21.5742 147.907C21.5743 139.789 20.1113 116.649 49.8783 84.1757C61.6047 73.6332 63.5341 73.9409 65.7736 81.1572C73.8919 107.316 76.598 117.238 82.0102 124.455C84.1459 122.319 84.2222 101.199 89.6095 107.26C98.3638 122.075 98.3638 116.688 98.3638 116.015C98.3638 116.015 93.7365 57.7044 158.683 53.1943C157.781 46.8801 148.76 18.0151 155.977 5.38672C155.977 5.38672 182.135 24.3293 167.703 54.9983C173.115 56.8024 177.625 56.8024 182.135 60.4105C182.135 60.4105 180.389 26.5714 188.45 10.7989C189.833 8.09279 193.484 -0.0254703 198.372 12.6029C209.196 40.5659 198.563 55.923 190.254 66.7247C198.372 68.5288 223.629 108.218 203.784 134.377C207.392 135.279 211.902 152.418 205.588 156.928C205.588 156.928 242.455 265.171 238.963 319.293C237.159 347.256 214.608 368.905 214.608 368.905V392.357C204.686 396.868 174.919 398.672 164.095 392.357V370.709H157.781V389.651C140.642 397.77 105.463 391.455 105.463 391.455Z" stroke="#191715" stroke-linejoin="round"/>
<path d="M133.096 72.3317C133.096 72.3317 122.928 63.3604 114.597 72.8939" stroke="#191715"/>
<g filter="url(#filter1_i_1405_12916)">
<path d="M65.3663 79.7349C72.7738 105.051 78.1611 117.846 82.2015 124.58C65.8242 141.018 22.9414 133.334 22.9414 133.334C26.0122 109.704 42.4703 91.5826 54.5917 79.4612C57.9587 76.7676 63.3191 72.5431 65.3663 79.7349Z" fill="url(#paint1_linear_1405_12916)"/>
</g>
<path d="M65.3663 79.7349C72.7738 105.051 78.1611 117.846 82.2015 124.58C65.8242 141.018 22.9414 133.334 22.9414 133.334C26.0122 109.704 42.4703 91.5826 54.5917 79.4612C57.9587 76.7676 63.3191 72.5431 65.3663 79.7349Z" stroke="#191715" stroke-linejoin="round"/>
<g filter="url(#filter2_i_1405_12916)">
<path d="M90.3327 105.85C94.1596 113.39 96.692 115.963 98.3634 117.846C94.1602 123.99 82.2016 124.58 82.2016 124.58C82.875 117.173 83.8018 110.931 86.9154 106.398C87.8199 105.351 89.2636 103.705 90.3327 105.85Z" fill="url(#paint2_linear_1405_12916)"/>
</g>
<path d="M90.3327 105.85C94.1596 113.39 96.692 115.963 98.3634 117.846C94.1602 123.99 82.2016 124.58 82.2016 124.58C82.875 117.173 83.8018 110.931 86.9154 106.398C87.8199 105.351 89.2636 103.705 90.3327 105.85Z" stroke="#191715" stroke-linejoin="round"/>
<path d="M162.293 85.6687C162.293 85.6687 161.391 72.1382 148.763 73.0402" stroke="#191715"/>
<path d="M164.499 40.5666C164.499 45.5161 164.196 48.8542 163.719 50.9413C163.479 51.9884 163.204 52.6829 162.928 53.1039C162.653 53.522 162.432 53.5971 162.292 53.5971C162.222 53.5971 161.993 53.5247 161.68 52.9385C161.389 52.3921 161.109 51.5474 160.868 50.4046C160.388 48.1273 160.086 44.7826 160.086 40.5666C160.086 38.4246 159.915 36.3318 159.732 34.4093C159.694 34.0144 159.656 33.6274 159.619 33.2491C159.473 31.7756 159.341 30.4323 159.297 29.2537C159.241 27.7581 159.333 26.625 159.663 25.8783C159.822 25.5183 160.029 25.267 160.288 25.1015C160.547 24.9353 160.899 24.8301 161.39 24.8301C161.547 24.8301 161.829 24.9241 162.187 25.3943C162.543 25.8614 162.926 26.6418 163.275 27.8512C163.971 30.2665 164.499 34.272 164.499 40.5666Z" fill="#6A8490" stroke="#191715"/>
<path d="M191.546 41.5781L191.558 41.5245V41.4695C191.558 39.3274 191.393 37.3474 191.217 35.5642C191.179 35.1822 191.141 34.8104 191.104 34.4485C190.967 33.1111 190.843 31.9096 190.804 30.8338C190.755 29.4647 190.846 28.3708 191.183 27.5249C191.508 26.708 192.071 26.0962 193.051 25.6958C193.737 25.4152 194.291 25.3392 194.736 25.397C195.174 25.4538 195.541 25.6438 195.86 25.9599C196.522 26.6164 196.977 27.8241 197.235 29.4743C197.746 32.7445 197.424 37.3423 196.974 41.4007C196.086 46.7083 193.123 52.4967 190.17 56.98C188.696 59.2185 187.235 61.1159 186.055 62.4486C185.464 63.1161 184.952 63.6333 184.549 63.9793C184.43 64.0818 184.324 64.1661 184.232 64.2334C184.277 63.9514 184.376 63.5593 184.532 63.0535C184.887 61.8943 185.492 60.2737 186.225 58.311C186.292 58.1328 186.359 57.9518 186.428 57.7681C188.068 53.3725 190.233 47.4793 191.546 41.5781Z" fill="#6A8490" stroke="#191715"/>
<path d="M74.793 195.716C74.793 195.716 149.661 193.912 154.172 135.28C154.172 135.28 159.584 134.378 164.094 141.594" stroke="#191715"/>
<path d="M132.665 96.971C127.278 115.153 146.806 124.581 156.908 96.971" stroke="#191715"/>
<path d="M122.563 96.2977C119.87 108.419 101.014 111.786 107.748 91.5838" stroke="#191715"/>
<path d="M70.165 147.319C69.4486 149.914 68.26 152.24 66.9415 153.899C65.6001 155.587 64.2456 156.447 63.1604 156.447C62.0753 156.447 61.1958 155.587 60.7861 153.899C60.3835 152.24 60.4787 149.914 61.1951 147.319C61.9114 144.723 63.1 142.398 64.4185 140.738C65.7599 139.05 67.1144 138.19 68.1996 138.19C69.2847 138.19 70.1642 139.05 70.5739 140.738C70.9765 142.398 70.8813 144.723 70.165 147.319Z" fill="#648191" stroke="#191715"/>
<path d="M28.568 157.628C29.6531 157.628 30.5326 156.768 30.9423 155.08C31.3449 153.421 31.2497 151.095 30.5334 148.5C29.8232 145.927 28.2989 143.145 26.6198 141.015C25.7805 139.95 24.9193 139.07 24.1231 138.463C23.5103 137.995 22.9781 137.721 22.5401 137.616L22.6636 151.538C23.4913 153.362 24.5203 154.902 25.5777 155.979C26.6624 157.083 27.6995 157.628 28.568 157.628Z" fill="#648191" stroke="#191715"/>
</g>
<defs>
<filter id="filter0_i_1405_12916" x="21.0625" y="4.88672" width="219.634" height="394.058" filterUnits="userSpaceOnUse" color-interpolation-filters="sRGB">
<feFlood flood-opacity="0" result="BackgroundImageFix"/>
<feBlend mode="normal" in="SourceGraphic" in2="BackgroundImageFix" result="shape"/>
<feColorMatrix in="SourceAlpha" type="matrix" values="0 0 0 0 0 0 0 0 0 0 0 0 0 0 0 0 0 0 127 0" result="hardAlpha"/>
<feOffset dx="1" dy="2"/>
<feGaussianBlur stdDeviation="5"/>
<feComposite in2="hardAlpha" operator="arithmetic" k2="-1" k3="1"/>
<feColorMatrix type="matrix" values="0 0 0 0 0 0 0 0 0 0 0 0 0 0 0 0 0 0 0.3 0"/>
<feBlend mode="normal" in2="shape" result="effect1_innerShadow_1405_12916"/>
</filter>
<filter id="filter1_i_1405_12916" x="22.4414" y="75.2539" width="61.2598" height="62.374" filterUnits="userSpaceOnUse" color-interpolation-filters="sRGB">
<feFlood flood-opacity="0" result="BackgroundImageFix"/>
<feBlend mode="normal" in="SourceGraphic" in2="BackgroundImageFix" result="shape"/>
<feColorMatrix in="SourceAlpha" type="matrix" values="0 0 0 0 0 0 0 0 0 0 0 0 0 0 0 0 0 0 127 0" result="hardAlpha"/>
<feOffset dx="1" dy="2"/>
<feGaussianBlur stdDeviation="5"/>
<feComposite in2="hardAlpha" operator="arithmetic" k2="-1" k3="1"/>
<feColorMatrix type="matrix" values="0 0 0 0 0 0 0 0 0 0 0 0 0 0 0 0 0 0 0.3 0"/>
<feBlend mode="normal" in2="shape" result="effect1_innerShadow_1405_12916"/>
</filter>
<filter id="filter2_i_1405_12916" x="81.7012" y="104.302" width="18.1621" height="22.7783" filterUnits="userSpaceOnUse" color-interpolation-filters="sRGB">
<feFlood flood-opacity="0" result="BackgroundImageFix"/>
<feBlend mode="normal" in="SourceGraphic" in2="BackgroundImageFix" result="shape"/>
<feColorMatrix in="SourceAlpha" type="matrix" values="0 0 0 0 0 0 0 0 0 0 0 0 0 0 0 0 0 0 127 0" result="hardAlpha"/>
<feOffset dx="1" dy="2"/>
<feGaussianBlur stdDeviation="5"/>
<feComposite in2="hardAlpha" operator="arithmetic" k2="-1" k3="1"/>
<feColorMatrix type="matrix" values="0 0 0 0 0 0 0 0 0 0 0 0 0 0 0 0 0 0 0.3 0"/>
<feBlend mode="normal" in2="shape" result="effect1_innerShadow_1405_12916"/>
</filter>
<radialGradient id="paint0_radial_1405_12916" cx="0" cy="0" r="1" gradientUnits="userSpaceOnUse" gradientTransform="translate(106.445 307.748) rotate(156.801) scale(46.1569 120.391)">
<stop stop-color="#7E9CA7"/>
<stop offset="0.989583" stop-color="#95B4BF"/>
</radialGradient>
<linearGradient id="paint1_linear_1405_12916" x1="69.8917" y1="73.5705" x2="46.3123" y2="137.301" gradientUnits="userSpaceOnUse">
<stop offset="0.21091" stop-color="#E4D7D1"/>
<stop offset="0.614167" stop-color="#E4D6CF"/>
<stop offset="0.972931" stop-color="#95B4BF"/>
</linearGradient>
<linearGradient id="paint2_linear_1405_12916" x1="90.9559" y1="103.705" x2="89.5739" y2="122.558" gradientUnits="userSpaceOnUse">
<stop stop-color="#E4D7D1"/>
<stop offset="0.674035" stop-color="#E4D6CF"/>
<stop offset="0.972931" stop-color="#95B4BF"/>
</linearGradient>
</defs>
</svg>
