<svg width="195" height="292" viewBox="0 0 195 292" fill="none" xmlns="http://www.w3.org/2000/svg">
<path d="M84.1 177.469C25.6761 171.759 -3.90767 137.211 9.59373 128.313C37.6474 130.264 64.5541 141.717 100.245 154.069C107.15 163.174 113.312 180.324 113.312 180.324C113.312 180.324 93.5965 178.272 84.1 177.469Z" fill="url(#paint0_linear_1756_13369)" stroke="#191715"/>
<path d="M92.8186 287.652V274.257C93.4884 272.917 88.1304 271.578 87.4607 265.55C37.2297 244.788 60.6708 172.455 76.0749 148.344C73.396 147.005 72.0565 145.665 70.0472 142.317C65.359 141.647 31.2019 140.307 30.5321 106.82C30.5322 100.792 29.4459 83.6109 51.5476 59.5C60.2543 51.6723 61.6869 51.9008 63.3497 57.2588C69.3775 76.6814 71.3867 84.0486 75.4052 89.4066C76.9909 87.8209 77.0476 72.1399 81.0476 76.6399C87.5476 87.6399 87.5476 83.6399 87.5476 83.1399C87.5476 83.1399 84.1119 39.8453 132.334 36.4966C131.664 31.8084 124.966 10.3765 130.324 1C130.324 1 149.747 15.0647 139.031 37.8361C143.05 39.1756 146.398 39.1756 149.747 41.8546C149.747 41.8546 148.45 16.7294 154.435 5.01847C155.462 3.00923 158.173 -3.01849 161.803 6.35797C169.84 27.1201 161.944 38.5226 155.775 46.5428C161.803 47.8823 180.555 77.3512 165.821 96.7738C168.5 97.4436 171.849 110.169 167.161 113.518C167.161 113.518 194.534 193.887 191.941 234.072C190.602 254.834 173.858 270.908 173.858 270.908V288.322C166.491 291.67 144.389 293.01 136.352 288.322V272.248H131.664V286.312C118.939 292.34 92.8186 287.652 92.8186 287.652Z" fill="url(#paint1_radial_1756_13369)" stroke="#191715" stroke-linejoin="round"/>
<g filter="url(#filter0_i_1756_13369)">
<path d="M63.0479 56.203C68.5479 74.9997 72.5479 84.4997 75.5479 89.4997C63.3879 101.705 31.5479 95.9997 31.5479 95.9997C33.8279 78.4545 46.0479 64.9997 55.0479 55.9997C57.5479 53.9998 61.5278 50.8631 63.0479 56.203Z" fill="url(#paint2_linear_1756_13369)"/>
</g>
<path d="M63.0479 56.203C68.5479 74.9997 72.5479 84.4997 75.5479 89.4997C63.3879 101.705 31.5479 95.9997 31.5479 95.9997C33.8279 78.4545 46.0479 64.9997 55.0479 55.9997C57.5479 53.9998 61.5278 50.8631 63.0479 56.203Z" stroke="#191715" stroke-linejoin="round"/>
<g filter="url(#filter1_i_1756_13369)">
<path d="M81.5853 75.5932C84.4267 81.1914 86.307 83.1019 87.548 84.5005C84.4271 89.0623 75.548 89.5005 75.548 89.5005C76.048 84.0005 76.7361 79.3662 79.048 76.0005C79.7196 75.2231 80.7915 74.0004 81.5853 75.5932Z" fill="url(#paint3_linear_1756_13369)"/>
</g>
<path d="M81.5853 75.5932C84.4267 81.1914 86.307 83.1019 87.548 84.5005C84.4271 89.0623 75.548 89.5005 75.548 89.5005C76.048 84.0005 76.7361 79.3662 79.048 76.0005C79.7196 75.2231 80.7915 74.0004 81.5853 75.5932Z" stroke="#191715" stroke-linejoin="round"/>
<path d="M135.013 60.6077C135.013 60.6077 134.343 50.5615 124.967 51.2313" stroke="#191715" stroke-width="2.5"/>
<path d="M136.523 27.1199C136.523 30.7919 136.298 33.2589 135.947 34.7943C135.77 35.5656 135.57 36.0641 135.377 36.3581C135.186 36.6491 135.056 36.6661 135.013 36.6661C135.015 36.6661 135.016 36.6662 135.016 36.6661C135.017 36.6647 134.883 36.6407 134.672 36.2453C134.464 35.8551 134.26 35.2416 134.082 34.398C133.728 32.7191 133.504 30.2455 133.504 27.1199C133.504 25.5231 133.377 23.9642 133.24 22.5359C133.212 22.2414 133.184 21.9533 133.156 21.6719C133.048 20.5784 132.95 19.5862 132.918 18.7153C132.876 17.6061 132.947 16.7911 133.179 16.2661C133.289 16.0169 133.428 15.8522 133.594 15.7457C133.762 15.6384 133.997 15.5645 134.344 15.5645C134.404 15.5645 134.579 15.6004 134.833 15.9327C135.084 16.2619 135.362 16.8245 135.619 17.7145C136.131 19.491 136.523 22.4512 136.523 27.1199Z" fill="#6A8490" stroke="black"/>
<path d="M156.861 27.8986L156.873 27.845V27.79C156.873 26.1931 156.75 24.718 156.619 23.3928C156.591 23.1076 156.562 22.8306 156.535 22.5613C156.433 21.569 156.342 20.6826 156.313 19.8884C156.277 18.8767 156.345 18.0865 156.585 17.4839C156.813 16.9104 157.206 16.4817 157.901 16.1974C158.397 15.9949 158.785 15.9448 159.087 15.984C159.382 16.0223 159.63 16.1493 159.848 16.3657C160.309 16.8229 160.642 17.6844 160.832 18.9036C161.208 21.3118 160.972 24.7081 160.638 27.7212C159.982 31.6352 157.794 35.9137 155.606 39.2356C154.515 40.8933 153.433 42.2972 152.562 43.2814C152.15 43.747 151.792 44.111 151.507 44.362C151.543 44.2163 151.591 44.0472 151.65 43.8537C151.913 42.9969 152.361 41.7974 152.906 40.3382C152.955 40.2064 153.005 40.0725 153.056 39.9365C154.273 36.6733 155.884 32.29 156.861 27.8986Z" fill="#6A8490" stroke="#191715"/>
<path d="M70.0479 142.317C70.0479 142.317 125.637 140.977 128.986 97.4438C128.986 97.4438 133.004 96.774 136.353 102.132" stroke="#191715"/>
<path d="M94.9978 240.769C94.9978 240.976 94.9054 241.211 94.6619 241.467C94.416 241.725 94.0365 241.981 93.5293 242.206C92.5161 242.657 91.0814 242.948 89.4701 242.948C87.8588 242.948 86.4241 242.657 85.4109 242.206C84.9037 241.981 84.5242 241.725 84.2783 241.467C84.0348 241.211 83.9424 240.976 83.9424 240.769C83.9424 240.562 84.0348 240.327 84.2783 240.071C84.5242 239.812 84.9037 239.557 85.4109 239.331C86.4241 238.881 87.8588 238.59 89.4701 238.59C91.0814 238.59 92.5161 238.881 93.5293 239.331C94.0365 239.557 94.416 239.812 94.6619 240.071C94.9054 240.327 94.9978 240.562 94.9978 240.769Z" fill="#648191" stroke="#191715"/>
<path d="M66.4809 106.382C65.9532 108.294 65.079 110.001 64.1164 111.212C63.1309 112.452 62.1738 113.036 61.4431 113.036C60.7124 113.036 60.0774 112.452 59.7764 111.212C59.4825 110.001 59.5506 108.294 60.0783 106.382C60.606 104.47 61.4802 102.763 62.4428 101.552C63.4283 100.312 64.3854 99.7281 65.1161 99.7281C65.8468 99.7281 66.4818 100.312 66.7827 101.552C67.0767 102.763 67.0086 104.47 66.4809 106.382Z" fill="#648191" stroke="#191715"/>
<path d="M35.6913 113.912C36.4219 113.912 37.057 113.329 37.3579 112.089C37.6519 110.877 37.5837 109.17 37.056 107.258C36.5345 105.369 35.4132 103.323 34.1788 101.756C33.5617 100.973 32.9331 100.332 32.3584 99.8938C31.9788 99.6044 31.6533 99.4262 31.3843 99.3365L31.4746 109.52C32.0815 110.85 32.8305 111.966 33.5925 112.742C34.3813 113.545 35.1068 113.912 35.6913 113.912Z" fill="#648191" stroke="#191715"/>
<path d="M127.409 78.6C126.636 82.8604 124.902 86.6935 122.75 89.4449C120.589 92.2072 118.08 93.7989 115.727 93.7989C113.373 93.7989 111.442 92.2072 110.284 89.4449C109.131 86.6935 108.789 82.8604 109.562 78.6C110.336 74.3396 112.07 70.5066 114.222 67.7552C116.382 64.9928 118.891 63.4011 121.245 63.4011C123.599 63.4011 125.53 64.9928 126.688 67.7552C127.841 70.5066 128.183 74.3396 127.409 78.6Z" fill="white" stroke="#191715"/>
<path d="M100.791 75.3959C100.572 79.7168 99.8404 83.3396 98.8312 85.8613C98.3255 87.1249 97.7635 88.0779 97.1899 88.7036C96.6231 89.3219 96.085 89.5825 95.5777 89.5825C95.0639 89.5825 94.4497 89.2582 93.8228 88.5177C93.2074 87.791 92.6341 86.7253 92.1796 85.4011C91.271 82.7541 90.8615 79.1457 91.4818 75.3416C92.1082 71.4991 93.1769 68.5629 94.4065 66.607C95.6468 64.634 96.962 63.7796 98.0959 63.7796C99.2025 63.7796 100.002 64.53 100.463 66.481C100.923 68.4241 100.995 71.3807 100.791 75.3959Z" fill="white" stroke="#191715"/>
<ellipse rx="4.01848" ry="6.02773" transform="matrix(1 0 -0.151951 0.988388 116.014 84.6482)" fill="#191715"/>
<ellipse rx="3.56674" ry="5.35011" transform="matrix(1 0 -0.0716715 0.997428 96.7692 81.3481)" fill="#191715"/>
<ellipse rx="0.736722" ry="1.44665" transform="matrix(1 0 -0.0716715 0.997428 96.4338 78.7935)" fill="white"/>
<ellipse rx="1.15754" ry="1.44665" transform="matrix(1 0 -0.0716715 0.997428 116.852 82.8121)" fill="white"/>
<g filter="url(#filter2_ddi_1756_13369)">
<path d="M142.05 228.714C140.04 209.961 146.068 173.794 146.068 149.684L182.904 172.455C182.904 195.226 180.225 205.273 180.225 205.273C164.821 254.164 143.198 239.43 142.05 228.714Z" fill="url(#paint4_linear_1756_13369)"/>
</g>
<path opacity="0.6" d="M147.989 236.371C146.581 236.234 144.71 236.129 144.055 234.818C146.022 234.818 151.267 230.884 155.201 219.737C154.546 229.573 147.989 236.371 147.989 236.371Z" fill="#648191" stroke="black" stroke-opacity="0.01" stroke-width="2.5" stroke-linejoin="round"/>
<path d="M157.906 238.903C156.997 239.28 156.174 239.564 155.468 239.536C156.602 238.607 159.111 237.066 162.667 226.667C163.453 231.329 158.414 238.412 157.906 238.903Z" fill="#648191" stroke="black" stroke-opacity="0.01" stroke-width="2.5" stroke-linejoin="round"/>
<path d="M146.394 290.519C145.184 290.366 143.874 290.197 143.093 290.083C143.111 288.301 143.249 286.894 143.556 285.925C143.722 285.405 143.923 285.052 144.146 284.834C144.355 284.629 144.6 284.523 144.919 284.523C145.595 284.523 146.51 285.028 147.283 286.101C148.042 287.153 148.609 288.689 148.609 290.582C148.609 290.649 148.609 290.72 148.608 290.794C148.521 290.783 148.425 290.771 148.322 290.758C147.814 290.696 147.124 290.611 146.394 290.519Z" fill="#B2C7CF" stroke="#191715"/>
<path d="M138.109 282.894C138.632 282.894 139.211 283.282 139.688 284.143C140.156 284.987 140.461 286.187 140.461 287.54V289.126L136.625 288.42L137.257 283.231C137.543 283 137.831 282.894 138.109 282.894Z" fill="#B2C7CF" stroke="#191715"/>
<path d="M103.21 288.889C102 288.736 100.691 288.567 99.9094 288.453C99.9278 286.671 100.065 285.264 100.373 284.295C100.538 283.775 100.74 283.422 100.962 283.204C101.171 282.999 101.416 282.894 101.735 282.894C102.411 282.894 103.327 283.398 104.1 284.471C104.858 285.523 105.426 287.06 105.426 288.952C105.426 289.019 105.425 289.09 105.424 289.164C105.337 289.153 105.242 289.141 105.138 289.129C104.631 289.066 103.941 288.981 103.21 288.889Z" fill="#B2C7CF" stroke="#191715"/>
<path d="M94.9257 281.264C95.4485 281.264 96.0276 281.652 96.5048 282.513C96.9725 283.357 97.2774 284.557 97.2774 285.91V287.496L93.4419 286.79L94.0738 281.601C94.3591 281.37 94.6472 281.264 94.9257 281.264Z" fill="#B2C7CF" stroke="black"/>
<path d="M95.2676 155C110.468 161.8 162.5 107 169.768 114C177.035 121 191.601 201 193.768 224.5C160.768 259 95.2676 234 61.7676 233C28.2676 232 70.7676 143 75.2676 148.5C78.8676 152.9 90.1009 154.667 95.2676 155Z" fill="#ADC07A" stroke="#191715"/>
<g filter="url(#filter3_ddi_1756_13369)">
<path d="M141.41 219.03C139.401 200.277 145.428 164.111 145.429 140L182.265 162.771C182.265 185.543 179.586 195.589 179.586 195.589C164.181 244.481 142.558 229.746 141.41 219.03Z" fill="url(#paint5_linear_1756_13369)"/>
<path d="M141.41 219.03C139.401 200.277 145.428 164.111 145.429 140L182.265 162.771C182.265 185.543 179.586 195.589 179.586 195.589C164.181 244.481 142.558 229.746 141.41 219.03Z" stroke="#191715" stroke-linejoin="round"/>
</g>
<path opacity="0.6" d="M147.349 226.687C145.941 226.55 144.071 226.446 143.415 225.134C145.382 225.134 150.628 221.2 154.562 210.054C153.906 219.889 147.349 226.687 147.349 226.687Z" fill="#648191" stroke="#191715" stroke-linejoin="round"/>
<path d="M157.267 229.22C156.358 229.596 155.534 229.881 154.828 229.852C155.963 228.923 158.471 227.382 162.028 216.983C162.813 221.646 157.774 228.729 157.267 229.22Z" fill="#648191" stroke="#191715" stroke-linejoin="round"/>
<path d="M136.001 169.5C160.001 166.7 177.334 177.667 183.001 183.5C183.667 177.833 186.001 171 183.001 162.5C180 154 155 139 145.001 139C135.001 139 136.001 169.5 136.001 169.5Z" fill="#ADC07A" stroke="#191715"/>
<path d="M120.37 188.258C127.961 188.258 134.115 183.052 134.115 176.629C134.115 170.207 127.961 165 120.37 165C112.78 165 106.626 170.207 106.626 176.629C106.626 183.052 112.78 188.258 120.37 188.258Z" fill="#ADC07A"/>
<path d="M120.451 186.542C126.869 186.542 132.072 182.14 132.072 176.709C132.072 171.278 126.869 166.876 120.451 166.876C114.033 166.876 108.83 171.278 108.83 176.709C108.83 182.14 114.033 186.542 120.451 186.542Z" fill="#92A072"/>
<path d="M121.457 192.281V191.009H121.885V192.462C122.619 192.886 124.638 192.765 125.312 192.462V190.887C125.312 190.887 126.841 189.434 126.964 187.556C127.2 183.923 124.7 176.658 124.7 176.658C125.128 176.355 124.822 175.205 124.578 175.144C125.923 173.388 124.211 170.724 123.66 170.603C124.224 169.878 124.945 168.847 124.211 166.97C123.879 166.122 123.631 166.667 123.537 166.849C122.99 167.907 123.109 170.179 123.109 170.179C122.803 169.937 122.497 169.937 122.13 169.816C123.109 167.757 121.335 166.485 121.335 166.485C120.845 167.333 121.457 169.271 121.518 169.695C117.114 169.998 117.427 173.912 117.427 173.912C117.427 173.956 117.427 174.318 116.833 173.324C116.468 172.917 116.463 174.335 116.318 174.478C115.951 173.994 115.767 173.328 115.217 171.572C115.065 171.088 114.934 171.067 114.139 171.775C112.12 173.955 112.219 175.508 112.219 176.053C112.28 179.081 115.4 179.202 115.829 179.263C116.013 179.566 116.135 179.687 116.38 179.808C114.972 181.988 112.831 188.527 117.42 190.404C117.481 190.95 117.971 191.071 117.909 191.192V192.402C117.909 192.402 120.295 192.827 121.458 192.281L121.457 192.281Z" fill="url(#paint6_radial_1756_13369)" stroke="#304402" stroke-width="0.13" stroke-miterlimit="10"/>
<path d="M118.527 171.018C119.092 170.378 119.782 170.98 119.782 170.98" stroke="#304402" stroke-width="0.13"/>
<path d="M114.457 171.459C113.635 172.272 112.519 173.489 112.311 175.075C112.311 175.075 115.219 175.59 116.33 174.487C116.056 174.035 115.691 173.176 115.188 171.477C115.05 170.994 114.686 171.278 114.457 171.459Z" fill="url(#paint7_linear_1756_13369)" stroke="#304402" stroke-width="0.13" stroke-miterlimit="10"/>
<path d="M116.65 173.267C116.439 173.571 116.376 173.99 116.33 174.487C116.33 174.487 117.141 174.448 117.426 174.035C117.313 173.908 117.141 173.736 116.882 173.23C116.809 173.085 116.712 173.196 116.65 173.267Z" fill="url(#paint8_linear_1756_13369)" stroke="#304402" stroke-width="0.13" stroke-miterlimit="10"/>
<path d="M121.885 169.816C121.762 169.695 121.518 169.695 121.518 169.695" stroke="#304402" stroke-width="0.13"/>
<path d="M116.991 175.327C116.624 175.085 116.317 174.479 116.317 174.479" stroke="#304402" stroke-width="0.13"/>
<path d="M118.153 174.932C117.753 174.656 117.419 173.964 117.419 173.964" stroke="#304402" stroke-width="0.13"/>
<path d="M118.52 174.539C118.52 174.539 118.887 174.236 119.07 174.781" stroke="#304402" stroke-width="0.13"/>
<path d="M120.845 171.027C121.701 170.966 121.763 171.875 121.763 171.875" stroke="#304402" stroke-width="0.13"/>
<path d="M121.702 167.758C121.395 167.758 121.579 168.279 121.579 168.847C121.579 169.416 121.661 169.756 121.763 169.756C121.865 169.756 121.947 169.514 121.947 168.847C121.947 168 121.804 167.758 121.702 167.758H121.702Z" fill="#6A8490" stroke="#304402" stroke-width="0.13" stroke-miterlimit="10"/>
<path d="M123.836 167.818C123.537 167.939 123.714 168.339 123.714 168.907C123.537 169.695 123.13 170.481 123.231 170.481C123.332 170.481 124.026 169.634 124.149 168.907C124.21 168.362 124.239 167.655 123.836 167.818V167.818Z" fill="#6A8490" stroke="#304402" stroke-width="0.13" stroke-miterlimit="10"/>
<path d="M121.64 167.879C121.824 168.605 121.762 169.756 121.762 169.756M123.72 168C123.72 169.151 123.353 170.119 123.353 170.119" stroke="#304402" stroke-width="0.13"/>
<path d="M120.03 179.403C120.03 179.403 119.299 179.911 118.248 180.092C117.197 180.273 116.147 180.228 116.147 180.228L116.421 179.775C116.421 179.775 117.883 180.127 120.03 179.403Z" fill="#7E9CA7" stroke="#304402" stroke-width="0.13" stroke-miterlimit="10"/>
<path d="M121.885 175.629C121.578 175.144 121.211 175.205 121.211 175.205C120.905 179.141 115.827 179.262 115.827 179.262" stroke="#304402" stroke-width="0.13"/>
<path d="M115.517 176.126C115.647 175.775 115.616 175.442 115.449 175.381C115.282 175.321 115.041 175.556 114.911 175.907C114.782 176.258 114.812 176.592 114.98 176.652C115.147 176.713 115.388 176.477 115.517 176.126Z" fill="#648191" stroke="#304402" stroke-width="0.13" stroke-miterlimit="10"/>
<path d="M112.248 175.327L112.257 176.296C112.374 176.553 112.552 176.738 112.702 176.738C112.888 176.738 112.959 176.449 112.86 176.093C112.76 175.737 112.435 175.326 112.248 175.326V175.327Z" fill="#648191" stroke="#304402" stroke-width="0.13" stroke-miterlimit="10"/>
<path d="M121.003 172.522C120.897 172.272 120.721 172.128 120.505 172.128C120.29 172.128 120.061 172.271 119.864 172.522C119.667 172.77 119.509 173.117 119.438 173.502C119.368 173.887 119.399 174.234 119.504 174.483C119.61 174.732 119.786 174.876 120.001 174.876C120.217 174.876 120.445 174.733 120.643 174.483C120.84 174.234 120.998 173.888 121.068 173.502C121.139 173.117 121.108 172.77 121.003 172.522Z" fill="white" stroke="#304402" stroke-width="0.13"/>
<path d="M118.607 172.407C118.565 172.23 118.492 172.162 118.39 172.162C118.289 172.162 118.167 172.239 118.053 172.418C117.941 172.595 117.843 172.86 117.786 173.208C117.729 173.552 117.767 173.878 117.85 174.117C117.891 174.236 117.944 174.333 118 174.398C118.057 174.465 118.113 174.495 118.16 174.495C118.207 174.495 118.256 174.471 118.308 174.415C118.36 174.358 118.411 174.272 118.458 174.159C118.55 173.931 118.616 173.603 118.637 173.212C118.655 172.849 118.649 172.582 118.607 172.407V172.407Z" fill="white" stroke="#304402" stroke-width="0.13"/>
<path d="M120.368 174.139C120.448 173.846 120.359 173.567 120.167 173.515C119.975 173.463 119.754 173.659 119.674 173.952C119.593 174.245 119.683 174.524 119.874 174.576C120.066 174.628 120.287 174.432 120.368 174.139Z" fill="#191715" stroke="#304402" stroke-width="0.13" stroke-miterlimit="10"/>
<path d="M118.596 173.794C118.631 173.529 118.515 173.295 118.337 173.273C118.16 173.25 117.988 173.447 117.953 173.712C117.919 173.977 118.035 174.211 118.212 174.233C118.39 174.256 118.561 174.059 118.596 173.794Z" fill="#191715" stroke="#304402" stroke-width="0.13" stroke-miterlimit="10"/>
<path d="M118.309 173.527C118.316 173.455 118.292 173.394 118.255 173.391C118.218 173.387 118.182 173.443 118.175 173.514C118.168 173.586 118.192 173.647 118.229 173.651C118.266 173.655 118.302 173.599 118.309 173.527Z" fill="white" stroke="#304402" stroke-width="0.13" stroke-miterlimit="10"/>
<path d="M120.198 173.899C120.212 173.828 120.177 173.761 120.12 173.75C120.063 173.739 120.006 173.788 119.991 173.859C119.977 173.931 120.012 173.997 120.069 174.008C120.126 174.019 120.184 173.971 120.198 173.899Z" fill="white" stroke="#304402" stroke-width="0.13" stroke-miterlimit="10"/>
<path d="M125.893 184.953C125.893 184.953 126.137 184.045 126.137 181.987L122.772 179.928C122.772 182.108 122.221 185.378 122.405 187.072C122.509 188.041 124.485 189.374 125.893 184.953Z" fill="url(#paint9_linear_1756_13369)" stroke="#304402" stroke-width="0.13" stroke-miterlimit="10"/>
<path d="M60.0016 181.254L61.8034 180.906C65.4321 180.203 69.1249 179.58 72.7779 179.052L75.0958 178.717V187.59L73.5791 187.91V191.976L74.3294 191.786L73.52 195.037C73.1489 196.528 72.7779 198.02 72.4068 199.513L72.103 200.736L70.8586 200.996C68.6995 201.448 66.5145 201.937 64.3652 202.451L62.0951 202.993L60 181.256L60.0016 181.254Z" fill="#ADC07A"/>
<path d="M71.0249 182.493L72.9118 182.29C74.3279 182.138 75.7652 181.996 77.1837 181.871L79.4287 181.671L79.2302 192.98C80.1214 192.827 81.0126 192.679 81.8981 192.538L84.391 192.138L83.9008 200.404L82.1225 200.526C79.5591 200.701 76.8921 200.916 73.9674 201.184L71.8488 201.378L71.0225 182.493H71.0249Z" fill="#ADC07A"/>
<path d="M81.3049 190.532C79.5072 187.921 77.6794 185.285 75.8655 182.69L74.2168 180.331L77.0216 179.609C78.6686 179.185 80.34 178.774 81.9919 178.385L83.4721 178.036L84.2223 179.346C84.7084 180.195 85.1961 181.049 85.6838 181.903C86.1829 180.944 86.682 179.988 87.1778 179.04L87.6704 178.097L88.7349 177.97C90.3787 177.775 92.0469 177.594 93.6931 177.435L97.5973 177.055L95.6496 180.425C93.7733 183.671 91.884 186.965 90.0287 190.222L90.0701 200.2L88.2043 200.353C86.669 200.479 85.1102 200.622 83.5726 200.78L81.3479 201.008L81.3057 190.53L81.3049 190.532Z" fill="#ADC07A"/>
<path d="M95.6717 200.115C93.5288 200.115 91.3438 199.09 89.3525 197.15L88.1016 195.932L89.1426 194.533C89.7802 193.677 90.4243 192.813 91.0595 191.966C90.7208 191.59 90.4373 191.183 90.2096 190.744L90.2007 190.726C89.525 189.392 89.3103 187.993 89.5639 186.568C89.811 185.18 90.387 183.971 91.2758 182.978C92.2464 181.881 93.5134 181.2 94.9418 181.01L94.9685 181.006L94.9952 181.003C95.4611 180.953 95.9083 180.928 96.3255 180.928C100.25 180.928 101.736 183.107 103.172 185.214L104.485 187.14L102.494 188.184C101.861 188.516 101.222 188.853 100.586 189.192C100.93 189.528 101.232 189.905 101.49 190.324C102.186 191.454 102.514 192.695 102.463 194.012C102.411 195.343 101.936 196.578 101.051 197.684L101.041 197.696C100.16 198.78 98.8662 199.536 97.1965 199.941L97.1649 199.949C96.6763 200.059 96.174 200.115 95.6725 200.115H95.6717Z" fill="#ADC07A"/>
<path d="M106.334 200.239C105.274 200.198 104.199 200.163 103.138 200.138L101.327 200.093L99.3945 177.957L101.642 177.997C103.364 178.028 105.109 178.078 106.829 178.147L108.808 178.226L108.401 200.318L106.334 200.238V200.239Z" fill="#ADC07A"/>
<path d="M117.488 201.065C116.539 200.981 115.574 200.902 114.617 200.83L112.788 200.692L112.778 200.257C112.568 200.273 112.363 200.281 112.161 200.281C111.499 200.281 110.874 200.192 110.304 200.017C108.849 199.568 107.705 198.671 106.903 197.352C105.016 194.286 105.138 189.382 105.228 185.799L105.233 185.619V185.595C105.264 184.986 105.279 184.371 105.279 183.768V182.115L106.919 181.801C108.125 181.569 109.348 181.345 110.552 181.132L112.933 180.713V181.964L114.375 182.316C115.587 182.612 116.812 182.921 118.016 183.234L119.526 183.627V185.172C119.526 187.693 119.552 189.961 119.608 192.105C119.665 194.259 119.692 196.538 119.692 199.069V201.26L117.486 201.066L117.488 201.065Z" fill="#ADC07A"/>
<path d="M132.261 202.696C130.902 202.513 129.519 202.339 128.153 202.18L126.446 201.981L126.299 198.842L125.768 199.718L125.352 199.027L125.238 202.986L123.017 202.702C121.701 202.534 120.365 202.375 119.046 202.23L117.319 202.04L116.405 180.675L118.305 180.484C119.796 180.334 121.305 180.197 122.791 180.077L124.142 179.967L124.76 181.161C125.027 181.678 125.295 182.197 125.563 182.717C125.854 182.138 126.145 181.562 126.434 180.988L127.018 179.83L128.324 179.88C129.894 179.939 131.486 180.016 133.054 180.109L135 180.224L134.509 203L132.259 202.696H132.261Z" fill="#ADC07A"/>
<path d="M62.1924 182.873C65.8089 182.173 69.4369 181.56 73.0712 181.035V185.968C70.9462 186.416 68.8228 186.895 66.7034 187.403C66.6839 188.349 66.6637 189.295 66.6442 190.241C68.2791 189.732 69.9165 189.241 71.5546 188.767V192.384C70.0664 192.645 68.5789 192.92 67.0931 193.21C67.14 194.038 67.1878 194.865 67.2348 195.693C68.6737 195.301 70.1133 194.921 71.5546 194.557C71.1836 196.048 70.8125 197.54 70.4415 199.032C68.2548 199.489 66.0714 199.978 63.8913 200.499C63.325 194.621 62.7587 188.744 62.1924 182.87V182.873Z" fill="#D64C3D"/>
<path d="M66.0557 183.114C69.2777 182.414 72.5086 181.802 75.746 181.276V186.209C73.8527 186.657 71.9617 187.136 70.0733 187.644C70.0554 188.59 70.0384 189.536 70.0206 190.483C71.4773 189.973 72.9356 189.482 74.3947 189.008V192.626C73.0684 192.886 71.7438 193.161 70.4208 193.452C70.4629 194.279 70.5051 195.106 70.5472 195.934C71.8289 195.542 73.1114 195.163 74.3947 194.798C74.0641 196.289 73.7336 197.781 73.403 199.273C71.4554 199.73 69.5102 200.219 67.569 200.74C67.0643 194.862 66.5596 188.986 66.0557 183.112V183.114Z" fill="#999999"/>
<path d="M75.7988 184.523C77.0554 184.371 78.3128 184.233 79.5701 184.107C79.5102 187.946 79.4502 191.785 79.3903 195.624C80.8915 195.316 82.3936 195.027 83.8972 194.757C83.8267 196.093 83.7562 197.43 83.6858 198.767C81.2196 198.956 78.7875 199.181 76.3797 199.429C76.1861 194.46 75.9925 189.491 75.7988 184.524V184.523Z" fill="#999999"/>
<path d="M79.7186 181.791C81.1809 181.368 82.6449 180.964 84.1089 180.577C85.09 182.501 86.0711 184.432 87.053 186.372C88.0066 184.309 88.9601 182.253 89.9137 180.203C91.3728 180.009 92.8319 179.831 94.2918 179.672C92.5426 183.071 90.7927 186.494 89.0444 189.944C89.0549 192.828 89.0654 195.713 89.076 198.598C87.6882 198.726 86.3003 198.869 84.9125 199.029C84.902 196.07 84.8915 193.111 84.8809 190.152C83.1585 187.34 81.4369 184.553 79.7178 181.791H79.7186Z" fill="#999999"/>
<path d="M101.11 186.653C100.28 187.142 99.4494 187.636 98.6182 188.136C98.6182 188.135 97.0594 185.685 95.8506 186.837C94.6419 187.98 96.0305 189.284 97.5576 189.883C98.427 190.236 99.0848 190.817 99.5191 191.609C99.9541 192.4 100.155 193.249 100.123 194.177C100.092 195.093 99.7945 195.922 99.2541 196.68C98.7129 197.427 97.8971 197.938 96.805 198.236C95.1612 198.653 93.3375 197.957 91.5146 195.963C92.1117 195.061 92.7088 194.164 93.3059 193.269C93.3059 193.266 95.5217 196.464 96.7305 195.347C97.9392 194.205 96.4971 192.981 95.0235 192.309C93.8463 191.75 93.0515 191.008 92.6165 190.069C92.1928 189.129 92.055 188.159 92.2138 187.156C92.3726 186.153 92.7331 185.273 93.3164 184.543C93.8998 183.801 94.6208 183.364 95.4691 183.237C98.8304 182.832 99.7427 184.402 101.11 186.654V186.653Z" fill="#999999"/>
<path d="M101.163 180.242C102.69 180.273 104.216 180.322 105.742 180.391C105.643 186.42 105.544 192.449 105.445 198.477C104.488 198.436 103.53 198.402 102.573 198.375C102.103 192.329 101.633 186.285 101.162 180.243L101.163 180.242Z" fill="#999999"/>
<path d="M109.452 183.345C109.452 183.662 109.431 184.177 109.388 184.879C109.336 185.721 109.293 186.694 109.261 187.807C109.23 188.909 109.24 189.991 109.303 191.063C109.367 192.125 109.515 193.027 109.738 193.758C109.971 194.49 110.331 194.902 110.818 195.02C111.305 195.08 111.664 194.814 111.898 194.222C112.13 193.618 112.278 192.843 112.332 191.872C112.384 190.902 112.395 189.905 112.353 188.867C112.311 187.819 112.257 186.886 112.194 186.071C112.141 185.338 112.109 184.819 112.109 184.502C113.182 184.795 114.254 185.099 115.325 185.412C115.325 187.772 115.346 190.1 115.398 192.395C115.451 194.667 115.472 196.971 115.472 199.308C114.612 199.223 113.752 199.144 112.892 199.071C112.884 198.733 112.878 198.397 112.871 198.059C111.463 198.55 110.331 198.647 109.452 198.342C108.573 198.038 107.905 197.436 107.429 196.552C105.999 193.951 106.125 189.287 106.2 185.931C106.231 185.205 106.242 184.559 106.242 184.007C107.312 183.776 108.382 183.555 109.452 183.344V183.345Z" fill="#999999"/>
<path d="M116.222 182.719C117.544 182.57 118.864 182.435 120.183 182.315C120.964 184.01 121.745 185.71 122.525 187.417C123.315 185.647 124.105 183.883 124.895 182.124C126.289 182.183 127.681 182.259 129.071 182.351C128.952 188.551 128.833 194.751 128.714 200.951C127.484 200.764 126.253 200.591 125.022 200.43C124.909 197.743 124.797 195.055 124.685 192.368C124.021 193.591 123.358 194.819 122.693 196.049C122.026 194.8 121.357 193.556 120.69 192.316C120.616 195.196 120.542 198.075 120.468 200.955C119.279 200.784 118.089 200.625 116.898 200.478C116.673 194.557 116.447 188.638 116.222 182.719H116.222Z" fill="#999999"/>
<path d="M65.6895 183.091C68.9487 182.391 72.2177 181.778 75.4924 181.253V186.186C73.5772 186.634 71.6644 187.112 69.754 187.621C69.7362 188.567 69.7184 189.513 69.7006 190.459C71.1743 189.95 72.6496 189.458 74.1257 188.985V192.602C72.784 192.863 71.444 193.138 70.1057 193.428C70.1486 194.256 70.1907 195.083 70.2337 195.91C71.5299 195.518 72.8278 195.139 74.1265 194.774C73.7919 196.266 73.4573 197.758 73.1235 199.25C71.1532 199.707 69.1853 200.196 67.2215 200.716C66.7111 194.838 66.2007 188.962 65.6903 183.088L65.6895 183.091Z" fill="#999999"/>
<path d="M75.5459 184.499C76.817 184.348 78.089 184.209 79.3618 184.084C79.301 187.923 79.2402 191.761 79.1803 195.6C80.6985 195.292 82.2184 195.004 83.7391 194.733C83.6678 196.07 83.5965 197.407 83.5252 198.743C81.0299 198.932 78.5694 199.158 76.1341 199.405C75.938 194.437 75.7428 189.468 75.5467 184.5L75.5459 184.499Z" fill="#999999"/>
<path d="M79.5106 181.768C80.9899 181.345 82.4709 180.94 83.9519 180.554C84.9443 182.477 85.9368 184.409 86.93 186.349C87.8941 184.285 88.859 182.229 89.8239 180.18C91.3001 179.985 92.7762 179.808 94.2531 179.648C92.4829 183.047 90.7135 186.471 88.9449 189.92C88.9555 192.805 88.966 195.69 88.9773 198.575C87.5733 198.702 86.1693 198.846 84.7661 199.005C84.7556 196.047 84.745 193.087 84.7337 190.129C82.991 187.317 81.25 184.53 79.5098 181.768H79.5106Z" fill="#999999"/>
<path d="M101.152 186.63C100.312 187.119 99.4714 187.613 98.6305 188.113C98.6305 188.112 97.0539 185.662 95.8306 186.814C94.608 187.957 96.0128 189.261 97.5578 189.86C98.4377 190.213 99.1028 190.794 99.5427 191.585C99.9826 192.377 100.186 193.226 100.154 194.154C100.122 195.069 99.8222 195.898 99.2746 196.657C98.7277 197.403 97.9013 197.915 96.7963 198.212C95.1338 198.63 93.2883 197.933 91.4443 195.939C92.0487 195.038 92.6523 194.141 93.2567 193.246C93.2567 193.243 95.4984 196.44 96.7217 195.323C97.9443 194.182 96.486 192.957 94.9945 192.285C93.8035 191.727 92.999 190.985 92.5599 190.045C92.1305 189.105 91.9912 188.135 92.1524 187.132C92.3136 186.129 92.6782 185.25 93.268 184.519C93.8578 183.778 94.587 183.341 95.4457 183.213C98.846 182.808 99.7688 184.379 101.153 186.63L101.152 186.63Z" fill="#999999"/>
<path d="M101.205 180.219C102.749 180.249 104.294 180.299 105.837 180.368C105.738 186.397 105.637 192.425 105.537 198.454C104.569 198.412 103.6 198.378 102.631 198.352C102.155 192.306 101.68 186.262 101.204 180.22L101.205 180.219Z" fill="#999999"/>
<path d="M109.589 183.321C109.589 183.639 109.568 184.153 109.525 184.856C109.472 185.698 109.429 186.67 109.396 187.784C109.364 188.886 109.375 189.967 109.439 191.04C109.503 192.102 109.653 193.004 109.879 193.735C110.114 194.467 110.478 194.879 110.971 194.997C111.464 195.056 111.828 194.791 112.064 194.198C112.299 193.594 112.449 192.819 112.503 191.849C112.556 190.879 112.567 189.881 112.524 188.844C112.481 187.795 112.427 186.863 112.363 186.047C112.31 185.314 112.277 184.796 112.277 184.478C113.362 184.772 114.447 185.075 115.531 185.388C115.531 187.749 115.552 190.076 115.606 192.372C115.659 194.644 115.68 196.948 115.68 199.285C114.81 199.2 113.94 199.12 113.069 199.047C113.062 198.71 113.054 198.373 113.048 198.036C111.624 198.527 110.478 198.623 109.588 198.319C108.699 198.015 108.024 197.413 107.542 196.529C106.095 193.928 106.224 189.264 106.298 185.908C106.331 185.181 106.341 184.536 106.341 183.983C107.424 183.752 108.506 183.532 109.588 183.32L109.589 183.321Z" fill="#999999"/>
<path d="M116.439 182.696C117.776 182.546 119.111 182.412 120.446 182.291C121.236 183.986 122.026 185.687 122.815 187.393C123.615 185.624 124.415 183.86 125.213 182.101C126.623 182.16 128.031 182.235 129.438 182.327C129.317 188.528 129.197 194.727 129.076 200.927C127.833 200.741 126.587 200.567 125.341 200.406C125.228 197.719 125.114 195.032 125 192.345C124.329 193.568 123.658 194.795 122.985 196.025C122.31 194.777 121.634 193.533 120.958 192.292C120.884 195.172 120.809 198.051 120.734 200.931C119.531 200.761 118.328 200.602 117.123 200.454C116.895 194.534 116.667 188.614 116.438 182.696H116.439Z" fill="#999999"/>
<path d="M65.3184 183.066C68.6157 182.366 71.922 181.754 75.2356 181.229V186.161C73.2977 186.609 71.363 187.088 69.4299 187.596C69.4121 188.542 69.3943 189.489 69.3757 190.435C70.8664 189.926 72.3587 189.434 73.8526 188.96V192.578C72.4956 192.838 71.1402 193.113 69.7856 193.404C69.8285 194.231 69.8715 195.059 69.9152 195.886C71.2269 195.494 72.5393 195.115 73.8534 194.75C73.5148 196.241 73.1769 197.733 72.8383 199.225C70.8453 199.683 68.8547 200.172 66.8674 200.692C66.3505 194.814 65.8344 188.938 65.3184 183.064V183.066Z" fill="#999999"/>
<path d="M75.29 184.475C76.5758 184.323 77.8623 184.185 79.1497 184.06C79.0881 187.899 79.0273 191.737 78.9657 195.576C80.5018 195.268 82.0395 194.979 83.578 194.709C83.5059 196.046 83.4338 197.382 83.3617 198.719C80.8372 198.908 78.3484 199.133 75.8847 199.381C75.6862 194.412 75.4885 189.444 75.29 184.476V184.475Z" fill="#999999"/>
<path d="M79.3008 181.743C80.798 181.321 82.2951 180.916 83.7939 180.529C84.7977 182.453 85.8023 184.384 86.8069 186.325C87.7824 184.261 88.7586 182.205 89.7349 180.156C91.228 179.961 92.7219 179.784 94.2159 179.624C92.4254 183.023 90.635 186.446 88.8461 189.896C88.8567 192.781 88.868 195.665 88.8785 198.55C87.4575 198.678 86.0373 198.821 84.6179 198.981C84.6073 196.022 84.596 193.063 84.5855 190.104C82.8226 187.292 81.0613 184.505 79.3008 181.743V181.743Z" fill="#999999"/>
<path d="M101.194 186.605C100.344 187.094 99.4943 187.588 98.6436 188.088C98.6436 188.088 97.0484 185.637 95.8113 186.79C94.5742 187.932 95.996 189.237 97.5588 189.836C98.4484 190.188 99.1216 190.77 99.5664 191.561C100.011 192.352 100.218 193.201 100.185 194.129C100.152 195.045 99.8483 195.874 99.295 196.632C98.7416 197.379 97.9056 197.89 96.7883 198.188C95.1064 198.606 93.2398 197.909 91.374 195.915C91.9849 195.014 92.5966 194.116 93.2074 193.222C93.2074 193.218 95.4751 196.416 96.7122 195.299C97.9493 194.157 96.4732 192.933 94.9647 192.261C93.76 191.702 92.9466 190.96 92.5018 190.021C92.0675 189.081 91.9266 188.111 92.0894 187.108C92.2522 186.105 92.6209 185.225 93.218 184.495C93.815 183.753 94.5523 183.316 95.4208 183.189C98.8607 182.784 99.794 184.355 101.194 186.606V186.605Z" fill="#999999"/>
<path d="M101.247 180.194C102.81 180.225 104.372 180.275 105.934 180.343C105.833 186.372 105.731 192.401 105.63 198.429C104.651 198.388 103.67 198.354 102.69 198.328C102.209 192.281 101.728 186.237 101.247 180.195V180.194Z" fill="#999999"/>
<path d="M109.729 183.297C109.729 183.614 109.707 184.129 109.664 184.831C109.61 185.673 109.567 186.646 109.534 187.759C109.501 188.861 109.512 189.943 109.578 191.016C109.642 192.077 109.795 192.979 110.022 193.71C110.26 194.442 110.628 194.855 111.127 194.972C111.625 195.032 111.993 194.766 112.232 194.174C112.47 193.57 112.621 192.795 112.676 191.825C112.73 190.854 112.74 189.857 112.698 188.819C112.655 187.771 112.6 186.838 112.535 186.023C112.48 185.29 112.448 184.771 112.448 184.454C113.546 184.747 114.643 185.051 115.739 185.364C115.739 187.724 115.761 190.052 115.814 192.347C115.868 194.62 115.89 196.923 115.89 199.26C115.01 199.175 114.129 199.096 113.248 199.023C113.241 198.685 113.234 198.349 113.227 198.011C111.786 198.503 110.627 198.599 109.727 198.294C108.828 197.99 108.145 197.388 107.657 196.505C106.193 193.904 106.323 189.24 106.398 185.883C106.431 185.157 106.442 184.511 106.442 183.959C107.538 183.728 108.633 183.508 109.727 183.296L109.729 183.297Z" fill="#999999"/>
<path d="M116.659 182.671C118.011 182.522 119.363 182.387 120.712 182.267C121.512 183.962 122.311 185.663 123.109 187.369C123.918 185.599 124.727 183.835 125.535 182.076C126.961 182.136 128.386 182.211 129.809 182.303C129.687 188.503 129.565 194.703 129.444 200.903C128.185 200.716 126.926 200.543 125.665 200.382C125.55 197.695 125.435 195.007 125.32 192.321C124.641 193.543 123.961 194.771 123.281 196.001C122.598 194.752 121.915 193.508 121.231 192.268C121.156 195.148 121.079 198.027 121.004 200.907C119.787 200.736 118.57 200.577 117.351 200.43C117.12 194.51 116.889 188.59 116.659 182.671V182.671Z" fill="#999999"/>
<path d="M64.9442 183.042C68.2796 182.342 71.6248 181.729 74.9764 181.204V186.137C73.0166 186.585 71.0585 187.064 69.1035 187.572C69.0857 188.518 69.0671 189.464 69.0493 190.41C70.557 189.901 72.0671 189.41 73.5781 188.936V192.553C72.2057 192.814 70.8341 193.089 69.4633 193.379C69.507 194.207 69.5508 195.034 69.5937 195.862C70.9207 195.47 72.2486 195.09 73.5773 194.725C73.2354 196.217 72.8927 197.709 72.5508 199.201C70.5343 199.658 68.521 200.147 66.5102 200.668C65.9877 194.79 65.4651 188.913 64.9434 183.039L64.9442 183.042Z" fill="#999999"/>
<path d="M75.0311 184.45C76.3314 184.299 77.6333 184.16 78.9361 184.035C78.8737 187.874 78.8121 191.712 78.7497 195.551C80.3036 195.243 81.8591 194.955 83.4155 194.685C83.3425 196.021 83.2696 197.358 83.1959 198.694C80.6423 198.884 78.1243 199.109 75.6314 199.357C75.4313 194.388 75.2304 189.419 75.0303 184.451L75.0311 184.45Z" fill="#999999"/>
<path d="M79.0898 181.719C80.604 181.296 82.119 180.891 83.6357 180.505C84.6516 182.428 85.6676 184.36 86.6835 186.3C87.6703 184.236 88.6579 182.181 89.6455 180.131C91.1556 179.936 92.6674 179.759 94.1783 179.6C92.3668 182.998 90.5561 186.422 88.7462 189.871C88.7575 192.756 88.768 195.641 88.7794 198.526C87.3422 198.653 85.9057 198.797 84.4693 198.956C84.458 195.998 84.4474 193.038 84.4361 190.08C82.6529 187.268 80.8706 184.481 79.0906 181.719H79.0898Z" fill="#999999"/>
<path d="M101.237 186.581C100.377 187.07 99.517 187.564 98.6574 188.064C98.6574 188.063 97.0435 185.613 95.7918 186.765C94.5401 187.908 95.9782 189.212 97.5596 189.811C98.4597 190.164 99.1402 190.745 99.5907 191.537C100.041 192.328 100.249 193.177 100.216 194.105C100.183 195.02 99.8759 195.849 99.3161 196.608C98.7562 197.354 97.9112 197.866 96.7802 198.163C95.0789 198.581 93.1904 197.884 91.3027 195.89C91.9209 194.989 92.539 194.092 93.158 193.197C93.158 193.194 95.4524 196.391 96.7041 195.275C97.9558 194.133 96.4627 192.908 94.9363 192.237C93.7178 191.678 92.8947 190.936 92.4443 189.996C92.0051 189.057 91.8626 188.086 92.027 187.083C92.1915 186.08 92.565 185.201 93.1685 184.47C93.7721 183.729 94.5191 183.292 95.3973 183.164C98.8778 182.759 99.8216 184.33 101.238 186.582L101.237 186.581Z" fill="#999999"/>
<path d="M101.291 180.17C102.872 180.2 104.452 180.25 106.032 180.319C105.93 186.348 105.827 192.376 105.725 198.405C104.734 198.363 103.743 198.33 102.751 198.303C102.264 192.257 101.778 186.213 101.291 180.171V180.17Z" fill="#999999"/>
<path d="M109.872 183.272C109.872 183.59 109.85 184.105 109.806 184.807C109.751 185.649 109.707 186.621 109.675 187.735C109.642 188.837 109.653 189.918 109.719 190.991C109.784 192.053 109.938 192.955 110.168 193.686C110.41 194.418 110.783 194.83 111.286 194.948C111.79 195.007 112.163 194.742 112.405 194.149C112.646 193.546 112.799 192.77 112.853 191.8C112.908 190.83 112.919 189.833 112.875 188.795C112.831 187.746 112.776 186.814 112.711 185.998C112.656 185.266 112.623 184.747 112.623 184.429C113.733 184.723 114.843 185.027 115.952 185.339C115.952 187.7 115.974 190.027 116.029 192.323C116.084 194.595 116.106 196.899 116.106 199.236C115.216 199.151 114.325 199.072 113.434 198.999C113.427 198.661 113.42 198.324 113.412 197.987C111.956 198.478 110.783 198.574 109.873 198.27C108.963 197.966 108.272 197.364 107.778 196.48C106.298 193.879 106.429 189.215 106.506 185.859C106.539 185.132 106.549 184.487 106.549 183.935C107.658 183.704 108.765 183.483 109.873 183.271L109.872 183.272Z" fill="#999999"/>
<path d="M116.882 182.647C118.249 182.498 119.617 182.363 120.982 182.243C121.79 183.938 122.599 185.638 123.406 187.344C124.224 185.575 125.042 183.811 125.861 182.052C127.304 182.111 128.745 182.186 130.184 182.279C130.061 188.479 129.937 194.678 129.813 200.879C128.541 200.692 127.266 200.519 125.991 200.357C125.874 197.671 125.759 194.983 125.642 192.296C124.955 193.519 124.268 194.746 123.58 195.976C122.889 194.728 122.197 193.484 121.505 192.243C121.429 195.123 121.352 198.003 121.276 200.883C120.045 200.712 118.813 200.553 117.581 200.406C117.348 194.485 117.114 188.565 116.881 182.647H116.882Z" fill="#999999"/>
<path d="M64.5641 183.018C67.9384 182.318 71.3225 181.706 74.713 181.181V186.113C72.7298 186.561 70.7497 187.04 68.7721 187.548C68.7535 188.495 68.7357 189.441 68.717 190.387C70.2426 189.878 71.7697 189.386 73.2985 188.912V192.53C71.9099 192.791 70.5221 193.066 69.1359 193.356C69.1796 194.183 69.2242 195.011 69.2679 195.838C70.6104 195.446 71.9536 195.067 73.2977 194.702C72.9517 196.193 72.605 197.686 72.259 199.178C70.2191 199.635 68.1823 200.124 66.148 200.644C65.6198 194.766 65.0907 188.89 64.5625 183.016L64.5641 183.018Z" fill="#999999"/>
<path d="M74.7686 184.427C76.0843 184.276 77.4016 184.137 78.7189 184.012C78.6565 187.851 78.5933 191.689 78.531 195.528C80.1035 195.22 81.6768 194.931 83.251 194.661C83.1772 195.998 83.1035 197.334 83.029 198.671C80.4462 198.86 77.8982 199.085 75.377 199.333C75.1744 194.364 74.9711 189.396 74.7686 184.428V184.427Z" fill="#999999"/>
<path d="M78.874 181.695C80.406 181.273 81.9389 180.868 83.4725 180.481C84.4998 182.405 85.5279 184.336 86.556 186.277C87.5549 184.213 88.553 182.157 89.552 180.108C91.0799 179.913 92.6087 179.736 94.1375 179.576C92.3049 182.975 90.4731 186.399 88.6422 189.848C88.6535 192.733 88.664 195.618 88.6754 198.502C87.2211 198.63 85.7677 198.773 84.3151 198.933C84.3037 195.974 84.2932 193.015 84.2819 190.056C82.4776 187.244 80.675 184.457 78.874 181.695V181.695Z" fill="#999999"/>
<path d="M101.278 186.557C100.408 187.046 99.5382 187.54 98.6689 188.041C98.6689 188.04 97.0364 185.59 95.7701 186.742C94.5038 187.884 95.9589 189.189 97.5582 189.788C98.4688 190.14 99.1574 190.722 99.6127 191.513C100.068 192.305 100.279 193.154 100.245 194.081C100.212 194.997 99.9011 195.826 99.3348 196.584C98.7685 197.331 97.913 197.842 96.7691 198.14C95.0475 198.558 93.1371 197.861 91.2275 195.867C91.853 194.966 92.4784 194.068 93.1039 193.174C93.1039 193.17 95.425 196.368 96.6913 195.251C97.9576 194.109 96.4466 192.885 94.9032 192.213C93.6702 191.654 92.8373 190.913 92.3828 189.973C91.9389 189.033 91.7947 188.063 91.9607 187.06C92.1276 186.057 92.5044 185.177 93.1152 184.447C93.7261 183.705 94.4812 183.268 95.3699 183.141C98.8909 182.736 99.846 184.307 101.278 186.558V186.557Z" fill="#999999"/>
<path d="M101.334 180.146C102.933 180.177 104.532 180.227 106.13 180.296C106.026 186.324 105.923 192.353 105.819 198.382C104.816 198.34 103.813 198.306 102.81 198.28C102.317 192.233 101.826 186.19 101.333 180.147L101.334 180.146Z" fill="#999999"/>
<path d="M110.014 183.249C110.014 183.566 109.992 184.081 109.948 184.783C109.892 185.625 109.848 186.598 109.815 187.712C109.781 188.813 109.793 189.895 109.859 190.968C109.926 192.029 110.081 192.931 110.314 193.662C110.558 194.395 110.935 194.807 111.445 194.925C111.955 194.984 112.332 194.718 112.576 194.126C112.82 193.522 112.974 192.747 113.03 191.777C113.085 190.807 113.097 189.809 113.052 188.772C113.008 187.723 112.952 186.79 112.886 185.975C112.831 185.242 112.798 184.723 112.798 184.406C113.921 184.699 115.043 185.003 116.166 185.316C116.166 187.676 116.187 190.004 116.243 192.299C116.298 194.572 116.321 196.875 116.321 199.212C115.42 199.127 114.519 199.048 113.618 198.975C113.611 198.638 113.604 198.301 113.597 197.963C112.123 198.455 110.936 198.551 110.016 198.246C109.095 197.942 108.396 197.34 107.897 196.457C106.399 193.856 106.532 189.192 106.61 185.835C106.643 185.109 106.654 184.464 106.654 183.911C107.776 183.68 108.896 183.46 110.016 183.248L110.014 183.249Z" fill="#999999"/>
<path d="M117.106 182.623C118.49 182.474 119.873 182.339 121.254 182.219C122.073 183.914 122.89 185.615 123.707 187.321C124.535 185.551 125.363 183.787 126.19 182.028C127.649 182.088 129.107 182.163 130.563 182.255C130.438 188.455 130.314 194.655 130.189 200.855C128.902 200.668 127.612 200.495 126.322 200.334C126.205 197.647 126.087 194.96 125.969 192.273C125.274 193.496 124.579 194.723 123.883 195.953C123.184 194.705 122.484 193.46 121.784 192.22C121.707 195.1 121.63 197.979 121.553 200.859C120.307 200.688 119.061 200.53 117.815 200.382C117.579 194.462 117.342 188.542 117.106 182.623V182.623Z" fill="#999999"/>
<path d="M64.1807 182.994C67.5939 182.294 71.0176 181.681 74.4479 181.156V186.089C72.4419 186.537 70.4384 187.016 68.4373 187.524C68.4186 188.47 68.4 189.416 68.3814 190.362C69.9247 189.853 71.4697 189.362 73.0163 188.888V192.506C71.6115 192.766 70.2075 193.041 68.8059 193.331C68.8504 194.159 68.895 194.986 68.9396 195.814C70.2974 195.422 71.656 195.042 73.0163 194.678C72.6663 196.169 72.3155 197.661 71.9655 199.153C69.902 199.61 67.841 200.099 65.784 200.62C65.2493 194.742 64.7146 188.865 64.1807 182.992V182.994Z" fill="#999999"/>
<path d="M74.5039 184.403C75.835 184.251 77.1669 184.112 78.5004 183.987C78.4372 187.826 78.3732 191.664 78.3101 195.503C79.9004 195.196 81.4924 194.907 83.0852 194.637C83.0106 195.973 82.9353 197.31 82.8607 198.646C80.2472 198.836 77.6708 199.061 75.1196 199.309C74.9147 194.34 74.7097 189.371 74.5047 184.403L74.5039 184.403Z" fill="#999999"/>
<path d="M78.6562 181.671C80.2061 181.248 81.7567 180.843 83.3082 180.457C84.3476 182.38 85.3871 184.312 86.4273 186.252C87.4376 184.189 88.4479 182.133 89.459 180.083C91.0048 179.889 92.5513 179.711 94.0979 179.552C92.2443 182.951 90.3906 186.374 88.5386 189.823C88.55 192.708 88.5613 195.593 88.5726 198.478C87.1014 198.605 85.6318 198.749 84.1621 198.909C84.1508 195.95 84.1394 192.991 84.1281 190.032C82.3028 187.22 80.4791 184.433 78.6571 181.671H78.6562Z" fill="#999999"/>
<path d="M101.323 186.533C100.443 187.022 99.5623 187.516 98.6825 188.016C98.6825 188.015 97.0306 185.565 95.7497 186.717C94.4688 187.86 95.9409 189.164 97.5588 189.763C98.48 190.116 99.1767 190.697 99.6377 191.489C100.099 192.28 100.312 193.129 100.278 194.057C100.244 194.973 99.9293 195.802 99.3565 196.56C98.7838 197.307 97.9185 197.818 96.7608 198.116C95.0189 198.533 93.0867 197.837 91.1553 195.842C91.788 194.941 92.4207 194.044 93.0535 193.149C93.0535 193.146 95.4013 196.344 96.6822 195.227C97.9631 194.085 96.4351 192.861 94.8731 192.189C93.6263 191.63 92.7837 190.888 92.3227 189.948C91.8731 189.009 91.7272 188.039 91.8958 187.036C92.0643 186.033 92.4459 185.153 93.064 184.423C93.6822 183.681 94.4462 183.244 95.3446 183.116C98.9061 182.712 99.8726 184.282 101.322 186.534L101.323 186.533Z" fill="#999999"/>
<path d="M101.379 180.122C102.997 180.153 104.614 180.202 106.231 180.271C106.126 186.3 106.021 192.329 105.917 198.357C104.902 198.315 103.888 198.282 102.873 198.255C102.375 192.209 101.877 186.165 101.379 180.123V180.122Z" fill="#999999"/>
<path d="M110.159 183.224C110.159 183.542 110.137 184.057 110.092 184.759C110.036 185.601 109.991 186.574 109.958 187.687C109.923 188.789 109.935 189.87 110.002 190.943C110.069 192.005 110.226 192.907 110.462 193.638C110.709 194.37 111.09 194.782 111.606 194.9C112.122 194.959 112.503 194.694 112.75 194.102C112.997 193.498 113.154 192.722 113.21 191.752C113.265 190.782 113.277 189.785 113.232 188.747C113.188 187.698 113.131 186.766 113.064 185.951C113.008 185.218 112.974 184.699 112.974 184.381C114.11 184.675 115.245 184.979 116.381 185.291C116.381 187.652 116.404 189.98 116.46 192.275C116.516 194.547 116.538 196.851 116.538 199.188C115.627 199.103 114.716 199.024 113.804 198.951C113.797 198.613 113.79 198.276 113.781 197.939C112.291 198.43 111.09 198.527 110.158 198.222C109.227 197.918 108.52 197.316 108.015 196.432C106.499 193.831 106.634 189.167 106.713 185.811C106.747 185.085 106.757 184.439 106.757 183.887C107.892 183.656 109.025 183.435 110.158 183.224L110.159 183.224Z" fill="#999999"/>
<path d="M117.334 182.599C118.734 182.45 120.133 182.315 121.53 182.195C122.358 183.89 123.185 185.59 124.012 187.297C124.85 185.527 125.687 183.763 126.523 182.004C128 182.063 129.475 182.139 130.948 182.231C130.821 188.431 130.696 194.63 130.569 200.831C129.267 200.644 127.962 200.471 126.657 200.31C126.538 197.623 126.419 194.935 126.3 192.248C125.597 193.471 124.893 194.699 124.19 195.929C123.483 194.68 122.775 193.436 122.067 192.195C121.988 195.075 121.91 197.955 121.832 200.835C120.572 200.664 119.311 200.505 118.05 200.358C117.811 194.437 117.572 188.518 117.333 182.599H117.334Z" fill="#999999"/>
<path d="M63.792 182.971C67.2457 182.271 70.7083 181.658 74.1791 181.133V186.065C72.1496 186.514 70.1226 186.992 68.0988 187.501C68.0802 188.447 68.0615 189.393 68.0421 190.339C69.6033 189.83 71.1661 189.338 72.7305 188.864V192.482C71.3095 192.743 69.8893 193.018 68.4707 193.308C68.5161 194.135 68.5606 194.963 68.606 195.79C69.9792 195.398 71.354 195.019 72.7305 194.654C72.3765 196.146 72.0216 197.638 71.6676 199.13C69.5798 199.587 67.4952 200.076 65.4139 200.596C64.8727 194.718 64.3324 188.842 63.792 182.968V182.971Z" fill="#999999"/>
<path d="M74.2354 184.379C75.5818 184.228 76.93 184.089 78.2781 183.964C78.2141 187.803 78.1492 191.641 78.0852 195.48C79.6942 195.172 81.3048 194.883 82.9154 194.613C82.8401 195.95 82.7639 197.286 82.6886 198.623C80.045 198.812 77.4379 199.038 74.8576 199.285C74.6502 194.317 74.4428 189.348 74.2354 184.38V184.379Z" fill="#999999"/>
<path d="M78.4375 181.647C80.0052 181.225 81.5736 180.82 83.1437 180.434C84.1953 182.357 85.2469 184.289 86.2993 186.229C87.3209 184.165 88.3434 182.109 89.3658 180.06C90.9294 179.865 92.4938 179.688 94.0582 179.528C92.1827 182.927 90.308 186.351 88.4341 189.8C88.4454 192.685 88.4568 195.57 88.4681 198.455C86.9799 198.582 85.4924 198.726 84.0058 198.885C83.9944 195.927 83.9831 192.967 83.9717 190.009C82.1254 187.197 80.2806 184.41 78.4375 181.647V181.647Z" fill="#999999"/>
<path d="M101.367 186.509C100.477 186.999 99.5861 187.492 98.6958 187.993C98.6958 187.992 97.0252 185.542 95.729 186.694C94.4335 187.836 95.9218 189.141 97.5591 189.74C98.4908 190.093 99.1956 190.674 99.6615 191.465C100.127 192.257 100.344 193.106 100.31 194.033C100.276 194.949 99.9572 195.778 99.3779 196.537C98.7979 197.283 97.9229 197.795 96.7522 198.092C94.9901 198.51 93.0352 197.813 91.0811 195.819C91.7211 194.918 92.3611 194.021 93.0011 193.126C93.0011 193.123 95.3765 196.32 96.672 195.203C97.9674 194.061 96.4217 192.837 94.8418 192.165C93.5804 191.606 92.7281 190.865 92.2623 189.925C91.8078 188.985 91.6603 188.015 91.8305 187.012C92.0006 186.009 92.387 185.13 93.0125 184.399C93.6379 183.657 94.41 183.22 95.3198 183.093C98.9226 182.688 99.9005 184.259 101.366 186.51L101.367 186.509Z" fill="#999999"/>
<path d="M101.423 180.099C103.059 180.129 104.696 180.179 106.332 180.248C106.225 186.276 106.119 192.305 106.013 198.334C104.987 198.292 103.961 198.258 102.935 198.232C102.431 192.186 101.927 186.142 101.423 180.099V180.099Z" fill="#999999"/>
<path d="M110.306 183.201C110.306 183.519 110.283 184.033 110.238 184.736C110.181 185.578 110.136 186.55 110.102 187.664C110.068 188.765 110.079 189.847 110.147 190.92C110.215 191.981 110.374 192.883 110.612 193.615C110.861 194.347 111.247 194.759 111.77 194.877C112.291 194.936 112.677 194.671 112.927 194.078C113.176 193.474 113.335 192.699 113.392 191.729C113.448 190.759 113.46 189.761 113.414 188.724C113.369 187.675 113.312 186.743 113.244 185.927C113.187 185.194 113.153 184.675 113.153 184.358C114.303 184.651 115.452 184.955 116.601 185.268C116.601 187.628 116.623 189.956 116.68 192.252C116.737 194.524 116.759 196.827 116.759 199.165C115.838 199.08 114.916 199 113.994 198.927C113.986 198.59 113.978 198.253 113.971 197.915C112.462 198.407 111.248 198.503 110.306 198.198C109.363 197.895 108.648 197.292 108.137 196.409C106.604 193.808 106.74 189.144 106.82 185.788C106.854 185.061 106.865 184.416 106.865 183.863C108.012 183.632 109.159 183.412 110.306 183.2V183.201Z" fill="#999999"/>
<path d="M117.564 182.575C118.981 182.426 120.396 182.292 121.81 182.171C122.647 183.866 123.484 185.567 124.32 187.273C125.167 185.504 126.014 183.74 126.861 181.98C128.355 182.04 129.847 182.115 131.337 182.207C131.209 188.408 131.082 194.607 130.954 200.807C129.636 200.62 128.317 200.447 126.996 200.286C126.876 197.599 126.756 194.912 126.635 192.225C125.924 193.448 125.212 194.675 124.5 195.905C123.785 194.657 123.069 193.412 122.353 192.172C122.273 195.052 122.195 197.931 122.115 200.811C120.841 200.641 119.566 200.482 118.29 200.334C118.048 194.414 117.806 188.494 117.564 182.575V182.575Z" fill="#999999"/>
<path d="M63.3984 182.946C66.8919 182.246 70.3958 181.634 73.9062 181.108V186.041C71.8533 186.489 69.8028 186.968 67.7555 187.476C67.7369 188.422 67.7174 189.368 67.6988 190.315C69.2778 189.805 70.8592 189.314 72.4423 188.84V192.458C71.0042 192.718 69.5678 192.993 68.133 193.284C68.1784 194.111 68.2246 194.938 68.2699 195.766C69.6594 195.374 71.0504 194.995 72.4423 194.63C72.0842 196.121 71.7253 197.613 71.3672 199.105C69.2551 199.562 67.1463 200.051 65.0406 200.572C64.493 194.694 63.9461 188.818 63.3992 182.944L63.3984 182.946Z" fill="#999999"/>
<path d="M73.9639 184.355C75.3258 184.203 76.6893 184.065 78.0536 183.939C77.9888 187.778 77.9239 191.617 77.8583 195.456C79.4859 195.148 81.1152 194.859 82.7452 194.589C82.6691 195.925 82.5921 197.262 82.5159 198.599C79.8416 198.788 77.2045 199.013 74.5934 199.261C74.3835 194.292 74.1737 189.323 73.9639 184.356V184.355Z" fill="#999999"/>
<path d="M78.2137 181.623C79.8 181.2 81.3863 180.796 82.9742 180.409C84.038 182.333 85.1017 184.264 86.1663 186.204C87.2 184.141 88.2338 182.085 89.2684 180.035C90.8506 179.841 92.4329 179.663 94.0159 179.504C92.1185 182.903 90.2219 186.326 88.3261 189.776C88.3375 192.66 88.3488 195.545 88.361 198.43C86.8557 198.558 85.3512 198.701 83.8468 198.861C83.8354 195.902 83.8241 192.943 83.8119 189.984C81.9445 187.172 80.0779 184.385 78.2129 181.623H78.2137Z" fill="#999999"/>
<path d="M101.41 186.485C100.509 186.974 99.609 187.468 98.7081 187.968C98.7081 187.968 97.0181 185.517 95.7072 186.669C94.3964 187.812 95.9025 189.116 97.5585 189.715C98.5015 190.068 99.2144 190.65 99.6859 191.441C100.157 192.232 100.376 193.081 100.341 194.009C100.307 194.925 99.9849 195.754 99.3983 196.512C98.8118 197.259 97.9263 197.77 96.7426 198.068C94.9603 198.485 92.9827 197.789 91.0059 195.795C91.6532 194.893 92.3013 193.996 92.9486 193.101C92.9486 193.098 95.3516 196.296 96.6624 195.179C97.9733 194.037 96.4096 192.813 94.8112 192.141C93.5352 191.582 92.6724 190.84 92.2017 189.901C91.7415 188.961 91.5924 187.991 91.765 186.988C91.9375 185.985 92.328 185.105 92.9608 184.375C93.5927 183.633 94.3745 183.196 95.2949 183.069C98.9398 182.664 99.929 184.234 101.412 186.486L101.41 186.485Z" fill="#999999"/>
<path d="M101.467 180.074C103.123 180.105 104.778 180.154 106.432 180.223C106.325 186.252 106.218 192.281 106.111 198.309C105.073 198.268 104.034 198.234 102.996 198.207C102.486 192.161 101.976 186.117 101.467 180.075V180.074Z" fill="#999999"/>
<path d="M110.453 183.177C110.453 183.494 110.431 184.009 110.384 184.711C110.327 185.553 110.281 186.526 110.247 187.639C110.212 188.741 110.224 189.823 110.293 190.895C110.362 191.957 110.522 192.859 110.764 193.59C111.016 194.322 111.407 194.734 111.934 194.852C112.462 194.912 112.852 194.646 113.105 194.054C113.358 193.45 113.518 192.675 113.576 191.704C113.633 190.734 113.645 189.737 113.598 188.699C113.552 187.651 113.495 186.718 113.427 185.903C113.369 185.17 113.335 184.651 113.335 184.334C114.498 184.627 115.66 184.931 116.822 185.244C116.822 187.604 116.845 189.932 116.902 192.227C116.96 194.499 116.982 196.803 116.982 199.14C116.05 199.055 115.117 198.976 114.184 198.903C114.177 198.565 114.169 198.229 114.161 197.891C112.636 198.383 111.407 198.479 110.454 198.174C109.501 197.87 108.777 197.268 108.26 196.384C106.71 193.783 106.847 189.119 106.927 185.763C106.962 185.037 106.974 184.391 106.974 183.839C108.134 183.608 109.295 183.387 110.454 183.176L110.453 183.177Z" fill="#999999"/>
<path d="M117.796 182.551C119.228 182.402 120.66 182.267 122.091 182.147C122.937 183.842 123.784 185.542 124.63 187.249C125.487 185.479 126.344 183.715 127.2 181.956C128.711 182.015 130.221 182.091 131.728 182.183C131.599 188.383 131.47 194.583 131.341 200.783C130.007 200.596 128.673 200.423 127.337 200.262C127.216 197.575 127.093 194.887 126.972 192.201C126.252 193.423 125.533 194.651 124.813 195.881C124.088 194.632 123.364 193.388 122.64 192.148C122.56 195.028 122.479 197.907 122.399 200.787C121.11 200.616 119.82 200.457 118.529 200.31C118.284 194.389 118.041 188.47 117.796 182.551V182.551Z" fill="#999999"/>
<path d="M63.002 182.922C66.5359 182.222 70.0803 181.609 73.6321 181.084V186.017C71.5556 186.465 69.4808 186.943 67.4092 187.452C67.3898 188.398 67.3704 189.344 67.3517 190.29C68.9494 189.781 70.5486 189.29 72.1503 188.816V192.433C70.6961 192.694 69.2426 192.969 67.7908 193.259C67.837 194.087 67.8832 194.914 67.9294 195.742C69.335 195.349 70.7422 194.97 72.1503 194.605C71.7874 196.097 71.4252 197.589 71.0623 199.081C68.9259 199.538 66.7919 200.027 64.662 200.547C64.1086 194.67 63.5553 188.793 63.002 182.919V182.922Z" fill="#999999"/>
<path d="M73.6895 184.33C75.0675 184.179 76.4464 184.04 77.827 183.915C77.7613 187.754 77.6957 191.592 77.6301 195.431C79.2771 195.123 80.925 194.835 82.5737 194.564C82.4959 195.901 82.419 197.238 82.3412 198.574C79.636 198.763 76.9674 198.989 74.3271 199.236C74.1148 194.268 73.9025 189.299 73.6903 184.331L73.6895 184.33Z" fill="#999999"/>
<path d="M77.9893 181.599C79.5934 181.176 81.1991 180.771 82.8057 180.385C83.8816 182.308 84.9583 184.24 86.035 186.18C87.0809 184.116 88.1268 182.06 89.1736 180.011C90.7744 179.816 92.3753 179.639 93.9762 179.479C92.0569 182.878 90.1385 186.302 88.22 189.751C88.2313 192.636 88.2435 195.521 88.2548 198.406C86.7317 198.533 85.2094 198.677 83.6879 198.836C83.6766 195.878 83.6644 192.918 83.6531 189.96C81.7638 187.148 79.8753 184.361 77.9893 181.599V181.599Z" fill="#999999"/>
<path d="M101.455 186.461C100.544 186.95 99.6331 187.444 98.7217 187.944C98.7217 187.943 97.0114 185.493 95.686 186.645C94.3598 187.788 95.8837 189.092 97.5591 189.691C98.5126 190.044 99.2345 190.625 99.7109 191.416C100.188 192.208 100.408 193.057 100.374 193.985C100.339 194.9 100.013 195.729 99.42 196.488C98.827 197.234 97.9309 197.746 96.7327 198.043C94.9301 198.461 92.929 197.764 90.9287 195.77C91.5841 194.869 92.2387 193.972 92.8942 193.077C92.8942 193.074 95.3247 196.271 96.6509 195.154C97.9771 194.013 96.3949 192.788 94.7778 192.116C93.4864 191.558 92.6147 190.816 92.1375 189.876C91.6724 188.937 91.5209 187.966 91.6959 186.963C91.8701 185.96 92.2655 185.081 92.9055 184.35C93.5455 183.609 94.3363 183.172 95.2663 183.044C98.9534 182.639 99.9539 184.21 101.454 186.461L101.455 186.461Z" fill="#999999"/>
<path d="M101.513 180.05C103.187 180.08 104.862 180.13 106.536 180.199C106.427 186.228 106.319 192.256 106.21 198.285C105.16 198.243 104.109 198.21 103.059 198.183C102.544 192.137 102.028 186.093 101.513 180.051V180.05Z" fill="#999999"/>
<path d="M110.604 183.152C110.604 183.47 110.58 183.984 110.534 184.687C110.476 185.529 110.43 186.501 110.395 187.615C110.36 188.717 110.371 189.798 110.441 190.871C110.511 191.933 110.673 192.835 110.917 193.566C111.172 194.298 111.568 194.71 112.102 194.828C112.636 194.887 113.031 194.622 113.286 194.029C113.541 193.426 113.704 192.65 113.763 191.68C113.821 190.71 113.832 189.712 113.786 188.675C113.74 187.626 113.682 186.694 113.612 185.878C113.554 185.145 113.519 184.627 113.519 184.309C114.695 184.603 115.871 184.906 117.046 185.219C117.046 187.58 117.07 189.907 117.127 192.203C117.185 194.475 117.208 196.779 117.208 199.116C116.265 199.031 115.321 198.951 114.377 198.878C114.369 198.541 114.362 198.204 114.354 197.867C112.811 198.358 111.568 198.454 110.603 198.15C109.639 197.846 108.906 197.244 108.384 196.36C106.815 193.759 106.954 189.095 107.036 185.739C107.071 185.012 107.082 184.367 107.082 183.814C108.256 183.584 109.43 183.363 110.603 183.151L110.604 183.152Z" fill="#999999"/>
<path d="M118.032 182.527C119.482 182.377 120.93 182.243 122.377 182.122C123.233 183.817 124.09 185.518 124.946 187.224C125.814 185.455 126.681 183.691 127.547 181.932C129.076 181.991 130.603 182.066 132.127 182.159C131.997 188.359 131.867 194.558 131.735 200.758C130.386 200.572 129.037 200.398 127.685 200.237C127.562 197.551 127.439 194.863 127.316 192.176C126.588 193.399 125.86 194.626 125.132 195.856C124.399 194.608 123.667 193.364 122.934 192.123C122.853 195.003 122.772 197.882 122.691 200.762C121.386 200.592 120.081 200.433 118.775 200.285C118.528 194.365 118.28 188.445 118.033 182.527H118.032Z" fill="#999999"/>
<path d="M62.5994 182.898C66.1747 182.198 69.7605 181.586 73.3527 181.061V185.993C71.252 186.441 69.1529 186.92 67.0578 187.428C67.0383 188.374 67.0189 189.321 66.9994 190.267C68.6157 189.758 70.2336 189.266 71.8539 188.792V192.41C70.3827 192.67 68.9122 192.945 67.4434 193.236C67.4904 194.063 67.5366 194.891 67.5836 195.718C69.0054 195.326 70.4289 194.947 71.8531 194.582C71.4861 196.073 71.1191 197.565 70.7529 199.058C68.5914 199.515 66.4331 200.004 64.2781 200.524C63.7183 194.646 63.1585 188.77 62.5986 182.896L62.5994 182.898Z" fill="#999999"/>
<path d="M73.4121 184.307C74.8064 184.155 76.2015 184.017 77.5974 183.892C77.531 187.731 77.4645 191.569 77.3981 195.408C79.0638 195.1 80.7311 194.811 82.3992 194.541C82.3207 195.878 82.2429 197.214 82.1643 198.551C79.4276 198.74 76.7281 198.965 74.0562 199.213C73.8415 194.244 73.6268 189.276 73.4121 184.308V184.307Z" fill="#999999"/>
<path d="M77.7617 181.575C79.3845 181.153 81.0089 180.748 82.634 180.361C83.7229 182.285 84.8118 184.216 85.9006 186.157C86.9587 184.093 88.0168 182.037 89.0756 179.988C90.6943 179.793 92.3147 179.616 93.9342 179.456C91.993 182.855 90.0519 186.278 88.1115 189.728C88.1237 192.613 88.135 195.497 88.1472 198.382C86.6071 198.51 85.067 198.653 83.5276 198.813C83.5155 195.854 83.5042 192.895 83.492 189.936C81.5808 187.124 79.6705 184.337 77.7617 181.575V181.575Z" fill="#999999"/>
<path d="M101.5 186.437C100.578 186.926 99.6572 187.42 98.7353 187.92C98.7353 187.92 97.0056 185.469 95.6639 186.622C94.3223 187.764 95.864 189.069 97.5581 189.668C98.523 190.02 99.2529 190.602 99.735 191.393C100.218 192.184 100.441 193.033 100.406 193.961C100.37 194.877 100.041 195.706 99.4409 196.464C98.8406 197.211 97.9348 197.722 96.7228 198.02C94.8991 198.438 92.8745 197.741 90.8516 195.747C91.5143 194.846 92.177 193.948 92.8397 193.054C92.8397 193.05 95.2985 196.248 96.6402 195.131C97.9818 193.989 96.3809 192.765 94.746 192.093C93.44 191.534 92.5578 190.792 92.0749 189.853C91.6042 188.913 91.4511 187.943 91.6277 186.94C91.8043 185.937 92.2037 185.057 92.851 184.327C93.4984 183.585 94.298 183.148 95.2394 183.021C98.9694 182.616 99.9813 184.187 101.5 186.438L101.5 186.437Z" fill="#999999"/>
<path d="M101.56 180.026C103.254 180.057 104.948 180.107 106.642 180.176C106.532 186.204 106.422 192.233 106.313 198.261C105.251 198.22 104.188 198.186 103.125 198.16C102.603 192.113 102.081 186.069 101.56 180.027L101.56 180.026Z" fill="#999999"/>
<path d="M110.755 183.129C110.755 183.446 110.732 183.961 110.685 184.663C110.627 185.505 110.579 186.478 110.544 187.591C110.508 188.693 110.52 189.775 110.591 190.848C110.661 191.909 110.826 192.811 111.073 193.542C111.331 194.274 111.731 194.687 112.271 194.804C112.812 194.864 113.211 194.598 113.469 194.006C113.728 193.402 113.892 192.627 113.951 191.657C114.009 190.686 114.021 189.689 113.974 188.651C113.927 187.603 113.869 186.67 113.798 185.855C113.74 185.122 113.704 184.603 113.704 184.286C114.894 184.579 116.084 184.883 117.273 185.196C117.273 187.556 117.297 189.884 117.355 192.179C117.414 194.452 117.437 196.755 117.437 199.092C116.482 199.007 115.528 198.928 114.573 198.855C114.565 198.517 114.557 198.181 114.549 197.843C112.987 198.335 111.731 198.431 110.755 198.126C109.78 197.822 109.039 197.22 108.51 196.337C106.923 193.736 107.064 189.072 107.146 185.715C107.182 184.989 107.193 184.343 107.193 183.791C108.381 183.56 109.568 183.34 110.755 183.128V183.129Z" fill="#999999"/>
<path d="M118.271 182.503C119.737 182.354 121.202 182.219 122.666 182.099C123.533 183.794 124.399 185.495 125.265 187.201C126.142 185.431 127.019 183.667 127.895 181.908C129.442 181.968 130.986 182.043 132.529 182.135C132.397 188.335 132.265 194.535 132.133 200.735C130.769 200.548 129.403 200.375 128.036 200.214C127.911 197.527 127.787 194.839 127.662 192.153C126.925 193.375 126.189 194.603 125.452 195.833C124.711 194.585 123.97 193.34 123.228 192.1C123.146 194.98 123.064 197.859 122.982 200.739C121.663 200.568 120.342 200.41 119.021 200.262C118.77 194.342 118.52 188.422 118.271 182.503Z" fill="#999999"/>
<path d="M62.1924 182.874C65.8089 182.174 69.4369 181.561 73.0712 181.036V185.969C70.9462 186.417 68.8228 186.896 66.7034 187.404C66.6839 188.35 66.6637 189.296 66.6442 190.242C68.2791 189.733 69.9165 189.242 71.5546 188.768V192.385C70.0664 192.646 68.5789 192.921 67.0931 193.211C67.14 194.039 67.1878 194.866 67.2348 195.694C68.6737 195.302 70.1133 194.922 71.5546 194.558C71.1836 196.049 70.8125 197.541 70.4415 199.033C68.2548 199.49 66.0714 199.979 63.8913 200.5C63.325 194.622 62.7587 188.745 62.1924 182.871V182.874Z" fill="#999999"/>
<path d="M73.1309 184.283C74.5414 184.131 75.9527 183.992 77.3648 183.867C77.2975 187.706 77.2303 191.544 77.163 195.383C78.8482 195.075 80.5349 194.787 82.2225 194.517C82.1431 195.853 82.0637 197.19 81.9851 198.526C79.216 198.716 76.4857 198.941 73.783 199.189C73.5659 194.22 73.3488 189.251 73.1309 184.283V184.283Z" fill="#999999"/>
<path d="M77.5311 181.551C79.1733 181.128 80.8163 180.723 82.4601 180.337C83.5611 182.26 84.6629 184.192 85.7648 186.132C86.835 184.068 87.906 182.013 88.9763 179.963C90.6144 179.768 92.2525 179.591 93.8915 179.432C91.9277 182.83 89.9638 186.254 88.0008 189.703C88.013 192.588 88.0243 195.473 88.0365 198.358C86.4777 198.485 84.9198 198.629 83.3626 198.788C83.3505 195.83 83.3391 192.87 83.327 189.912C81.3931 187.1 79.4609 184.313 77.5303 181.551H77.5311Z" fill="#999999"/>
<path d="M101.546 186.413C100.614 186.902 99.6813 187.396 98.7488 187.896C98.7488 187.895 96.9989 185.445 95.6419 186.597C94.2849 187.74 95.8444 189.044 97.5587 189.643C98.535 189.996 99.273 190.577 99.7607 191.369C100.248 192.16 100.475 193.009 100.44 193.937C100.404 194.852 100.071 195.681 99.4634 196.44C98.8566 197.186 97.9395 197.698 96.7137 197.995C94.8682 198.413 92.8209 197.716 90.7744 195.722C91.4444 194.821 92.1152 193.924 92.786 193.029C92.786 193.026 95.2741 196.223 96.6311 195.107C97.9881 193.965 96.3694 192.74 94.7142 192.069C93.3929 191.51 92.5001 190.768 92.0123 189.828C91.536 188.889 91.3812 187.919 91.5603 186.915C91.7385 185.912 92.1436 185.033 92.7982 184.302C93.4528 183.561 94.2622 183.124 95.2149 182.996C98.9887 182.591 100.013 184.162 101.548 186.414L101.546 186.413Z" fill="#999999"/>
<path d="M101.605 180.002C103.32 180.032 105.033 180.082 106.747 180.151C106.636 186.18 106.525 192.208 106.414 198.237C105.339 198.195 104.264 198.162 103.189 198.135C102.662 192.089 102.134 186.045 101.606 180.003L101.605 180.002Z" fill="#999999"/>
<path d="M110.909 183.104C110.909 183.422 110.886 183.937 110.838 184.639C110.779 185.481 110.731 186.453 110.695 187.567C110.66 188.669 110.672 189.75 110.743 190.823C110.814 191.885 110.981 192.787 111.231 193.518C111.493 194.25 111.897 194.662 112.444 194.78C112.991 194.839 113.394 194.574 113.656 193.981C113.917 193.378 114.083 192.602 114.143 191.632C114.202 190.662 114.214 189.665 114.166 188.627C114.118 187.578 114.059 186.646 113.988 185.83C113.929 185.098 113.893 184.579 113.893 184.261C115.097 184.555 116.3 184.859 117.503 185.171C117.503 187.532 117.527 189.859 117.587 192.155C117.646 194.427 117.67 196.731 117.67 199.068C116.704 198.983 115.739 198.904 114.773 198.831C114.765 198.493 114.757 198.156 114.749 197.819C113.17 198.31 111.898 198.406 110.911 198.102C109.924 197.798 109.175 197.196 108.64 196.312C107.034 193.711 107.177 189.047 107.26 185.691C107.296 184.964 107.308 184.319 107.308 183.767C108.51 183.536 109.711 183.315 110.912 183.104L110.909 183.104Z" fill="#999999"/>
<path d="M118.511 182.479C119.994 182.33 121.476 182.195 122.957 182.075C123.834 183.77 124.71 185.47 125.586 187.176C126.474 185.407 127.361 183.643 128.247 181.884C129.812 181.943 131.374 182.018 132.935 182.111C132.801 188.311 132.668 194.51 132.534 200.711C131.153 200.524 129.772 200.351 128.389 200.189C128.263 197.503 128.137 194.815 128.011 192.128C127.266 193.351 126.521 194.579 125.775 195.808C125.026 194.56 124.276 193.316 123.526 192.075C123.443 194.955 123.36 197.835 123.277 200.715C121.943 200.544 120.607 200.385 119.27 200.238C119.017 194.317 118.764 188.398 118.511 182.479V182.479Z" fill="#999999"/>
<path d="M62.1924 182.874C65.8089 182.174 69.4369 181.561 73.0712 181.036V185.969C70.9462 186.417 68.8228 186.896 66.7034 187.404C66.6839 188.35 66.6637 189.296 66.6442 190.242C68.2791 189.733 69.9165 189.242 71.5546 188.768V192.385C70.0664 192.646 68.5789 192.921 67.0931 193.211C67.14 194.039 67.1878 194.866 67.2348 195.694C68.6737 195.302 70.1133 194.922 71.5546 194.558C71.1836 196.049 70.8125 197.541 70.4415 199.033C68.2548 199.49 66.0714 199.979 63.8913 200.5C63.325 194.622 62.7587 188.745 62.1924 182.871V182.874Z" fill="#FBB03B"/>
<path d="M73.1309 184.283C74.5414 184.131 75.9527 183.992 77.3648 183.867C77.2975 187.706 77.2303 191.544 77.163 195.383C78.8482 195.075 80.5349 194.787 82.2225 194.517C82.1431 195.853 82.0637 197.19 81.9851 198.526C79.216 198.716 76.4857 198.941 73.783 199.189C73.5659 194.22 73.3488 189.251 73.1309 184.283V184.283Z" fill="#FBB03B"/>
<path d="M77.5311 181.551C79.1733 181.128 80.8163 180.723 82.4601 180.337C83.5611 182.26 84.6629 184.192 85.7648 186.132C86.835 184.068 87.906 182.013 88.9763 179.963C90.6144 179.768 92.2525 179.591 93.8915 179.432C91.9277 182.83 89.9638 186.254 88.0008 189.703C88.013 192.588 88.0243 195.473 88.0365 198.358C86.4777 198.485 84.9198 198.629 83.3626 198.788C83.3505 195.83 83.3391 192.87 83.327 189.912C81.3931 187.1 79.4609 184.313 77.5303 181.551H77.5311Z" fill="#FBB03B"/>
<path d="M101.546 186.413C100.614 186.902 99.6813 187.396 98.7488 187.896C98.7488 187.895 96.9989 185.445 95.6419 186.597C94.2849 187.74 95.8444 189.044 97.5587 189.643C98.535 189.996 99.273 190.577 99.7607 191.369C100.248 192.16 100.475 193.009 100.44 193.937C100.404 194.852 100.071 195.681 99.4634 196.44C98.8566 197.186 97.9395 197.698 96.7137 197.995C94.8682 198.413 92.8209 197.716 90.7744 195.722C91.4444 194.821 92.1152 193.924 92.786 193.029C92.786 193.026 95.2741 196.223 96.6311 195.107C97.9881 193.965 96.3694 192.74 94.7142 192.069C93.3929 191.51 92.5001 190.768 92.0123 189.828C91.536 188.889 91.3812 187.919 91.5603 186.915C91.7385 185.912 92.1436 185.033 92.7982 184.302C93.4528 183.561 94.2622 183.124 95.2149 182.996C98.9887 182.591 100.013 184.162 101.548 186.414L101.546 186.413Z" fill="#FBB03B"/>
<path d="M101.605 180.002C103.32 180.032 105.033 180.082 106.747 180.151C106.636 186.18 106.525 192.208 106.414 198.237C105.339 198.195 104.264 198.162 103.189 198.135C102.662 192.089 102.134 186.045 101.606 180.003L101.605 180.002Z" fill="#FBB03B"/>
<path d="M110.909 183.104C110.909 183.422 110.886 183.937 110.838 184.639C110.779 185.481 110.731 186.453 110.695 187.567C110.66 188.669 110.672 189.75 110.743 190.823C110.814 191.885 110.981 192.787 111.231 193.518C111.493 194.25 111.897 194.662 112.444 194.78C112.991 194.839 113.394 194.574 113.656 193.981C113.917 193.378 114.083 192.602 114.143 191.632C114.202 190.662 114.214 189.665 114.166 188.627C114.118 187.578 114.059 186.646 113.988 185.83C113.929 185.098 113.893 184.579 113.893 184.261C115.097 184.555 116.3 184.859 117.503 185.171C117.503 187.532 117.527 189.859 117.587 192.155C117.646 194.427 117.67 196.731 117.67 199.068C116.704 198.983 115.739 198.904 114.773 198.831C114.765 198.493 114.757 198.156 114.749 197.819C113.17 198.31 111.898 198.406 110.911 198.102C109.924 197.798 109.175 197.196 108.64 196.312C107.034 193.711 107.177 189.047 107.26 185.691C107.296 184.964 107.308 184.319 107.308 183.767C108.51 183.536 109.711 183.315 110.912 183.104L110.909 183.104Z" fill="#FBB03B"/>
<path d="M118.511 182.479C119.994 182.33 121.476 182.195 122.957 182.075C123.834 183.77 124.71 185.47 125.586 187.176C126.474 185.407 127.361 183.643 128.247 181.884C129.812 181.943 131.374 182.018 132.935 182.111C132.801 188.311 132.668 194.51 132.534 200.711C131.153 200.524 129.772 200.351 128.389 200.189C128.263 197.503 128.137 194.815 128.011 192.128C127.266 193.351 126.521 194.579 125.775 195.808C125.026 194.56 124.276 193.316 123.526 192.075C123.443 194.955 123.36 197.835 123.277 200.715C121.943 200.544 120.607 200.385 119.27 200.238C119.017 194.317 118.764 188.398 118.511 182.479V182.479Z" fill="#FBB03B"/>
<defs>
<filter id="filter0_i_1756_13369" x="31.0479" y="52.7471" width="46" height="47.085" filterUnits="userSpaceOnUse" color-interpolation-filters="sRGB">
<feFlood flood-opacity="0" result="BackgroundImageFix"/>
<feBlend mode="normal" in="SourceGraphic" in2="BackgroundImageFix" result="shape"/>
<feColorMatrix in="SourceAlpha" type="matrix" values="0 0 0 0 0 0 0 0 0 0 0 0 0 0 0 0 0 0 127 0" result="hardAlpha"/>
<feOffset dx="1" dy="2"/>
<feGaussianBlur stdDeviation="5"/>
<feComposite in2="hardAlpha" operator="arithmetic" k2="-1" k3="1"/>
<feColorMatrix type="matrix" values="0 0 0 0 0 0 0 0 0 0 0 0 0 0 0 0 0 0 0.3 0"/>
<feBlend mode="normal" in2="shape" result="effect1_innerShadow_1756_13369"/>
</filter>
<filter id="filter1_i_1756_13369" x="75.0479" y="74.3154" width="14" height="17.6846" filterUnits="userSpaceOnUse" color-interpolation-filters="sRGB">
<feFlood flood-opacity="0" result="BackgroundImageFix"/>
<feBlend mode="normal" in="SourceGraphic" in2="BackgroundImageFix" result="shape"/>
<feColorMatrix in="SourceAlpha" type="matrix" values="0 0 0 0 0 0 0 0 0 0 0 0 0 0 0 0 0 0 127 0" result="hardAlpha"/>
<feOffset dx="1" dy="2"/>
<feGaussianBlur stdDeviation="5"/>
<feComposite in2="hardAlpha" operator="arithmetic" k2="-1" k3="1"/>
<feColorMatrix type="matrix" values="0 0 0 0 0 0 0 0 0 0 0 0 0 0 0 0 0 0 0.3 0"/>
<feBlend mode="normal" in2="shape" result="effect1_innerShadow_1756_13369"/>
</filter>
<filter id="filter2_ddi_1756_13369" x="138.64" y="145.684" width="45.2646" height="98.7852" filterUnits="userSpaceOnUse" color-interpolation-filters="sRGB">
<feFlood flood-opacity="0" result="BackgroundImageFix"/>
<feColorMatrix in="SourceAlpha" type="matrix" values="0 0 0 0 0 0 0 0 0 0 0 0 0 0 0 0 0 0 127 0" result="hardAlpha"/>
<feOffset dx="-1" dy="3"/>
<feGaussianBlur stdDeviation="1"/>
<feColorMatrix type="matrix" values="0 0 0 0 0 0 0 0 0 0 0 0 0 0 0 0 0 0 0.25 0"/>
<feBlend mode="normal" in2="BackgroundImageFix" result="effect1_dropShadow_1756_13369"/>
<feColorMatrix in="SourceAlpha" type="matrix" values="0 0 0 0 0 0 0 0 0 0 0 0 0 0 0 0 0 0 127 0" result="hardAlpha"/>
<feOffset dx="-1"/>
<feColorMatrix type="matrix" values="0 0 0 0 0 0 0 0 0 0 0 0 0 0 0 0 0 0 0.25 0"/>
<feBlend mode="normal" in2="effect1_dropShadow_1756_13369" result="effect2_dropShadow_1756_13369"/>
<feBlend mode="normal" in="SourceGraphic" in2="effect2_dropShadow_1756_13369" result="shape"/>
<feColorMatrix in="SourceAlpha" type="matrix" values="0 0 0 0 0 0 0 0 0 0 0 0 0 0 0 0 0 0 127 0" result="hardAlpha"/>
<feOffset dx="-3" dy="-4"/>
<feGaussianBlur stdDeviation="2"/>
<feComposite in2="hardAlpha" operator="arithmetic" k2="-1" k3="1"/>
<feColorMatrix type="matrix" values="0 0 0 0 0 0 0 0 0 0 0 0 0 0 0 0 0 0 0.15 0"/>
<feBlend mode="normal" in2="shape" result="effect3_innerShadow_1756_13369"/>
</filter>
<filter id="filter3_ddi_1756_13369" x="137.5" y="135.5" width="46.2646" height="99.7852" filterUnits="userSpaceOnUse" color-interpolation-filters="sRGB">
<feFlood flood-opacity="0" result="BackgroundImageFix"/>
<feColorMatrix in="SourceAlpha" type="matrix" values="0 0 0 0 0 0 0 0 0 0 0 0 0 0 0 0 0 0 127 0" result="hardAlpha"/>
<feOffset dx="-1" dy="3"/>
<feGaussianBlur stdDeviation="1"/>
<feColorMatrix type="matrix" values="0 0 0 0 0 0 0 0 0 0 0 0 0 0 0 0 0 0 0.25 0"/>
<feBlend mode="normal" in2="BackgroundImageFix" result="effect1_dropShadow_1756_13369"/>
<feColorMatrix in="SourceAlpha" type="matrix" values="0 0 0 0 0 0 0 0 0 0 0 0 0 0 0 0 0 0 127 0" result="hardAlpha"/>
<feOffset dx="-1"/>
<feColorMatrix type="matrix" values="0 0 0 0 0 0 0 0 0 0 0 0 0 0 0 0 0 0 0.25 0"/>
<feBlend mode="normal" in2="effect1_dropShadow_1756_13369" result="effect2_dropShadow_1756_13369"/>
<feBlend mode="normal" in="SourceGraphic" in2="effect2_dropShadow_1756_13369" result="shape"/>
<feColorMatrix in="SourceAlpha" type="matrix" values="0 0 0 0 0 0 0 0 0 0 0 0 0 0 0 0 0 0 127 0" result="hardAlpha"/>
<feOffset dx="-3" dy="-4"/>
<feGaussianBlur stdDeviation="2"/>
<feComposite in2="hardAlpha" operator="arithmetic" k2="-1" k3="1"/>
<feColorMatrix type="matrix" values="0 0 0 0 0 0 0 0 0 0 0 0 0 0 0 0 0 0 0.15 0"/>
<feBlend mode="normal" in2="shape" result="effect3_innerShadow_1756_13369"/>
</filter>
<linearGradient id="paint0_linear_1756_13369" x1="110.155" y1="185.426" x2="11.2875" y2="124.238" gradientUnits="userSpaceOnUse">
<stop stop-color="#95B4BF"/>
<stop offset="1" stop-color="#92AFB9"/>
</linearGradient>
<radialGradient id="paint1_radial_1756_13369" cx="0" cy="0" r="1" gradientUnits="userSpaceOnUse" gradientTransform="translate(93.5476 225.5) rotate(156.801) scale(34.271 89.3891)">
<stop stop-color="#7E9CA7"/>
<stop offset="0.989583" stop-color="#95B4BF"/>
</radialGradient>
<linearGradient id="paint2_linear_1756_13369" x1="66.4079" y1="51.626" x2="48.9005" y2="98.9452" gradientUnits="userSpaceOnUse">
<stop offset="0.21091" stop-color="#E4D7D1"/>
<stop offset="0.614167" stop-color="#E4D6CF"/>
<stop offset="0.972931" stop-color="#95B4BF"/>
</linearGradient>
<linearGradient id="paint3_linear_1756_13369" x1="82.048" y1="74.0005" x2="81.0218" y2="87.9985" gradientUnits="userSpaceOnUse">
<stop stop-color="#E4D7D1"/>
<stop offset="0.674035" stop-color="#E4D6CF"/>
<stop offset="0.972931" stop-color="#95B4BF"/>
</linearGradient>
<linearGradient id="paint4_linear_1756_13369" x1="162.272" y1="149.684" x2="162.272" y2="239.469" gradientUnits="userSpaceOnUse">
<stop offset="0.21086" stop-color="#95B4BF"/>
<stop offset="0.730663" stop-color="#92AFB9"/>
</linearGradient>
<linearGradient id="paint5_linear_1756_13369" x1="161.632" y1="140" x2="161.632" y2="229.785" gradientUnits="userSpaceOnUse">
<stop offset="0.21086" stop-color="#95B4BF"/>
<stop offset="0.730663" stop-color="#92AFB9"/>
</linearGradient>
<radialGradient id="paint6_radial_1756_13369" cx="0" cy="0" r="1" gradientUnits="userSpaceOnUse" gradientTransform="translate(117.772 186.774) rotate(157.015) scale(3.13235 8.11189)">
<stop stop-color="#7E9CA7"/>
<stop offset="0.99" stop-color="#95B4BF"/>
</radialGradient>
<linearGradient id="paint7_linear_1756_13369" x1="115.634" y1="171.114" x2="114.064" y2="175.403" gradientUnits="userSpaceOnUse">
<stop offset="0.21" stop-color="#E4D7D1"/>
<stop offset="0.61" stop-color="#E4D6CF"/>
<stop offset="0.97" stop-color="#95B4BF"/>
</linearGradient>
<linearGradient id="paint8_linear_1756_13369" x1="116.965" y1="173.089" x2="116.874" y2="174.354" gradientUnits="userSpaceOnUse">
<stop stop-color="#E4D7D1"/>
<stop offset="0.67" stop-color="#E4D6CF"/>
<stop offset="0.97" stop-color="#95B4BF"/>
</linearGradient>
<linearGradient id="paint9_linear_1756_13369" x1="124.253" y1="179.928" x2="124.253" y2="188.045" gradientUnits="userSpaceOnUse">
<stop offset="0.21" stop-color="#95B4BF"/>
<stop offset="0.73" stop-color="#92AFB9"/>
</linearGradient>
</defs>
</svg>
