<svg width="173" height="168" viewBox="0 0 173 168" fill="none" xmlns="http://www.w3.org/2000/svg">
<mask id="mask0_1352_14648" style="mask-type:alpha" maskUnits="userSpaceOnUse" x="0" y="-5" width="173" height="173">
<rect width="173" height="173" transform="matrix(-1 0 0 1 173 -5)" fill="#C4C4C4"/>
</mask>
<g mask="url(#mask0_1352_14648)">
<g filter="url(#filter0_i_1352_14648)">
<path d="M78.3044 285.652V272.257C78.9743 270.917 73.6163 269.578 72.9465 263.55C22.7155 242.788 46.1566 170.455 61.5608 146.344C58.8818 145.005 57.5424 143.665 55.533 140.317C50.8449 139.647 16.6878 138.307 16.018 104.82C16.018 98.7923 14.9317 81.6109 37.0334 57.5C45.7402 49.6723 47.1728 49.9008 48.8356 55.2588C54.8633 74.6814 56.8725 82.0486 60.891 87.4066C62.4767 85.8209 62.5335 70.1399 66.5335 74.6399C73.0335 85.6399 73.0335 81.6399 73.0335 81.1399C73.0335 81.1399 69.5977 37.8453 117.82 34.4966C117.15 29.8084 110.452 8.37645 115.81 -1C115.81 -1 135.233 13.0647 124.517 35.8361C128.535 37.1756 131.884 37.1756 135.233 39.8546C135.233 39.8546 133.936 14.7294 139.921 3.01847C140.948 1.00923 143.659 -5.01849 147.288 4.35797C155.325 25.1201 147.43 36.5226 141.261 44.5428C147.288 45.8823 166.041 75.3512 151.307 94.7738C153.986 95.4436 157.335 108.169 152.646 111.518C152.646 111.518 180.02 191.887 177.427 232.072C176.088 252.834 159.344 268.908 159.344 268.908V286.322C151.977 289.67 129.875 291.01 121.838 286.322V270.248H117.15V284.312C104.425 290.34 78.3044 285.652 78.3044 285.652Z" fill="url(#paint0_radial_1352_14648)"/>
</g>
<path d="M78.3044 285.652V272.257C78.9743 270.917 73.6163 269.578 72.9465 263.55C22.7155 242.788 46.1566 170.455 61.5608 146.344C58.8818 145.005 57.5424 143.665 55.533 140.317C50.8449 139.647 16.6878 138.307 16.018 104.82C16.018 98.7923 14.9317 81.6109 37.0334 57.5C45.7402 49.6723 47.1728 49.9008 48.8356 55.2588C54.8633 74.6814 56.8725 82.0486 60.891 87.4066C62.4767 85.8209 62.5335 70.1399 66.5335 74.6399C73.0335 85.6399 73.0335 81.6399 73.0335 81.1399C73.0335 81.1399 69.5977 37.8453 117.82 34.4966C117.15 29.8084 110.452 8.37645 115.81 -1C115.81 -1 135.233 13.0647 124.517 35.8361C128.535 37.1756 131.884 37.1756 135.233 39.8546C135.233 39.8546 133.936 14.7294 139.921 3.01847C140.948 1.00923 143.659 -5.01849 147.288 4.35797C155.325 25.1201 147.43 36.5226 141.261 44.5428C147.288 45.8823 166.041 75.3512 151.307 94.7738C153.986 95.4436 157.335 108.169 152.646 111.518C152.646 111.518 180.02 191.887 177.427 232.072C176.088 252.834 159.344 268.908 159.344 268.908V286.322C151.977 289.67 129.875 291.01 121.838 286.322V270.248H117.15V284.312C104.425 290.34 78.3044 285.652 78.3044 285.652Z" stroke="#191715" stroke-linejoin="round"/>
<path d="M98.8213 48.7059C98.8213 48.7059 91.2711 42.0448 85.0856 49.1233" stroke="black"/>
<path d="M48.5337 54.2032C54.0337 73 58.0337 82.5 61.0337 87.5C48.8737 99.7054 17.0337 94 17.0337 94C19.3137 76.4547 31.5337 63 40.5337 54C43.0337 52 47.0137 48.8633 48.5337 54.2032Z" fill="url(#paint1_linear_1352_14648)" stroke="#191715" stroke-linejoin="round"/>
<path d="M67.0711 73.5927C69.9125 79.1909 71.7928 81.1014 73.0338 82.5C69.913 87.0618 61.0338 87.5 61.0338 87.5C61.5338 82 62.222 77.3657 64.5338 74C65.2054 73.2226 66.2773 71.9999 67.0711 73.5927Z" fill="url(#paint2_linear_1352_14648)" stroke="#191715" stroke-linejoin="round"/>
<path d="M120.499 58.6075C120.499 58.6075 119.829 48.5613 110.453 49.231" stroke="black"/>
<path d="M122.008 25.1201C122.008 28.7921 121.783 31.2591 121.432 32.7945C121.256 33.5658 121.056 34.0643 120.863 34.3583C120.672 34.6494 120.542 34.6664 120.499 34.6664C120.501 34.6664 120.502 34.6664 120.502 34.6663C120.502 34.665 120.369 34.641 120.158 34.2456C119.95 33.8554 119.745 33.2418 119.567 32.3982C119.213 30.7194 118.989 28.2457 118.989 25.1201C118.989 23.5233 118.862 21.9644 118.726 20.5362C118.697 20.2417 118.669 19.9536 118.641 19.6722C118.534 18.5787 118.436 17.5864 118.403 16.7156C118.361 15.6064 118.432 14.7914 118.664 14.2663C118.774 14.0171 118.913 13.8525 119.079 13.7459C119.247 13.6386 119.483 13.5647 119.829 13.5647C119.889 13.5647 120.065 13.6006 120.318 13.9329C120.569 14.2622 120.847 14.8247 121.104 15.7148C121.616 17.4912 122.008 20.4515 122.008 25.1201Z" fill="#6A8490" stroke="#191715"/>
<path d="M142.347 25.8985L142.359 25.8449V25.7899C142.359 24.193 142.236 22.7179 142.105 21.3926C142.077 21.1075 142.048 20.8304 142.021 20.5612C141.919 19.5689 141.828 18.6825 141.799 17.8883C141.763 16.8766 141.831 16.0863 142.071 15.4838C142.299 14.9103 142.692 14.4816 143.387 14.1973C143.883 13.9947 144.271 13.9446 144.573 13.9839C144.868 14.0222 145.115 14.1492 145.334 14.3656C145.795 14.8227 146.128 15.6843 146.318 16.9035C146.694 19.3116 146.458 22.708 146.124 25.7211C145.468 29.6351 143.28 33.9136 141.092 37.2355C140 38.8932 138.919 40.2971 138.048 41.2813C137.636 41.7469 137.278 42.1109 136.992 42.3619C137.029 42.2162 137.077 42.0471 137.136 41.8535C137.399 40.9968 137.847 39.7972 138.392 38.338C138.441 38.2062 138.491 38.0724 138.542 37.9364C139.759 34.6732 141.37 30.2899 142.347 25.8985Z" fill="#6A8490" stroke="#191715"/>
<path d="M55.5332 140.317C55.5332 140.317 111.122 138.977 114.471 95.4435C114.471 95.4435 118.489 94.7738 121.838 100.132" stroke="#191715"/>
<path d="M51.9662 104.382C51.4385 106.294 50.5643 108.001 49.6018 109.212C48.6163 110.452 47.6591 111.036 46.9285 111.036C46.1978 111.036 45.5627 110.452 45.2618 109.212C44.9678 108.001 45.036 106.294 45.5637 104.382C46.0914 102.47 46.9656 100.763 47.9281 99.5516C48.9136 98.3116 49.8708 97.7281 50.6014 97.7281C51.3321 97.7281 51.9672 98.3116 52.2681 99.5516C52.5621 100.763 52.4939 102.47 51.9662 104.382Z" fill="#648191" stroke="#191715"/>
<path d="M21.1766 111.912C21.9073 111.912 22.5423 111.329 22.8433 110.088C23.1372 108.877 23.0691 107.17 22.5414 105.258C22.0198 103.369 20.8986 101.322 19.6641 99.7562C19.047 98.9733 18.4185 98.3319 17.8437 97.8937C17.4642 97.6043 17.1386 97.4261 16.8696 97.3364L16.96 107.52C17.5669 108.85 18.3159 109.966 19.0778 110.742C19.8667 111.545 20.5922 111.912 21.1766 111.912Z" fill="#648191" stroke="black"/>
<path d="M112.895 76.5998C112.122 80.8602 110.388 84.6933 108.236 87.4446C106.075 90.207 103.566 91.7987 101.212 91.7987C98.8586 91.7987 96.9274 90.207 95.7699 87.4446C94.6171 84.6933 94.2748 80.8602 95.0483 76.5998C95.8218 72.3394 97.5558 68.5063 99.7077 65.755C101.868 62.9926 104.377 61.4009 106.731 61.4009C109.085 61.4009 111.016 62.9926 112.174 65.755C113.326 68.5063 113.669 72.3394 112.895 76.5998Z" fill="white" stroke="black"/>
<path d="M86.2778 73.3963C86.0584 77.7172 85.3267 81.34 84.3175 83.8617C83.8118 85.1252 83.2498 86.0782 82.6762 86.704C82.1095 87.3222 81.5714 87.5829 81.064 87.5829C80.5502 87.5829 79.9361 87.2585 79.3091 86.5181C78.6938 85.7914 78.1205 84.7257 77.6659 83.4015C76.7574 80.7545 76.3479 77.1461 76.9681 73.3419C77.5945 69.4995 78.6633 66.5632 79.8928 64.6074C81.1331 62.6344 82.4483 61.78 83.5822 61.78C84.6888 61.78 85.4883 62.5304 85.9497 64.4814C86.4092 66.4245 86.4816 69.3811 86.2778 73.3963Z" fill="white" stroke="black"/>
<ellipse rx="4.01848" ry="6.02773" transform="matrix(1 0 -0.151951 0.988388 101.5 82.6484)" fill="black"/>
<ellipse rx="3.56674" ry="5.35011" transform="matrix(1 0 -0.0716715 0.997428 82.2551 79.3481)" fill="black"/>
<ellipse rx="0.736722" ry="1.44665" transform="matrix(1 0 -0.0716715 0.997428 81.9197 76.7941)" fill="white"/>
<ellipse rx="1.15754" ry="1.44665" transform="matrix(1 0 -0.0716715 0.997428 102.337 80.8126)" fill="white"/>
</g>
<defs>
<filter id="filter0_i_1352_14648" x="15.5093" y="-1.5" width="163.591" height="293.356" filterUnits="userSpaceOnUse" color-interpolation-filters="sRGB">
<feFlood flood-opacity="0" result="BackgroundImageFix"/>
<feBlend mode="normal" in="SourceGraphic" in2="BackgroundImageFix" result="shape"/>
<feColorMatrix in="SourceAlpha" type="matrix" values="0 0 0 0 0 0 0 0 0 0 0 0 0 0 0 0 0 0 127 0" result="hardAlpha"/>
<feOffset dx="1" dy="2"/>
<feGaussianBlur stdDeviation="5"/>
<feComposite in2="hardAlpha" operator="arithmetic" k2="-1" k3="1"/>
<feColorMatrix type="matrix" values="0 0 0 0 0 0 0 0 0 0 0 0 0 0 0 0 0 0 0.3 0"/>
<feBlend mode="normal" in2="shape" result="effect1_innerShadow_1352_14648"/>
</filter>
<radialGradient id="paint0_radial_1352_14648" cx="0" cy="0" r="1" gradientUnits="userSpaceOnUse" gradientTransform="translate(79.0334 223.5) rotate(156.801) scale(34.271 89.3891)">
<stop stop-color="#7E9CA7"/>
<stop offset="0.989583" stop-color="#95B4BF"/>
</radialGradient>
<linearGradient id="paint1_linear_1352_14648" x1="51.8938" y1="49.6262" x2="34.3863" y2="96.9455" gradientUnits="userSpaceOnUse">
<stop offset="0.21091" stop-color="#E4D7D1"/>
<stop offset="0.614167" stop-color="#E4D6CF"/>
<stop offset="0.972931" stop-color="#95B4BF"/>
</linearGradient>
<linearGradient id="paint2_linear_1352_14648" x1="67.5338" y1="72" x2="66.5077" y2="85.9981" gradientUnits="userSpaceOnUse">
<stop stop-color="#E4D7D1"/>
<stop offset="0.674035" stop-color="#E4D6CF"/>
<stop offset="0.972931" stop-color="#95B4BF"/>
</linearGradient>
</defs>
</svg>
