<svg width="1467" height="310" viewBox="0 0 1467 310" fill="none" xmlns="http://www.w3.org/2000/svg">
<mask id="path-1-inside-1_1296_9953" fill="white">
<path fill-rule="evenodd" clip-rule="evenodd" d="M0 0H1467V125C1450.43 125 1437 138.431 1437 155C1437 171.569 1450.43 185 1467 185V310H0V185C16.5685 185 30 171.569 30 155C30 138.431 16.5685 125 0 125V0Z"/>
</mask>
<path fill-rule="evenodd" clip-rule="evenodd" d="M0 0H1467V125C1450.43 125 1437 138.431 1437 155C1437 171.569 1450.43 185 1467 185V310H0V185C16.5685 185 30 171.569 30 155C30 138.431 16.5685 125 0 125V0Z" fill="#E26552"/>
<path d="M1467 0H1472V-5H1467V0ZM0 0V-5H-5V0H0ZM1467 125V130H1472V125H1467ZM1467 185H1472V180H1467V185ZM1467 310V315H1472V310H1467ZM0 310H-5V315H0V310ZM0 185V180H-5V185H0ZM0 125H-5V130H0V125ZM1467 -5H0V5H1467V-5ZM1472 125V0H1462V125H1472ZM1442 155C1442 141.193 1453.19 130 1467 130V120C1447.67 120 1432 135.67 1432 155H1442ZM1467 180C1453.19 180 1442 168.807 1442 155H1432C1432 174.33 1447.67 190 1467 190V180ZM1472 310V185H1462V310H1472ZM0 315H1467V305H0V315ZM-5 185V310H5V185H-5ZM25 155C25 168.807 13.8071 180 0 180V190C19.33 190 35 174.33 35 155H25ZM0 130C13.8071 130 25 141.193 25 155H35C35 135.67 19.33 120 0 120V130ZM-5 0V125H5V0H-5Z" fill="black" mask="url(#path-1-inside-1_1296_9953)"/>
</svg>
