<svg width="1467" height="310" viewBox="0 0 1467 310" fill="none" xmlns="http://www.w3.org/2000/svg">
<mask id="path-1-inside-1_1296_9952" fill="white">
<path fill-rule="evenodd" clip-rule="evenodd" d="M0 0H1467V125C1450.43 125 1437 138.431 1437 155C1437 171.569 1450.43 185 1467 185V310H0V185C16.5685 185 30 171.569 30 155C30 138.431 16.5685 125 0 125V0Z"/>
</mask>
<path fill-rule="evenodd" clip-rule="evenodd" d="M0 0H1467V125C1450.43 125 1437 138.431 1437 155C1437 171.569 1450.43 185 1467 185V310H0V185C16.5685 185 30 171.569 30 155C30 138.431 16.5685 125 0 125V0Z" fill="#E26552"/>
<path d="M1467 0H1472V-5H1467V0ZM0 0V-5H-5V0H0ZM1467 125V130H1472V125H1467ZM1467 185H1472V180H1467V185ZM1467 310V315H1472V310H1467ZM0 310H-5V315H0V310ZM0 185V180H-5V185H0ZM0 125H-5V130H0V125ZM1467 -5H0V5H1467V-5ZM1472 125V0H1462V125H1472ZM1442 155C1442 141.193 1453.19 130 1467 130V120C1447.67 120 1432 135.67 1432 155H1442ZM1467 180C1453.19 180 1442 168.807 1442 155H1432C1432 174.33 1447.67 190 1467 190V180ZM1472 310V185H1462V310H1472ZM0 315H1467V305H0V315ZM-5 185V310H5V185H-5ZM25 155C25 168.807 13.8071 180 0 180V190C19.33 190 35 174.33 35 155H25ZM0 130C13.8071 130 25 141.193 25 155H35C35 135.67 19.33 120 0 120V130ZM-5 0V125H5V0H-5Z" fill="black" mask="url(#path-1-inside-1_1296_9952)"/>
<path d="M433.605 128.44C432.485 128.44 431.338 128.347 430.165 128.16C429.018 128 427.911 127.76 426.845 127.44C425.805 127.12 424.871 126.72 424.045 126.24C423.458 125.92 423.045 125.507 422.805 125C422.565 124.467 422.471 123.933 422.525 123.4C422.605 122.867 422.805 122.4 423.125 122C423.471 121.573 423.898 121.307 424.405 121.2C424.938 121.067 425.525 121.16 426.165 121.48C427.258 122.093 428.445 122.547 429.725 122.84C431.031 123.133 432.325 123.28 433.605 123.28C435.551 123.28 436.938 122.987 437.765 122.4C438.591 121.787 439.005 121.027 439.005 120.12C439.005 119.347 438.711 118.733 438.125 118.28C437.538 117.827 436.511 117.44 435.045 117.12L430.525 116.16C427.965 115.627 426.058 114.72 424.805 113.44C423.578 112.133 422.965 110.427 422.965 108.32C422.965 106.987 423.245 105.773 423.805 104.68C424.365 103.587 425.151 102.64 426.165 101.84C427.178 101.04 428.378 100.427 429.765 100C431.178 99.5733 432.725 99.36 434.405 99.36C435.898 99.36 437.365 99.5467 438.805 99.92C440.245 100.267 441.511 100.787 442.605 101.48C443.138 101.8 443.498 102.213 443.685 102.72C443.898 103.2 443.965 103.693 443.885 104.2C443.831 104.68 443.631 105.107 443.285 105.48C442.965 105.853 442.551 106.093 442.045 106.2C441.538 106.307 440.925 106.187 440.205 105.84C439.325 105.387 438.391 105.053 437.405 104.84C436.418 104.627 435.405 104.52 434.365 104.52C433.245 104.52 432.285 104.667 431.485 104.96C430.711 105.253 430.111 105.667 429.685 106.2C429.285 106.733 429.085 107.347 429.085 108.04C429.085 108.813 429.365 109.44 429.925 109.92C430.485 110.4 431.458 110.787 432.845 111.08L437.365 112.04C439.978 112.6 441.925 113.507 443.205 114.76C444.485 115.987 445.125 117.613 445.125 119.64C445.125 120.973 444.858 122.187 444.325 123.28C443.791 124.347 443.018 125.267 442.005 126.04C440.991 126.813 439.778 127.413 438.365 127.84C436.951 128.24 435.365 128.44 433.605 128.44ZM458.19 128.44C456.056 128.44 454.19 128.027 452.59 127.2C451.016 126.347 449.803 125.147 448.95 123.6C448.096 122.053 447.67 120.227 447.67 118.12C447.67 116.547 447.91 115.133 448.39 113.88C448.87 112.627 449.563 111.56 450.47 110.68C451.403 109.8 452.523 109.133 453.83 108.68C455.136 108.2 456.59 107.96 458.19 107.96C459.016 107.96 459.896 108.067 460.83 108.28C461.763 108.467 462.683 108.8 463.59 109.28C464.123 109.52 464.483 109.867 464.67 110.32C464.883 110.747 464.963 111.2 464.91 111.68C464.856 112.133 464.683 112.547 464.39 112.92C464.123 113.267 463.776 113.507 463.35 113.64C462.923 113.747 462.443 113.667 461.91 113.4C461.403 113.107 460.87 112.893 460.31 112.76C459.776 112.627 459.27 112.56 458.79 112.56C457.99 112.56 457.283 112.693 456.67 112.96C456.056 113.2 455.536 113.56 455.11 114.04C454.71 114.493 454.39 115.067 454.15 115.76C453.936 116.453 453.83 117.253 453.83 118.16C453.83 119.92 454.256 121.307 455.11 122.32C455.99 123.307 457.216 123.8 458.79 123.8C459.27 123.8 459.776 123.747 460.31 123.64C460.843 123.507 461.376 123.293 461.91 123C462.443 122.733 462.923 122.667 463.35 122.8C463.776 122.933 464.11 123.187 464.35 123.56C464.616 123.907 464.763 124.32 464.79 124.8C464.843 125.253 464.763 125.707 464.55 126.16C464.363 126.587 464.016 126.92 463.51 127.16C462.603 127.613 461.696 127.933 460.79 128.12C459.883 128.333 459.016 128.44 458.19 128.44ZM476.781 128.44C474.674 128.44 472.834 128.027 471.261 127.2C469.714 126.373 468.514 125.187 467.661 123.64C466.807 122.093 466.381 120.267 466.381 118.16C466.381 116.587 466.621 115.173 467.101 113.92C467.581 112.667 468.274 111.6 469.181 110.72C470.114 109.813 471.221 109.133 472.501 108.68C473.781 108.2 475.207 107.96 476.781 107.96C478.887 107.96 480.714 108.373 482.261 109.2C483.834 110.027 485.047 111.2 485.901 112.72C486.781 114.24 487.221 116.053 487.221 118.16C487.221 119.76 486.967 121.187 486.461 122.44C485.981 123.693 485.287 124.773 484.381 125.68C483.474 126.587 482.367 127.28 481.061 127.76C479.781 128.213 478.354 128.44 476.781 128.44ZM476.781 123.92C477.661 123.92 478.421 123.707 479.061 123.28C479.701 122.853 480.207 122.227 480.581 121.4C480.954 120.547 481.141 119.467 481.141 118.16C481.141 116.213 480.741 114.787 479.941 113.88C479.141 112.947 478.087 112.48 476.781 112.48C475.927 112.48 475.167 112.68 474.501 113.08C473.861 113.48 473.354 114.107 472.981 114.96C472.634 115.787 472.461 116.853 472.461 118.16C472.461 120.107 472.861 121.56 473.661 122.52C474.461 123.453 475.501 123.92 476.781 123.92ZM493.935 135.56C492.949 135.56 492.189 135.293 491.655 134.76C491.149 134.253 490.895 133.493 490.895 132.48V111.08C490.895 110.093 491.149 109.347 491.655 108.84C492.189 108.307 492.922 108.04 493.855 108.04C494.842 108.04 495.589 108.307 496.095 108.84C496.602 109.347 496.855 110.093 496.855 111.08V113.8L496.415 112.24C496.815 110.96 497.615 109.933 498.815 109.16C500.042 108.36 501.442 107.96 503.015 107.96C504.722 107.96 506.215 108.373 507.495 109.2C508.802 110.027 509.815 111.2 510.535 112.72C511.255 114.24 511.615 116.053 511.615 118.16C511.615 120.267 511.255 122.093 510.535 123.64C509.815 125.187 508.815 126.373 507.535 127.2C506.255 128.027 504.749 128.44 503.015 128.44C501.469 128.44 500.095 128.067 498.895 127.32C497.695 126.547 496.882 125.547 496.455 124.32H496.935V132.48C496.935 133.493 496.669 134.253 496.135 134.76C495.629 135.293 494.895 135.56 493.935 135.56ZM501.215 123.92C502.069 123.92 502.815 123.707 503.455 123.28C504.122 122.853 504.629 122.227 504.975 121.4C505.349 120.547 505.535 119.467 505.535 118.16C505.535 116.213 505.135 114.787 504.335 113.88C503.535 112.947 502.495 112.48 501.215 112.48C500.362 112.48 499.602 112.68 498.935 113.08C498.295 113.48 497.789 114.107 497.415 114.96C497.042 115.787 496.855 116.853 496.855 118.16C496.855 120.107 497.255 121.56 498.055 122.52C498.855 123.453 499.909 123.92 501.215 123.92ZM518.429 128.36C517.416 128.36 516.643 128.093 516.109 127.56C515.576 127.027 515.309 126.267 515.309 125.28V111.08C515.309 110.093 515.563 109.347 516.069 108.84C516.603 108.307 517.336 108.04 518.269 108.04C519.229 108.04 519.963 108.307 520.469 108.84C520.976 109.347 521.229 110.093 521.229 111.08V113.16H520.829C521.149 111.56 521.856 110.32 522.949 109.44C524.043 108.56 525.456 108.067 527.189 107.96C527.856 107.907 528.363 108.08 528.709 108.48C529.083 108.853 529.283 109.48 529.309 110.36C529.363 111.187 529.189 111.84 528.789 112.32C528.416 112.8 527.776 113.093 526.869 113.2L525.949 113.28C524.429 113.413 523.296 113.853 522.549 114.6C521.829 115.347 521.469 116.427 521.469 117.84V125.28C521.469 126.267 521.203 127.027 520.669 127.56C520.163 128.093 519.416 128.36 518.429 128.36ZM534.834 128.32C533.847 128.32 533.087 128.04 532.554 127.48C532.047 126.893 531.794 126.08 531.794 125.04V111.36C531.794 110.293 532.047 109.48 532.554 108.92C533.087 108.333 533.847 108.04 534.834 108.04C535.794 108.04 536.527 108.333 537.034 108.92C537.567 109.48 537.834 110.293 537.834 111.36V125.04C537.834 126.08 537.58 126.893 537.074 127.48C536.567 128.04 535.82 128.32 534.834 128.32ZM534.834 104.76C533.714 104.76 532.847 104.507 532.234 104C531.647 103.467 531.354 102.72 531.354 101.76C531.354 100.773 531.647 100.027 532.234 99.52C532.847 98.9867 533.714 98.72 534.834 98.72C535.954 98.72 536.807 98.9867 537.394 99.52C537.98 100.027 538.274 100.773 538.274 101.76C538.274 102.72 537.98 103.467 537.394 104C536.807 104.507 535.954 104.76 534.834 104.76ZM556.709 128.32C555.722 128.32 554.962 128.04 554.429 127.48C553.922 126.893 553.669 126.08 553.669 125.04V111.36C553.669 110.293 553.922 109.48 554.429 108.92C554.962 108.333 555.722 108.04 556.709 108.04C557.669 108.04 558.402 108.333 558.909 108.92C559.442 109.48 559.709 110.293 559.709 111.36V125.04C559.709 126.08 559.455 126.893 558.949 127.48C558.442 128.04 557.695 128.32 556.709 128.32ZM556.709 104.76C555.589 104.76 554.722 104.507 554.109 104C553.522 103.467 553.229 102.72 553.229 101.76C553.229 100.773 553.522 100.027 554.109 99.52C554.722 98.9867 555.589 98.72 556.709 98.72C557.829 98.72 558.682 98.9867 559.269 99.52C559.855 100.027 560.149 100.773 560.149 101.76C560.149 102.72 559.855 103.467 559.269 104C558.682 104.507 557.829 104.76 556.709 104.76ZM571.452 128.44C569.078 128.44 567.305 127.787 566.132 126.48C564.958 125.147 564.372 123.173 564.372 120.56V102.52C564.372 101.507 564.625 100.747 565.132 100.24C565.665 99.7067 566.425 99.44 567.412 99.44C568.372 99.44 569.105 99.7067 569.612 100.24C570.145 100.747 570.412 101.507 570.412 102.52V120.32C570.412 121.413 570.638 122.227 571.092 122.76C571.572 123.267 572.198 123.52 572.972 123.52C573.185 123.52 573.385 123.507 573.572 123.48C573.758 123.453 573.958 123.44 574.172 123.44C574.598 123.387 574.892 123.52 575.052 123.84C575.238 124.133 575.332 124.733 575.332 125.64C575.332 126.44 575.172 127.053 574.852 127.48C574.532 127.88 574.038 128.147 573.372 128.28C573.105 128.307 572.798 128.333 572.452 128.36C572.105 128.413 571.772 128.44 571.452 128.44ZM596.504 128.44C594.797 128.44 593.291 128.027 591.984 127.2C590.704 126.373 589.704 125.187 588.984 123.64C588.264 122.093 587.904 120.267 587.904 118.16C587.904 116.053 588.264 114.24 588.984 112.72C589.704 111.2 590.704 110.027 591.984 109.2C593.291 108.373 594.797 107.96 596.504 107.96C598.051 107.96 599.411 108.333 600.584 109.08C601.784 109.827 602.597 110.8 603.024 112H602.584V102.52C602.584 101.507 602.837 100.747 603.344 100.24C603.851 99.7067 604.597 99.44 605.584 99.44C606.544 99.44 607.291 99.7067 607.824 100.24C608.357 100.747 608.624 101.507 608.624 102.52V125.28C608.624 126.267 608.357 127.027 607.824 127.56C607.317 128.093 606.584 128.36 605.624 128.36C604.664 128.36 603.917 128.093 603.384 127.56C602.877 127.027 602.624 126.267 602.624 125.28V122.56L603.064 124.12C602.691 125.427 601.891 126.48 600.664 127.28C599.464 128.053 598.077 128.44 596.504 128.44ZM598.304 123.92C599.184 123.92 599.944 123.707 600.584 123.28C601.224 122.853 601.731 122.227 602.104 121.4C602.477 120.547 602.664 119.467 602.664 118.16C602.664 116.213 602.264 114.787 601.464 113.88C600.664 112.947 599.611 112.48 598.304 112.48C597.451 112.48 596.691 112.68 596.024 113.08C595.384 113.48 594.877 114.107 594.504 114.96C594.157 115.787 593.984 116.853 593.984 118.16C593.984 120.107 594.384 121.56 595.184 122.52C595.984 123.453 597.024 123.92 598.304 123.92ZM616.318 128.32C615.331 128.32 614.571 128.04 614.038 127.48C613.531 126.893 613.278 126.08 613.278 125.04V111.36C613.278 110.293 613.531 109.48 614.038 108.92C614.571 108.333 615.331 108.04 616.318 108.04C617.278 108.04 618.011 108.333 618.518 108.92C619.051 109.48 619.318 110.293 619.318 111.36V125.04C619.318 126.08 619.065 126.893 618.558 127.48C618.051 128.04 617.305 128.32 616.318 128.32ZM616.318 104.76C615.198 104.76 614.331 104.507 613.718 104C613.131 103.467 612.838 102.72 612.838 101.76C612.838 100.773 613.131 100.027 613.718 99.52C614.331 98.9867 615.198 98.72 616.318 98.72C617.438 98.72 618.291 98.9867 618.878 99.52C619.465 100.027 619.758 100.773 619.758 101.76C619.758 102.72 619.465 103.467 618.878 104C618.291 104.507 617.438 104.76 616.318 104.76ZM632.301 128.36C631.528 128.36 630.848 128.16 630.261 127.76C629.674 127.333 629.208 126.707 628.861 125.88L622.821 111.96C622.528 111.267 622.421 110.627 622.501 110.04C622.581 109.427 622.861 108.947 623.341 108.6C623.848 108.227 624.541 108.04 625.421 108.04C626.141 108.04 626.728 108.213 627.181 108.56C627.634 108.88 628.034 109.507 628.381 110.44L633.101 122.44H631.821L636.741 110.4C637.114 109.493 637.528 108.88 637.981 108.56C638.434 108.213 639.061 108.04 639.861 108.04C640.554 108.04 641.101 108.227 641.501 108.6C641.928 108.947 642.181 109.413 642.261 110C642.368 110.587 642.261 111.227 641.941 111.92L635.781 125.88C635.434 126.733 634.968 127.36 634.381 127.76C633.821 128.16 633.128 128.36 632.301 128.36ZM655.08 128.44C652.76 128.44 650.76 128.027 649.08 127.2C647.426 126.347 646.146 125.16 645.24 123.64C644.36 122.093 643.92 120.28 643.92 118.2C643.92 116.173 644.346 114.4 645.2 112.88C646.053 111.333 647.24 110.133 648.76 109.28C650.306 108.4 652.053 107.96 654 107.96C655.413 107.96 656.693 108.2 657.84 108.68C658.986 109.133 659.973 109.8 660.8 110.68C661.626 111.533 662.253 112.587 662.68 113.84C663.106 115.067 663.32 116.44 663.32 117.96C663.32 118.467 663.16 118.853 662.84 119.12C662.52 119.36 662.053 119.48 661.44 119.48H648.88V116.36H658.96L658.32 116.92C658.32 115.827 658.16 114.92 657.84 114.2C657.52 113.453 657.053 112.893 656.44 112.52C655.853 112.147 655.12 111.96 654.24 111.96C653.253 111.96 652.413 112.187 651.72 112.64C651.026 113.093 650.493 113.747 650.12 114.6C649.746 115.453 649.56 116.48 649.56 117.68V118C649.56 120.027 650.026 121.52 650.96 122.48C651.92 123.44 653.333 123.92 655.2 123.92C655.84 123.92 656.573 123.84 657.4 123.68C658.226 123.52 659 123.267 659.72 122.92C660.333 122.627 660.88 122.533 661.36 122.64C661.84 122.72 662.213 122.933 662.48 123.28C662.746 123.627 662.893 124.027 662.92 124.48C662.973 124.933 662.88 125.387 662.64 125.84C662.4 126.267 662 126.627 661.44 126.92C660.533 127.427 659.506 127.8 658.36 128.04C657.24 128.307 656.146 128.44 655.08 128.44ZM669.953 128.36C668.939 128.36 668.166 128.093 667.633 127.56C667.099 127.027 666.833 126.267 666.833 125.28V111.08C666.833 110.093 667.086 109.347 667.593 108.84C668.126 108.307 668.859 108.04 669.793 108.04C670.753 108.04 671.486 108.307 671.993 108.84C672.499 109.347 672.753 110.093 672.753 111.08V113.16H672.353C672.673 111.56 673.379 110.32 674.473 109.44C675.566 108.56 676.979 108.067 678.713 107.96C679.379 107.907 679.886 108.08 680.233 108.48C680.606 108.853 680.806 109.48 680.833 110.36C680.886 111.187 680.713 111.84 680.313 112.32C679.939 112.8 679.299 113.093 678.393 113.2L677.473 113.28C675.953 113.413 674.819 113.853 674.073 114.6C673.353 115.347 672.993 116.427 672.993 117.84V125.28C672.993 126.267 672.726 127.027 672.193 127.56C671.686 128.093 670.939 128.36 669.953 128.36ZM694.129 128.44C692.289 128.44 690.742 128.133 689.489 127.52C688.262 126.907 687.342 126.013 686.729 124.84C686.142 123.667 685.849 122.187 685.849 120.4V112.88H684.169C683.422 112.88 682.836 112.68 682.409 112.28C682.009 111.88 681.809 111.333 681.809 110.64C681.809 109.893 682.009 109.333 682.409 108.96C682.836 108.56 683.422 108.36 684.169 108.36H685.849V105.32C685.849 104.307 686.116 103.547 686.649 103.04C687.182 102.507 687.929 102.24 688.889 102.24C689.876 102.24 690.622 102.507 691.129 103.04C691.636 103.547 691.889 104.307 691.889 105.32V108.36H695.689C696.436 108.36 697.009 108.56 697.409 108.96C697.809 109.333 698.009 109.893 698.009 110.64C698.009 111.333 697.809 111.88 697.409 112.28C697.009 112.68 696.436 112.88 695.689 112.88H691.889V120.16C691.889 121.28 692.142 122.12 692.649 122.68C693.182 123.24 694.022 123.52 695.169 123.52C695.569 123.52 695.942 123.48 696.289 123.4C696.636 123.32 696.956 123.267 697.249 123.24C697.622 123.213 697.929 123.333 698.169 123.6C698.409 123.84 698.529 124.387 698.529 125.24C698.529 125.88 698.422 126.44 698.209 126.92C697.996 127.4 697.622 127.747 697.089 127.96C696.742 128.093 696.262 128.2 695.649 128.28C695.062 128.387 694.556 128.44 694.129 128.44ZM704.326 128.32C703.339 128.32 702.579 128.04 702.046 127.48C701.539 126.893 701.286 126.08 701.286 125.04V111.36C701.286 110.293 701.539 109.48 702.046 108.92C702.579 108.333 703.339 108.04 704.326 108.04C705.286 108.04 706.019 108.333 706.526 108.92C707.059 109.48 707.326 110.293 707.326 111.36V125.04C707.326 126.08 707.072 126.893 706.566 127.48C706.059 128.04 705.312 128.32 704.326 128.32ZM704.326 104.76C703.206 104.76 702.339 104.507 701.726 104C701.139 103.467 700.846 102.72 700.846 101.76C700.846 100.773 701.139 100.027 701.726 99.52C702.339 98.9867 703.206 98.72 704.326 98.72C705.446 98.72 706.299 98.9867 706.886 99.52C707.472 100.027 707.766 100.773 707.766 101.76C707.766 102.72 707.472 103.467 706.886 104C706.299 104.507 705.446 104.76 704.326 104.76ZM715.109 128.36C714.122 128.36 713.362 128.093 712.829 127.56C712.322 127.027 712.069 126.267 712.069 125.28V111.08C712.069 110.093 712.322 109.347 712.829 108.84C713.362 108.307 714.096 108.04 715.029 108.04C715.989 108.04 716.722 108.307 717.229 108.84C717.736 109.347 717.989 110.093 717.989 111.08V113.64L717.549 112.04C718.082 110.813 718.909 109.827 720.029 109.08C721.149 108.333 722.469 107.96 723.989 107.96C725.509 107.96 726.776 108.32 727.789 109.04C728.802 109.76 729.522 110.867 729.949 112.36H729.389C729.976 111 730.869 109.933 732.069 109.16C733.296 108.36 734.696 107.96 736.269 107.96C737.789 107.96 739.029 108.267 739.989 108.88C740.976 109.467 741.709 110.373 742.189 111.6C742.669 112.8 742.909 114.333 742.909 116.2V125.28C742.909 126.267 742.642 127.027 742.109 127.56C741.602 128.093 740.869 128.36 739.909 128.36C738.922 128.36 738.162 128.093 737.629 127.56C737.122 127.027 736.869 126.267 736.869 125.28V116.4C736.869 115.093 736.656 114.147 736.229 113.56C735.829 112.947 735.136 112.64 734.149 112.64C733.002 112.64 732.109 113.04 731.469 113.84C730.829 114.64 730.509 115.773 730.509 117.24V125.28C730.509 126.267 730.242 127.027 729.709 127.56C729.202 128.093 728.469 128.36 727.509 128.36C726.549 128.36 725.802 128.093 725.269 127.56C724.736 127.027 724.469 126.267 724.469 125.28V116.4C724.469 115.093 724.256 114.147 723.829 113.56C723.429 112.947 722.736 112.64 721.749 112.64C720.602 112.64 719.709 113.04 719.069 113.84C718.429 114.64 718.109 115.773 718.109 117.24V125.28C718.109 127.333 717.109 128.36 715.109 128.36ZM757.736 128.44C755.416 128.44 753.416 128.027 751.736 127.2C750.082 126.347 748.802 125.16 747.896 123.64C747.016 122.093 746.576 120.28 746.576 118.2C746.576 116.173 747.002 114.4 747.856 112.88C748.709 111.333 749.896 110.133 751.416 109.28C752.962 108.4 754.709 107.96 756.656 107.96C758.069 107.96 759.349 108.2 760.496 108.68C761.642 109.133 762.629 109.8 763.456 110.68C764.282 111.533 764.909 112.587 765.336 113.84C765.762 115.067 765.976 116.44 765.976 117.96C765.976 118.467 765.816 118.853 765.496 119.12C765.176 119.36 764.709 119.48 764.096 119.48H751.536V116.36H761.616L760.976 116.92C760.976 115.827 760.816 114.92 760.496 114.2C760.176 113.453 759.709 112.893 759.096 112.52C758.509 112.147 757.776 111.96 756.896 111.96C755.909 111.96 755.069 112.187 754.376 112.64C753.682 113.093 753.149 113.747 752.776 114.6C752.402 115.453 752.216 116.48 752.216 117.68V118C752.216 120.027 752.682 121.52 753.616 122.48C754.576 123.44 755.989 123.92 757.856 123.92C758.496 123.92 759.229 123.84 760.056 123.68C760.882 123.52 761.656 123.267 762.376 122.92C762.989 122.627 763.536 122.533 764.016 122.64C764.496 122.72 764.869 122.933 765.136 123.28C765.402 123.627 765.549 124.027 765.576 124.48C765.629 124.933 765.536 125.387 765.296 125.84C765.056 126.267 764.656 126.627 764.096 126.92C763.189 127.427 762.162 127.8 761.016 128.04C759.896 128.307 758.802 128.44 757.736 128.44ZM772.529 128.36C771.542 128.36 770.782 128.093 770.249 127.56C769.742 127.027 769.489 126.267 769.489 125.28V111.08C769.489 110.093 769.742 109.347 770.249 108.84C770.782 108.307 771.516 108.04 772.449 108.04C773.409 108.04 774.142 108.307 774.649 108.84C775.156 109.347 775.409 110.093 775.409 111.08V113.36L774.969 112.04C775.582 110.733 776.489 109.733 777.689 109.04C778.916 108.32 780.302 107.96 781.849 107.96C783.422 107.96 784.716 108.267 785.729 108.88C786.742 109.467 787.502 110.373 788.009 111.6C788.516 112.8 788.769 114.333 788.769 116.2V125.28C788.769 126.267 788.502 127.027 787.969 127.56C787.462 128.093 786.716 128.36 785.729 128.36C784.769 128.36 784.022 128.093 783.489 127.56C782.982 127.027 782.729 126.267 782.729 125.28V116.48C782.729 115.12 782.476 114.147 781.969 113.56C781.489 112.947 780.742 112.64 779.729 112.64C778.449 112.64 777.422 113.04 776.649 113.84C775.902 114.64 775.529 115.707 775.529 117.04V125.28C775.529 127.333 774.529 128.36 772.529 128.36ZM802.918 128.44C801.078 128.44 799.531 128.133 798.278 127.52C797.051 126.907 796.131 126.013 795.518 124.84C794.931 123.667 794.638 122.187 794.638 120.4V112.88H792.958C792.211 112.88 791.625 112.68 791.198 112.28C790.798 111.88 790.598 111.333 790.598 110.64C790.598 109.893 790.798 109.333 791.198 108.96C791.625 108.56 792.211 108.36 792.958 108.36H794.638V105.32C794.638 104.307 794.905 103.547 795.438 103.04C795.971 102.507 796.718 102.24 797.678 102.24C798.665 102.24 799.411 102.507 799.918 103.04C800.425 103.547 800.678 104.307 800.678 105.32V108.36H804.478C805.225 108.36 805.798 108.56 806.198 108.96C806.598 109.333 806.798 109.893 806.798 110.64C806.798 111.333 806.598 111.88 806.198 112.28C805.798 112.68 805.225 112.88 804.478 112.88H800.678V120.16C800.678 121.28 800.931 122.12 801.438 122.68C801.971 123.24 802.811 123.52 803.958 123.52C804.358 123.52 804.731 123.48 805.078 123.4C805.425 123.32 805.745 123.267 806.038 123.24C806.411 123.213 806.718 123.333 806.958 123.6C807.198 123.84 807.318 124.387 807.318 125.24C807.318 125.88 807.211 126.44 806.998 126.92C806.785 127.4 806.411 127.747 805.878 127.96C805.531 128.093 805.051 128.2 804.438 128.28C803.851 128.387 803.345 128.44 802.918 128.44ZM818.695 128.44C816.588 128.44 814.748 128.027 813.175 127.2C811.628 126.373 810.428 125.187 809.575 123.64C808.721 122.093 808.295 120.267 808.295 118.16C808.295 116.587 808.535 115.173 809.015 113.92C809.495 112.667 810.188 111.6 811.095 110.72C812.028 109.813 813.135 109.133 814.415 108.68C815.695 108.2 817.121 107.96 818.695 107.96C820.801 107.96 822.628 108.373 824.175 109.2C825.748 110.027 826.961 111.2 827.815 112.72C828.695 114.24 829.135 116.053 829.135 118.16C829.135 119.76 828.881 121.187 828.375 122.44C827.895 123.693 827.201 124.773 826.295 125.68C825.388 126.587 824.281 127.28 822.975 127.76C821.695 128.213 820.268 128.44 818.695 128.44ZM818.695 123.92C819.575 123.92 820.335 123.707 820.975 123.28C821.615 122.853 822.121 122.227 822.495 121.4C822.868 120.547 823.055 119.467 823.055 118.16C823.055 116.213 822.655 114.787 821.855 113.88C821.055 112.947 820.001 112.48 818.695 112.48C817.841 112.48 817.081 112.68 816.415 113.08C815.775 113.48 815.268 114.107 814.895 114.96C814.548 115.787 814.375 116.853 814.375 118.16C814.375 120.107 814.775 121.56 815.575 122.52C816.375 123.453 817.415 123.92 818.695 123.92ZM851.501 128.44C850.328 128.44 849.114 128.333 847.861 128.12C846.634 127.907 845.514 127.547 844.501 127.04C843.968 126.773 843.581 126.44 843.341 126.04C843.128 125.613 843.034 125.187 843.061 124.76C843.088 124.333 843.221 123.947 843.461 123.6C843.728 123.253 844.061 123.027 844.461 122.92C844.888 122.787 845.354 122.827 845.861 123.04C846.954 123.493 847.954 123.813 848.861 124C849.768 124.187 850.661 124.28 851.541 124.28C852.688 124.28 853.514 124.107 854.021 123.76C854.554 123.387 854.821 122.907 854.821 122.32C854.821 121.787 854.648 121.387 854.301 121.12C853.954 120.853 853.448 120.667 852.781 120.56L848.581 119.8C846.928 119.507 845.648 118.907 844.741 118C843.861 117.067 843.421 115.88 843.421 114.44C843.421 113.107 843.794 111.96 844.541 111C845.288 110.013 846.314 109.267 847.621 108.76C848.954 108.227 850.461 107.96 852.141 107.96C853.341 107.96 854.448 108.067 855.461 108.28C856.474 108.493 857.448 108.84 858.381 109.32C858.861 109.56 859.194 109.88 859.381 110.28C859.594 110.68 859.661 111.093 859.581 111.52C859.528 111.947 859.368 112.333 859.101 112.68C858.834 113.027 858.488 113.253 858.061 113.36C857.661 113.467 857.194 113.413 856.661 113.2C855.808 112.8 855.021 112.52 854.301 112.36C853.581 112.173 852.888 112.08 852.221 112.08C851.021 112.08 850.154 112.28 849.621 112.68C849.088 113.053 848.821 113.533 848.821 114.12C848.821 114.573 848.968 114.96 849.261 115.28C849.581 115.573 850.061 115.773 850.701 115.88L854.901 116.64C856.634 116.933 857.954 117.52 858.861 118.4C859.768 119.253 860.221 120.427 860.221 121.92C860.221 123.947 859.421 125.547 857.821 126.72C856.248 127.867 854.141 128.44 851.501 128.44ZM873.109 128.44C871.002 128.44 869.162 128.027 867.589 127.2C866.042 126.373 864.842 125.187 863.989 123.64C863.135 122.093 862.709 120.267 862.709 118.16C862.709 116.587 862.949 115.173 863.429 113.92C863.909 112.667 864.602 111.6 865.509 110.72C866.442 109.813 867.549 109.133 868.829 108.68C870.109 108.2 871.535 107.96 873.109 107.96C875.215 107.96 877.042 108.373 878.589 109.2C880.162 110.027 881.375 111.2 882.229 112.72C883.109 114.24 883.549 116.053 883.549 118.16C883.549 119.76 883.295 121.187 882.789 122.44C882.309 123.693 881.615 124.773 880.709 125.68C879.802 126.587 878.695 127.28 877.389 127.76C876.109 128.213 874.682 128.44 873.109 128.44ZM873.109 123.92C873.989 123.92 874.749 123.707 875.389 123.28C876.029 122.853 876.535 122.227 876.909 121.4C877.282 120.547 877.469 119.467 877.469 118.16C877.469 116.213 877.069 114.787 876.269 113.88C875.469 112.947 874.415 112.48 873.109 112.48C872.255 112.48 871.495 112.68 870.829 113.08C870.189 113.48 869.682 114.107 869.309 114.96C868.962 115.787 868.789 116.853 868.789 118.16C868.789 120.107 869.189 121.56 869.989 122.52C870.789 123.453 871.829 123.92 873.109 123.92ZM894.743 128.44C893.57 128.44 892.357 128.333 891.103 128.12C889.877 127.907 888.757 127.547 887.743 127.04C887.21 126.773 886.823 126.44 886.583 126.04C886.37 125.613 886.277 125.187 886.303 124.76C886.33 124.333 886.463 123.947 886.703 123.6C886.97 123.253 887.303 123.027 887.703 122.92C888.13 122.787 888.597 122.827 889.103 123.04C890.197 123.493 891.197 123.813 892.103 124C893.01 124.187 893.903 124.28 894.783 124.28C895.93 124.28 896.757 124.107 897.263 123.76C897.797 123.387 898.063 122.907 898.063 122.32C898.063 121.787 897.89 121.387 897.543 121.12C897.197 120.853 896.69 120.667 896.023 120.56L891.823 119.8C890.17 119.507 888.89 118.907 887.983 118C887.103 117.067 886.663 115.88 886.663 114.44C886.663 113.107 887.037 111.96 887.783 111C888.53 110.013 889.557 109.267 890.863 108.76C892.197 108.227 893.703 107.96 895.383 107.96C896.583 107.96 897.69 108.067 898.703 108.28C899.717 108.493 900.69 108.84 901.623 109.32C902.103 109.56 902.437 109.88 902.623 110.28C902.837 110.68 902.903 111.093 902.823 111.52C902.77 111.947 902.61 112.333 902.343 112.68C902.077 113.027 901.73 113.253 901.303 113.36C900.903 113.467 900.437 113.413 899.903 113.2C899.05 112.8 898.263 112.52 897.543 112.36C896.823 112.173 896.13 112.08 895.463 112.08C894.263 112.08 893.397 112.28 892.863 112.68C892.33 113.053 892.063 113.533 892.063 114.12C892.063 114.573 892.21 114.96 892.503 115.28C892.823 115.573 893.303 115.773 893.943 115.88L898.143 116.64C899.877 116.933 901.197 117.52 902.103 118.4C903.01 119.253 903.463 120.427 903.463 121.92C903.463 123.947 902.663 125.547 901.063 126.72C899.49 127.867 897.383 128.44 894.743 128.44ZM916.356 128.44C914.516 128.44 912.969 128.133 911.716 127.52C910.489 126.907 909.569 126.013 908.956 124.84C908.369 123.667 908.076 122.187 908.076 120.4V112.88H906.396C905.649 112.88 905.062 112.68 904.636 112.28C904.236 111.88 904.036 111.333 904.036 110.64C904.036 109.893 904.236 109.333 904.636 108.96C905.062 108.56 905.649 108.36 906.396 108.36H908.076V105.32C908.076 104.307 908.342 103.547 908.876 103.04C909.409 102.507 910.156 102.24 911.116 102.24C912.102 102.24 912.849 102.507 913.356 103.04C913.862 103.547 914.116 104.307 914.116 105.32V108.36H917.916C918.662 108.36 919.236 108.56 919.636 108.96C920.036 109.333 920.236 109.893 920.236 110.64C920.236 111.333 920.036 111.88 919.636 112.28C919.236 112.68 918.662 112.88 917.916 112.88H914.116V120.16C914.116 121.28 914.369 122.12 914.876 122.68C915.409 123.24 916.249 123.52 917.396 123.52C917.796 123.52 918.169 123.48 918.516 123.4C918.862 123.32 919.182 123.267 919.476 123.24C919.849 123.213 920.156 123.333 920.396 123.6C920.636 123.84 920.756 124.387 920.756 125.24C920.756 125.88 920.649 126.44 920.436 126.92C920.222 127.4 919.849 127.747 919.316 127.96C918.969 128.093 918.489 128.2 917.876 128.28C917.289 128.387 916.782 128.44 916.356 128.44ZM932.892 128.44C930.572 128.44 928.572 128.027 926.892 127.2C925.239 126.347 923.959 125.16 923.052 123.64C922.172 122.093 921.732 120.28 921.732 118.2C921.732 116.173 922.159 114.4 923.012 112.88C923.865 111.333 925.052 110.133 926.572 109.28C928.119 108.4 929.865 107.96 931.812 107.96C933.225 107.96 934.505 108.2 935.652 108.68C936.799 109.133 937.785 109.8 938.612 110.68C939.439 111.533 940.065 112.587 940.492 113.84C940.919 115.067 941.132 116.44 941.132 117.96C941.132 118.467 940.972 118.853 940.652 119.12C940.332 119.36 939.865 119.48 939.252 119.48H926.692V116.36H936.772L936.132 116.92C936.132 115.827 935.972 114.92 935.652 114.2C935.332 113.453 934.865 112.893 934.252 112.52C933.665 112.147 932.932 111.96 932.052 111.96C931.065 111.96 930.225 112.187 929.532 112.64C928.839 113.093 928.305 113.747 927.932 114.6C927.559 115.453 927.372 116.48 927.372 117.68V118C927.372 120.027 927.839 121.52 928.772 122.48C929.732 123.44 931.145 123.92 933.012 123.92C933.652 123.92 934.385 123.84 935.212 123.68C936.039 123.52 936.812 123.267 937.532 122.92C938.145 122.627 938.692 122.533 939.172 122.64C939.652 122.72 940.025 122.933 940.292 123.28C940.559 123.627 940.705 124.027 940.732 124.48C940.785 124.933 940.692 125.387 940.452 125.84C940.212 126.267 939.812 126.627 939.252 126.92C938.345 127.427 937.319 127.8 936.172 128.04C935.052 128.307 933.959 128.44 932.892 128.44ZM947.685 128.36C946.699 128.36 945.939 128.093 945.405 127.56C944.899 127.027 944.645 126.267 944.645 125.28V111.08C944.645 110.093 944.899 109.347 945.405 108.84C945.939 108.307 946.672 108.04 947.605 108.04C948.565 108.04 949.299 108.307 949.805 108.84C950.312 109.347 950.565 110.093 950.565 111.08V113.36L950.125 112.04C950.739 110.733 951.645 109.733 952.845 109.04C954.072 108.32 955.459 107.96 957.005 107.96C958.579 107.96 959.872 108.267 960.885 108.88C961.899 109.467 962.659 110.373 963.165 111.6C963.672 112.8 963.925 114.333 963.925 116.2V125.28C963.925 126.267 963.659 127.027 963.125 127.56C962.619 128.093 961.872 128.36 960.885 128.36C959.925 128.36 959.179 128.093 958.645 127.56C958.139 127.027 957.885 126.267 957.885 125.28V116.48C957.885 115.12 957.632 114.147 957.125 113.56C956.645 112.947 955.899 112.64 954.885 112.64C953.605 112.64 952.579 113.04 951.805 113.84C951.059 114.64 950.685 115.707 950.685 117.04V125.28C950.685 127.333 949.685 128.36 947.685 128.36ZM971.474 128.32C970.488 128.32 969.728 128.04 969.194 127.48C968.688 126.893 968.434 126.08 968.434 125.04V111.36C968.434 110.293 968.688 109.48 969.194 108.92C969.728 108.333 970.488 108.04 971.474 108.04C972.434 108.04 973.168 108.333 973.674 108.92C974.208 109.48 974.474 110.293 974.474 111.36V125.04C974.474 126.08 974.221 126.893 973.714 127.48C973.208 128.04 972.461 128.32 971.474 128.32ZM971.474 104.76C970.354 104.76 969.488 104.507 968.874 104C968.288 103.467 967.994 102.72 967.994 101.76C967.994 100.773 968.288 100.027 968.874 99.52C969.488 98.9867 970.354 98.72 971.474 98.72C972.594 98.72 973.448 98.9867 974.034 99.52C974.621 100.027 974.914 100.773 974.914 101.76C974.914 102.72 974.621 103.467 974.034 104C973.448 104.507 972.594 104.76 971.474 104.76ZM991.257 128.44C989.684 128.44 988.284 128.053 987.057 127.28C985.857 126.48 985.057 125.427 984.657 124.12L985.097 122.8V125.28C985.097 126.267 984.844 127.027 984.337 127.56C983.831 128.093 983.097 128.36 982.137 128.36C981.177 128.36 980.431 128.093 979.897 127.56C979.391 127.027 979.137 126.267 979.137 125.28V102.52C979.137 101.507 979.391 100.747 979.897 100.24C980.431 99.7067 981.191 99.44 982.177 99.44C983.137 99.44 983.871 99.7067 984.377 100.24C984.911 100.747 985.177 101.507 985.177 102.52V112H984.697C985.124 110.8 985.937 109.827 987.137 109.08C988.337 108.333 989.711 107.96 991.257 107.96C992.991 107.96 994.497 108.373 995.777 109.2C997.057 110.027 998.057 111.2 998.777 112.72C999.497 114.24 999.857 116.053 999.857 118.16C999.857 120.267 999.497 122.093 998.777 123.64C998.057 125.187 997.044 126.373 995.737 127.2C994.457 128.027 992.964 128.44 991.257 128.44ZM989.457 123.92C990.311 123.92 991.057 123.707 991.697 123.28C992.364 122.853 992.871 122.227 993.217 121.4C993.591 120.547 993.777 119.467 993.777 118.16C993.777 116.213 993.377 114.787 992.577 113.88C991.777 112.947 990.737 112.48 989.457 112.48C988.604 112.48 987.844 112.68 987.177 113.08C986.537 113.48 986.031 114.107 985.657 114.96C985.284 115.787 985.097 116.853 985.097 118.16C985.097 120.107 985.497 121.56 986.297 122.52C987.097 123.453 988.151 123.92 989.457 123.92ZM1006.59 128.32C1005.6 128.32 1004.84 128.04 1004.31 127.48C1003.8 126.893 1003.55 126.08 1003.55 125.04V111.36C1003.55 110.293 1003.8 109.48 1004.31 108.92C1004.84 108.333 1005.6 108.04 1006.59 108.04C1007.55 108.04 1008.28 108.333 1008.79 108.92C1009.32 109.48 1009.59 110.293 1009.59 111.36V125.04C1009.59 126.08 1009.34 126.893 1008.83 127.48C1008.32 128.04 1007.58 128.32 1006.59 128.32ZM1006.59 104.76C1005.47 104.76 1004.6 104.507 1003.99 104C1003.4 103.467 1003.11 102.72 1003.11 101.76C1003.11 100.773 1003.4 100.027 1003.99 99.52C1004.6 98.9867 1005.47 98.72 1006.59 98.72C1007.71 98.72 1008.56 98.9867 1009.15 99.52C1009.74 100.027 1010.03 100.773 1010.03 101.76C1010.03 102.72 1009.74 103.467 1009.15 104C1008.56 104.507 1007.71 104.76 1006.59 104.76ZM1021.33 128.44C1018.96 128.44 1017.19 127.787 1016.01 126.48C1014.84 125.147 1014.25 123.173 1014.25 120.56V102.52C1014.25 101.507 1014.51 100.747 1015.01 100.24C1015.55 99.7067 1016.31 99.44 1017.29 99.44C1018.25 99.44 1018.99 99.7067 1019.49 100.24C1020.03 100.747 1020.29 101.507 1020.29 102.52V120.32C1020.29 121.413 1020.52 122.227 1020.97 122.76C1021.45 123.267 1022.08 123.52 1022.85 123.52C1023.07 123.52 1023.27 123.507 1023.45 123.48C1023.64 123.453 1023.84 123.44 1024.05 123.44C1024.48 123.387 1024.77 123.52 1024.93 123.84C1025.12 124.133 1025.21 124.733 1025.21 125.64C1025.21 126.44 1025.05 127.053 1024.73 127.48C1024.41 127.88 1023.92 128.147 1023.25 128.28C1022.99 128.307 1022.68 128.333 1022.33 128.36C1021.99 128.413 1021.65 128.44 1021.33 128.44ZM1037.58 128.44C1035.26 128.44 1033.26 128.027 1031.58 127.2C1029.93 126.347 1028.65 125.16 1027.74 123.64C1026.86 122.093 1026.42 120.28 1026.42 118.2C1026.42 116.173 1026.85 114.4 1027.7 112.88C1028.55 111.333 1029.74 110.133 1031.26 109.28C1032.81 108.4 1034.55 107.96 1036.5 107.96C1037.91 107.96 1039.19 108.2 1040.34 108.68C1041.49 109.133 1042.47 109.8 1043.3 110.68C1044.13 111.533 1044.75 112.587 1045.18 113.84C1045.61 115.067 1045.82 116.44 1045.82 117.96C1045.82 118.467 1045.66 118.853 1045.34 119.12C1045.02 119.36 1044.55 119.48 1043.94 119.48H1031.38V116.36H1041.46L1040.82 116.92C1040.82 115.827 1040.66 114.92 1040.34 114.2C1040.02 113.453 1039.55 112.893 1038.94 112.52C1038.35 112.147 1037.62 111.96 1036.74 111.96C1035.75 111.96 1034.91 112.187 1034.22 112.64C1033.53 113.093 1032.99 113.747 1032.62 114.6C1032.25 115.453 1032.06 116.48 1032.06 117.68V118C1032.06 120.027 1032.53 121.52 1033.46 122.48C1034.42 123.44 1035.83 123.92 1037.7 123.92C1038.34 123.92 1039.07 123.84 1039.9 123.68C1040.73 123.52 1041.5 123.267 1042.22 122.92C1042.83 122.627 1043.38 122.533 1043.86 122.64C1044.34 122.72 1044.71 122.933 1044.98 123.28C1045.25 123.627 1045.39 124.027 1045.42 124.48C1045.47 124.933 1045.38 125.387 1045.14 125.84C1044.9 126.267 1044.5 126.627 1043.94 126.92C1043.03 127.427 1042.01 127.8 1040.86 128.04C1039.74 128.307 1038.65 128.44 1037.58 128.44Z" fill="#FBFBFD"/>
<path d="M420.349 150C420.349 148.343 421.692 147 423.349 147H1044.35C1046.01 147 1047.35 148.343 1047.35 150H420.349Z" fill="#191715"/>
<path d="M441.633 185.16C441.163 185.16 440.694 185.123 440.225 185.048C439.755 184.984 439.313 184.883 438.897 184.744C438.481 184.595 438.107 184.413 437.777 184.2C437.585 184.072 437.451 183.917 437.377 183.736C437.302 183.555 437.275 183.379 437.297 183.208C437.329 183.027 437.398 182.872 437.505 182.744C437.622 182.605 437.766 182.52 437.937 182.488C438.107 182.456 438.294 182.504 438.497 182.632C438.966 182.909 439.462 183.112 439.985 183.24C440.507 183.368 441.057 183.432 441.633 183.432C442.475 183.432 443.089 183.293 443.473 183.016C443.857 182.728 444.049 182.36 444.049 181.912C444.049 181.539 443.91 181.245 443.633 181.032C443.366 180.819 442.902 180.643 442.241 180.504L440.481 180.136C439.467 179.923 438.71 179.565 438.209 179.064C437.718 178.552 437.473 177.88 437.473 177.048C437.473 176.525 437.579 176.051 437.793 175.624C438.006 175.197 438.305 174.829 438.689 174.52C439.083 174.211 439.547 173.976 440.081 173.816C440.625 173.645 441.222 173.56 441.873 173.56C442.513 173.56 443.121 173.64 443.697 173.8C444.273 173.96 444.79 174.195 445.249 174.504C445.419 174.621 445.531 174.765 445.585 174.936C445.649 175.107 445.665 175.277 445.633 175.448C445.601 175.608 445.526 175.747 445.409 175.864C445.291 175.981 445.142 176.051 444.961 176.072C444.79 176.093 444.593 176.04 444.369 175.912C443.974 175.688 443.574 175.528 443.169 175.432C442.763 175.336 442.326 175.288 441.857 175.288C441.366 175.288 440.945 175.357 440.593 175.496C440.241 175.635 439.969 175.832 439.777 176.088C439.595 176.333 439.505 176.627 439.505 176.968C439.505 177.352 439.633 177.661 439.889 177.896C440.145 178.12 440.582 178.296 441.201 178.424L442.945 178.792C444.001 179.016 444.785 179.368 445.297 179.848C445.819 180.328 446.081 180.968 446.081 181.768C446.081 182.28 445.974 182.744 445.761 183.16C445.558 183.576 445.259 183.933 444.865 184.232C444.481 184.531 444.017 184.76 443.473 184.92C442.929 185.08 442.315 185.16 441.633 185.16ZM451.262 185.16C450.441 185.16 449.726 184.995 449.118 184.664C448.51 184.323 448.041 183.843 447.71 183.224C447.38 182.605 447.214 181.88 447.214 181.048C447.214 180.419 447.305 179.859 447.486 179.368C447.678 178.867 447.95 178.445 448.302 178.104C448.654 177.752 449.081 177.485 449.582 177.304C450.084 177.112 450.644 177.016 451.262 177.016C451.614 177.016 451.993 177.064 452.398 177.16C452.814 177.256 453.204 177.416 453.566 177.64C453.737 177.747 453.849 177.875 453.902 178.024C453.956 178.173 453.966 178.328 453.934 178.488C453.902 178.637 453.833 178.771 453.726 178.888C453.63 178.995 453.508 179.064 453.358 179.096C453.209 179.117 453.044 179.08 452.862 178.984C452.628 178.845 452.388 178.744 452.142 178.68C451.897 178.605 451.662 178.568 451.438 178.568C451.086 178.568 450.777 178.627 450.51 178.744C450.244 178.851 450.014 179.011 449.822 179.224C449.641 179.427 449.502 179.683 449.406 179.992C449.31 180.301 449.262 180.659 449.262 181.064C449.262 181.853 449.449 182.477 449.822 182.936C450.206 183.384 450.745 183.608 451.438 183.608C451.662 183.608 451.892 183.576 452.126 183.512C452.372 183.448 452.617 183.347 452.862 183.208C453.044 183.112 453.204 183.08 453.342 183.112C453.492 183.144 453.614 183.219 453.71 183.336C453.806 183.443 453.865 183.576 453.886 183.736C453.908 183.885 453.886 184.035 453.822 184.184C453.769 184.333 453.662 184.456 453.502 184.552C453.15 184.765 452.777 184.92 452.382 185.016C451.988 185.112 451.614 185.16 451.262 185.16ZM458.893 185.16C458.008 185.16 457.245 184.995 456.605 184.664C455.965 184.333 455.469 183.864 455.117 183.256C454.776 182.648 454.605 181.928 454.605 181.096C454.605 180.285 454.77 179.576 455.101 178.968C455.442 178.36 455.906 177.885 456.493 177.544C457.09 177.192 457.768 177.016 458.525 177.016C459.08 177.016 459.576 177.107 460.013 177.288C460.461 177.469 460.84 177.731 461.149 178.072C461.469 178.413 461.709 178.829 461.869 179.32C462.04 179.8 462.125 180.344 462.125 180.952C462.125 181.144 462.056 181.293 461.917 181.4C461.789 181.496 461.602 181.544 461.357 181.544H456.221V180.392H460.717L460.461 180.632C460.461 180.141 460.386 179.731 460.237 179.4C460.098 179.069 459.89 178.819 459.613 178.648C459.346 178.467 459.01 178.376 458.605 178.376C458.157 178.376 457.773 178.483 457.453 178.696C457.144 178.899 456.904 179.192 456.733 179.576C456.573 179.949 456.493 180.397 456.493 180.92V181.032C456.493 181.907 456.696 182.563 457.101 183C457.517 183.427 458.125 183.64 458.925 183.64C459.202 183.64 459.512 183.608 459.853 183.544C460.205 183.469 460.536 183.347 460.845 183.176C461.069 183.048 461.266 182.995 461.437 183.016C461.608 183.027 461.741 183.085 461.837 183.192C461.944 183.299 462.008 183.432 462.029 183.592C462.05 183.741 462.018 183.896 461.933 184.056C461.858 184.216 461.725 184.355 461.533 184.472C461.16 184.707 460.728 184.883 460.237 185C459.757 185.107 459.309 185.16 458.893 185.16ZM467.357 188.04C466.781 188.04 466.221 187.987 465.677 187.88C465.144 187.773 464.658 187.608 464.221 187.384C464.018 187.277 463.88 187.149 463.805 187C463.741 186.851 463.72 186.696 463.741 186.536C463.773 186.387 463.837 186.253 463.933 186.136C464.04 186.019 464.168 185.939 464.317 185.896C464.466 185.853 464.621 185.875 464.781 185.96C465.25 186.195 465.693 186.344 466.109 186.408C466.536 186.483 466.898 186.52 467.197 186.52C467.912 186.52 468.445 186.344 468.797 185.992C469.16 185.651 469.341 185.139 469.341 184.456V183.016H469.485C469.325 183.56 468.989 183.997 468.477 184.328C467.976 184.648 467.405 184.808 466.765 184.808C466.061 184.808 465.448 184.648 464.925 184.328C464.402 183.997 463.997 183.539 463.709 182.952C463.421 182.365 463.277 181.683 463.277 180.904C463.277 180.317 463.357 179.789 463.517 179.32C463.688 178.84 463.922 178.429 464.221 178.088C464.53 177.747 464.898 177.485 465.325 177.304C465.762 177.112 466.242 177.016 466.765 177.016C467.426 177.016 468.002 177.181 468.493 177.512C468.994 177.832 469.32 178.259 469.469 178.792L469.309 179.192V178.056C469.309 177.725 469.394 177.475 469.565 177.304C469.746 177.133 469.992 177.048 470.301 177.048C470.621 177.048 470.866 177.133 471.037 177.304C471.208 177.475 471.293 177.725 471.293 178.056V184.216C471.293 185.485 470.957 186.44 470.285 187.08C469.613 187.72 468.637 188.04 467.357 188.04ZM467.309 183.288C467.725 183.288 468.082 183.192 468.381 183C468.68 182.808 468.909 182.536 469.069 182.184C469.24 181.821 469.325 181.395 469.325 180.904C469.325 180.168 469.144 179.592 468.781 179.176C468.418 178.749 467.928 178.536 467.309 178.536C466.893 178.536 466.536 178.632 466.237 178.824C465.938 179.016 465.704 179.288 465.533 179.64C465.373 179.992 465.293 180.413 465.293 180.904C465.293 181.64 465.474 182.221 465.837 182.648C466.2 183.075 466.69 183.288 467.309 183.288ZM476.037 185.16C475.152 185.16 474.485 184.909 474.037 184.408C473.589 183.896 473.365 183.149 473.365 182.168V174.6C473.365 174.269 473.451 174.019 473.621 173.848C473.792 173.677 474.037 173.592 474.357 173.592C474.677 173.592 474.923 173.677 475.093 173.848C475.275 174.019 475.365 174.269 475.365 174.6V182.072C475.365 182.563 475.467 182.925 475.669 183.16C475.883 183.395 476.181 183.512 476.565 183.512C476.651 183.512 476.731 183.512 476.805 183.512C476.88 183.501 476.955 183.491 477.029 183.48C477.179 183.459 477.28 183.501 477.333 183.608C477.387 183.704 477.413 183.907 477.413 184.216C477.413 184.483 477.36 184.691 477.253 184.84C477.147 184.989 476.971 185.08 476.725 185.112C476.619 185.123 476.507 185.133 476.389 185.144C476.272 185.155 476.155 185.16 476.037 185.16ZM479.467 185.112C479.147 185.112 478.901 185.016 478.731 184.824C478.56 184.632 478.475 184.365 478.475 184.024V178.152C478.475 177.8 478.56 177.533 478.731 177.352C478.901 177.16 479.147 177.064 479.467 177.064C479.787 177.064 480.032 177.16 480.203 177.352C480.384 177.533 480.475 177.8 480.475 178.152V184.024C480.475 184.365 480.389 184.632 480.219 184.824C480.048 185.016 479.797 185.112 479.467 185.112ZM479.467 175.576C479.093 175.576 478.8 175.485 478.587 175.304C478.384 175.112 478.283 174.851 478.283 174.52C478.283 174.179 478.384 173.917 478.587 173.736C478.8 173.555 479.093 173.464 479.467 173.464C479.851 173.464 480.144 173.555 480.347 173.736C480.549 173.917 480.651 174.179 480.651 174.52C480.651 174.851 480.549 175.112 480.347 175.304C480.144 175.485 479.851 175.576 479.467 175.576ZM487.888 185.112C487.568 185.112 487.323 185.016 487.152 184.824C486.982 184.632 486.896 184.365 486.896 184.024V178.152C486.896 177.8 486.982 177.533 487.152 177.352C487.323 177.16 487.568 177.064 487.888 177.064C488.208 177.064 488.454 177.16 488.624 177.352C488.806 177.533 488.896 177.8 488.896 178.152V184.024C488.896 184.365 488.811 184.632 488.64 184.824C488.47 185.016 488.219 185.112 487.888 185.112ZM487.888 175.576C487.515 175.576 487.222 175.485 487.008 175.304C486.806 175.112 486.704 174.851 486.704 174.52C486.704 174.179 486.806 173.917 487.008 173.736C487.222 173.555 487.515 173.464 487.888 173.464C488.272 173.464 488.566 173.555 488.768 173.736C488.971 173.917 489.072 174.179 489.072 174.52C489.072 174.851 488.971 175.112 488.768 175.304C488.566 175.485 488.272 175.576 487.888 175.576ZM493.647 185.16C492.761 185.16 492.095 184.909 491.647 184.408C491.199 183.896 490.975 183.149 490.975 182.168V174.6C490.975 174.269 491.06 174.019 491.231 173.848C491.401 173.677 491.647 173.592 491.967 173.592C492.287 173.592 492.532 173.677 492.703 173.848C492.884 174.019 492.975 174.269 492.975 174.6V182.072C492.975 182.563 493.076 182.925 493.279 183.16C493.492 183.395 493.791 183.512 494.175 183.512C494.26 183.512 494.34 183.512 494.415 183.512C494.489 183.501 494.564 183.491 494.639 183.48C494.788 183.459 494.889 183.501 494.943 183.608C494.996 183.704 495.023 183.907 495.023 184.216C495.023 184.483 494.969 184.691 494.863 184.84C494.756 184.989 494.58 185.08 494.335 185.112C494.228 185.123 494.116 185.133 493.999 185.144C493.881 185.155 493.764 185.16 493.647 185.16ZM504.076 188.04C503.5 188.04 502.94 187.987 502.396 187.88C501.862 187.773 501.377 187.608 500.94 187.384C500.737 187.277 500.598 187.149 500.524 187C500.46 186.851 500.438 186.696 500.46 186.536C500.492 186.387 500.556 186.253 500.652 186.136C500.758 186.019 500.886 185.939 501.036 185.896C501.185 185.853 501.34 185.875 501.5 185.96C501.969 186.195 502.412 186.344 502.828 186.408C503.254 186.483 503.617 186.52 503.916 186.52C504.63 186.52 505.164 186.344 505.516 185.992C505.878 185.651 506.06 185.139 506.06 184.456V183.016H506.204C506.044 183.56 505.708 183.997 505.196 184.328C504.694 184.648 504.124 184.808 503.484 184.808C502.78 184.808 502.166 184.648 501.644 184.328C501.121 183.997 500.716 183.539 500.428 182.952C500.14 182.365 499.996 181.683 499.996 180.904C499.996 180.317 500.076 179.789 500.236 179.32C500.406 178.84 500.641 178.429 500.94 178.088C501.249 177.747 501.617 177.485 502.044 177.304C502.481 177.112 502.961 177.016 503.484 177.016C504.145 177.016 504.721 177.181 505.212 177.512C505.713 177.832 506.038 178.259 506.188 178.792L506.028 179.192V178.056C506.028 177.725 506.113 177.475 506.284 177.304C506.465 177.133 506.71 177.048 507.02 177.048C507.34 177.048 507.585 177.133 507.756 177.304C507.926 177.475 508.012 177.725 508.012 178.056V184.216C508.012 185.485 507.676 186.44 507.004 187.08C506.332 187.72 505.356 188.04 504.076 188.04ZM504.028 183.288C504.444 183.288 504.801 183.192 505.1 183C505.398 182.808 505.628 182.536 505.788 182.184C505.958 181.821 506.044 181.395 506.044 180.904C506.044 180.168 505.862 179.592 505.5 179.176C505.137 178.749 504.646 178.536 504.028 178.536C503.612 178.536 503.254 178.632 502.956 178.824C502.657 179.016 502.422 179.288 502.252 179.64C502.092 179.992 502.012 180.413 502.012 180.904C502.012 181.64 502.193 182.221 502.556 182.648C502.918 183.075 503.409 183.288 504.028 183.288ZM511.076 185.112C510.756 185.112 510.511 185.016 510.34 184.824C510.169 184.632 510.084 184.365 510.084 184.024V178.152C510.084 177.8 510.169 177.533 510.34 177.352C510.511 177.16 510.756 177.064 511.076 177.064C511.396 177.064 511.641 177.16 511.812 177.352C511.993 177.533 512.084 177.8 512.084 178.152V184.024C512.084 184.365 511.999 184.632 511.828 184.824C511.657 185.016 511.407 185.112 511.076 185.112ZM511.076 175.576C510.703 175.576 510.409 175.485 510.196 175.304C509.993 175.112 509.892 174.851 509.892 174.52C509.892 174.179 509.993 173.917 510.196 173.736C510.409 173.555 510.703 173.464 511.076 173.464C511.46 173.464 511.753 173.555 511.956 173.736C512.159 173.917 512.26 174.179 512.26 174.52C512.26 174.851 512.159 175.112 511.956 175.304C511.753 175.485 511.46 175.576 511.076 175.576ZM517.73 185.16C516.919 185.16 516.215 184.995 515.618 184.664C515.021 184.333 514.557 183.864 514.226 183.256C513.895 182.637 513.73 181.912 513.73 181.08C513.73 180.451 513.821 179.891 514.002 179.4C514.194 178.899 514.466 178.472 514.818 178.12C515.17 177.757 515.591 177.485 516.082 177.304C516.573 177.112 517.122 177.016 517.73 177.016C518.541 177.016 519.245 177.181 519.842 177.512C520.439 177.843 520.903 178.312 521.234 178.92C521.565 179.528 521.73 180.248 521.73 181.08C521.73 181.709 521.634 182.275 521.442 182.776C521.261 183.277 520.994 183.709 520.642 184.072C520.29 184.424 519.869 184.696 519.378 184.888C518.887 185.069 518.338 185.16 517.73 185.16ZM517.73 183.64C518.125 183.64 518.471 183.544 518.77 183.352C519.069 183.16 519.298 182.877 519.458 182.504C519.629 182.12 519.714 181.645 519.714 181.08C519.714 180.227 519.533 179.592 519.17 179.176C518.807 178.749 518.327 178.536 517.73 178.536C517.335 178.536 516.989 178.632 516.69 178.824C516.391 179.005 516.157 179.288 515.986 179.672C515.826 180.045 515.746 180.515 515.746 181.08C515.746 181.923 515.927 182.563 516.29 183C516.653 183.427 517.133 183.64 517.73 183.64ZM524.405 185.128C524.074 185.128 523.818 185.043 523.637 184.872C523.466 184.691 523.381 184.435 523.381 184.104V178.056C523.381 177.725 523.466 177.475 523.637 177.304C523.807 177.133 524.047 177.048 524.357 177.048C524.666 177.048 524.906 177.133 525.077 177.304C525.247 177.475 525.333 177.725 525.333 178.056V179.064H525.173C525.322 178.424 525.615 177.939 526.053 177.608C526.49 177.277 527.071 177.08 527.797 177.016C528.021 176.995 528.197 177.053 528.325 177.192C528.463 177.32 528.543 177.523 528.565 177.8C528.586 178.067 528.522 178.285 528.373 178.456C528.234 178.616 528.021 178.712 527.733 178.744L527.381 178.776C526.73 178.84 526.239 179.043 525.909 179.384C525.578 179.715 525.413 180.184 525.413 180.792V184.104C525.413 184.435 525.327 184.691 525.157 184.872C524.986 185.043 524.735 185.128 524.405 185.128ZM530.638 185.128C530.318 185.128 530.073 185.043 529.902 184.872C529.732 184.691 529.646 184.435 529.646 184.104V178.056C529.646 177.725 529.732 177.475 529.902 177.304C530.073 177.133 530.313 177.048 530.622 177.048C530.932 177.048 531.172 177.133 531.342 177.304C531.513 177.475 531.598 177.725 531.598 178.056V179.144L531.422 178.744C531.657 178.179 532.02 177.752 532.51 177.464C533.012 177.165 533.577 177.016 534.206 177.016C534.836 177.016 535.353 177.133 535.758 177.368C536.164 177.603 536.468 177.96 536.67 178.44C536.873 178.909 536.974 179.507 536.974 180.232V184.104C536.974 184.435 536.889 184.691 536.718 184.872C536.548 185.043 536.302 185.128 535.982 185.128C535.662 185.128 535.412 185.043 535.23 184.872C535.06 184.691 534.974 184.435 534.974 184.104V180.328C534.974 179.72 534.857 179.277 534.622 179C534.398 178.723 534.046 178.584 533.566 178.584C532.98 178.584 532.51 178.771 532.158 179.144C531.817 179.507 531.646 179.992 531.646 180.6V184.104C531.646 184.787 531.31 185.128 530.638 185.128ZM542.574 185.16C541.763 185.16 541.059 184.995 540.462 184.664C539.864 184.333 539.4 183.864 539.07 183.256C538.739 182.637 538.574 181.912 538.574 181.08C538.574 180.451 538.664 179.891 538.846 179.4C539.038 178.899 539.31 178.472 539.662 178.12C540.014 177.757 540.435 177.485 540.926 177.304C541.416 177.112 541.966 177.016 542.574 177.016C543.384 177.016 544.088 177.181 544.686 177.512C545.283 177.843 545.747 178.312 546.078 178.92C546.408 179.528 546.574 180.248 546.574 181.08C546.574 181.709 546.478 182.275 546.286 182.776C546.104 183.277 545.838 183.709 545.486 184.072C545.134 184.424 544.712 184.696 544.222 184.888C543.731 185.069 543.182 185.16 542.574 185.16ZM542.574 183.64C542.968 183.64 543.315 183.544 543.614 183.352C543.912 183.16 544.142 182.877 544.302 182.504C544.472 182.12 544.558 181.645 544.558 181.08C544.558 180.227 544.376 179.592 544.014 179.176C543.651 178.749 543.171 178.536 542.574 178.536C542.179 178.536 541.832 178.632 541.534 178.824C541.235 179.005 541 179.288 540.83 179.672C540.67 180.045 540.59 180.515 540.59 181.08C540.59 181.923 540.771 182.563 541.134 183C541.496 183.427 541.976 183.64 542.574 183.64Z" fill="#FBFBFD"/>
<rect x="409.099" y="201.25" width="165.5" height="41.5" rx="8.75" fill="#FBFBFD"/>
<path d="M442.661 227V215.72H446.645C448.501 215.72 449.93 216.205 450.933 217.176C451.946 218.147 452.453 219.539 452.453 221.352C452.453 223.165 451.946 224.563 450.933 225.544C449.93 226.515 448.501 227 446.645 227H442.661ZM444.325 225.608H446.549C449.333 225.608 450.725 224.189 450.725 221.352C450.725 218.525 449.333 217.112 446.549 217.112H444.325V225.608ZM454.676 227V215.72H458.66C460.516 215.72 461.946 216.205 462.948 217.176C463.962 218.147 464.468 219.539 464.468 221.352C464.468 223.165 463.962 224.563 462.948 225.544C461.946 226.515 460.516 227 458.66 227H454.676ZM456.34 225.608H458.564C461.348 225.608 462.74 224.189 462.74 221.352C462.74 218.525 461.348 217.112 458.564 217.112H456.34V225.608ZM466.152 228.056L464.92 227.688L469.032 214.92L470.28 215.288L466.152 228.056ZM471.318 227V215.72H472.71L476.886 223.512L481.046 215.72H482.406V227H480.918V218.728L477.382 225.272H476.374L472.822 218.76V227H471.318ZM485.099 227V215.72H486.491L490.667 223.512L494.827 215.72H496.187V227H494.699V218.728L491.163 225.272H490.155L486.603 218.76V227H485.099ZM498.464 228.056L497.232 227.688L501.344 214.92L502.592 215.288L498.464 228.056ZM506.88 227V221.736L502.56 215.72H504.48L507.744 220.28L511.008 215.72H512.848L508.528 221.752V227H506.88ZM516.63 227V221.736L512.31 215.72H514.23L517.494 220.28L520.758 215.72H522.598L518.278 221.752V227H516.63ZM526.38 227V221.736L522.06 215.72H523.98L527.244 220.28L530.508 215.72H532.348L528.028 221.752V227H526.38ZM536.13 227V221.736L531.81 215.72H533.73L536.994 220.28L540.258 215.72H542.098L537.778 221.752V227H536.13Z" fill="black" fill-opacity="0.3"/>
<rect x="409.099" y="201.25" width="165.5" height="41.5" rx="8.75" stroke="#191715" stroke-width="2.5"/>
<path d="M631.752 185.069C631.442 185.069 631.202 184.984 631.032 184.813C630.872 184.643 630.792 184.397 630.792 184.077V174.557C630.792 174.227 630.872 173.976 631.032 173.805C631.202 173.624 631.421 173.533 631.688 173.533C631.933 173.533 632.114 173.581 632.232 173.677C632.36 173.763 632.509 173.912 632.68 174.125L638.808 182.077H638.392V174.509C638.392 174.2 638.472 173.96 638.632 173.789C638.802 173.619 639.042 173.533 639.352 173.533C639.661 173.533 639.896 173.619 640.056 173.789C640.216 173.96 640.296 174.2 640.296 174.509V184.109C640.296 184.408 640.221 184.643 640.072 184.813C639.922 184.984 639.72 185.069 639.464 185.069C639.218 185.069 639.021 185.021 638.872 184.925C638.733 184.829 638.578 184.675 638.408 184.461L632.296 176.509H632.696V184.077C632.696 184.397 632.616 184.643 632.456 184.813C632.296 184.984 632.061 185.069 631.752 185.069ZM645.4 185.101C644.75 185.101 644.211 184.984 643.784 184.749C643.358 184.504 643.038 184.141 642.824 183.661C642.622 183.181 642.52 182.584 642.52 181.869V177.997C642.52 177.656 642.606 177.405 642.776 177.245C642.947 177.075 643.192 176.989 643.512 176.989C643.832 176.989 644.078 177.075 644.248 177.245C644.43 177.405 644.52 177.656 644.52 177.997V181.901C644.52 182.456 644.632 182.867 644.856 183.133C645.08 183.4 645.438 183.533 645.928 183.533C646.462 183.533 646.899 183.352 647.24 182.989C647.582 182.616 647.752 182.125 647.752 181.517V177.997C647.752 177.656 647.838 177.405 648.008 177.245C648.179 177.075 648.424 176.989 648.744 176.989C649.064 176.989 649.31 177.075 649.48 177.245C649.662 177.405 649.752 177.656 649.752 177.997V184.045C649.752 184.728 649.427 185.069 648.776 185.069C648.467 185.069 648.227 184.984 648.056 184.813C647.886 184.632 647.8 184.376 647.8 184.045V182.829L648.024 183.309C647.8 183.885 647.459 184.328 647 184.637C646.552 184.947 646.019 185.101 645.4 185.101ZM652.858 185.069C652.538 185.069 652.293 184.984 652.122 184.813C651.951 184.632 651.866 184.376 651.866 184.045V177.997C651.866 177.667 651.951 177.416 652.122 177.245C652.293 177.075 652.533 176.989 652.842 176.989C653.151 176.989 653.391 177.075 653.562 177.245C653.733 177.416 653.818 177.667 653.818 177.997V179.165L653.642 178.685C653.855 178.152 654.186 177.731 654.634 177.421C655.082 177.112 655.615 176.957 656.234 176.957C656.863 176.957 657.381 177.107 657.786 177.405C658.191 177.704 658.474 178.163 658.634 178.781H658.41C658.623 178.216 658.975 177.773 659.466 177.453C659.957 177.123 660.522 176.957 661.162 176.957C661.759 176.957 662.25 177.075 662.634 177.309C663.029 177.544 663.322 177.901 663.514 178.381C663.706 178.851 663.802 179.448 663.802 180.173V184.045C663.802 184.376 663.711 184.632 663.53 184.813C663.359 184.984 663.114 185.069 662.794 185.069C662.474 185.069 662.229 184.984 662.058 184.813C661.887 184.632 661.802 184.376 661.802 184.045V180.253C661.802 179.656 661.701 179.219 661.498 178.941C661.306 178.664 660.975 178.525 660.506 178.525C659.983 178.525 659.573 178.712 659.274 179.085C658.975 179.448 658.826 179.955 658.826 180.605V184.045C658.826 184.376 658.741 184.632 658.57 184.813C658.399 184.984 658.154 185.069 657.834 185.069C657.514 185.069 657.263 184.984 657.082 184.813C656.911 184.632 656.826 184.376 656.826 184.045V180.253C656.826 179.656 656.725 179.219 656.522 178.941C656.33 178.664 656.005 178.525 655.546 178.525C655.023 178.525 654.613 178.712 654.314 179.085C654.015 179.448 653.866 179.955 653.866 180.605V184.045C653.866 184.728 653.53 185.069 652.858 185.069ZM669.721 185.101C668.836 185.101 668.073 184.936 667.433 184.605C666.793 184.275 666.297 183.805 665.945 183.197C665.604 182.589 665.433 181.869 665.433 181.037C665.433 180.227 665.599 179.517 665.929 178.909C666.271 178.301 666.735 177.827 667.321 177.485C667.919 177.133 668.596 176.957 669.353 176.957C669.908 176.957 670.404 177.048 670.841 177.229C671.289 177.411 671.668 177.672 671.977 178.013C672.297 178.355 672.537 178.771 672.697 179.261C672.868 179.741 672.953 180.285 672.953 180.893C672.953 181.085 672.884 181.235 672.745 181.341C672.617 181.437 672.431 181.485 672.185 181.485H667.049V180.333H671.545L671.289 180.573C671.289 180.083 671.215 179.672 671.065 179.341C670.927 179.011 670.719 178.76 670.441 178.589C670.175 178.408 669.839 178.317 669.433 178.317C668.985 178.317 668.601 178.424 668.281 178.637C667.972 178.84 667.732 179.133 667.561 179.517C667.401 179.891 667.321 180.339 667.321 180.861V180.973C667.321 181.848 667.524 182.504 667.929 182.941C668.345 183.368 668.953 183.581 669.753 183.581C670.031 183.581 670.34 183.549 670.681 183.485C671.033 183.411 671.364 183.288 671.673 183.117C671.897 182.989 672.095 182.936 672.265 182.957C672.436 182.968 672.569 183.027 672.665 183.133C672.772 183.24 672.836 183.373 672.857 183.533C672.879 183.683 672.847 183.837 672.761 183.997C672.687 184.157 672.553 184.296 672.361 184.413C671.988 184.648 671.556 184.824 671.065 184.941C670.585 185.048 670.137 185.101 669.721 185.101ZM675.561 185.069C675.23 185.069 674.974 184.984 674.793 184.813C674.622 184.632 674.537 184.376 674.537 184.045V177.997C674.537 177.667 674.622 177.416 674.793 177.245C674.964 177.075 675.204 176.989 675.513 176.989C675.822 176.989 676.062 177.075 676.233 177.245C676.404 177.416 676.489 177.667 676.489 177.997V179.005H676.329C676.478 178.365 676.772 177.88 677.209 177.549C677.646 177.219 678.228 177.021 678.953 176.957C679.177 176.936 679.353 176.995 679.481 177.133C679.62 177.261 679.7 177.464 679.721 177.741C679.742 178.008 679.678 178.227 679.529 178.397C679.39 178.557 679.177 178.653 678.889 178.685L678.537 178.717C677.886 178.781 677.396 178.984 677.065 179.325C676.734 179.656 676.569 180.125 676.569 180.733V184.045C676.569 184.376 676.484 184.632 676.313 184.813C676.142 184.984 675.892 185.069 675.561 185.069ZM684.246 185.101C683.435 185.101 682.731 184.936 682.134 184.605C681.536 184.275 681.072 183.805 680.742 183.197C680.411 182.579 680.246 181.853 680.246 181.021C680.246 180.392 680.336 179.832 680.518 179.341C680.71 178.84 680.982 178.413 681.334 178.061C681.686 177.699 682.107 177.427 682.598 177.245C683.088 177.053 683.638 176.957 684.246 176.957C685.056 176.957 685.76 177.123 686.358 177.453C686.955 177.784 687.419 178.253 687.75 178.861C688.08 179.469 688.246 180.189 688.246 181.021C688.246 181.651 688.15 182.216 687.958 182.717C687.776 183.219 687.51 183.651 687.158 184.013C686.806 184.365 686.384 184.637 685.894 184.829C685.403 185.011 684.854 185.101 684.246 185.101ZM684.246 183.581C684.64 183.581 684.987 183.485 685.286 183.293C685.584 183.101 685.814 182.819 685.974 182.445C686.144 182.061 686.23 181.587 686.23 181.021C686.23 180.168 686.048 179.533 685.686 179.117C685.323 178.691 684.843 178.477 684.246 178.477C683.851 178.477 683.504 178.573 683.206 178.765C682.907 178.947 682.672 179.229 682.502 179.613C682.342 179.987 682.262 180.456 682.262 181.021C682.262 181.864 682.443 182.504 682.806 182.941C683.168 183.368 683.648 183.581 684.246 183.581ZM697.248 185.101C696.566 185.101 695.963 184.936 695.44 184.605C694.928 184.275 694.528 183.805 694.24 183.197C693.952 182.579 693.808 181.853 693.808 181.021C693.808 180.179 693.952 179.459 694.24 178.861C694.528 178.253 694.928 177.784 695.44 177.453C695.963 177.123 696.566 176.957 697.248 176.957C697.899 176.957 698.464 177.117 698.944 177.437C699.435 177.757 699.766 178.179 699.936 178.701H699.76V174.541C699.76 174.211 699.846 173.96 700.016 173.789C700.187 173.619 700.432 173.533 700.752 173.533C701.072 173.533 701.318 173.619 701.488 173.789C701.67 173.96 701.76 174.211 701.76 174.541V184.045C701.76 184.376 701.675 184.632 701.504 184.813C701.334 184.984 701.088 185.069 700.768 185.069C700.448 185.069 700.203 184.984 700.032 184.813C699.862 184.632 699.776 184.376 699.776 184.045V182.797L699.952 183.277C699.792 183.832 699.467 184.275 698.976 184.605C698.486 184.936 697.91 185.101 697.248 185.101ZM697.808 183.581C698.203 183.581 698.55 183.485 698.848 183.293C699.147 183.101 699.376 182.819 699.536 182.445C699.707 182.061 699.792 181.587 699.792 181.021C699.792 180.168 699.611 179.533 699.248 179.117C698.886 178.691 698.406 178.477 697.808 178.477C697.414 178.477 697.067 178.573 696.768 178.765C696.47 178.947 696.235 179.229 696.064 179.613C695.904 179.987 695.824 180.456 695.824 181.021C695.824 181.864 696.006 182.504 696.368 182.941C696.731 183.368 697.211 183.581 697.808 183.581ZM704.826 185.053C704.506 185.053 704.261 184.957 704.09 184.765C703.919 184.573 703.834 184.307 703.834 183.965V178.093C703.834 177.741 703.919 177.475 704.09 177.293C704.261 177.101 704.506 177.005 704.826 177.005C705.146 177.005 705.391 177.101 705.562 177.293C705.743 177.475 705.834 177.741 705.834 178.093V183.965C705.834 184.307 705.749 184.573 705.578 184.765C705.407 184.957 705.157 185.053 704.826 185.053ZM704.826 175.517C704.453 175.517 704.159 175.427 703.946 175.245C703.743 175.053 703.642 174.792 703.642 174.461C703.642 174.12 703.743 173.859 703.946 173.677C704.159 173.496 704.453 173.405 704.826 173.405C705.21 173.405 705.503 173.496 705.706 173.677C705.909 173.859 706.01 174.12 706.01 174.461C706.01 174.792 705.909 175.053 705.706 175.245C705.503 175.427 705.21 175.517 704.826 175.517ZM715.424 185.069C715.157 185.069 714.922 185 714.72 184.861C714.528 184.723 714.368 184.509 714.24 184.221L711.696 178.317C711.6 178.083 711.562 177.864 711.584 177.661C711.616 177.459 711.712 177.299 711.872 177.181C712.042 177.053 712.272 176.989 712.56 176.989C712.805 176.989 713.002 177.048 713.152 177.165C713.301 177.272 713.434 177.48 713.552 177.789L715.712 183.181H715.232L717.456 177.773C717.573 177.475 717.706 177.272 717.856 177.165C718.016 177.048 718.229 176.989 718.496 176.989C718.73 176.989 718.917 177.053 719.056 177.181C719.194 177.299 719.28 177.459 719.312 177.661C719.344 177.853 719.306 178.067 719.2 178.301L716.608 184.221C716.49 184.509 716.33 184.723 716.128 184.861C715.936 185 715.701 185.069 715.424 185.069ZM721.685 185.053C721.365 185.053 721.12 184.957 720.949 184.765C720.779 184.573 720.693 184.307 720.693 183.965V178.093C720.693 177.741 720.779 177.475 720.949 177.293C721.12 177.101 721.365 177.005 721.685 177.005C722.005 177.005 722.251 177.101 722.421 177.293C722.603 177.475 722.693 177.741 722.693 178.093V183.965C722.693 184.307 722.608 184.573 722.437 184.765C722.267 184.957 722.016 185.053 721.685 185.053ZM721.685 175.517C721.312 175.517 721.019 175.427 720.805 175.245C720.603 175.053 720.501 174.792 720.501 174.461C720.501 174.12 720.603 173.859 720.805 173.677C721.019 173.496 721.312 173.405 721.685 173.405C722.069 173.405 722.363 173.496 722.565 173.677C722.768 173.859 722.869 174.12 722.869 174.461C722.869 174.792 722.768 175.053 722.565 175.245C722.363 175.427 722.069 175.517 721.685 175.517ZM727.635 185.101C727.177 185.101 726.691 185.053 726.179 184.957C725.667 184.861 725.209 184.696 724.803 184.461C724.633 184.355 724.51 184.232 724.435 184.093C724.371 183.944 724.345 183.8 724.355 183.661C724.377 183.512 724.43 183.384 724.515 183.277C724.611 183.171 724.729 183.101 724.867 183.069C725.017 183.037 725.177 183.064 725.347 183.149C725.774 183.352 726.174 183.496 726.547 183.581C726.921 183.656 727.289 183.693 727.651 183.693C728.163 183.693 728.542 183.608 728.787 183.437C729.043 183.256 729.171 183.021 729.171 182.733C729.171 182.488 729.086 182.301 728.915 182.173C728.755 182.035 728.51 181.933 728.179 181.869L726.579 181.565C725.918 181.437 725.411 181.197 725.059 180.845C724.718 180.483 724.547 180.019 724.547 179.453C724.547 178.941 724.686 178.499 724.963 178.125C725.251 177.752 725.646 177.464 726.147 177.261C726.649 177.059 727.225 176.957 727.875 176.957C728.345 176.957 728.782 177.011 729.187 177.117C729.603 177.213 730.003 177.368 730.387 177.581C730.547 177.667 730.654 177.779 730.707 177.917C730.771 178.056 730.787 178.2 730.755 178.349C730.723 178.488 730.659 178.616 730.563 178.733C730.467 178.84 730.345 178.909 730.195 178.941C730.057 178.963 729.897 178.931 729.715 178.845C729.385 178.675 729.065 178.552 728.755 178.477C728.457 178.403 728.169 178.365 727.891 178.365C727.369 178.365 726.979 178.456 726.723 178.637C726.478 178.819 726.355 179.059 726.355 179.357C726.355 179.581 726.43 179.768 726.579 179.917C726.729 180.067 726.958 180.168 727.267 180.221L728.867 180.525C729.561 180.653 730.083 180.888 730.435 181.229C730.798 181.571 730.979 182.029 730.979 182.605C730.979 183.384 730.675 183.997 730.067 184.445C729.459 184.883 728.649 185.101 727.635 185.101ZM733.576 185.053C733.256 185.053 733.011 184.957 732.84 184.765C732.669 184.573 732.584 184.307 732.584 183.965V178.093C732.584 177.741 732.669 177.475 732.84 177.293C733.011 177.101 733.256 177.005 733.576 177.005C733.896 177.005 734.141 177.101 734.312 177.293C734.493 177.475 734.584 177.741 734.584 178.093V183.965C734.584 184.307 734.499 184.573 734.328 184.765C734.157 184.957 733.907 185.053 733.576 185.053ZM733.576 175.517C733.203 175.517 732.909 175.427 732.696 175.245C732.493 175.053 732.392 174.792 732.392 174.461C732.392 174.12 732.493 173.859 732.696 173.677C732.909 173.496 733.203 173.405 733.576 173.405C733.96 173.405 734.253 173.496 734.456 173.677C734.659 173.859 734.76 174.12 734.76 174.461C734.76 174.792 734.659 175.053 734.456 175.245C734.253 175.427 733.96 175.517 733.576 175.517ZM740.246 185.101C739.553 185.101 738.971 184.984 738.502 184.749C738.043 184.515 737.702 184.173 737.478 183.725C737.254 183.267 737.142 182.701 737.142 182.029V178.621H736.31C736.054 178.621 735.857 178.557 735.718 178.429C735.579 178.291 735.51 178.104 735.51 177.869C735.51 177.624 735.579 177.437 735.718 177.309C735.857 177.181 736.054 177.117 736.31 177.117H737.142V175.661C737.142 175.331 737.227 175.08 737.398 174.909C737.579 174.739 737.83 174.653 738.15 174.653C738.47 174.653 738.715 174.739 738.886 174.909C739.057 175.08 739.142 175.331 739.142 175.661V177.117H740.838C741.094 177.117 741.291 177.181 741.43 177.309C741.569 177.437 741.638 177.624 741.638 177.869C741.638 178.104 741.569 178.291 741.43 178.429C741.291 178.557 741.094 178.621 740.838 178.621H739.142V181.917C739.142 182.429 739.254 182.813 739.478 183.069C739.702 183.325 740.065 183.453 740.566 183.453C740.747 183.453 740.907 183.437 741.046 183.405C741.185 183.373 741.307 183.352 741.414 183.341C741.542 183.331 741.649 183.373 741.734 183.469C741.819 183.555 741.862 183.736 741.862 184.013C741.862 184.227 741.825 184.419 741.75 184.589C741.686 184.749 741.563 184.861 741.382 184.925C741.243 184.968 741.062 185.005 740.838 185.037C740.614 185.08 740.417 185.101 740.246 185.101ZM745.379 185.101C744.813 185.101 744.307 184.995 743.859 184.781C743.421 184.557 743.075 184.259 742.819 183.885C742.573 183.512 742.451 183.091 742.451 182.621C742.451 182.045 742.6 181.592 742.899 181.261C743.197 180.92 743.683 180.675 744.355 180.525C745.027 180.376 745.928 180.301 747.059 180.301H747.859V181.453H747.075C746.413 181.453 745.885 181.485 745.491 181.549C745.096 181.613 744.813 181.725 744.643 181.885C744.483 182.035 744.403 182.248 744.403 182.525C744.403 182.877 744.525 183.165 744.771 183.389C745.016 183.613 745.357 183.725 745.795 183.725C746.147 183.725 746.456 183.645 746.723 183.485C747 183.315 747.219 183.085 747.379 182.797C747.539 182.509 747.619 182.179 747.619 181.805V179.965C747.619 179.432 747.501 179.048 747.267 178.813C747.032 178.579 746.637 178.461 746.083 178.461C745.773 178.461 745.437 178.499 745.075 178.573C744.723 178.648 744.349 178.776 743.955 178.957C743.752 179.053 743.571 179.08 743.411 179.037C743.261 178.995 743.144 178.909 743.059 178.781C742.973 178.643 742.931 178.493 742.931 178.333C742.931 178.173 742.973 178.019 743.059 177.869C743.144 177.709 743.288 177.592 743.491 177.517C743.981 177.315 744.451 177.171 744.899 177.085C745.357 177 745.773 176.957 746.147 176.957C746.915 176.957 747.544 177.075 748.035 177.309C748.536 177.544 748.909 177.901 749.155 178.381C749.4 178.851 749.523 179.459 749.523 180.205V184.045C749.523 184.376 749.443 184.632 749.283 184.813C749.123 184.984 748.893 185.069 748.595 185.069C748.296 185.069 748.061 184.984 747.891 184.813C747.731 184.632 747.651 184.376 747.651 184.045V183.277H747.779C747.704 183.651 747.555 183.976 747.331 184.253C747.117 184.52 746.845 184.728 746.515 184.877C746.184 185.027 745.805 185.101 745.379 185.101ZM755.137 185.101C754.443 185.101 753.862 184.984 753.393 184.749C752.934 184.515 752.593 184.173 752.369 183.725C752.145 183.267 752.033 182.701 752.033 182.029V178.621H751.201C750.945 178.621 750.747 178.557 750.609 178.429C750.47 178.291 750.401 178.104 750.401 177.869C750.401 177.624 750.47 177.437 750.609 177.309C750.747 177.181 750.945 177.117 751.201 177.117H752.033V175.661C752.033 175.331 752.118 175.08 752.289 174.909C752.47 174.739 752.721 174.653 753.041 174.653C753.361 174.653 753.606 174.739 753.777 174.909C753.947 175.08 754.033 175.331 754.033 175.661V177.117H755.729C755.985 177.117 756.182 177.181 756.321 177.309C756.459 177.437 756.529 177.624 756.529 177.869C756.529 178.104 756.459 178.291 756.321 178.429C756.182 178.557 755.985 178.621 755.729 178.621H754.033V181.917C754.033 182.429 754.145 182.813 754.369 183.069C754.593 183.325 754.955 183.453 755.457 183.453C755.638 183.453 755.798 183.437 755.937 183.405C756.075 183.373 756.198 183.352 756.305 183.341C756.433 183.331 756.539 183.373 756.625 183.469C756.71 183.555 756.753 183.736 756.753 184.013C756.753 184.227 756.715 184.419 756.641 184.589C756.577 184.749 756.454 184.861 756.273 184.925C756.134 184.968 755.953 185.005 755.729 185.037C755.505 185.08 755.307 185.101 755.137 185.101ZM761.183 185.101C760.373 185.101 759.669 184.936 759.071 184.605C758.474 184.275 758.01 183.805 757.679 183.197C757.349 182.579 757.183 181.853 757.183 181.021C757.183 180.392 757.274 179.832 757.455 179.341C757.647 178.84 757.919 178.413 758.271 178.061C758.623 177.699 759.045 177.427 759.535 177.245C760.026 177.053 760.575 176.957 761.183 176.957C761.994 176.957 762.698 177.123 763.295 177.453C763.893 177.784 764.357 178.253 764.687 178.861C765.018 179.469 765.183 180.189 765.183 181.021C765.183 181.651 765.087 182.216 764.895 182.717C764.714 183.219 764.447 183.651 764.095 184.013C763.743 184.365 763.322 184.637 762.831 184.829C762.341 185.011 761.791 185.101 761.183 185.101ZM761.183 183.581C761.578 183.581 761.925 183.485 762.223 183.293C762.522 183.101 762.751 182.819 762.911 182.445C763.082 182.061 763.167 181.587 763.167 181.021C763.167 180.168 762.986 179.533 762.623 179.117C762.261 178.691 761.781 178.477 761.183 178.477C760.789 178.477 760.442 178.573 760.143 178.765C759.845 178.947 759.61 179.229 759.439 179.613C759.279 179.987 759.199 180.456 759.199 181.021C759.199 181.864 759.381 182.504 759.743 182.941C760.106 183.368 760.586 183.581 761.183 183.581ZM767.858 185.069C767.527 185.069 767.271 184.984 767.09 184.813C766.919 184.632 766.834 184.376 766.834 184.045V177.997C766.834 177.667 766.919 177.416 767.09 177.245C767.261 177.075 767.501 176.989 767.81 176.989C768.119 176.989 768.359 177.075 768.53 177.245C768.701 177.416 768.786 177.667 768.786 177.997V179.005H768.626C768.775 178.365 769.069 177.88 769.506 177.549C769.943 177.219 770.525 177.021 771.25 176.957C771.474 176.936 771.65 176.995 771.778 177.133C771.917 177.261 771.997 177.464 772.018 177.741C772.039 178.008 771.975 178.227 771.826 178.397C771.687 178.557 771.474 178.653 771.186 178.685L770.834 178.717C770.183 178.781 769.693 178.984 769.362 179.325C769.031 179.656 768.866 180.125 768.866 180.733V184.045C768.866 184.376 768.781 184.632 768.61 184.813C768.439 184.984 768.189 185.069 767.858 185.069ZM774.092 185.053C773.772 185.053 773.526 184.957 773.356 184.765C773.185 184.573 773.1 184.307 773.1 183.965V178.093C773.1 177.741 773.185 177.475 773.356 177.293C773.526 177.101 773.772 177.005 774.092 177.005C774.412 177.005 774.657 177.101 774.828 177.293C775.009 177.475 775.1 177.741 775.1 178.093V183.965C775.1 184.307 775.014 184.573 774.844 184.765C774.673 184.957 774.422 185.053 774.092 185.053ZM774.092 175.517C773.718 175.517 773.425 175.427 773.212 175.245C773.009 175.053 772.908 174.792 772.908 174.461C772.908 174.12 773.009 173.859 773.212 173.677C773.425 173.496 773.718 173.405 774.092 173.405C774.476 173.405 774.769 173.496 774.972 173.677C775.174 173.859 775.276 174.12 775.276 174.461C775.276 174.792 775.174 175.053 774.972 175.245C774.769 175.427 774.476 175.517 774.092 175.517Z" fill="#FBFBFD"/>
<rect x="605.099" y="201.191" width="195.5" height="41.5" rx="8.75" fill="#FBFBFD"/>
<path d="M625.721 226.941V225.549H628.281V217.581L626.281 218.829L625.609 217.597L628.761 215.661H629.929V225.549H632.329V226.941H625.721ZM637.822 226.941L642.846 215.661H644.222L649.262 226.941H647.566L646.382 224.189H640.67L639.502 226.941H637.822ZM643.518 217.501L641.262 222.845H645.822L643.55 217.501H643.518ZM653.461 227.085C652.778 227.085 652.175 226.925 651.653 226.605C651.141 226.275 650.741 225.805 650.453 225.197C650.165 224.589 650.021 223.869 650.021 223.037C650.021 222.205 650.165 221.491 650.453 220.893C650.741 220.285 651.141 219.816 651.653 219.485C652.165 219.155 652.767 218.989 653.461 218.989C654.047 218.989 654.57 219.117 655.029 219.373C655.487 219.629 655.829 219.976 656.053 220.413V215.661H657.669V226.941H656.085V225.581C655.861 226.051 655.514 226.419 655.045 226.685C654.586 226.952 654.058 227.085 653.461 227.085ZM653.877 225.837C654.538 225.837 655.071 225.597 655.477 225.117C655.882 224.637 656.085 223.944 656.085 223.037C656.085 222.131 655.882 221.443 655.477 220.973C655.071 220.493 654.538 220.253 653.877 220.253C653.205 220.253 652.666 220.493 652.261 220.973C651.855 221.443 651.653 222.131 651.653 223.037C651.653 223.944 651.855 224.637 652.261 225.117C652.666 225.597 653.205 225.837 653.877 225.837ZM662.722 227.085C660.834 227.085 659.89 226.035 659.89 223.933V219.133H661.506V223.949C661.506 224.579 661.634 225.043 661.89 225.341C662.146 225.64 662.551 225.789 663.106 225.789C663.714 225.789 664.204 225.587 664.578 225.181C664.962 224.776 665.154 224.232 665.154 223.549V219.133H666.77V226.941H665.202V225.693C664.946 226.152 664.604 226.499 664.178 226.733C663.751 226.968 663.266 227.085 662.722 227.085ZM671.591 227.085C670.738 227.085 670.098 226.845 669.671 226.365C669.255 225.885 669.047 225.181 669.047 224.253V215.661H670.663V224.157C670.663 225.213 671.095 225.741 671.959 225.741C672.087 225.741 672.204 225.736 672.311 225.725C672.428 225.715 672.546 225.693 672.663 225.661L672.631 226.957C672.268 227.043 671.922 227.085 671.591 227.085ZM677.094 227.085C676.113 227.085 675.382 226.835 674.902 226.333C674.422 225.832 674.182 225.107 674.182 224.157V220.381H672.662V219.133H674.182V216.781H675.798V219.133H678.214V220.381H675.798V224.029C675.798 224.595 675.915 225.021 676.15 225.309C676.395 225.597 676.79 225.741 677.334 225.741C677.505 225.741 677.67 225.725 677.83 225.693C677.99 225.651 678.15 225.603 678.31 225.549L678.566 226.765C678.406 226.861 678.182 226.936 677.894 226.989C677.617 227.053 677.35 227.085 677.094 227.085ZM682.924 227.085C682.134 227.085 681.452 226.92 680.876 226.589C680.3 226.259 679.852 225.795 679.532 225.197C679.222 224.589 679.068 223.869 679.068 223.037C679.068 222.205 679.222 221.491 679.532 220.893C679.852 220.285 680.3 219.816 680.876 219.485C681.452 219.155 682.134 218.989 682.924 218.989C683.692 218.989 684.364 219.155 684.94 219.485C685.516 219.816 685.964 220.285 686.284 220.893C686.604 221.491 686.764 222.205 686.764 223.037C686.764 223.869 686.604 224.589 686.284 225.197C685.964 225.795 685.516 226.259 684.94 226.589C684.364 226.92 683.692 227.085 682.924 227.085ZM682.924 225.837C683.585 225.837 684.118 225.597 684.524 225.117C684.929 224.637 685.132 223.944 685.132 223.037C685.132 222.131 684.929 221.443 684.524 220.973C684.118 220.493 683.585 220.253 682.924 220.253C682.252 220.253 681.713 220.493 681.308 220.973C680.902 221.443 680.7 222.131 680.7 223.037C680.7 223.944 680.902 224.637 681.308 225.117C681.713 225.597 682.252 225.837 682.924 225.837Z" fill="black"/>
<mask id="mask0_1296_9952" style="mask-type:alpha" maskUnits="userSpaceOnUse" x="767" y="209" width="25" height="25">
<rect x="767.849" y="209.941" width="24" height="24" fill="#D9D9D9"/>
</mask>
<g mask="url(#mask0_1296_9952)">
<path d="M779.849 225.316L773.849 219.316L775.249 217.916L779.849 222.516L784.449 217.916L785.849 219.316L779.849 225.316Z" fill="#303030"/>
</g>
<rect x="605.099" y="201.191" width="195.5" height="41.5" rx="8.75" stroke="#191715" stroke-width="2.5"/>
<rect x="830.849" y="200.941" width="262" height="42" rx="9" fill="#A9D2DC"/>
<path d="M914.693 227.069C914.437 227.069 914.229 227.011 914.069 226.893C913.919 226.776 913.829 226.621 913.797 226.429C913.765 226.227 913.802 226.003 913.909 225.757L918.133 216.397C918.271 216.088 918.437 215.869 918.629 215.741C918.831 215.603 919.061 215.533 919.317 215.533C919.562 215.533 919.781 215.603 919.973 215.741C920.175 215.869 920.346 216.088 920.485 216.397L924.725 225.757C924.842 226.003 924.885 226.227 924.853 226.429C924.821 226.632 924.73 226.792 924.581 226.909C924.431 227.016 924.234 227.069 923.989 227.069C923.69 227.069 923.455 227 923.285 226.861C923.125 226.712 922.981 226.488 922.853 226.189L921.813 223.773L922.677 224.333H915.925L916.789 223.773L915.765 226.189C915.626 226.499 915.482 226.723 915.333 226.861C915.183 227 914.97 227.069 914.693 227.069ZM919.285 217.885L917.045 223.213L916.629 222.701H921.973L921.573 223.213L919.317 217.885H919.285ZM929.833 227.101C929.011 227.101 928.297 226.936 927.689 226.605C927.081 226.264 926.611 225.784 926.281 225.165C925.95 224.547 925.785 223.821 925.785 222.989C925.785 222.36 925.875 221.8 926.057 221.309C926.249 220.808 926.521 220.387 926.873 220.045C927.225 219.693 927.651 219.427 928.153 219.245C928.654 219.053 929.214 218.957 929.833 218.957C930.185 218.957 930.563 219.005 930.969 219.101C931.385 219.197 931.774 219.357 932.137 219.581C932.307 219.688 932.419 219.816 932.473 219.965C932.526 220.115 932.537 220.269 932.505 220.429C932.473 220.579 932.403 220.712 932.297 220.829C932.201 220.936 932.078 221.005 931.929 221.037C931.779 221.059 931.614 221.021 931.433 220.925C931.198 220.787 930.958 220.685 930.713 220.621C930.467 220.547 930.233 220.509 930.009 220.509C929.657 220.509 929.347 220.568 929.081 220.685C928.814 220.792 928.585 220.952 928.393 221.165C928.211 221.368 928.073 221.624 927.977 221.933C927.881 222.243 927.833 222.6 927.833 223.005C927.833 223.795 928.019 224.419 928.393 224.877C928.777 225.325 929.315 225.549 930.009 225.549C930.233 225.549 930.462 225.517 930.697 225.453C930.942 225.389 931.187 225.288 931.433 225.149C931.614 225.053 931.774 225.021 931.913 225.053C932.062 225.085 932.185 225.16 932.281 225.277C932.377 225.384 932.435 225.517 932.457 225.677C932.478 225.827 932.457 225.976 932.393 226.125C932.339 226.275 932.233 226.397 932.073 226.493C931.721 226.707 931.347 226.861 930.953 226.957C930.558 227.053 930.185 227.101 929.833 227.101ZM940.119 229.949C939.799 229.949 939.554 229.864 939.383 229.693C939.213 229.523 939.127 229.272 939.127 228.941V225.341H939.303C939.133 225.864 938.802 226.291 938.311 226.621C937.831 226.941 937.266 227.101 936.615 227.101C935.933 227.101 935.33 226.936 934.807 226.605C934.295 226.275 933.895 225.805 933.607 225.197C933.319 224.579 933.175 223.853 933.175 223.021C933.175 222.179 933.319 221.459 933.607 220.861C933.895 220.253 934.295 219.784 934.807 219.453C935.33 219.123 935.933 218.957 936.615 218.957C937.277 218.957 937.853 219.123 938.343 219.453C938.834 219.784 939.159 220.221 939.319 220.765L939.143 221.245V219.997C939.143 219.667 939.229 219.416 939.399 219.245C939.57 219.075 939.815 218.989 940.135 218.989C940.455 218.989 940.701 219.075 940.871 219.245C941.042 219.416 941.127 219.667 941.127 219.997V228.941C941.127 229.272 941.037 229.523 940.855 229.693C940.685 229.864 940.439 229.949 940.119 229.949ZM937.175 225.581C937.57 225.581 937.917 225.485 938.215 225.293C938.514 225.101 938.743 224.819 938.903 224.445C939.074 224.061 939.159 223.587 939.159 223.021C939.159 222.168 938.978 221.533 938.615 221.117C938.253 220.691 937.773 220.477 937.175 220.477C936.781 220.477 936.434 220.573 936.135 220.765C935.837 220.947 935.602 221.229 935.431 221.613C935.271 221.987 935.191 222.456 935.191 223.021C935.191 223.864 935.373 224.504 935.735 224.941C936.098 225.368 936.578 225.581 937.175 225.581ZM946.033 227.101C945.382 227.101 944.844 226.984 944.417 226.749C943.99 226.504 943.67 226.141 943.457 225.661C943.254 225.181 943.153 224.584 943.153 223.869V219.997C943.153 219.656 943.238 219.405 943.409 219.245C943.58 219.075 943.825 218.989 944.145 218.989C944.465 218.989 944.71 219.075 944.881 219.245C945.062 219.405 945.153 219.656 945.153 219.997V223.901C945.153 224.456 945.265 224.867 945.489 225.133C945.713 225.4 946.07 225.533 946.561 225.533C947.094 225.533 947.532 225.352 947.873 224.989C948.214 224.616 948.385 224.125 948.385 223.517V219.997C948.385 219.656 948.47 219.405 948.641 219.245C948.812 219.075 949.057 218.989 949.377 218.989C949.697 218.989 949.942 219.075 950.113 219.245C950.294 219.405 950.385 219.656 950.385 219.997V226.045C950.385 226.728 950.06 227.069 949.409 227.069C949.1 227.069 948.86 226.984 948.689 226.813C948.518 226.632 948.433 226.376 948.433 226.045V224.829L948.657 225.309C948.433 225.885 948.092 226.328 947.633 226.637C947.185 226.947 946.652 227.101 946.033 227.101ZM953.459 227.053C953.139 227.053 952.893 226.957 952.723 226.765C952.552 226.573 952.467 226.307 952.467 225.965V220.093C952.467 219.741 952.552 219.475 952.723 219.293C952.893 219.101 953.139 219.005 953.459 219.005C953.779 219.005 954.024 219.101 954.195 219.293C954.376 219.475 954.467 219.741 954.467 220.093V225.965C954.467 226.307 954.381 226.573 954.211 226.765C954.04 226.957 953.789 227.053 953.459 227.053ZM953.459 217.517C953.085 217.517 952.792 217.427 952.579 217.245C952.376 217.053 952.275 216.792 952.275 216.461C952.275 216.12 952.376 215.859 952.579 215.677C952.792 215.496 953.085 215.405 953.459 215.405C953.843 215.405 954.136 215.496 954.339 215.677C954.541 215.859 954.643 216.12 954.643 216.461C954.643 216.792 954.541 217.053 954.339 217.245C954.136 217.427 953.843 217.517 953.459 217.517ZM959.409 227.101C958.95 227.101 958.465 227.053 957.953 226.957C957.441 226.861 956.982 226.696 956.577 226.461C956.406 226.355 956.284 226.232 956.209 226.093C956.145 225.944 956.118 225.8 956.129 225.661C956.15 225.512 956.204 225.384 956.289 225.277C956.385 225.171 956.502 225.101 956.641 225.069C956.79 225.037 956.95 225.064 957.121 225.149C957.548 225.352 957.948 225.496 958.321 225.581C958.694 225.656 959.062 225.693 959.425 225.693C959.937 225.693 960.316 225.608 960.561 225.437C960.817 225.256 960.945 225.021 960.945 224.733C960.945 224.488 960.86 224.301 960.689 224.173C960.529 224.035 960.284 223.933 959.953 223.869L958.353 223.565C957.692 223.437 957.185 223.197 956.833 222.845C956.492 222.483 956.321 222.019 956.321 221.453C956.321 220.941 956.46 220.499 956.737 220.125C957.025 219.752 957.42 219.464 957.921 219.261C958.422 219.059 958.998 218.957 959.649 218.957C960.118 218.957 960.556 219.011 960.961 219.117C961.377 219.213 961.777 219.368 962.161 219.581C962.321 219.667 962.428 219.779 962.481 219.917C962.545 220.056 962.561 220.2 962.529 220.349C962.497 220.488 962.433 220.616 962.337 220.733C962.241 220.84 962.118 220.909 961.969 220.941C961.83 220.963 961.67 220.931 961.489 220.845C961.158 220.675 960.838 220.552 960.529 220.477C960.23 220.403 959.942 220.365 959.665 220.365C959.142 220.365 958.753 220.456 958.497 220.637C958.252 220.819 958.129 221.059 958.129 221.357C958.129 221.581 958.204 221.768 958.353 221.917C958.502 222.067 958.732 222.168 959.041 222.221L960.641 222.525C961.334 222.653 961.857 222.888 962.209 223.229C962.572 223.571 962.753 224.029 962.753 224.605C962.753 225.384 962.449 225.997 961.841 226.445C961.233 226.883 960.422 227.101 959.409 227.101ZM967.863 227.101C967.17 227.101 966.589 226.984 966.119 226.749C965.661 226.515 965.319 226.173 965.095 225.725C964.871 225.267 964.759 224.701 964.759 224.029V220.621H963.927C963.671 220.621 963.474 220.557 963.335 220.429C963.197 220.291 963.127 220.104 963.127 219.869C963.127 219.624 963.197 219.437 963.335 219.309C963.474 219.181 963.671 219.117 963.927 219.117H964.759V217.661C964.759 217.331 964.845 217.08 965.015 216.909C965.197 216.739 965.447 216.653 965.767 216.653C966.087 216.653 966.333 216.739 966.503 216.909C966.674 217.08 966.759 217.331 966.759 217.661V219.117H968.455C968.711 219.117 968.909 219.181 969.047 219.309C969.186 219.437 969.255 219.624 969.255 219.869C969.255 220.104 969.186 220.291 969.047 220.429C968.909 220.557 968.711 220.621 968.455 220.621H966.759V223.917C966.759 224.429 966.871 224.813 967.095 225.069C967.319 225.325 967.682 225.453 968.183 225.453C968.365 225.453 968.525 225.437 968.663 225.405C968.802 225.373 968.925 225.352 969.031 225.341C969.159 225.331 969.266 225.373 969.351 225.469C969.437 225.555 969.479 225.736 969.479 226.013C969.479 226.227 969.442 226.419 969.367 226.589C969.303 226.749 969.181 226.861 968.999 226.925C968.861 226.968 968.679 227.005 968.455 227.037C968.231 227.08 968.034 227.101 967.863 227.101ZM972.996 227.101C972.431 227.101 971.924 226.995 971.476 226.781C971.039 226.557 970.692 226.259 970.436 225.885C970.191 225.512 970.068 225.091 970.068 224.621C970.068 224.045 970.217 223.592 970.516 223.261C970.815 222.92 971.3 222.675 971.972 222.525C972.644 222.376 973.545 222.301 974.676 222.301H975.476V223.453H974.692C974.031 223.453 973.503 223.485 973.108 223.549C972.713 223.613 972.431 223.725 972.26 223.885C972.1 224.035 972.02 224.248 972.02 224.525C972.02 224.877 972.143 225.165 972.388 225.389C972.633 225.613 972.975 225.725 973.412 225.725C973.764 225.725 974.073 225.645 974.34 225.485C974.617 225.315 974.836 225.085 974.996 224.797C975.156 224.509 975.236 224.179 975.236 223.805V221.965C975.236 221.432 975.119 221.048 974.884 220.813C974.649 220.579 974.255 220.461 973.7 220.461C973.391 220.461 973.055 220.499 972.692 220.573C972.34 220.648 971.967 220.776 971.572 220.957C971.369 221.053 971.188 221.08 971.028 221.037C970.879 220.995 970.761 220.909 970.676 220.781C970.591 220.643 970.548 220.493 970.548 220.333C970.548 220.173 970.591 220.019 970.676 219.869C970.761 219.709 970.905 219.592 971.108 219.517C971.599 219.315 972.068 219.171 972.516 219.085C972.975 219 973.391 218.957 973.764 218.957C974.532 218.957 975.161 219.075 975.652 219.309C976.153 219.544 976.527 219.901 976.772 220.381C977.017 220.851 977.14 221.459 977.14 222.205V226.045C977.14 226.376 977.06 226.632 976.9 226.813C976.74 226.984 976.511 227.069 976.212 227.069C975.913 227.069 975.679 226.984 975.508 226.813C975.348 226.632 975.268 226.376 975.268 226.045V225.277H975.396C975.321 225.651 975.172 225.976 974.948 226.253C974.735 226.52 974.463 226.728 974.132 226.877C973.801 227.027 973.423 227.101 972.996 227.101ZM988.762 227.101C987.674 227.101 986.719 226.861 985.898 226.381C985.087 225.901 984.458 225.229 984.01 224.365C983.562 223.491 983.338 222.467 983.338 221.293C983.338 220.408 983.466 219.613 983.722 218.909C983.978 218.195 984.34 217.587 984.81 217.085C985.29 216.573 985.86 216.184 986.522 215.917C987.194 215.64 987.94 215.501 988.762 215.501C989.86 215.501 990.815 215.741 991.626 216.221C992.436 216.691 993.066 217.357 993.514 218.221C993.962 219.085 994.186 220.104 994.186 221.277C994.186 222.163 994.058 222.963 993.802 223.677C993.546 224.392 993.178 225.005 992.698 225.517C992.228 226.029 991.658 226.424 990.986 226.701C990.324 226.968 989.583 227.101 988.762 227.101ZM988.762 225.341C989.455 225.341 990.042 225.181 990.522 224.861C991.012 224.541 991.386 224.077 991.642 223.469C991.908 222.861 992.042 222.136 992.042 221.293C992.042 220.013 991.754 219.021 991.178 218.317C990.612 217.613 989.807 217.261 988.762 217.261C988.079 217.261 987.492 217.421 987.002 217.741C986.511 218.051 986.132 218.509 985.866 219.117C985.61 219.715 985.482 220.44 985.482 221.293C985.482 222.563 985.77 223.555 986.346 224.269C986.922 224.984 987.727 225.341 988.762 225.341ZM997.1 227.069C996.769 227.069 996.513 226.984 996.332 226.813C996.161 226.632 996.076 226.376 996.076 226.045V219.997C996.076 219.667 996.161 219.416 996.332 219.245C996.503 219.075 996.743 218.989 997.052 218.989C997.361 218.989 997.601 219.075 997.772 219.245C997.943 219.416 998.028 219.667 998.028 219.997V221.005H997.868C998.017 220.365 998.311 219.88 998.748 219.549C999.185 219.219 999.767 219.021 1000.49 218.957C1000.72 218.936 1000.89 218.995 1001.02 219.133C1001.16 219.261 1001.24 219.464 1001.26 219.741C1001.28 220.008 1001.22 220.227 1001.07 220.397C1000.93 220.557 1000.72 220.653 1000.43 220.685L1000.08 220.717C999.425 220.781 998.935 220.984 998.604 221.325C998.273 221.656 998.108 222.125 998.108 222.733V226.045C998.108 226.376 998.023 226.632 997.852 226.813C997.681 226.984 997.431 227.069 997.1 227.069ZM1004.84 227.101C1004.27 227.101 1003.77 226.995 1003.32 226.781C1002.88 226.557 1002.54 226.259 1002.28 225.885C1002.03 225.512 1001.91 225.091 1001.91 224.621C1001.91 224.045 1002.06 223.592 1002.36 223.261C1002.66 222.92 1003.14 222.675 1003.82 222.525C1004.49 222.376 1005.39 222.301 1006.52 222.301H1007.32V223.453H1006.54C1005.87 223.453 1005.35 223.485 1004.95 223.549C1004.56 223.613 1004.27 223.725 1004.1 223.885C1003.94 224.035 1003.86 224.248 1003.86 224.525C1003.86 224.877 1003.99 225.165 1004.23 225.389C1004.48 225.613 1004.82 225.725 1005.26 225.725C1005.61 225.725 1005.92 225.645 1006.18 225.485C1006.46 225.315 1006.68 225.085 1006.84 224.797C1007 224.509 1007.08 224.179 1007.08 223.805V221.965C1007.08 221.432 1006.96 221.048 1006.73 220.813C1006.49 220.579 1006.1 220.461 1005.54 220.461C1005.23 220.461 1004.9 220.499 1004.54 220.573C1004.18 220.648 1003.81 220.776 1003.42 220.957C1003.21 221.053 1003.03 221.08 1002.87 221.037C1002.72 220.995 1002.6 220.909 1002.52 220.781C1002.43 220.643 1002.39 220.493 1002.39 220.333C1002.39 220.173 1002.43 220.019 1002.52 219.869C1002.6 219.709 1002.75 219.592 1002.95 219.517C1003.44 219.315 1003.91 219.171 1004.36 219.085C1004.82 219 1005.23 218.957 1005.61 218.957C1006.38 218.957 1007 219.075 1007.5 219.309C1008 219.544 1008.37 219.901 1008.62 220.381C1008.86 220.851 1008.98 221.459 1008.98 222.205V226.045C1008.98 226.376 1008.9 226.632 1008.74 226.813C1008.58 226.984 1008.35 227.069 1008.06 227.069C1007.76 227.069 1007.52 226.984 1007.35 226.813C1007.19 226.632 1007.11 226.376 1007.11 226.045V225.277H1007.24C1007.16 225.651 1007.02 225.976 1006.79 226.253C1006.58 226.52 1006.31 226.728 1005.98 226.877C1005.64 227.027 1005.27 227.101 1004.84 227.101Z" fill="black"/>
<rect x="830.849" y="200.941" width="262" height="42" rx="9" stroke="#191715" stroke-width="2"/>
</svg>
