<svg width="41" height="40" viewBox="0 0 41 40" fill="none" xmlns="http://www.w3.org/2000/svg">
<path d="M13.9414 32.941C16.408 33.0219 18.8661 32.6173 21.1704 31.7512C23.4748 30.8851 25.5786 29.575 27.3576 27.8984C29.1365 26.2217 30.5546 24.2126 31.5279 21.9896C32.5012 19.7666 33.01 17.375 33.0242 14.956C34.1546 13.5849 34.9939 12.0062 35.4929 10.3126C35.5302 10.1788 35.5272 10.0373 35.4843 9.90513C35.4414 9.77296 35.3604 9.65576 35.2511 9.56765C35.1418 9.47954 35.0089 9.42427 34.8683 9.4085C34.7277 9.39273 34.5855 9.41713 34.4587 9.47877C33.8674 9.75779 33.2016 9.84791 32.5552 9.73645C31.9088 9.62499 31.3144 9.31756 30.8557 8.85747C30.2701 8.22894 29.5618 7.72201 28.7727 7.36672C27.9836 7.01143 27.1297 6.815 26.2617 6.78908C25.3938 6.76316 24.5293 6.90828 23.7196 7.21582C22.9099 7.52337 22.1714 7.98709 21.5478 8.57952C20.6941 9.38992 20.0688 10.403 19.7327 11.5203C19.3965 12.6377 19.361 13.8212 19.6295 14.956C14.0415 15.283 10.2049 12.6834 7.13567 9.11907C7.04346 9.01672 6.92284 8.9429 6.78855 8.90663C6.65425 8.87036 6.51208 8.8732 6.3794 8.91482C6.24673 8.95643 6.12929 9.03502 6.04142 9.14097C5.95355 9.24692 5.89907 9.37566 5.88461 9.51147C5.2999 12.6906 5.72169 15.969 7.09333 18.9063C8.46497 21.8436 10.7208 24.2992 13.5578 25.9432C11.6555 28.0815 8.98424 29.417 6.10146 29.671C5.94702 29.6961 5.80445 29.7679 5.6937 29.8764C5.58296 29.9848 5.50958 30.1245 5.48385 30.2759C5.45811 30.4273 5.4813 30.5827 5.55017 30.7205C5.61904 30.8583 5.73014 30.9716 5.86793 31.0444C8.37592 32.2729 11.1378 32.9217 13.9414 32.941Z" fill="#191715"/>
</svg>
